<?xml version="1.0" encoding="UTF-8" standalone="no"?>
<!DOCTYPE svg PUBLIC "-//W3C//DTD SVG 1.1//EN"
 "http://www.w3.org/Graphics/SVG/1.1/DTD/svg11.dtd">
<!-- Generated by graphviz version 2.43.0 (0)
 -->
<!-- Title: /home/aightech/dev/kistler_DAQ/lib/com_client/lib/strANSIseq/include/strANSIseq.hpp Pages: 1 -->
<svg width="737pt" height="473pt"
 viewBox="0.00 0.00 737.00 473.00" xmlns="http://www.w3.org/2000/svg" xmlns:xlink="http://www.w3.org/1999/xlink">
<g id="graph0" class="graph" transform="scale(1 1) rotate(0) translate(4 469)">
<title>/home/aightech/dev/kistler_DAQ/lib/com_client/lib/strANSIseq/include/strANSIseq.hpp</title>
<!-- Node1 -->
<g id="node1" class="node">
<title>Node1</title>
<g id="a_node1"><a xlink:title=" ">
<polygon fill="#bfbfbf" stroke="black" points="465,-412.5 465,-464.5 597,-464.5 597,-412.5 465,-412.5"/>
<text text-anchor="start" x="473" y="-452.5" font-family="Helvetica,sans-Serif" font-size="10.00">/home/aightech/dev</text>
<text text-anchor="start" x="473" y="-441.5" font-family="Helvetica,sans-Serif" font-size="10.00">/kistler_DAQ/lib/com</text>
<text text-anchor="start" x="473" y="-430.5" font-family="Helvetica,sans-Serif" font-size="10.00">_client/lib/strANSIseq</text>
<text text-anchor="middle" x="531" y="-419.5" font-family="Helvetica,sans-Serif" font-size="10.00">/include/strANSIseq.hpp</text>
</a>
</g>
</g>
<!-- Node2 -->
<g id="node2" class="node">
<title>Node2</title>
<g id="a_node2"><a xlink:href="../../dc/d13/com__client_8hpp.html" target="_top" xlink:title=" ">
<polygon fill="none" stroke="black" points="289,-329 289,-370 453,-370 453,-329 289,-329"/>
<text text-anchor="start" x="297" y="-358" font-family="Helvetica,sans-Serif" font-size="10.00">/home/aightech/dev</text>
<text text-anchor="start" x="297" y="-347" font-family="Helvetica,sans-Serif" font-size="10.00">/kistler_DAQ/lib/com</text>
<text text-anchor="middle" x="371" y="-336" font-family="Helvetica,sans-Serif" font-size="10.00">_client/include/com_client.hpp</text>
</a>
</g>
</g>
<!-- Node1&#45;&gt;Node2 -->
<g id="edge1" class="edge">
<title>Node1&#45;&gt;Node2</title>
<path fill="none" stroke="midnightblue" d="M475.83,-407.5C453.05,-395.12 427.3,-381.11 407.01,-370.08"/>
<polygon fill="midnightblue" stroke="midnightblue" points="474.26,-410.63 484.72,-412.34 477.61,-404.48 474.26,-410.63"/>
</g>
<!-- Node12 -->
<g id="node12" class="node">
<title>Node12</title>
<g id="a_node12"><a xlink:href="../../d8/d00/lib_2com__client_2lib_2str_a_n_s_iseq_2src_2main_8cpp.html" target="_top" xlink:title=" ">
<polygon fill="none" stroke="black" points="471,-323.5 471,-375.5 591,-375.5 591,-323.5 471,-323.5"/>
<text text-anchor="start" x="479" y="-363.5" font-family="Helvetica,sans-Serif" font-size="10.00">/home/aightech/dev</text>
<text text-anchor="start" x="479" y="-352.5" font-family="Helvetica,sans-Serif" font-size="10.00">/kistler_DAQ/lib/com</text>
<text text-anchor="start" x="479" y="-341.5" font-family="Helvetica,sans-Serif" font-size="10.00">_client/lib/strANSIseq</text>
<text text-anchor="middle" x="531" y="-330.5" font-family="Helvetica,sans-Serif" font-size="10.00">/src/main.cpp</text>
</a>
</g>
</g>
<!-- Node1&#45;&gt;Node12 -->
<g id="edge12" class="edge">
<title>Node1&#45;&gt;Node12</title>
<path fill="none" stroke="midnightblue" d="M531,-402.19C531,-393.28 531,-383.9 531,-375.61"/>
<polygon fill="midnightblue" stroke="midnightblue" points="527.5,-402.34 531,-412.34 534.5,-402.34 527.5,-402.34"/>
</g>
<!-- Node13 -->
<g id="node13" class="node">
<title>Node13</title>
<g id="a_node13"><a xlink:href="../../dd/d40/str_a_n_s_iseq_8cpp.html" target="_top" xlink:title=" ">
<polygon fill="none" stroke="black" points="609,-323.5 609,-375.5 729,-375.5 729,-323.5 609,-323.5"/>
<text text-anchor="start" x="617" y="-363.5" font-family="Helvetica,sans-Serif" font-size="10.00">/home/aightech/dev</text>
<text text-anchor="start" x="617" y="-352.5" font-family="Helvetica,sans-Serif" font-size="10.00">/kistler_DAQ/lib/com</text>
<text text-anchor="start" x="617" y="-341.5" font-family="Helvetica,sans-Serif" font-size="10.00">_client/lib/strANSIseq</text>
<text text-anchor="middle" x="669" y="-330.5" font-family="Helvetica,sans-Serif" font-size="10.00">/src/strANSIseq.cpp</text>
</a>
</g>
</g>
<!-- Node1&#45;&gt;Node13 -->
<g id="edge13" class="edge">
<title>Node1&#45;&gt;Node13</title>
<path fill="none" stroke="midnightblue" d="M579.72,-406.79C595.91,-396.58 613.74,-385.34 629.17,-375.61"/>
<polygon fill="midnightblue" stroke="midnightblue" points="577.51,-404.04 570.92,-412.34 581.24,-409.96 577.51,-404.04"/>
</g>
<!-- Node3 -->
<g id="node3" class="node">
<title>Node3</title>
<g id="a_node3"><a xlink:href="../../d8/d95/kistler___a_p_i_8hpp.html" target="_top" xlink:title=" ">
<polygon fill="none" stroke="black" points="153,-156.5 153,-197.5 269,-197.5 269,-156.5 153,-156.5"/>
<text text-anchor="start" x="161" y="-185.5" font-family="Helvetica,sans-Serif" font-size="10.00">/home/aightech/dev</text>
<text text-anchor="start" x="161" y="-174.5" font-family="Helvetica,sans-Serif" font-size="10.00">/kistler_DAQ/include</text>
<text text-anchor="middle" x="211" y="-163.5" font-family="Helvetica,sans-Serif" font-size="10.00">/kistler_API.hpp</text>
</a>
</g>
</g>
<!-- Node2&#45;&gt;Node3 -->
<g id="edge2" class="edge">
<title>Node2&#45;&gt;Node3</title>
<path fill="none" stroke="midnightblue" d="M281,-324.89C261.65,-315.93 243.11,-303.68 230,-287 209.7,-261.17 208.04,-221.22 209.18,-197.53"/>
<polygon fill="midnightblue" stroke="midnightblue" points="279.67,-328.13 290.23,-328.9 282.46,-321.71 279.67,-328.13"/>
</g>
<!-- Node8 -->
<g id="node8" class="node">
<title>Node8</title>
<g id="a_node8"><a xlink:href="../../d9/dcd/http__client_8hpp.html" target="_top" xlink:title=" ">
<polygon fill="none" stroke="black" points="239,-234.5 239,-286.5 355,-286.5 355,-234.5 239,-234.5"/>
<text text-anchor="start" x="247" y="-274.5" font-family="Helvetica,sans-Serif" font-size="10.00">/home/aightech/dev</text>
<text text-anchor="start" x="247" y="-263.5" font-family="Helvetica,sans-Serif" font-size="10.00">/kistler_DAQ/lib/com</text>
<text text-anchor="start" x="247" y="-252.5" font-family="Helvetica,sans-Serif" font-size="10.00">_client/include/http</text>
<text text-anchor="middle" x="297" y="-241.5" font-family="Helvetica,sans-Serif" font-size="10.00">_client.hpp</text>
</a>
</g>
</g>
<!-- Node2&#45;&gt;Node8 -->
<g id="edge7" class="edge">
<title>Node2&#45;&gt;Node8</title>
<path fill="none" stroke="midnightblue" d="M347.69,-321.09C338.35,-310.12 327.66,-297.55 318.51,-286.79"/>
<polygon fill="midnightblue" stroke="midnightblue" points="345.06,-323.41 354.21,-328.76 350.4,-318.87 345.06,-323.41"/>
</g>
<!-- Node10 -->
<g id="node10" class="node">
<title>Node10</title>
<g id="a_node10"><a xlink:href="../../d8/da5/com__client_8cpp.html" target="_top" xlink:title=" ">
<polygon fill="none" stroke="black" points="373.5,-240 373.5,-281 516.5,-281 516.5,-240 373.5,-240"/>
<text text-anchor="start" x="381.5" y="-269" font-family="Helvetica,sans-Serif" font-size="10.00">/home/aightech/dev</text>
<text text-anchor="start" x="381.5" y="-258" font-family="Helvetica,sans-Serif" font-size="10.00">/kistler_DAQ/lib/com</text>
<text text-anchor="middle" x="445" y="-247" font-family="Helvetica,sans-Serif" font-size="10.00">_client/src/com_client.cpp</text>
</a>
</g>
</g>
<!-- Node2&#45;&gt;Node10 -->
<g id="edge10" class="edge">
<title>Node2&#45;&gt;Node10</title>
<path fill="none" stroke="midnightblue" d="M394.36,-321.03C405.37,-308.09 418.26,-292.94 428.27,-281.16"/>
<polygon fill="midnightblue" stroke="midnightblue" points="391.6,-318.87 387.79,-328.76 396.94,-323.41 391.6,-318.87"/>
</g>
<!-- Node11 -->
<g id="node11" class="node">
<title>Node11</title>
<g id="a_node11"><a xlink:href="../../d4/d7c/lib_2com__client_2src_2main_8cpp.html" target="_top" xlink:title=" ">
<polygon fill="none" stroke="black" points="535,-240 535,-281 651,-281 651,-240 535,-240"/>
<text text-anchor="start" x="543" y="-269" font-family="Helvetica,sans-Serif" font-size="10.00">/home/aightech/dev</text>
<text text-anchor="start" x="543" y="-258" font-family="Helvetica,sans-Serif" font-size="10.00">/kistler_DAQ/lib/com</text>
<text text-anchor="middle" x="593" y="-247" font-family="Helvetica,sans-Serif" font-size="10.00">_client/src/main.cpp</text>
</a>
</g>
</g>
<!-- Node2&#45;&gt;Node11 -->
<g id="edge11" class="edge">
<title>Node2&#45;&gt;Node11</title>
<path fill="none" stroke="midnightblue" d="M430.48,-325.19C465.62,-311.42 509.61,-294.18 542.96,-281.11"/>
<polygon fill="midnightblue" stroke="midnightblue" points="428.85,-322.07 420.82,-328.98 431.41,-328.59 428.85,-322.07"/>
</g>
<!-- Node4 -->
<g id="node4" class="node">
<title>Node4</title>
<g id="a_node4"><a xlink:href="../../d0/ddf/kistler___d_a_q_8hpp.html" target="_top" xlink:title=" ">
<polygon fill="none" stroke="black" points="83,-78.5 83,-119.5 199,-119.5 199,-78.5 83,-78.5"/>
<text text-anchor="start" x="91" y="-107.5" font-family="Helvetica,sans-Serif" font-size="10.00">/home/aightech/dev</text>
<text text-anchor="start" x="91" y="-96.5" font-family="Helvetica,sans-Serif" font-size="10.00">/kistler_DAQ/include</text>
<text text-anchor="middle" x="141" y="-85.5" font-family="Helvetica,sans-Serif" font-size="10.00">/kistler_DAQ.hpp</text>
</a>
</g>
</g>
<!-- Node3&#45;&gt;Node4 -->
<g id="edge3" class="edge">
<title>Node3&#45;&gt;Node4</title>
<path fill="none" stroke="midnightblue" d="M186.05,-148.92C177.11,-139.2 167.2,-128.45 158.97,-119.51"/>
<polygon fill="midnightblue" stroke="midnightblue" points="183.62,-151.44 192.97,-156.43 188.77,-146.7 183.62,-151.44"/>
</g>
<!-- Node7 -->
<g id="node7" class="node">
<title>Node7</title>
<g id="a_node7"><a xlink:href="../../dc/d5f/kistler___a_p_i_8cpp.html" target="_top" xlink:title=" ">
<polygon fill="none" stroke="black" points="217,-78.5 217,-119.5 345,-119.5 345,-78.5 217,-78.5"/>
<text text-anchor="start" x="225" y="-107.5" font-family="Helvetica,sans-Serif" font-size="10.00">/home/aightech/dev</text>
<text text-anchor="start" x="225" y="-96.5" font-family="Helvetica,sans-Serif" font-size="10.00">/kistler_DAQ/src/kistler</text>
<text text-anchor="middle" x="281" y="-85.5" font-family="Helvetica,sans-Serif" font-size="10.00">_API.cpp</text>
</a>
</g>
</g>
<!-- Node3&#45;&gt;Node7 -->
<g id="edge6" class="edge">
<title>Node3&#45;&gt;Node7</title>
<path fill="none" stroke="midnightblue" d="M235.95,-148.92C244.89,-139.2 254.8,-128.45 263.03,-119.51"/>
<polygon fill="midnightblue" stroke="midnightblue" points="233.23,-146.7 229.03,-156.43 238.38,-151.44 233.23,-146.7"/>
</g>
<!-- Node5 -->
<g id="node5" class="node">
<title>Node5</title>
<g id="a_node5"><a xlink:href="../../d9/dd6/kistler___d_a_q_8cpp.html" target="_top" xlink:title=" ">
<polygon fill="none" stroke="black" points="0,-0.5 0,-41.5 128,-41.5 128,-0.5 0,-0.5"/>
<text text-anchor="start" x="8" y="-29.5" font-family="Helvetica,sans-Serif" font-size="10.00">/home/aightech/dev</text>
<text text-anchor="start" x="8" y="-18.5" font-family="Helvetica,sans-Serif" font-size="10.00">/kistler_DAQ/src/kistler</text>
<text text-anchor="middle" x="64" y="-7.5" font-family="Helvetica,sans-Serif" font-size="10.00">_DAQ.cpp</text>
</a>
</g>
</g>
<!-- Node4&#45;&gt;Node5 -->
<g id="edge4" class="edge">
<title>Node4&#45;&gt;Node5</title>
<path fill="none" stroke="midnightblue" d="M113.85,-71.2C103.93,-61.42 92.91,-50.54 83.76,-41.51"/>
<polygon fill="midnightblue" stroke="midnightblue" points="111.59,-73.89 121.17,-78.43 116.51,-68.91 111.59,-73.89"/>
</g>
<!-- Node6 -->
<g id="node6" class="node">
<title>Node6</title>
<g id="a_node6"><a xlink:href="../../de/dfb/src_2main_8cpp.html" target="_top" xlink:title=" ">
<polygon fill="none" stroke="black" points="146.5,-6 146.5,-36 289.5,-36 289.5,-6 146.5,-6"/>
<text text-anchor="start" x="154.5" y="-24" font-family="Helvetica,sans-Serif" font-size="10.00">/home/aightech/dev</text>
<text text-anchor="middle" x="218" y="-13" font-family="Helvetica,sans-Serif" font-size="10.00">/kistler_DAQ/src/main.cpp</text>
</a>
</g>
</g>
<!-- Node4&#45;&gt;Node6 -->
<g id="edge5" class="edge">
<title>Node4&#45;&gt;Node6</title>
<path fill="none" stroke="midnightblue" d="M168.03,-71.32C180,-59.51 193.6,-46.08 203.59,-36.23"/>
<polygon fill="midnightblue" stroke="midnightblue" points="165.49,-68.91 160.83,-78.43 170.41,-73.89 165.49,-68.91"/>
</g>
<!-- Node8&#45;&gt;Node3 -->
<g id="edge8" class="edge">
<title>Node8&#45;&gt;Node3</title>
<path fill="none" stroke="midnightblue" d="M262.77,-227.07C252.26,-217.11 241.02,-206.45 231.71,-197.63"/>
<polygon fill="midnightblue" stroke="midnightblue" points="260.59,-229.82 270.26,-234.16 265.41,-224.74 260.59,-229.82"/>
</g>
<!-- Node9 -->
<g id="node9" class="node">
<title>Node9</title>
<g id="a_node9"><a xlink:href="../../d5/d08/http__client_8cpp.html" target="_top" xlink:title=" ">
<polygon fill="none" stroke="black" points="287.5,-156.5 287.5,-197.5 428.5,-197.5 428.5,-156.5 287.5,-156.5"/>
<text text-anchor="start" x="295.5" y="-185.5" font-family="Helvetica,sans-Serif" font-size="10.00">/home/aightech/dev</text>
<text text-anchor="start" x="295.5" y="-174.5" font-family="Helvetica,sans-Serif" font-size="10.00">/kistler_DAQ/lib/com</text>
<text text-anchor="middle" x="358" y="-163.5" font-family="Helvetica,sans-Serif" font-size="10.00">_client/src/http_client.cpp</text>
</a>
</g>
</g>
<!-- Node8&#45;&gt;Node9 -->
<g id="edge9" class="edge">
<title>Node8&#45;&gt;Node9</title>
<path fill="none" stroke="midnightblue" d="M322.15,-225.9C329.35,-216.28 336.96,-206.11 343.31,-197.63"/>
<polygon fill="midnightblue" stroke="midnightblue" points="319.16,-224.06 315.97,-234.16 324.76,-228.25 319.16,-224.06"/>
</g>
</g>
</svg>
