<?xml version="1.0" encoding="UTF-8" standalone="no"?>
<!DOCTYPE svg PUBLIC "-//W3C//DTD SVG 1.1//EN"
 "http://www.w3.org/Graphics/SVG/1.1/DTD/svg11.dtd">
<!-- Generated by graphviz version 2.43.0 (0)
 -->
<!-- Title: /home/aightech/dev/kistler_DAQ/src/main.cpp Pages: 1 -->
<svg width="669pt" height="375pt"
 viewBox="0.00 0.00 668.50 375.00" xmlns="http://www.w3.org/2000/svg" xmlns:xlink="http://www.w3.org/1999/xlink">
<g id="graph0" class="graph" transform="scale(1 1) rotate(0) translate(4 371)">
<title>/home/aightech/dev/kistler_DAQ/src/main.cpp</title>
<!-- Node1 -->
<g id="node1" class="node">
<title>Node1</title>
<g id="a_node1"><a xlink:title=" ">
<polygon fill="#bfbfbf" stroke="black" points="50.5,-336.5 50.5,-366.5 193.5,-366.5 193.5,-336.5 50.5,-336.5"/>
<text text-anchor="start" x="58.5" y="-354.5" font-family="Helvetica,sans-Serif" font-size="10.00">/home/aightech/dev</text>
<text text-anchor="middle" x="122" y="-343.5" font-family="Helvetica,sans-Serif" font-size="10.00">/kistler_DAQ/src/main.cpp</text>
</a>
</g>
</g>
<!-- Node2 -->
<g id="node2" class="node">
<title>Node2</title>
<g id="a_node2"><a xlink:title=" ">
<polygon fill="none" stroke="#bfbfbf" points="0,-280.5 0,-299.5 50,-299.5 50,-280.5 0,-280.5"/>
<text text-anchor="middle" x="25" y="-287.5" font-family="Helvetica,sans-Serif" font-size="10.00">stdio.h</text>
</a>
</g>
</g>
<!-- Node1&#45;&gt;Node2 -->
<g id="edge1" class="edge">
<title>Node1&#45;&gt;Node2</title>
<path fill="none" stroke="midnightblue" d="M99.01,-336.4C83.61,-326.95 63.41,-314.56 48,-305.11"/>
<polygon fill="midnightblue" stroke="midnightblue" points="49.47,-301.9 39.11,-299.66 45.81,-307.87 49.47,-301.9"/>
</g>
<!-- Node3 -->
<g id="node3" class="node">
<title>Node3</title>
<g id="a_node3"><a xlink:title=" ">
<polygon fill="none" stroke="#bfbfbf" points="68.5,-280.5 68.5,-299.5 121.5,-299.5 121.5,-280.5 68.5,-280.5"/>
<text text-anchor="middle" x="95" y="-287.5" font-family="Helvetica,sans-Serif" font-size="10.00">stdlib.h</text>
</a>
</g>
</g>
<!-- Node1&#45;&gt;Node3 -->
<g id="edge2" class="edge">
<title>Node1&#45;&gt;Node3</title>
<path fill="none" stroke="midnightblue" d="M115.6,-336.4C111.88,-328.2 107.15,-317.78 103.17,-308.99"/>
<polygon fill="midnightblue" stroke="midnightblue" points="106.25,-307.32 98.93,-299.66 99.87,-310.21 106.25,-307.32"/>
</g>
<!-- Node4 -->
<g id="node4" class="node">
<title>Node4</title>
<g id="a_node4"><a xlink:title=" ">
<polygon fill="none" stroke="#bfbfbf" points="158,-0.5 158,-19.5 218,-19.5 218,-0.5 158,-0.5"/>
<text text-anchor="middle" x="188" y="-7.5" font-family="Helvetica,sans-Serif" font-size="10.00">iostream</text>
</a>
</g>
</g>
<!-- Node1&#45;&gt;Node4 -->
<g id="edge3" class="edge">
<title>Node1&#45;&gt;Node4</title>
<path fill="none" stroke="midnightblue" d="M127.8,-336.18C136,-314.62 150,-272.35 150,-235 150,-235 150,-235 150,-121 150,-86.81 166.6,-49.76 177.86,-28.57"/>
<polygon fill="midnightblue" stroke="midnightblue" points="180.95,-30.22 182.72,-19.77 174.82,-26.83 180.95,-30.22"/>
</g>
<!-- Node5 -->
<g id="node5" class="node">
<title>Node5</title>
<g id="a_node5"><a xlink:href="../../d0/ddf/kistler___d_a_q_8hpp.html" target="_top" xlink:title=" ">
<polygon fill="none" stroke="black" points="356.5,-280.5 356.5,-299.5 451.5,-299.5 451.5,-280.5 356.5,-280.5"/>
<text text-anchor="middle" x="404" y="-287.5" font-family="Helvetica,sans-Serif" font-size="10.00">kistler_DAQ.hpp</text>
</a>
</g>
</g>
<!-- Node1&#45;&gt;Node5 -->
<g id="edge4" class="edge">
<title>Node1&#45;&gt;Node5</title>
<path fill="none" stroke="midnightblue" d="M188.47,-336.47C239.04,-325.81 307.54,-311.35 353.63,-301.63"/>
<polygon fill="midnightblue" stroke="midnightblue" points="354.62,-305 363.68,-299.51 353.18,-298.15 354.62,-305"/>
</g>
<!-- Node6 -->
<g id="node6" class="node">
<title>Node6</title>
<g id="a_node6"><a xlink:href="../../d8/d95/kistler___a_p_i_8hpp.html" target="_top" xlink:title=" ">
<polygon fill="none" stroke="black" points="267.5,-224.5 267.5,-243.5 356.5,-243.5 356.5,-224.5 267.5,-224.5"/>
<text text-anchor="middle" x="312" y="-231.5" font-family="Helvetica,sans-Serif" font-size="10.00">kistler_API.hpp</text>
</a>
</g>
</g>
<!-- Node5&#45;&gt;Node6 -->
<g id="edge5" class="edge">
<title>Node5&#45;&gt;Node6</title>
<path fill="none" stroke="midnightblue" d="M389.22,-280.32C374.73,-271.82 352.43,-258.73 335.51,-248.8"/>
<polygon fill="midnightblue" stroke="midnightblue" points="337.14,-245.7 326.74,-243.65 333.6,-251.74 337.14,-245.7"/>
</g>
<!-- Node18 -->
<g id="node18" class="node">
<title>Node18</title>
<g id="a_node18"><a xlink:title=" ">
<polygon fill="none" stroke="#bfbfbf" points="349,-112.5 349,-131.5 399,-131.5 399,-112.5 349,-112.5"/>
<text text-anchor="middle" x="374" y="-119.5" font-family="Helvetica,sans-Serif" font-size="10.00">cstring</text>
</a>
</g>
</g>
<!-- Node5&#45;&gt;Node18 -->
<g id="edge22" class="edge">
<title>Node5&#45;&gt;Node18</title>
<path fill="none" stroke="midnightblue" d="M402.39,-280.08C397.66,-253.95 383.8,-177.21 377.36,-141.58"/>
<polygon fill="midnightblue" stroke="midnightblue" points="380.77,-140.79 375.55,-131.57 373.88,-142.03 380.77,-140.79"/>
</g>
<!-- Node19 -->
<g id="node19" class="node">
<title>Node19</title>
<g id="a_node19"><a xlink:title=" ">
<polygon fill="none" stroke="#bfbfbf" points="432.5,-224.5 432.5,-243.5 479.5,-243.5 479.5,-224.5 432.5,-224.5"/>
<text text-anchor="middle" x="456" y="-231.5" font-family="Helvetica,sans-Serif" font-size="10.00">lsl_c.h</text>
</a>
</g>
</g>
<!-- Node5&#45;&gt;Node19 -->
<g id="edge23" class="edge">
<title>Node5&#45;&gt;Node19</title>
<path fill="none" stroke="midnightblue" d="M412.59,-280.08C420.16,-272.22 431.38,-260.57 440.51,-251.08"/>
<polygon fill="midnightblue" stroke="midnightblue" points="443.16,-253.38 447.57,-243.75 438.12,-248.53 443.16,-253.38"/>
</g>
<!-- Node20 -->
<g id="node20" class="node">
<title>Node20</title>
<g id="a_node20"><a xlink:title=" ">
<polygon fill="none" stroke="#bfbfbf" points="498,-224.5 498,-243.5 546,-243.5 546,-224.5 498,-224.5"/>
<text text-anchor="middle" x="522" y="-231.5" font-family="Helvetica,sans-Serif" font-size="10.00">thread</text>
</a>
</g>
</g>
<!-- Node5&#45;&gt;Node20 -->
<g id="edge24" class="edge">
<title>Node5&#45;&gt;Node20</title>
<path fill="none" stroke="midnightblue" d="M422.7,-280.44C441.94,-271.64 472.15,-257.81 494.2,-247.72"/>
<polygon fill="midnightblue" stroke="midnightblue" points="495.75,-250.86 503.39,-243.52 492.84,-244.5 495.75,-250.86"/>
</g>
<!-- Node7 -->
<g id="node7" class="node">
<title>Node7</title>
<g id="a_node7"><a xlink:href="../../dc/d13/com__client_8hpp.html" target="_top" xlink:title=" ">
<polygon fill="none" stroke="black" points="239.5,-112.5 239.5,-131.5 330.5,-131.5 330.5,-112.5 239.5,-112.5"/>
<text text-anchor="middle" x="285" y="-119.5" font-family="Helvetica,sans-Serif" font-size="10.00">com_client.hpp</text>
</a>
</g>
</g>
<!-- Node6&#45;&gt;Node7 -->
<g id="edge6" class="edge">
<title>Node6&#45;&gt;Node7</title>
<path fill="none" stroke="midnightblue" d="M286.5,-224.47C270.01,-217.48 249.86,-205.79 240,-188 229.97,-169.91 247.35,-150.59 263.34,-137.76"/>
<polygon fill="midnightblue" stroke="midnightblue" points="265.53,-140.49 271.42,-131.68 261.33,-134.89 265.53,-140.49"/>
</g>
<!-- Node17 -->
<g id="node17" class="node">
<title>Node17</title>
<g id="a_node17"><a xlink:href="../../d9/dcd/http__client_8hpp.html" target="_top" xlink:title=" ">
<polygon fill="none" stroke="black" points="248.5,-168.5 248.5,-187.5 337.5,-187.5 337.5,-168.5 248.5,-168.5"/>
<text text-anchor="middle" x="293" y="-175.5" font-family="Helvetica,sans-Serif" font-size="10.00">http_client.hpp</text>
</a>
</g>
</g>
<!-- Node6&#45;&gt;Node17 -->
<g id="edge18" class="edge">
<title>Node6&#45;&gt;Node17</title>
<path fill="none" stroke="midnightblue" d="M308.86,-224.08C306.32,-216.85 302.64,-206.41 299.47,-197.4"/>
<polygon fill="midnightblue" stroke="midnightblue" points="302.7,-196.02 296.08,-187.75 296.1,-198.35 302.7,-196.02"/>
</g>
<!-- Node6&#45;&gt;Node18 -->
<g id="edge21" class="edge">
<title>Node6&#45;&gt;Node18</title>
<path fill="none" stroke="midnightblue" d="M320,-224.21C327.64,-215.49 339.13,-201.51 347,-188 355.73,-173 363.09,-154.64 367.9,-141.26"/>
<polygon fill="midnightblue" stroke="midnightblue" points="371.23,-142.35 371.2,-131.76 364.62,-140.06 371.23,-142.35"/>
</g>
<!-- Node7&#45;&gt;Node4 -->
<g id="edge7" class="edge">
<title>Node7&#45;&gt;Node4</title>
<path fill="none" stroke="midnightblue" d="M260.17,-112.41C242.9,-105.22 220.62,-93.33 207,-76 196.57,-62.72 191.86,-43.89 189.74,-29.91"/>
<polygon fill="midnightblue" stroke="midnightblue" points="193.21,-29.44 188.53,-19.94 186.26,-30.28 193.21,-29.44"/>
</g>
<!-- Node8 -->
<g id="node8" class="node">
<title>Node8</title>
<g id="a_node8"><a xlink:title=" ">
<polygon fill="none" stroke="#bfbfbf" points="216.5,-56.5 216.5,-75.5 267.5,-75.5 267.5,-56.5 216.5,-56.5"/>
<text text-anchor="middle" x="242" y="-63.5" font-family="Helvetica,sans-Serif" font-size="10.00">math.h</text>
</a>
</g>
</g>
<!-- Node7&#45;&gt;Node8 -->
<g id="edge8" class="edge">
<title>Node7&#45;&gt;Node8</title>
<path fill="none" stroke="midnightblue" d="M277.9,-112.08C271.76,-104.38 262.73,-93.03 255.26,-83.65"/>
<polygon fill="midnightblue" stroke="midnightblue" points="257.94,-81.39 248.97,-75.75 252.46,-85.75 257.94,-81.39"/>
</g>
<!-- Node9 -->
<g id="node9" class="node">
<title>Node9</title>
<g id="a_node9"><a xlink:title=" ">
<polygon fill="none" stroke="#bfbfbf" points="286,-56.5 286,-75.5 334,-75.5 334,-56.5 286,-56.5"/>
<text text-anchor="middle" x="310" y="-63.5" font-family="Helvetica,sans-Serif" font-size="10.00">mutex</text>
</a>
</g>
</g>
<!-- Node7&#45;&gt;Node9 -->
<g id="edge9" class="edge">
<title>Node7&#45;&gt;Node9</title>
<path fill="none" stroke="midnightblue" d="M289.13,-112.08C292.51,-104.77 297.42,-94.18 301.62,-85.1"/>
<polygon fill="midnightblue" stroke="midnightblue" points="304.92,-86.3 305.95,-75.75 298.57,-83.36 304.92,-86.3"/>
</g>
<!-- Node10 -->
<g id="node10" class="node">
<title>Node10</title>
<g id="a_node10"><a xlink:title=" ">
<polygon fill="none" stroke="#bfbfbf" points="352.5,-56.5 352.5,-75.5 417.5,-75.5 417.5,-56.5 352.5,-56.5"/>
<text text-anchor="middle" x="385" y="-63.5" font-family="Helvetica,sans-Serif" font-size="10.00">stdexcept</text>
</a>
</g>
</g>
<!-- Node7&#45;&gt;Node10 -->
<g id="edge10" class="edge">
<title>Node7&#45;&gt;Node10</title>
<path fill="none" stroke="midnightblue" d="M301.07,-112.32C316.96,-103.74 341.51,-90.49 359.96,-80.52"/>
<polygon fill="midnightblue" stroke="midnightblue" points="361.84,-83.49 368.97,-75.65 358.51,-77.33 361.84,-83.49"/>
</g>
<!-- Node11 -->
<g id="node11" class="node">
<title>Node11</title>
<g id="a_node11"><a xlink:href="../../df/df2/str_a_n_s_iseq_8hpp.html" target="_top" xlink:title=" ">
<polygon fill="none" stroke="black" points="435.5,-56.5 435.5,-75.5 526.5,-75.5 526.5,-56.5 435.5,-56.5"/>
<text text-anchor="middle" x="481" y="-63.5" font-family="Helvetica,sans-Serif" font-size="10.00">strANSIseq.hpp</text>
</a>
</g>
</g>
<!-- Node7&#45;&gt;Node11 -->
<g id="edge11" class="edge">
<title>Node7&#45;&gt;Node11</title>
<path fill="none" stroke="midnightblue" d="M316.06,-112.44C349.6,-103.2 403.2,-88.44 440.14,-78.26"/>
<polygon fill="midnightblue" stroke="midnightblue" points="441.38,-81.55 450.09,-75.52 439.52,-74.8 441.38,-81.55"/>
</g>
<!-- Node11&#45;&gt;Node4 -->
<g id="edge13" class="edge">
<title>Node11&#45;&gt;Node4</title>
<path fill="none" stroke="midnightblue" d="M435.22,-56.56C378.37,-46.08 282.29,-28.38 228.17,-18.4"/>
<polygon fill="midnightblue" stroke="midnightblue" points="228.72,-14.95 218.25,-16.58 227.45,-21.83 228.72,-14.95"/>
</g>
<!-- Node12 -->
<g id="node12" class="node">
<title>Node12</title>
<g id="a_node12"><a xlink:title=" ">
<polygon fill="none" stroke="#bfbfbf" points="323.5,-0.5 323.5,-19.5 376.5,-19.5 376.5,-0.5 323.5,-0.5"/>
<text text-anchor="middle" x="350" y="-7.5" font-family="Helvetica,sans-Serif" font-size="10.00">cstdarg</text>
</a>
</g>
</g>
<!-- Node11&#45;&gt;Node12 -->
<g id="edge12" class="edge">
<title>Node11&#45;&gt;Node12</title>
<path fill="none" stroke="midnightblue" d="M460.24,-56.44C438.68,-47.56 404.74,-33.56 380.21,-23.45"/>
<polygon fill="midnightblue" stroke="midnightblue" points="381.24,-20.09 370.66,-19.52 378.57,-26.56 381.24,-20.09"/>
</g>
<!-- Node13 -->
<g id="node13" class="node">
<title>Node13</title>
<g id="a_node13"><a xlink:title=" ">
<polygon fill="none" stroke="#bfbfbf" points="395,-0.5 395,-19.5 439,-19.5 439,-0.5 395,-0.5"/>
<text text-anchor="middle" x="417" y="-7.5" font-family="Helvetica,sans-Serif" font-size="10.00">string</text>
</a>
</g>
</g>
<!-- Node11&#45;&gt;Node13 -->
<g id="edge14" class="edge">
<title>Node11&#45;&gt;Node13</title>
<path fill="none" stroke="midnightblue" d="M470.72,-56.32C461.16,-48.26 446.72,-36.08 435.22,-26.37"/>
<polygon fill="midnightblue" stroke="midnightblue" points="437.37,-23.61 427.47,-19.83 432.86,-28.96 437.37,-23.61"/>
</g>
<!-- Node14 -->
<g id="node14" class="node">
<title>Node14</title>
<g id="a_node14"><a xlink:title=" ">
<polygon fill="none" stroke="#bfbfbf" points="457.5,-0.5 457.5,-19.5 504.5,-19.5 504.5,-0.5 457.5,-0.5"/>
<text text-anchor="middle" x="481" y="-7.5" font-family="Helvetica,sans-Serif" font-size="10.00">vector</text>
</a>
</g>
</g>
<!-- Node11&#45;&gt;Node14 -->
<g id="edge15" class="edge">
<title>Node11&#45;&gt;Node14</title>
<path fill="none" stroke="midnightblue" d="M481,-56.08C481,-49.01 481,-38.86 481,-29.99"/>
<polygon fill="midnightblue" stroke="midnightblue" points="484.5,-29.75 481,-19.75 477.5,-29.75 484.5,-29.75"/>
</g>
<!-- Node15 -->
<g id="node15" class="node">
<title>Node15</title>
<g id="a_node15"><a xlink:title=" ">
<polygon fill="none" stroke="#bfbfbf" points="523,-0.5 523,-19.5 579,-19.5 579,-0.5 523,-0.5"/>
<text text-anchor="middle" x="551" y="-7.5" font-family="Helvetica,sans-Serif" font-size="10.00">unistd.h</text>
</a>
</g>
</g>
<!-- Node11&#45;&gt;Node15 -->
<g id="edge16" class="edge">
<title>Node11&#45;&gt;Node15</title>
<path fill="none" stroke="midnightblue" d="M492.25,-56.32C502.8,-48.18 518.8,-35.84 531.44,-26.09"/>
<polygon fill="midnightblue" stroke="midnightblue" points="533.77,-28.71 539.55,-19.83 529.49,-23.17 533.77,-28.71"/>
</g>
<!-- Node16 -->
<g id="node16" class="node">
<title>Node16</title>
<g id="a_node16"><a xlink:title=" ">
<polygon fill="none" stroke="#bfbfbf" points="597.5,-0.5 597.5,-19.5 660.5,-19.5 660.5,-0.5 597.5,-0.5"/>
<text text-anchor="middle" x="629" y="-7.5" font-family="Helvetica,sans-Serif" font-size="10.00">termios.h</text>
</a>
</g>
</g>
<!-- Node11&#45;&gt;Node16 -->
<g id="edge17" class="edge">
<title>Node11&#45;&gt;Node16</title>
<path fill="none" stroke="midnightblue" d="M504.45,-56.44C529.13,-47.44 568.19,-33.19 595.98,-23.05"/>
<polygon fill="midnightblue" stroke="midnightblue" points="597.46,-26.23 605.66,-19.52 595.06,-19.66 597.46,-26.23"/>
</g>
<!-- Node17&#45;&gt;Node7 -->
<g id="edge19" class="edge">
<title>Node17&#45;&gt;Node7</title>
<path fill="none" stroke="midnightblue" d="M291.68,-168.08C290.62,-160.93 289.09,-150.64 287.77,-141.69"/>
<polygon fill="midnightblue" stroke="midnightblue" points="291.22,-141.13 286.3,-131.75 284.3,-142.16 291.22,-141.13"/>
</g>
<!-- Node17&#45;&gt;Node18 -->
<g id="edge20" class="edge">
<title>Node17&#45;&gt;Node18</title>
<path fill="none" stroke="midnightblue" d="M306.01,-168.32C318.53,-159.98 337.68,-147.21 352.47,-137.35"/>
<polygon fill="midnightblue" stroke="midnightblue" points="354.64,-140.11 361.02,-131.65 350.76,-134.29 354.64,-140.11"/>
</g>
</g>
</svg>
