<?xml version="1.0" encoding="UTF-8" standalone="no"?>
<!DOCTYPE svg PUBLIC "-//W3C//DTD SVG 1.1//EN"
 "http://www.w3.org/Graphics/SVG/1.1/DTD/svg11.dtd">
<!-- Generated by graphviz version 2.43.0 (0)
 -->
<!-- Title: Kistler::API::start Pages: 1 -->
<svg width="622pt" height="174pt"
 viewBox="0.00 0.00 622.00 174.00" xmlns="http://www.w3.org/2000/svg" xmlns:xlink="http://www.w3.org/1999/xlink">
<g id="graph0" class="graph" transform="scale(1 1) rotate(0) translate(4 170)">
<title>Kistler::API::start</title>
<!-- Node1 -->
<g id="node1" class="node">
<title>Node1</title>
<g id="a_node1"><a xlink:title="Send a START request to the DAQ.">
<polygon fill="#bfbfbf" stroke="black" points="0,-97 0,-116 98,-116 98,-97 0,-97"/>
<text text-anchor="middle" x="49" y="-104" font-family="Helvetica,sans-Serif" font-size="10.00">Kistler::API::start</text>
</a>
</g>
</g>
<!-- Node2 -->
<g id="node2" class="node">
<title>Node2</title>
<g id="a_node2"><a xlink:href="../../da/d94/class_kistler_1_1_a_p_i.html#a19649fd0c024f8a66eaff543114532e9" target="_top" xlink:title="Check the satue of the reply (result:0 =&gt; OK)">
<polygon fill="none" stroke="black" points="144.5,-135.5 144.5,-165.5 248.5,-165.5 248.5,-135.5 144.5,-135.5"/>
<text text-anchor="start" x="152.5" y="-153.5" font-family="Helvetica,sans-Serif" font-size="10.00">Kistler::API::check</text>
<text text-anchor="middle" x="196.5" y="-142.5" font-family="Helvetica,sans-Serif" font-size="10.00">_msg_error</text>
</a>
</g>
</g>
<!-- Node1&#45;&gt;Node2 -->
<g id="edge1" class="edge">
<title>Node1&#45;&gt;Node2</title>
<path fill="none" stroke="midnightblue" d="M81.57,-116.05C97.51,-120.87 117.39,-126.88 136.06,-132.52"/>
<polygon fill="midnightblue" stroke="midnightblue" points="135.1,-135.89 145.68,-135.43 137.12,-129.19 135.1,-135.89"/>
</g>
<!-- Node4 -->
<g id="node4" class="node">
<title>Node4</title>
<g id="a_node4"><a xlink:href="../../dc/d44/class_e_s_c_1_1_c_l_i.html#abe1e5a3cc2cbd55c0704e9b13842e436" target="_top" xlink:title=" ">
<polygon fill="none" stroke="black" points="316,-102 316,-121 402,-121 402,-102 316,-102"/>
<text text-anchor="middle" x="359" y="-109" font-family="Helvetica,sans-Serif" font-size="10.00">ESC::CLI::logln</text>
</a>
</g>
</g>
<!-- Node1&#45;&gt;Node4 -->
<g id="edge5" class="edge">
<title>Node1&#45;&gt;Node4</title>
<path fill="none" stroke="midnightblue" d="M98.12,-107.28C154.47,-108.2 247.45,-109.71 305.58,-110.65"/>
<polygon fill="midnightblue" stroke="midnightblue" points="305.6,-114.15 315.66,-110.81 305.72,-107.15 305.6,-114.15"/>
</g>
<!-- Node6 -->
<g id="node6" class="node">
<title>Node6</title>
<g id="a_node6"><a xlink:href="../../d7/d60/class_communication_1_1_h_t_t_p__client.html#a241e78ccad7bcbc7597cb2dde7d7e402" target="_top" xlink:title=" ">
<polygon fill="none" stroke="black" points="134,-47.5 134,-77.5 259,-77.5 259,-47.5 134,-47.5"/>
<text text-anchor="start" x="142" y="-65.5" font-family="Helvetica,sans-Serif" font-size="10.00">Communication::HTTP</text>
<text text-anchor="middle" x="196.5" y="-54.5" font-family="Helvetica,sans-Serif" font-size="10.00">_client::post</text>
</a>
</g>
</g>
<!-- Node1&#45;&gt;Node6 -->
<g id="edge6" class="edge">
<title>Node1&#45;&gt;Node6</title>
<path fill="none" stroke="midnightblue" d="M81.57,-96.95C97.51,-92.13 117.39,-86.12 136.06,-80.48"/>
<polygon fill="midnightblue" stroke="midnightblue" points="137.12,-83.81 145.68,-77.57 135.1,-77.11 137.12,-83.81"/>
</g>
<!-- Node3 -->
<g id="node3" class="node">
<title>Node3</title>
<g id="a_node3"><a xlink:href="../../d2/d52/namespace_e_s_c.html#a080ff5f5b8a2ed3567a541acfa69a425" target="_top" xlink:title="fstr Prints a formated string.">
<polygon fill="none" stroke="black" points="330,-141 330,-160 388,-160 388,-141 330,-141"/>
<text text-anchor="middle" x="359" y="-148" font-family="Helvetica,sans-Serif" font-size="10.00">ESC::fstr</text>
</a>
</g>
</g>
<!-- Node2&#45;&gt;Node3 -->
<g id="edge2" class="edge">
<title>Node2&#45;&gt;Node3</title>
<path fill="none" stroke="midnightblue" d="M248.72,-150.5C271.64,-150.5 298.21,-150.5 319.41,-150.5"/>
<polygon fill="midnightblue" stroke="midnightblue" points="319.65,-154 329.65,-150.5 319.65,-147 319.65,-154"/>
</g>
<!-- Node2&#45;&gt;Node4 -->
<g id="edge3" class="edge">
<title>Node2&#45;&gt;Node4</title>
<path fill="none" stroke="midnightblue" d="M248.72,-138.05C267.93,-133.39 289.7,-128.1 308.73,-123.47"/>
<polygon fill="midnightblue" stroke="midnightblue" points="309.8,-126.81 318.69,-121.05 308.15,-120.01 309.8,-126.81"/>
</g>
<!-- Node5 -->
<g id="node5" class="node">
<title>Node5</title>
<g id="a_node5"><a xlink:href="../../d2/d52/namespace_e_s_c.html#a1ab0660788056c78944278261498664a" target="_top" xlink:title=" ">
<polygon fill="none" stroke="black" points="496.5,-102 496.5,-121 576.5,-121 576.5,-102 496.5,-102"/>
<text text-anchor="middle" x="536.5" y="-109" font-family="Helvetica,sans-Serif" font-size="10.00">ESC::get_pos</text>
</a>
</g>
</g>
<!-- Node4&#45;&gt;Node5 -->
<g id="edge4" class="edge">
<title>Node4&#45;&gt;Node5</title>
<path fill="none" stroke="midnightblue" d="M402.04,-111.5C427.28,-111.5 459.53,-111.5 486,-111.5"/>
<polygon fill="midnightblue" stroke="midnightblue" points="486.21,-115 496.21,-111.5 486.21,-108 486.21,-115"/>
</g>
<!-- Node7 -->
<g id="node7" class="node">
<title>Node7</title>
<g id="a_node7"><a xlink:href="../../df/dcd/class_communication_1_1_client.html#a73fec58648938364cd65d690f50bd7ec" target="_top" xlink:title="readS read the com inmterface.">
<polygon fill="none" stroke="black" points="295,-49.5 295,-79.5 423,-79.5 423,-49.5 295,-49.5"/>
<text text-anchor="start" x="303" y="-67.5" font-family="Helvetica,sans-Serif" font-size="10.00">Communication::Client</text>
<text text-anchor="middle" x="359" y="-56.5" font-family="Helvetica,sans-Serif" font-size="10.00">::readS</text>
</a>
</g>
</g>
<!-- Node6&#45;&gt;Node7 -->
<g id="edge7" class="edge">
<title>Node6&#45;&gt;Node7</title>
<path fill="none" stroke="midnightblue" d="M259.09,-63.27C267.55,-63.37 276.29,-63.48 284.92,-63.59"/>
<polygon fill="midnightblue" stroke="midnightblue" points="284.93,-67.09 294.98,-63.71 285.02,-60.09 284.93,-67.09"/>
</g>
<!-- Node9 -->
<g id="node9" class="node">
<title>Node9</title>
<g id="a_node9"><a xlink:href="../../df/dcd/class_communication_1_1_client.html#a32bd631bcb3b0a3476b146a0cc49332d" target="_top" xlink:title="writeS write the com interface.">
<polygon fill="none" stroke="black" points="295,-0.5 295,-30.5 423,-30.5 423,-0.5 295,-0.5"/>
<text text-anchor="start" x="303" y="-18.5" font-family="Helvetica,sans-Serif" font-size="10.00">Communication::Client</text>
<text text-anchor="middle" x="359" y="-7.5" font-family="Helvetica,sans-Serif" font-size="10.00">::writeS</text>
</a>
</g>
</g>
<!-- Node6&#45;&gt;Node9 -->
<g id="edge9" class="edge">
<title>Node6&#45;&gt;Node9</title>
<path fill="none" stroke="midnightblue" d="M248.72,-47.5C264.07,-43.01 281.05,-38.03 296.97,-33.37"/>
<polygon fill="midnightblue" stroke="midnightblue" points="298.1,-36.69 306.71,-30.52 296.13,-29.97 298.1,-36.69"/>
</g>
<!-- Node8 -->
<g id="node8" class="node">
<title>Node8</title>
<g id="a_node8"><a xlink:href="../../df/dcd/class_communication_1_1_client.html#a7020654cbb2e6f707fe637fc84d8328c" target="_top" xlink:title="CRC Compute and return the CRC over the n first bytes of buf.">
<polygon fill="none" stroke="black" points="459,-31 459,-50 614,-50 614,-31 459,-31"/>
<text text-anchor="middle" x="536.5" y="-38" font-family="Helvetica,sans-Serif" font-size="10.00">Communication::Client::CRC</text>
</a>
</g>
</g>
<!-- Node7&#45;&gt;Node8 -->
<g id="edge8" class="edge">
<title>Node7&#45;&gt;Node8</title>
<path fill="none" stroke="midnightblue" d="M423.36,-55.84C433.96,-54.39 445.07,-52.87 456.02,-51.37"/>
<polygon fill="midnightblue" stroke="midnightblue" points="456.56,-54.83 466,-50 455.61,-47.89 456.56,-54.83"/>
</g>
<!-- Node9&#45;&gt;Node8 -->
<g id="edge10" class="edge">
<title>Node9&#45;&gt;Node8</title>
<path fill="none" stroke="midnightblue" d="M423.36,-24.53C434.75,-26.15 446.74,-27.86 458.46,-29.53"/>
<polygon fill="midnightblue" stroke="midnightblue" points="458.29,-33.04 468.68,-30.98 459.28,-26.11 458.29,-33.04"/>
</g>
</g>
</svg>
