<?xml version="1.0" encoding="UTF-8" standalone="no"?>
<!DOCTYPE svg PUBLIC "-//W3C//DTD SVG 1.1//EN"
 "http://www.w3.org/Graphics/SVG/1.1/DTD/svg11.dtd">
<!-- Generated by graphviz version 2.43.0 (0)
 -->
<!-- Title: Kistler::API::check_msg_error Pages: 1 -->
<svg width="350pt" height="66pt"
 viewBox="0.00 0.00 350.00 66.00" xmlns="http://www.w3.org/2000/svg" xmlns:xlink="http://www.w3.org/1999/xlink">
<g id="graph0" class="graph" transform="scale(1 1) rotate(0) translate(4 62)">
<title>Kistler::API::check_msg_error</title>
<!-- Node1 -->
<g id="node1" class="node">
<title>Node1</title>
<g id="a_node1"><a xlink:title="Check the satue of the reply (result:0 =&gt; OK)">
<polygon fill="#bfbfbf" stroke="black" points="0,-14 0,-44 104,-44 104,-14 0,-14"/>
<text text-anchor="start" x="8" y="-32" font-family="Helvetica,sans-Serif" font-size="10.00">Kistler::API::check</text>
<text text-anchor="middle" x="52" y="-21" font-family="Helvetica,sans-Serif" font-size="10.00">_msg_error</text>
</a>
</g>
</g>
<!-- Node2 -->
<g id="node2" class="node">
<title>Node2</title>
<g id="a_node2"><a xlink:href="../../d2/d52/namespace_e_s_c.html#a080ff5f5b8a2ed3567a541acfa69a425" target="_top" xlink:title="fstr Prints a formated string.">
<polygon fill="none" stroke="black" points="154,-38.5 154,-57.5 212,-57.5 212,-38.5 154,-38.5"/>
<text text-anchor="middle" x="183" y="-45.5" font-family="Helvetica,sans-Serif" font-size="10.00">ESC::fstr</text>
</a>
</g>
</g>
<!-- Node1&#45;&gt;Node2 -->
<g id="edge1" class="edge">
<title>Node1&#45;&gt;Node2</title>
<path fill="none" stroke="midnightblue" d="M104.35,-36.56C117.53,-38.5 131.47,-40.56 143.84,-42.38"/>
<polygon fill="midnightblue" stroke="midnightblue" points="143.42,-45.85 153.82,-43.85 144.44,-38.93 143.42,-45.85"/>
</g>
<!-- Node3 -->
<g id="node3" class="node">
<title>Node3</title>
<g id="a_node3"><a xlink:href="../../dc/d44/class_e_s_c_1_1_c_l_i.html#abe1e5a3cc2cbd55c0704e9b13842e436" target="_top" xlink:title=" ">
<polygon fill="none" stroke="black" points="140,-0.5 140,-19.5 226,-19.5 226,-0.5 140,-0.5"/>
<text text-anchor="middle" x="183" y="-7.5" font-family="Helvetica,sans-Serif" font-size="10.00">ESC::CLI::logln</text>
</a>
</g>
</g>
<!-- Node1&#45;&gt;Node3 -->
<g id="edge2" class="edge">
<title>Node1&#45;&gt;Node3</title>
<path fill="none" stroke="midnightblue" d="M104.35,-21.44C112.75,-20.2 121.45,-18.92 129.86,-17.68"/>
<polygon fill="midnightblue" stroke="midnightblue" points="130.55,-21.12 139.93,-16.2 129.53,-14.19 130.55,-21.12"/>
</g>
<!-- Node4 -->
<g id="node4" class="node">
<title>Node4</title>
<g id="a_node4"><a xlink:href="../../d2/d52/namespace_e_s_c.html#a1ab0660788056c78944278261498664a" target="_top" xlink:title=" ">
<polygon fill="none" stroke="black" points="262,-0.5 262,-19.5 342,-19.5 342,-0.5 262,-0.5"/>
<text text-anchor="middle" x="302" y="-7.5" font-family="Helvetica,sans-Serif" font-size="10.00">ESC::get_pos</text>
</a>
</g>
</g>
<!-- Node3&#45;&gt;Node4 -->
<g id="edge3" class="edge">
<title>Node3&#45;&gt;Node4</title>
<path fill="none" stroke="midnightblue" d="M226.24,-10C234.52,-10 243.28,-10 251.77,-10"/>
<polygon fill="midnightblue" stroke="midnightblue" points="251.94,-13.5 261.94,-10 251.94,-6.5 251.94,-13.5"/>
</g>
</g>
</svg>
