<?xml version="1.0" encoding="UTF-8" standalone="no"?>
<!DOCTYPE svg PUBLIC "-//W3C//DTD SVG 1.1//EN"
 "http://www.w3.org/Graphics/SVG/1.1/DTD/svg11.dtd">
<!-- Generated by graphviz version 2.43.0 (0)
 -->
<!-- Title: Kistler::API::check_msg_error Pages: 1 -->
<svg width="736pt" height="341pt"
 viewBox="0.00 0.00 736.00 340.50" xmlns="http://www.w3.org/2000/svg" xmlns:xlink="http://www.w3.org/1999/xlink">
<g id="graph0" class="graph" transform="scale(1 1) rotate(0) translate(4 336.5)">
<title>Kistler::API::check_msg_error</title>
<!-- Node1 -->
<g id="node1" class="node">
<title>Node1</title>
<g id="a_node1"><a xlink:title="Check the satue of the reply (result:0 =&gt; OK)">
<polygon fill="#bfbfbf" stroke="black" points="624,-143 624,-173 728,-173 728,-143 624,-143"/>
<text text-anchor="start" x="632" y="-161" font-family="Helvetica,sans-Serif" font-size="10.00">Kistler::API::check</text>
<text text-anchor="middle" x="676" y="-150" font-family="Helvetica,sans-Serif" font-size="10.00">_msg_error</text>
</a>
</g>
</g>
<!-- Node2 -->
<g id="node2" class="node">
<title>Node2</title>
<g id="a_node2"><a xlink:href="../../da/d94/class_kistler_1_1_a_p_i.html#a46c24eb334e1af47b3b17408918c5491" target="_top" xlink:title="Close a streaming port.">
<polygon fill="none" stroke="black" points="473.5,-214 473.5,-244 574.5,-244 574.5,-214 473.5,-214"/>
<text text-anchor="start" x="481.5" y="-232" font-family="Helvetica,sans-Serif" font-size="10.00">Kistler::API::close</text>
<text text-anchor="middle" x="524" y="-221" font-family="Helvetica,sans-Serif" font-size="10.00">_stream</text>
</a>
</g>
</g>
<!-- Node1&#45;&gt;Node2 -->
<g id="edge1" class="edge">
<title>Node1&#45;&gt;Node2</title>
<path fill="none" stroke="midnightblue" d="M640.34,-178.08C624.6,-186.84 605.61,-196.93 588,-205 581.3,-208.07 574.08,-211.08 567,-213.88"/>
<polygon fill="midnightblue" stroke="midnightblue" points="642.19,-181.06 649.19,-173.1 638.75,-174.96 642.19,-181.06"/>
</g>
<!-- Node6 -->
<g id="node6" class="node">
<title>Node6</title>
<g id="a_node6"><a xlink:href="../../da/d94/class_kistler_1_1_a_p_i.html#a5a1c3d8d1e5b6f496726293f09cc91c9" target="_top" xlink:title="Unregister a client.">
<polygon fill="none" stroke="black" points="470.5,-165 470.5,-195 577.5,-195 577.5,-165 470.5,-165"/>
<text text-anchor="start" x="478.5" y="-183" font-family="Helvetica,sans-Serif" font-size="10.00">Kistler::API::delete</text>
<text text-anchor="middle" x="524" y="-172" font-family="Helvetica,sans-Serif" font-size="10.00">_client</text>
</a>
</g>
</g>
<!-- Node1&#45;&gt;Node6 -->
<g id="edge5" class="edge">
<title>Node1&#45;&gt;Node6</title>
<path fill="none" stroke="midnightblue" d="M613.82,-166.97C601.77,-168.74 589.23,-170.58 577.5,-172.3"/>
<polygon fill="midnightblue" stroke="midnightblue" points="614.41,-170.42 623.8,-165.51 613.4,-163.5 614.41,-170.42"/>
</g>
<!-- Node7 -->
<g id="node7" class="node">
<title>Node7</title>
<g id="a_node7"><a xlink:href="../../da/d94/class_kistler_1_1_a_p_i.html#aeb67a2504717300d59713593da6966e6" target="_top" xlink:title="Enable or disable the measurement configuration of the DAQ. To set a new configuration,...">
<polygon fill="none" stroke="black" points="469.5,-302 469.5,-332 578.5,-332 578.5,-302 469.5,-302"/>
<text text-anchor="start" x="477.5" y="-320" font-family="Helvetica,sans-Serif" font-size="10.00">Kistler::API::enable</text>
<text text-anchor="middle" x="524" y="-309" font-family="Helvetica,sans-Serif" font-size="10.00">_config</text>
</a>
</g>
</g>
<!-- Node1&#45;&gt;Node7 -->
<g id="edge7" class="edge">
<title>Node1&#45;&gt;Node7</title>
<path fill="none" stroke="midnightblue" d="M663.69,-182.21C649.45,-210.5 622.61,-257.2 588,-287 581.21,-292.85 573.08,-297.82 564.95,-301.94"/>
<polygon fill="midnightblue" stroke="midnightblue" points="666.93,-183.56 668.19,-173.04 660.64,-180.47 666.93,-183.56"/>
</g>
<!-- Node8 -->
<g id="node8" class="node">
<title>Node8</title>
<g id="a_node8"><a xlink:href="../../da/d94/class_kistler_1_1_a_p_i.html#aadc38197a3536983e07d1687fbe0e1d0" target="_top" xlink:title="Set the configuration of the DAQ.">
<polygon fill="none" stroke="black" points="293,-263.5 293,-282.5 418,-282.5 418,-263.5 293,-263.5"/>
<text text-anchor="middle" x="355.5" y="-270.5" font-family="Helvetica,sans-Serif" font-size="10.00">Kistler::API::set_config</text>
</a>
</g>
</g>
<!-- Node1&#45;&gt;Node8 -->
<g id="edge16" class="edge">
<title>Node1&#45;&gt;Node8</title>
<path fill="none" stroke="midnightblue" d="M661.03,-181.75C646.12,-204.65 620.23,-238.1 588,-254 535.02,-280.13 466.86,-282.58 418.25,-279.89"/>
<polygon fill="midnightblue" stroke="midnightblue" points="664.01,-183.58 666.38,-173.25 658.09,-179.85 664.01,-183.58"/>
</g>
<!-- Node10 -->
<g id="node10" class="node">
<title>Node10</title>
<g id="a_node10"><a xlink:href="../../da/d94/class_kistler_1_1_a_p_i.html#ad3884e4543f20438744b31b5f1e2cb41" target="_top" xlink:title="Get the value of a parameter of the DAQ via the REST API.">
<polygon fill="none" stroke="black" points="460,-126.5 460,-145.5 588,-145.5 588,-126.5 460,-126.5"/>
<text text-anchor="middle" x="524" y="-133.5" font-family="Helvetica,sans-Serif" font-size="10.00">Kistler::API::get_param</text>
</a>
</g>
</g>
<!-- Node1&#45;&gt;Node10 -->
<g id="edge11" class="edge">
<title>Node1&#45;&gt;Node10</title>
<path fill="none" stroke="midnightblue" d="M613.68,-149.01C605.27,-147.77 596.62,-146.5 588.18,-145.27"/>
<polygon fill="midnightblue" stroke="midnightblue" points="613.4,-152.5 623.8,-150.49 614.41,-145.58 613.4,-152.5"/>
</g>
<!-- Node11 -->
<g id="node11" class="node">
<title>Node11</title>
<g id="a_node11"><a xlink:href="../../da/d94/class_kistler_1_1_a_p_i.html#a0e3329ec10d12ef325520b4c106f8d83" target="_top" xlink:title="Register a new client and get its ID.">
<polygon fill="none" stroke="black" points="460,-88.5 460,-107.5 588,-107.5 588,-88.5 460,-88.5"/>
<text text-anchor="middle" x="524" y="-95.5" font-family="Helvetica,sans-Serif" font-size="10.00">Kistler::API::new_client</text>
</a>
</g>
</g>
<!-- Node1&#45;&gt;Node11 -->
<g id="edge12" class="edge">
<title>Node1&#45;&gt;Node11</title>
<path fill="none" stroke="midnightblue" d="M636.28,-138.25C621.39,-131.06 604.11,-123.19 588,-117 579.04,-113.56 569.18,-110.33 559.97,-107.55"/>
<polygon fill="midnightblue" stroke="midnightblue" points="635.15,-141.6 645.67,-142.85 638.23,-135.31 635.15,-141.6"/>
</g>
<!-- Node12 -->
<g id="node12" class="node">
<title>Node12</title>
<g id="a_node12"><a xlink:href="../../da/d94/class_kistler_1_1_a_p_i.html#a098b5c9b8d99e1759efba5ef119475d9" target="_top" xlink:title="Open a streaming port. The port will be closed if no connection is made within 30 seconds.">
<polygon fill="none" stroke="black" points="474,-39 474,-69 574,-69 574,-39 474,-39"/>
<text text-anchor="start" x="482" y="-57" font-family="Helvetica,sans-Serif" font-size="10.00">Kistler::API::open</text>
<text text-anchor="middle" x="524" y="-46" font-family="Helvetica,sans-Serif" font-size="10.00">_stream</text>
</a>
</g>
</g>
<!-- Node1&#45;&gt;Node12 -->
<g id="edge14" class="edge">
<title>Node1&#45;&gt;Node12</title>
<path fill="none" stroke="midnightblue" d="M654.51,-135.4C637.91,-118.14 613.22,-94.73 588,-79 582.11,-75.33 575.59,-72.02 569.04,-69.1"/>
<polygon fill="midnightblue" stroke="midnightblue" points="652.13,-137.97 661.54,-142.84 657.22,-133.17 652.13,-137.97"/>
</g>
<!-- Node13 -->
<g id="node13" class="node">
<title>Node13</title>
<g id="a_node13"><a xlink:href="../../da/d94/class_kistler_1_1_a_p_i.html#a1241535349db9c80adea109500ba7c79" target="_top" xlink:title="Send a START request to the DAQ.">
<polygon fill="none" stroke="black" points="475,-0.5 475,-19.5 573,-19.5 573,-0.5 475,-0.5"/>
<text text-anchor="middle" x="524" y="-7.5" font-family="Helvetica,sans-Serif" font-size="10.00">Kistler::API::start</text>
</a>
</g>
</g>
<!-- Node1&#45;&gt;Node13 -->
<g id="edge17" class="edge">
<title>Node1&#45;&gt;Node13</title>
<path fill="none" stroke="midnightblue" d="M664.65,-133.31C651.19,-104.17 624.96,-56.24 588,-29 582.76,-25.14 576.73,-22.05 570.52,-19.59"/>
<polygon fill="midnightblue" stroke="midnightblue" points="661.6,-135.07 668.87,-142.77 667.99,-132.21 661.6,-135.07"/>
</g>
<!-- Node3 -->
<g id="node3" class="node">
<title>Node3</title>
<g id="a_node3"><a xlink:href="../../da/d97/class_kistler_1_1_d_a_q.html#a4f89e1c93f34ce2b85fe0e10287b8165" target="_top" xlink:title="Thread streaming LSL samples.">
<polygon fill="none" stroke="black" points="287,-116 287,-146 424,-146 424,-116 287,-116"/>
<text text-anchor="start" x="295" y="-134" font-family="Helvetica,sans-Serif" font-size="10.00">Kistler::DAQ::_streaming</text>
<text text-anchor="middle" x="355.5" y="-123" font-family="Helvetica,sans-Serif" font-size="10.00">_thread</text>
</a>
</g>
</g>
<!-- Node2&#45;&gt;Node3 -->
<g id="edge2" class="edge">
<title>Node2&#45;&gt;Node3</title>
<path fill="none" stroke="midnightblue" d="M469.6,-209.78C466.31,-208.25 463.08,-206.65 460,-205 428.08,-187.88 394.58,-162.32 374.62,-146.17"/>
<polygon fill="midnightblue" stroke="midnightblue" points="468.41,-213.08 478.97,-213.9 471.22,-206.67 468.41,-213.08"/>
</g>
<!-- Node4 -->
<g id="node4" class="node">
<title>Node4</title>
<g id="a_node4"><a xlink:href="../../da/d97/class_kistler_1_1_d_a_q.html#a5a7c06429dcad460b083b5f2a2bbda5a" target="_top" xlink:title="Start a LSL streaming thread.">
<polygon fill="none" stroke="black" points="143.5,-133 143.5,-163 247.5,-163 247.5,-133 143.5,-133"/>
<text text-anchor="start" x="151.5" y="-151" font-family="Helvetica,sans-Serif" font-size="10.00">Kistler::DAQ::start</text>
<text text-anchor="middle" x="195.5" y="-140" font-family="Helvetica,sans-Serif" font-size="10.00">_streaming</text>
</a>
</g>
</g>
<!-- Node3&#45;&gt;Node4 -->
<g id="edge3" class="edge">
<title>Node3&#45;&gt;Node4</title>
<path fill="none" stroke="midnightblue" d="M276.43,-139.4C266.66,-140.45 256.87,-141.5 247.66,-142.5"/>
<polygon fill="midnightblue" stroke="midnightblue" points="277.01,-142.86 286.58,-138.31 276.26,-135.9 277.01,-142.86"/>
</g>
<!-- Node5 -->
<g id="node5" class="node">
<title>Node5</title>
<g id="a_node5"><a xlink:href="../../da/d97/class_kistler_1_1_d_a_q.html#a1c97f3c5178041e0bf2a836eead0bc8c" target="_top" xlink:title=" ">
<polygon fill="none" stroke="black" points="0,-160.5 0,-179.5 104,-179.5 104,-160.5 0,-160.5"/>
<text text-anchor="middle" x="52" y="-167.5" font-family="Helvetica,sans-Serif" font-size="10.00">Kistler::DAQ::DAQ</text>
</a>
</g>
</g>
<!-- Node4&#45;&gt;Node5 -->
<g id="edge4" class="edge">
<title>Node4&#45;&gt;Node5</title>
<path fill="none" stroke="midnightblue" d="M133.34,-157.51C123.56,-159.03 113.53,-160.59 104.01,-162.07"/>
<polygon fill="midnightblue" stroke="midnightblue" points="134.07,-160.94 143.42,-155.94 133,-154.02 134.07,-160.94"/>
</g>
<!-- Node6&#45;&gt;Node3 -->
<g id="edge6" class="edge">
<title>Node6&#45;&gt;Node3</title>
<path fill="none" stroke="midnightblue" d="M461.95,-162.03C444.11,-156.78 424.8,-151.1 407.64,-146.05"/>
<polygon fill="midnightblue" stroke="midnightblue" points="461.1,-165.43 471.69,-164.9 463.08,-158.72 461.1,-165.43"/>
</g>
<!-- Node7&#45;&gt;Node8 -->
<g id="edge8" class="edge">
<title>Node7&#45;&gt;Node8</title>
<path fill="none" stroke="midnightblue" d="M459.51,-300.22C436.88,-294.24 412.18,-287.71 392.64,-282.55"/>
<polygon fill="midnightblue" stroke="midnightblue" points="458.84,-303.66 469.4,-302.84 460.63,-296.9 458.84,-303.66"/>
</g>
<!-- Node9 -->
<g id="node9" class="node">
<title>Node9</title>
<g id="a_node9"><a xlink:href="../../da/d97/class_kistler_1_1_d_a_q.html#a291e83bbb30446417bfc54f0b02bf41e" target="_top" xlink:title="Configure the DAQ.">
<polygon fill="none" stroke="black" points="140,-247.5 140,-266.5 251,-266.5 251,-247.5 140,-247.5"/>
<text text-anchor="middle" x="195.5" y="-254.5" font-family="Helvetica,sans-Serif" font-size="10.00">Kistler::DAQ::config</text>
</a>
</g>
</g>
<!-- Node8&#45;&gt;Node9 -->
<g id="edge9" class="edge">
<title>Node8&#45;&gt;Node9</title>
<path fill="none" stroke="midnightblue" d="M282.85,-265.74C272.21,-264.67 261.4,-263.57 251.18,-262.54"/>
<polygon fill="midnightblue" stroke="midnightblue" points="282.66,-269.24 292.96,-266.77 283.36,-262.28 282.66,-269.24"/>
</g>
<!-- Node9&#45;&gt;Node5 -->
<g id="edge10" class="edge">
<title>Node9&#45;&gt;Node5</title>
<path fill="none" stroke="midnightblue" d="M170.09,-241.99C141.03,-224.12 93.34,-194.8 68.75,-179.69"/>
<polygon fill="midnightblue" stroke="midnightblue" points="168.46,-245.1 178.82,-247.36 172.13,-239.14 168.46,-245.1"/>
</g>
<!-- Node11&#45;&gt;Node3 -->
<g id="edge13" class="edge">
<title>Node11&#45;&gt;Node3</title>
<path fill="none" stroke="midnightblue" d="M464.95,-109.5C451.75,-112.12 437.61,-114.92 424.06,-117.61"/>
<polygon fill="midnightblue" stroke="midnightblue" points="465.71,-112.92 474.84,-107.54 464.35,-106.06 465.71,-112.92"/>
</g>
<!-- Node12&#45;&gt;Node3 -->
<g id="edge15" class="edge">
<title>Node12&#45;&gt;Node3</title>
<path fill="none" stroke="midnightblue" d="M473.84,-73.02C469.14,-74.99 464.46,-77 460,-79 434.13,-90.6 405.36,-105.2 384.73,-115.97"/>
<polygon fill="midnightblue" stroke="midnightblue" points="475.53,-76.11 483.46,-69.08 472.88,-69.63 475.53,-76.11"/>
</g>
<!-- Node13&#45;&gt;Node3 -->
<g id="edge18" class="edge">
<title>Node13&#45;&gt;Node3</title>
<path fill="none" stroke="midnightblue" d="M471.59,-23.17C467.56,-24.9 463.65,-26.84 460,-29 420.73,-52.3 385.25,-93.64 367.83,-115.87"/>
<polygon fill="midnightblue" stroke="midnightblue" points="473.04,-26.36 481.12,-19.5 470.53,-19.83 473.04,-26.36"/>
</g>
</g>
</svg>
