<?xml version="1.0" encoding="UTF-8" standalone="no"?>
<!DOCTYPE svg PUBLIC "-//W3C//DTD SVG 1.1//EN"
 "http://www.w3.org/Graphics/SVG/1.1/DTD/svg11.dtd">
<!-- Generated by graphviz version 2.43.0 (0)
 -->
<!-- Title: Kistler::API::new_client Pages: 1 -->
<svg width="652pt" height="174pt"
 viewBox="0.00 0.00 652.00 174.00" xmlns="http://www.w3.org/2000/svg" xmlns:xlink="http://www.w3.org/1999/xlink">
<g id="graph0" class="graph" transform="scale(1 1) rotate(0) translate(4 170)">
<title>Kistler::API::new_client</title>
<!-- Node1 -->
<g id="node1" class="node">
<title>Node1</title>
<g id="a_node1"><a xlink:title="Register a new client and get its ID.">
<polygon fill="#bfbfbf" stroke="black" points="0,-97 0,-116 128,-116 128,-97 0,-97"/>
<text text-anchor="middle" x="64" y="-104" font-family="Helvetica,sans-Serif" font-size="10.00">Kistler::API::new_client</text>
</a>
</g>
</g>
<!-- Node2 -->
<g id="node2" class="node">
<title>Node2</title>
<g id="a_node2"><a xlink:href="../../da/d94/class_kistler_1_1_a_p_i.html#a19649fd0c024f8a66eaff543114532e9" target="_top" xlink:title="Check the satue of the reply (result:0 =&gt; OK)">
<polygon fill="none" stroke="black" points="174.5,-135.5 174.5,-165.5 278.5,-165.5 278.5,-135.5 174.5,-135.5"/>
<text text-anchor="start" x="182.5" y="-153.5" font-family="Helvetica,sans-Serif" font-size="10.00">Kistler::API::check</text>
<text text-anchor="middle" x="226.5" y="-142.5" font-family="Helvetica,sans-Serif" font-size="10.00">_msg_error</text>
</a>
</g>
</g>
<!-- Node1&#45;&gt;Node2 -->
<g id="edge1" class="edge">
<title>Node1&#45;&gt;Node2</title>
<path fill="none" stroke="midnightblue" d="M99.83,-116.05C118.69,-121.22 142.56,-127.76 164.41,-133.75"/>
<polygon fill="midnightblue" stroke="midnightblue" points="163.71,-137.19 174.28,-136.46 165.56,-130.44 163.71,-137.19"/>
</g>
<!-- Node4 -->
<g id="node4" class="node">
<title>Node4</title>
<g id="a_node4"><a xlink:href="../../dc/d44/class_e_s_c_1_1_c_l_i.html#abe1e5a3cc2cbd55c0704e9b13842e436" target="_top" xlink:title=" ">
<polygon fill="none" stroke="black" points="346,-102 346,-121 432,-121 432,-102 346,-102"/>
<text text-anchor="middle" x="389" y="-109" font-family="Helvetica,sans-Serif" font-size="10.00">ESC::CLI::logln</text>
</a>
</g>
</g>
<!-- Node1&#45;&gt;Node4 -->
<g id="edge5" class="edge">
<title>Node1&#45;&gt;Node4</title>
<path fill="none" stroke="midnightblue" d="M128.04,-107.48C188.54,-108.41 278.83,-109.81 335.51,-110.69"/>
<polygon fill="midnightblue" stroke="midnightblue" points="335.64,-114.19 345.69,-110.85 335.75,-107.19 335.64,-114.19"/>
</g>
<!-- Node6 -->
<g id="node6" class="node">
<title>Node6</title>
<g id="a_node6"><a xlink:href="../../d7/d60/class_communication_1_1_h_t_t_p__client.html#a241e78ccad7bcbc7597cb2dde7d7e402" target="_top" xlink:title=" ">
<polygon fill="none" stroke="black" points="164,-47.5 164,-77.5 289,-77.5 289,-47.5 164,-47.5"/>
<text text-anchor="start" x="172" y="-65.5" font-family="Helvetica,sans-Serif" font-size="10.00">Communication::HTTP</text>
<text text-anchor="middle" x="226.5" y="-54.5" font-family="Helvetica,sans-Serif" font-size="10.00">_client::post</text>
</a>
</g>
</g>
<!-- Node1&#45;&gt;Node6 -->
<g id="edge6" class="edge">
<title>Node1&#45;&gt;Node6</title>
<path fill="none" stroke="midnightblue" d="M99.83,-96.95C117.65,-92.07 139.94,-85.95 160.78,-80.24"/>
<polygon fill="midnightblue" stroke="midnightblue" points="161.83,-83.58 170.55,-77.57 159.98,-76.83 161.83,-83.58"/>
</g>
<!-- Node3 -->
<g id="node3" class="node">
<title>Node3</title>
<g id="a_node3"><a xlink:href="../../d2/d52/namespace_e_s_c.html#a080ff5f5b8a2ed3567a541acfa69a425" target="_top" xlink:title="fstr Prints a formated string.">
<polygon fill="none" stroke="black" points="360,-141 360,-160 418,-160 418,-141 360,-141"/>
<text text-anchor="middle" x="389" y="-148" font-family="Helvetica,sans-Serif" font-size="10.00">ESC::fstr</text>
</a>
</g>
</g>
<!-- Node2&#45;&gt;Node3 -->
<g id="edge2" class="edge">
<title>Node2&#45;&gt;Node3</title>
<path fill="none" stroke="midnightblue" d="M278.72,-150.5C301.64,-150.5 328.21,-150.5 349.41,-150.5"/>
<polygon fill="midnightblue" stroke="midnightblue" points="349.65,-154 359.65,-150.5 349.65,-147 349.65,-154"/>
</g>
<!-- Node2&#45;&gt;Node4 -->
<g id="edge3" class="edge">
<title>Node2&#45;&gt;Node4</title>
<path fill="none" stroke="midnightblue" d="M278.72,-138.05C297.93,-133.39 319.7,-128.1 338.73,-123.47"/>
<polygon fill="midnightblue" stroke="midnightblue" points="339.8,-126.81 348.69,-121.05 338.15,-120.01 339.8,-126.81"/>
</g>
<!-- Node5 -->
<g id="node5" class="node">
<title>Node5</title>
<g id="a_node5"><a xlink:href="../../d2/d52/namespace_e_s_c.html#a1ab0660788056c78944278261498664a" target="_top" xlink:title=" ">
<polygon fill="none" stroke="black" points="526.5,-102 526.5,-121 606.5,-121 606.5,-102 526.5,-102"/>
<text text-anchor="middle" x="566.5" y="-109" font-family="Helvetica,sans-Serif" font-size="10.00">ESC::get_pos</text>
</a>
</g>
</g>
<!-- Node4&#45;&gt;Node5 -->
<g id="edge4" class="edge">
<title>Node4&#45;&gt;Node5</title>
<path fill="none" stroke="midnightblue" d="M432.04,-111.5C457.28,-111.5 489.53,-111.5 516,-111.5"/>
<polygon fill="midnightblue" stroke="midnightblue" points="516.21,-115 526.21,-111.5 516.21,-108 516.21,-115"/>
</g>
<!-- Node7 -->
<g id="node7" class="node">
<title>Node7</title>
<g id="a_node7"><a xlink:href="../../df/dcd/class_communication_1_1_client.html#a73fec58648938364cd65d690f50bd7ec" target="_top" xlink:title="readS read the com inmterface.">
<polygon fill="none" stroke="black" points="325,-49.5 325,-79.5 453,-79.5 453,-49.5 325,-49.5"/>
<text text-anchor="start" x="333" y="-67.5" font-family="Helvetica,sans-Serif" font-size="10.00">Communication::Client</text>
<text text-anchor="middle" x="389" y="-56.5" font-family="Helvetica,sans-Serif" font-size="10.00">::readS</text>
</a>
</g>
</g>
<!-- Node6&#45;&gt;Node7 -->
<g id="edge7" class="edge">
<title>Node6&#45;&gt;Node7</title>
<path fill="none" stroke="midnightblue" d="M289.09,-63.27C297.55,-63.37 306.29,-63.48 314.92,-63.59"/>
<polygon fill="midnightblue" stroke="midnightblue" points="314.93,-67.09 324.98,-63.71 315.02,-60.09 314.93,-67.09"/>
</g>
<!-- Node9 -->
<g id="node9" class="node">
<title>Node9</title>
<g id="a_node9"><a xlink:href="../../df/dcd/class_communication_1_1_client.html#a32bd631bcb3b0a3476b146a0cc49332d" target="_top" xlink:title="writeS write the com interface.">
<polygon fill="none" stroke="black" points="325,-0.5 325,-30.5 453,-30.5 453,-0.5 325,-0.5"/>
<text text-anchor="start" x="333" y="-18.5" font-family="Helvetica,sans-Serif" font-size="10.00">Communication::Client</text>
<text text-anchor="middle" x="389" y="-7.5" font-family="Helvetica,sans-Serif" font-size="10.00">::writeS</text>
</a>
</g>
</g>
<!-- Node6&#45;&gt;Node9 -->
<g id="edge9" class="edge">
<title>Node6&#45;&gt;Node9</title>
<path fill="none" stroke="midnightblue" d="M278.72,-47.5C294.07,-43.01 311.05,-38.03 326.97,-33.37"/>
<polygon fill="midnightblue" stroke="midnightblue" points="328.1,-36.69 336.71,-30.52 326.13,-29.97 328.1,-36.69"/>
</g>
<!-- Node8 -->
<g id="node8" class="node">
<title>Node8</title>
<g id="a_node8"><a xlink:href="../../df/dcd/class_communication_1_1_client.html#a7020654cbb2e6f707fe637fc84d8328c" target="_top" xlink:title="CRC Compute and return the CRC over the n first bytes of buf.">
<polygon fill="none" stroke="black" points="489,-31 489,-50 644,-50 644,-31 489,-31"/>
<text text-anchor="middle" x="566.5" y="-38" font-family="Helvetica,sans-Serif" font-size="10.00">Communication::Client::CRC</text>
</a>
</g>
</g>
<!-- Node7&#45;&gt;Node8 -->
<g id="edge8" class="edge">
<title>Node7&#45;&gt;Node8</title>
<path fill="none" stroke="midnightblue" d="M453.36,-55.84C463.96,-54.39 475.07,-52.87 486.02,-51.37"/>
<polygon fill="midnightblue" stroke="midnightblue" points="486.56,-54.83 496,-50 485.61,-47.89 486.56,-54.83"/>
</g>
<!-- Node9&#45;&gt;Node8 -->
<g id="edge10" class="edge">
<title>Node9&#45;&gt;Node8</title>
<path fill="none" stroke="midnightblue" d="M453.36,-24.53C464.75,-26.15 476.74,-27.86 488.46,-29.53"/>
<polygon fill="midnightblue" stroke="midnightblue" points="488.29,-33.04 498.68,-30.98 489.28,-26.11 488.29,-33.04"/>
</g>
</g>
</svg>
