<?xml version="1.0" encoding="UTF-8" standalone="no"?>
<!DOCTYPE svg PUBLIC "-//W3C//DTD SVG 1.1//EN"
 "http://www.w3.org/Graphics/SVG/1.1/DTD/svg11.dtd">
<!-- Generated by graphviz version 2.43.0 (0)
 -->
<!-- Title: Kistler::API::enable_config Pages: 1 -->
<svg width="633pt" height="167pt"
 viewBox="0.00 0.00 633.00 166.50" xmlns="http://www.w3.org/2000/svg" xmlns:xlink="http://www.w3.org/1999/xlink">
<g id="graph0" class="graph" transform="scale(1 1) rotate(0) translate(4 162.5)">
<title>Kistler::API::enable_config</title>
<!-- Node1 -->
<g id="node1" class="node">
<title>Node1</title>
<g id="a_node1"><a xlink:title="Enable or disable the measurement configuration of the DAQ. To set a new configuration,...">
<polygon fill="#bfbfbf" stroke="black" points="0,-71.5 0,-101.5 109,-101.5 109,-71.5 0,-71.5"/>
<text text-anchor="start" x="8" y="-89.5" font-family="Helvetica,sans-Serif" font-size="10.00">Kistler::API::enable</text>
<text text-anchor="middle" x="54.5" y="-78.5" font-family="Helvetica,sans-Serif" font-size="10.00">_config</text>
</a>
</g>
</g>
<!-- Node2 -->
<g id="node2" class="node">
<title>Node2</title>
<g id="a_node2"><a xlink:href="../../da/d94/class_kistler_1_1_a_p_i.html#a19649fd0c024f8a66eaff543114532e9" target="_top" xlink:title="Check the satue of the reply (result:0 =&gt; OK)">
<polygon fill="none" stroke="black" points="155.5,-96.5 155.5,-126.5 259.5,-126.5 259.5,-96.5 155.5,-96.5"/>
<text text-anchor="start" x="163.5" y="-114.5" font-family="Helvetica,sans-Serif" font-size="10.00">Kistler::API::check</text>
<text text-anchor="middle" x="207.5" y="-103.5" font-family="Helvetica,sans-Serif" font-size="10.00">_msg_error</text>
</a>
</g>
</g>
<!-- Node1&#45;&gt;Node2 -->
<g id="edge1" class="edge">
<title>Node1&#45;&gt;Node2</title>
<path fill="none" stroke="midnightblue" d="M109.16,-95.38C120.88,-97.33 133.37,-99.39 145.36,-101.38"/>
<polygon fill="midnightblue" stroke="midnightblue" points="144.85,-104.84 155.29,-103.02 145.99,-97.93 144.85,-104.84"/>
</g>
<!-- Node6 -->
<g id="node6" class="node">
<title>Node6</title>
<g id="a_node6"><a xlink:href="../../d7/d60/class_communication_1_1_h_t_t_p__client.html#a241e78ccad7bcbc7597cb2dde7d7e402" target="_top" xlink:title=" ">
<polygon fill="none" stroke="black" points="145,-47.5 145,-77.5 270,-77.5 270,-47.5 145,-47.5"/>
<text text-anchor="start" x="153" y="-65.5" font-family="Helvetica,sans-Serif" font-size="10.00">Communication::HTTP</text>
<text text-anchor="middle" x="207.5" y="-54.5" font-family="Helvetica,sans-Serif" font-size="10.00">_client::post</text>
</a>
</g>
</g>
<!-- Node1&#45;&gt;Node6 -->
<g id="edge5" class="edge">
<title>Node1&#45;&gt;Node6</title>
<path fill="none" stroke="midnightblue" d="M109.16,-77.97C117.45,-76.65 126.12,-75.28 134.72,-73.91"/>
<polygon fill="midnightblue" stroke="midnightblue" points="135.44,-77.34 144.77,-72.31 134.34,-70.42 135.44,-77.34"/>
</g>
<!-- Node3 -->
<g id="node3" class="node">
<title>Node3</title>
<g id="a_node3"><a xlink:href="../../d2/d52/namespace_e_s_c.html#a080ff5f5b8a2ed3567a541acfa69a425" target="_top" xlink:title="fstr Prints a formated string.">
<polygon fill="none" stroke="black" points="341,-139 341,-158 399,-158 399,-139 341,-139"/>
<text text-anchor="middle" x="370" y="-146" font-family="Helvetica,sans-Serif" font-size="10.00">ESC::fstr</text>
</a>
</g>
</g>
<!-- Node2&#45;&gt;Node3 -->
<g id="edge2" class="edge">
<title>Node2&#45;&gt;Node3</title>
<path fill="none" stroke="midnightblue" d="M259.72,-123.31C282.75,-128.62 309.45,-134.77 330.7,-139.67"/>
<polygon fill="midnightblue" stroke="midnightblue" points="330.12,-143.13 340.65,-141.96 331.69,-136.31 330.12,-143.13"/>
</g>
<!-- Node4 -->
<g id="node4" class="node">
<title>Node4</title>
<g id="a_node4"><a xlink:href="../../dc/d44/class_e_s_c_1_1_c_l_i.html#abe1e5a3cc2cbd55c0704e9b13842e436" target="_top" xlink:title=" ">
<polygon fill="none" stroke="black" points="327,-101 327,-120 413,-120 413,-101 327,-101"/>
<text text-anchor="middle" x="370" y="-108" font-family="Helvetica,sans-Serif" font-size="10.00">ESC::CLI::logln</text>
</a>
</g>
</g>
<!-- Node2&#45;&gt;Node4 -->
<g id="edge3" class="edge">
<title>Node2&#45;&gt;Node4</title>
<path fill="none" stroke="midnightblue" d="M259.72,-111.18C277.91,-111.07 298.39,-110.94 316.66,-110.83"/>
<polygon fill="midnightblue" stroke="midnightblue" points="316.87,-114.32 326.85,-110.76 316.83,-107.33 316.87,-114.32"/>
</g>
<!-- Node5 -->
<g id="node5" class="node">
<title>Node5</title>
<g id="a_node5"><a xlink:href="../../d2/d52/namespace_e_s_c.html#a1ab0660788056c78944278261498664a" target="_top" xlink:title=" ">
<polygon fill="none" stroke="black" points="507.5,-101 507.5,-120 587.5,-120 587.5,-101 507.5,-101"/>
<text text-anchor="middle" x="547.5" y="-108" font-family="Helvetica,sans-Serif" font-size="10.00">ESC::get_pos</text>
</a>
</g>
</g>
<!-- Node4&#45;&gt;Node5 -->
<g id="edge4" class="edge">
<title>Node4&#45;&gt;Node5</title>
<path fill="none" stroke="midnightblue" d="M413.04,-110.5C438.28,-110.5 470.53,-110.5 497,-110.5"/>
<polygon fill="midnightblue" stroke="midnightblue" points="497.21,-114 507.21,-110.5 497.21,-107 497.21,-114"/>
</g>
<!-- Node7 -->
<g id="node7" class="node">
<title>Node7</title>
<g id="a_node7"><a xlink:href="../../df/dcd/class_communication_1_1_client.html#a73fec58648938364cd65d690f50bd7ec" target="_top" xlink:title="readS read the com inmterface.">
<polygon fill="none" stroke="black" points="306,-49.5 306,-79.5 434,-79.5 434,-49.5 306,-49.5"/>
<text text-anchor="start" x="314" y="-67.5" font-family="Helvetica,sans-Serif" font-size="10.00">Communication::Client</text>
<text text-anchor="middle" x="370" y="-56.5" font-family="Helvetica,sans-Serif" font-size="10.00">::readS</text>
</a>
</g>
</g>
<!-- Node6&#45;&gt;Node7 -->
<g id="edge6" class="edge">
<title>Node6&#45;&gt;Node7</title>
<path fill="none" stroke="midnightblue" d="M270.09,-63.27C278.55,-63.37 287.29,-63.48 295.92,-63.59"/>
<polygon fill="midnightblue" stroke="midnightblue" points="295.93,-67.09 305.98,-63.71 296.02,-60.09 295.93,-67.09"/>
</g>
<!-- Node9 -->
<g id="node9" class="node">
<title>Node9</title>
<g id="a_node9"><a xlink:href="../../df/dcd/class_communication_1_1_client.html#a32bd631bcb3b0a3476b146a0cc49332d" target="_top" xlink:title="writeS write the com interface.">
<polygon fill="none" stroke="black" points="306,-0.5 306,-30.5 434,-30.5 434,-0.5 306,-0.5"/>
<text text-anchor="start" x="314" y="-18.5" font-family="Helvetica,sans-Serif" font-size="10.00">Communication::Client</text>
<text text-anchor="middle" x="370" y="-7.5" font-family="Helvetica,sans-Serif" font-size="10.00">::writeS</text>
</a>
</g>
</g>
<!-- Node6&#45;&gt;Node9 -->
<g id="edge8" class="edge">
<title>Node6&#45;&gt;Node9</title>
<path fill="none" stroke="midnightblue" d="M259.72,-47.5C275.07,-43.01 292.05,-38.03 307.97,-33.37"/>
<polygon fill="midnightblue" stroke="midnightblue" points="309.1,-36.69 317.71,-30.52 307.13,-29.97 309.1,-36.69"/>
</g>
<!-- Node8 -->
<g id="node8" class="node">
<title>Node8</title>
<g id="a_node8"><a xlink:href="../../df/dcd/class_communication_1_1_client.html#a7020654cbb2e6f707fe637fc84d8328c" target="_top" xlink:title="CRC Compute and return the CRC over the n first bytes of buf.">
<polygon fill="none" stroke="black" points="470,-31 470,-50 625,-50 625,-31 470,-31"/>
<text text-anchor="middle" x="547.5" y="-38" font-family="Helvetica,sans-Serif" font-size="10.00">Communication::Client::CRC</text>
</a>
</g>
</g>
<!-- Node7&#45;&gt;Node8 -->
<g id="edge7" class="edge">
<title>Node7&#45;&gt;Node8</title>
<path fill="none" stroke="midnightblue" d="M434.36,-55.84C444.96,-54.39 456.07,-52.87 467.02,-51.37"/>
<polygon fill="midnightblue" stroke="midnightblue" points="467.56,-54.83 477,-50 466.61,-47.89 467.56,-54.83"/>
</g>
<!-- Node9&#45;&gt;Node8 -->
<g id="edge9" class="edge">
<title>Node9&#45;&gt;Node8</title>
<path fill="none" stroke="midnightblue" d="M434.36,-24.53C445.75,-26.15 457.74,-27.86 469.46,-29.53"/>
<polygon fill="midnightblue" stroke="midnightblue" points="469.29,-33.04 479.68,-30.98 470.28,-26.11 469.29,-33.04"/>
</g>
</g>
</svg>
