<?xml version="1.0" encoding="UTF-8" standalone="no"?>
<!DOCTYPE svg PUBLIC "-//W3C//DTD SVG 1.1//EN"
 "http://www.w3.org/Graphics/SVG/1.1/DTD/svg11.dtd">
<!-- Generated by graphviz version 2.43.0 (0)
 -->
<!-- Title: Kistler::API::open_stream Pages: 1 -->
<svg width="624pt" height="174pt"
 viewBox="0.00 0.00 624.00 174.00" xmlns="http://www.w3.org/2000/svg" xmlns:xlink="http://www.w3.org/1999/xlink">
<g id="graph0" class="graph" transform="scale(1 1) rotate(0) translate(4 170)">
<title>Kistler::API::open_stream</title>
<!-- Node1 -->
<g id="node1" class="node">
<title>Node1</title>
<g id="a_node1"><a xlink:title="Open a streaming port. The port will be closed if no connection is made within 30 seconds.">
<polygon fill="#bfbfbf" stroke="black" points="0,-91.5 0,-121.5 100,-121.5 100,-91.5 0,-91.5"/>
<text text-anchor="start" x="8" y="-109.5" font-family="Helvetica,sans-Serif" font-size="10.00">Kistler::API::open</text>
<text text-anchor="middle" x="50" y="-98.5" font-family="Helvetica,sans-Serif" font-size="10.00">_stream</text>
</a>
</g>
</g>
<!-- Node2 -->
<g id="node2" class="node">
<title>Node2</title>
<g id="a_node2"><a xlink:href="../../da/d94/class_kistler_1_1_a_p_i.html#a19649fd0c024f8a66eaff543114532e9" target="_top" xlink:title="Check the satue of the reply (result:0 =&gt; OK)">
<polygon fill="none" stroke="black" points="146.5,-135.5 146.5,-165.5 250.5,-165.5 250.5,-135.5 146.5,-135.5"/>
<text text-anchor="start" x="154.5" y="-153.5" font-family="Helvetica,sans-Serif" font-size="10.00">Kistler::API::check</text>
<text text-anchor="middle" x="198.5" y="-142.5" font-family="Helvetica,sans-Serif" font-size="10.00">_msg_error</text>
</a>
</g>
</g>
<!-- Node1&#45;&gt;Node2 -->
<g id="edge1" class="edge">
<title>Node1&#45;&gt;Node2</title>
<path fill="none" stroke="midnightblue" d="M100.19,-121.27C112.19,-124.88 125.17,-128.78 137.61,-132.51"/>
<polygon fill="midnightblue" stroke="midnightblue" points="136.86,-135.94 147.44,-135.47 138.87,-129.24 136.86,-135.94"/>
</g>
<!-- Node4 -->
<g id="node4" class="node">
<title>Node4</title>
<g id="a_node4"><a xlink:href="../../dc/d44/class_e_s_c_1_1_c_l_i.html#abe1e5a3cc2cbd55c0704e9b13842e436" target="_top" xlink:title=" ">
<polygon fill="none" stroke="black" points="318,-102 318,-121 404,-121 404,-102 318,-102"/>
<text text-anchor="middle" x="361" y="-109" font-family="Helvetica,sans-Serif" font-size="10.00">ESC::CLI::logln</text>
</a>
</g>
</g>
<!-- Node1&#45;&gt;Node4 -->
<g id="edge5" class="edge">
<title>Node1&#45;&gt;Node4</title>
<path fill="none" stroke="midnightblue" d="M100.3,-107.3C157.04,-108.22 249.83,-109.72 307.78,-110.65"/>
<polygon fill="midnightblue" stroke="midnightblue" points="307.77,-114.16 317.82,-110.82 307.88,-107.16 307.77,-114.16"/>
</g>
<!-- Node6 -->
<g id="node6" class="node">
<title>Node6</title>
<g id="a_node6"><a xlink:href="../../d7/d60/class_communication_1_1_h_t_t_p__client.html#a241e78ccad7bcbc7597cb2dde7d7e402" target="_top" xlink:title=" ">
<polygon fill="none" stroke="black" points="136,-47.5 136,-77.5 261,-77.5 261,-47.5 136,-47.5"/>
<text text-anchor="start" x="144" y="-65.5" font-family="Helvetica,sans-Serif" font-size="10.00">Communication::HTTP</text>
<text text-anchor="middle" x="198.5" y="-54.5" font-family="Helvetica,sans-Serif" font-size="10.00">_client::post</text>
</a>
</g>
</g>
<!-- Node1&#45;&gt;Node6 -->
<g id="edge6" class="edge">
<title>Node1&#45;&gt;Node6</title>
<path fill="none" stroke="midnightblue" d="M100.19,-91.73C112.19,-88.12 125.17,-84.22 137.61,-80.49"/>
<polygon fill="midnightblue" stroke="midnightblue" points="138.87,-83.76 147.44,-77.53 136.86,-77.06 138.87,-83.76"/>
</g>
<!-- Node3 -->
<g id="node3" class="node">
<title>Node3</title>
<g id="a_node3"><a xlink:href="../../d2/d52/namespace_e_s_c.html#a080ff5f5b8a2ed3567a541acfa69a425" target="_top" xlink:title="fstr Prints a formated string.">
<polygon fill="none" stroke="black" points="332,-141 332,-160 390,-160 390,-141 332,-141"/>
<text text-anchor="middle" x="361" y="-148" font-family="Helvetica,sans-Serif" font-size="10.00">ESC::fstr</text>
</a>
</g>
</g>
<!-- Node2&#45;&gt;Node3 -->
<g id="edge2" class="edge">
<title>Node2&#45;&gt;Node3</title>
<path fill="none" stroke="midnightblue" d="M250.72,-150.5C273.64,-150.5 300.21,-150.5 321.41,-150.5"/>
<polygon fill="midnightblue" stroke="midnightblue" points="321.65,-154 331.65,-150.5 321.65,-147 321.65,-154"/>
</g>
<!-- Node2&#45;&gt;Node4 -->
<g id="edge3" class="edge">
<title>Node2&#45;&gt;Node4</title>
<path fill="none" stroke="midnightblue" d="M250.72,-138.05C269.93,-133.39 291.7,-128.1 310.73,-123.47"/>
<polygon fill="midnightblue" stroke="midnightblue" points="311.8,-126.81 320.69,-121.05 310.15,-120.01 311.8,-126.81"/>
</g>
<!-- Node5 -->
<g id="node5" class="node">
<title>Node5</title>
<g id="a_node5"><a xlink:href="../../d2/d52/namespace_e_s_c.html#a1ab0660788056c78944278261498664a" target="_top" xlink:title=" ">
<polygon fill="none" stroke="black" points="498.5,-102 498.5,-121 578.5,-121 578.5,-102 498.5,-102"/>
<text text-anchor="middle" x="538.5" y="-109" font-family="Helvetica,sans-Serif" font-size="10.00">ESC::get_pos</text>
</a>
</g>
</g>
<!-- Node4&#45;&gt;Node5 -->
<g id="edge4" class="edge">
<title>Node4&#45;&gt;Node5</title>
<path fill="none" stroke="midnightblue" d="M404.04,-111.5C429.28,-111.5 461.53,-111.5 488,-111.5"/>
<polygon fill="midnightblue" stroke="midnightblue" points="488.21,-115 498.21,-111.5 488.21,-108 488.21,-115"/>
</g>
<!-- Node7 -->
<g id="node7" class="node">
<title>Node7</title>
<g id="a_node7"><a xlink:href="../../df/dcd/class_communication_1_1_client.html#a73fec58648938364cd65d690f50bd7ec" target="_top" xlink:title="readS read the com inmterface.">
<polygon fill="none" stroke="black" points="297,-49.5 297,-79.5 425,-79.5 425,-49.5 297,-49.5"/>
<text text-anchor="start" x="305" y="-67.5" font-family="Helvetica,sans-Serif" font-size="10.00">Communication::Client</text>
<text text-anchor="middle" x="361" y="-56.5" font-family="Helvetica,sans-Serif" font-size="10.00">::readS</text>
</a>
</g>
</g>
<!-- Node6&#45;&gt;Node7 -->
<g id="edge7" class="edge">
<title>Node6&#45;&gt;Node7</title>
<path fill="none" stroke="midnightblue" d="M261.09,-63.27C269.55,-63.37 278.29,-63.48 286.92,-63.59"/>
<polygon fill="midnightblue" stroke="midnightblue" points="286.93,-67.09 296.98,-63.71 287.02,-60.09 286.93,-67.09"/>
</g>
<!-- Node9 -->
<g id="node9" class="node">
<title>Node9</title>
<g id="a_node9"><a xlink:href="../../df/dcd/class_communication_1_1_client.html#a32bd631bcb3b0a3476b146a0cc49332d" target="_top" xlink:title="writeS write the com interface.">
<polygon fill="none" stroke="black" points="297,-0.5 297,-30.5 425,-30.5 425,-0.5 297,-0.5"/>
<text text-anchor="start" x="305" y="-18.5" font-family="Helvetica,sans-Serif" font-size="10.00">Communication::Client</text>
<text text-anchor="middle" x="361" y="-7.5" font-family="Helvetica,sans-Serif" font-size="10.00">::writeS</text>
</a>
</g>
</g>
<!-- Node6&#45;&gt;Node9 -->
<g id="edge9" class="edge">
<title>Node6&#45;&gt;Node9</title>
<path fill="none" stroke="midnightblue" d="M250.72,-47.5C266.07,-43.01 283.05,-38.03 298.97,-33.37"/>
<polygon fill="midnightblue" stroke="midnightblue" points="300.1,-36.69 308.71,-30.52 298.13,-29.97 300.1,-36.69"/>
</g>
<!-- Node8 -->
<g id="node8" class="node">
<title>Node8</title>
<g id="a_node8"><a xlink:href="../../df/dcd/class_communication_1_1_client.html#a7020654cbb2e6f707fe637fc84d8328c" target="_top" xlink:title="CRC Compute and return the CRC over the n first bytes of buf.">
<polygon fill="none" stroke="black" points="461,-31 461,-50 616,-50 616,-31 461,-31"/>
<text text-anchor="middle" x="538.5" y="-38" font-family="Helvetica,sans-Serif" font-size="10.00">Communication::Client::CRC</text>
</a>
</g>
</g>
<!-- Node7&#45;&gt;Node8 -->
<g id="edge8" class="edge">
<title>Node7&#45;&gt;Node8</title>
<path fill="none" stroke="midnightblue" d="M425.36,-55.84C435.96,-54.39 447.07,-52.87 458.02,-51.37"/>
<polygon fill="midnightblue" stroke="midnightblue" points="458.56,-54.83 468,-50 457.61,-47.89 458.56,-54.83"/>
</g>
<!-- Node9&#45;&gt;Node8 -->
<g id="edge10" class="edge">
<title>Node9&#45;&gt;Node8</title>
<path fill="none" stroke="midnightblue" d="M425.36,-24.53C436.75,-26.15 448.74,-27.86 460.46,-29.53"/>
<polygon fill="midnightblue" stroke="midnightblue" points="460.29,-33.04 470.68,-30.98 461.28,-26.11 460.29,-33.04"/>
</g>
</g>
</svg>
