<?xml version="1.0" encoding="UTF-8" standalone="no"?>
<!DOCTYPE svg PUBLIC "-//W3C//DTD SVG 1.1//EN"
 "http://www.w3.org/Graphics/SVG/1.1/DTD/svg11.dtd">
<!-- Generated by graphviz version 2.43.0 (0)
 -->
<!-- Title: Kistler::API::close_stream Pages: 1 -->
<svg width="625pt" height="174pt"
 viewBox="0.00 0.00 625.00 174.00" xmlns="http://www.w3.org/2000/svg" xmlns:xlink="http://www.w3.org/1999/xlink">
<g id="graph0" class="graph" transform="scale(1 1) rotate(0) translate(4 170)">
<title>Kistler::API::close_stream</title>
<!-- Node1 -->
<g id="node1" class="node">
<title>Node1</title>
<g id="a_node1"><a xlink:title="Close a streaming port.">
<polygon fill="#bfbfbf" stroke="black" points="0,-91.5 0,-121.5 101,-121.5 101,-91.5 0,-91.5"/>
<text text-anchor="start" x="8" y="-109.5" font-family="Helvetica,sans-Serif" font-size="10.00">Kistler::API::close</text>
<text text-anchor="middle" x="50.5" y="-98.5" font-family="Helvetica,sans-Serif" font-size="10.00">_stream</text>
</a>
</g>
</g>
<!-- Node2 -->
<g id="node2" class="node">
<title>Node2</title>
<g id="a_node2"><a xlink:href="../../da/d94/class_kistler_1_1_a_p_i.html#a19649fd0c024f8a66eaff543114532e9" target="_top" xlink:title="Check the satue of the reply (result:0 =&gt; OK)">
<polygon fill="none" stroke="black" points="147.5,-135.5 147.5,-165.5 251.5,-165.5 251.5,-135.5 147.5,-135.5"/>
<text text-anchor="start" x="155.5" y="-153.5" font-family="Helvetica,sans-Serif" font-size="10.00">Kistler::API::check</text>
<text text-anchor="middle" x="199.5" y="-142.5" font-family="Helvetica,sans-Serif" font-size="10.00">_msg_error</text>
</a>
</g>
</g>
<!-- Node1&#45;&gt;Node2 -->
<g id="edge1" class="edge">
<title>Node1&#45;&gt;Node2</title>
<path fill="none" stroke="midnightblue" d="M101.27,-121.4C113.23,-124.98 126.13,-128.84 138.5,-132.54"/>
<polygon fill="midnightblue" stroke="midnightblue" points="137.7,-135.95 148.28,-135.47 139.71,-129.25 137.7,-135.95"/>
</g>
<!-- Node4 -->
<g id="node4" class="node">
<title>Node4</title>
<g id="a_node4"><a xlink:href="../../dc/d44/class_e_s_c_1_1_c_l_i.html#abe1e5a3cc2cbd55c0704e9b13842e436" target="_top" xlink:title=" ">
<polygon fill="none" stroke="black" points="319,-102 319,-121 405,-121 405,-102 319,-102"/>
<text text-anchor="middle" x="362" y="-109" font-family="Helvetica,sans-Serif" font-size="10.00">ESC::CLI::logln</text>
</a>
</g>
</g>
<!-- Node1&#45;&gt;Node4 -->
<g id="edge5" class="edge">
<title>Node1&#45;&gt;Node4</title>
<path fill="none" stroke="midnightblue" d="M101.23,-107.3C158.13,-108.22 250.9,-109.72 308.82,-110.66"/>
<polygon fill="midnightblue" stroke="midnightblue" points="308.8,-114.16 318.85,-110.82 308.91,-107.16 308.8,-114.16"/>
</g>
<!-- Node6 -->
<g id="node6" class="node">
<title>Node6</title>
<g id="a_node6"><a xlink:href="../../d7/d60/class_communication_1_1_h_t_t_p__client.html#a241e78ccad7bcbc7597cb2dde7d7e402" target="_top" xlink:title=" ">
<polygon fill="none" stroke="black" points="137,-47.5 137,-77.5 262,-77.5 262,-47.5 137,-47.5"/>
<text text-anchor="start" x="145" y="-65.5" font-family="Helvetica,sans-Serif" font-size="10.00">Communication::HTTP</text>
<text text-anchor="middle" x="199.5" y="-54.5" font-family="Helvetica,sans-Serif" font-size="10.00">_client::post</text>
</a>
</g>
</g>
<!-- Node1&#45;&gt;Node6 -->
<g id="edge6" class="edge">
<title>Node1&#45;&gt;Node6</title>
<path fill="none" stroke="midnightblue" d="M101.27,-91.6C113.23,-88.02 126.13,-84.16 138.5,-80.46"/>
<polygon fill="midnightblue" stroke="midnightblue" points="139.71,-83.75 148.28,-77.53 137.7,-77.05 139.71,-83.75"/>
</g>
<!-- Node3 -->
<g id="node3" class="node">
<title>Node3</title>
<g id="a_node3"><a xlink:href="../../d2/d52/namespace_e_s_c.html#a080ff5f5b8a2ed3567a541acfa69a425" target="_top" xlink:title="fstr Prints a formated string.">
<polygon fill="none" stroke="black" points="333,-141 333,-160 391,-160 391,-141 333,-141"/>
<text text-anchor="middle" x="362" y="-148" font-family="Helvetica,sans-Serif" font-size="10.00">ESC::fstr</text>
</a>
</g>
</g>
<!-- Node2&#45;&gt;Node3 -->
<g id="edge2" class="edge">
<title>Node2&#45;&gt;Node3</title>
<path fill="none" stroke="midnightblue" d="M251.72,-150.5C274.64,-150.5 301.21,-150.5 322.41,-150.5"/>
<polygon fill="midnightblue" stroke="midnightblue" points="322.65,-154 332.65,-150.5 322.65,-147 322.65,-154"/>
</g>
<!-- Node2&#45;&gt;Node4 -->
<g id="edge3" class="edge">
<title>Node2&#45;&gt;Node4</title>
<path fill="none" stroke="midnightblue" d="M251.72,-138.05C270.93,-133.39 292.7,-128.1 311.73,-123.47"/>
<polygon fill="midnightblue" stroke="midnightblue" points="312.8,-126.81 321.69,-121.05 311.15,-120.01 312.8,-126.81"/>
</g>
<!-- Node5 -->
<g id="node5" class="node">
<title>Node5</title>
<g id="a_node5"><a xlink:href="../../d2/d52/namespace_e_s_c.html#a1ab0660788056c78944278261498664a" target="_top" xlink:title=" ">
<polygon fill="none" stroke="black" points="499.5,-102 499.5,-121 579.5,-121 579.5,-102 499.5,-102"/>
<text text-anchor="middle" x="539.5" y="-109" font-family="Helvetica,sans-Serif" font-size="10.00">ESC::get_pos</text>
</a>
</g>
</g>
<!-- Node4&#45;&gt;Node5 -->
<g id="edge4" class="edge">
<title>Node4&#45;&gt;Node5</title>
<path fill="none" stroke="midnightblue" d="M405.04,-111.5C430.28,-111.5 462.53,-111.5 489,-111.5"/>
<polygon fill="midnightblue" stroke="midnightblue" points="489.21,-115 499.21,-111.5 489.21,-108 489.21,-115"/>
</g>
<!-- Node7 -->
<g id="node7" class="node">
<title>Node7</title>
<g id="a_node7"><a xlink:href="../../df/dcd/class_communication_1_1_client.html#a73fec58648938364cd65d690f50bd7ec" target="_top" xlink:title="readS read the com inmterface.">
<polygon fill="none" stroke="black" points="298,-49.5 298,-79.5 426,-79.5 426,-49.5 298,-49.5"/>
<text text-anchor="start" x="306" y="-67.5" font-family="Helvetica,sans-Serif" font-size="10.00">Communication::Client</text>
<text text-anchor="middle" x="362" y="-56.5" font-family="Helvetica,sans-Serif" font-size="10.00">::readS</text>
</a>
</g>
</g>
<!-- Node6&#45;&gt;Node7 -->
<g id="edge7" class="edge">
<title>Node6&#45;&gt;Node7</title>
<path fill="none" stroke="midnightblue" d="M262.09,-63.27C270.55,-63.37 279.29,-63.48 287.92,-63.59"/>
<polygon fill="midnightblue" stroke="midnightblue" points="287.93,-67.09 297.98,-63.71 288.02,-60.09 287.93,-67.09"/>
</g>
<!-- Node9 -->
<g id="node9" class="node">
<title>Node9</title>
<g id="a_node9"><a xlink:href="../../df/dcd/class_communication_1_1_client.html#a32bd631bcb3b0a3476b146a0cc49332d" target="_top" xlink:title="writeS write the com interface.">
<polygon fill="none" stroke="black" points="298,-0.5 298,-30.5 426,-30.5 426,-0.5 298,-0.5"/>
<text text-anchor="start" x="306" y="-18.5" font-family="Helvetica,sans-Serif" font-size="10.00">Communication::Client</text>
<text text-anchor="middle" x="362" y="-7.5" font-family="Helvetica,sans-Serif" font-size="10.00">::writeS</text>
</a>
</g>
</g>
<!-- Node6&#45;&gt;Node9 -->
<g id="edge9" class="edge">
<title>Node6&#45;&gt;Node9</title>
<path fill="none" stroke="midnightblue" d="M251.72,-47.5C267.07,-43.01 284.05,-38.03 299.97,-33.37"/>
<polygon fill="midnightblue" stroke="midnightblue" points="301.1,-36.69 309.71,-30.52 299.13,-29.97 301.1,-36.69"/>
</g>
<!-- Node8 -->
<g id="node8" class="node">
<title>Node8</title>
<g id="a_node8"><a xlink:href="../../df/dcd/class_communication_1_1_client.html#a7020654cbb2e6f707fe637fc84d8328c" target="_top" xlink:title="CRC Compute and return the CRC over the n first bytes of buf.">
<polygon fill="none" stroke="black" points="462,-31 462,-50 617,-50 617,-31 462,-31"/>
<text text-anchor="middle" x="539.5" y="-38" font-family="Helvetica,sans-Serif" font-size="10.00">Communication::Client::CRC</text>
</a>
</g>
</g>
<!-- Node7&#45;&gt;Node8 -->
<g id="edge8" class="edge">
<title>Node7&#45;&gt;Node8</title>
<path fill="none" stroke="midnightblue" d="M426.36,-55.84C436.96,-54.39 448.07,-52.87 459.02,-51.37"/>
<polygon fill="midnightblue" stroke="midnightblue" points="459.56,-54.83 469,-50 458.61,-47.89 459.56,-54.83"/>
</g>
<!-- Node9&#45;&gt;Node8 -->
<g id="edge10" class="edge">
<title>Node9&#45;&gt;Node8</title>
<path fill="none" stroke="midnightblue" d="M426.36,-24.53C437.75,-26.15 449.74,-27.86 461.46,-29.53"/>
<polygon fill="midnightblue" stroke="midnightblue" points="461.29,-33.04 471.68,-30.98 462.28,-26.11 461.29,-33.04"/>
</g>
</g>
</svg>
