<?xml version="1.0" encoding="UTF-8" standalone="no"?>
<!DOCTYPE svg PUBLIC "-//W3C//DTD SVG 1.1//EN"
 "http://www.w3.org/Graphics/SVG/1.1/DTD/svg11.dtd">
<!-- Generated by graphviz version 2.43.0 (0)
 -->
<!-- Title: Kistler::API::stop Pages: 1 -->
<svg width="621pt" height="127pt"
 viewBox="0.00 0.00 621.00 126.50" xmlns="http://www.w3.org/2000/svg" xmlns:xlink="http://www.w3.org/1999/xlink">
<g id="graph0" class="graph" transform="scale(1 1) rotate(0) translate(4 122.5)">
<title>Kistler::API::stop</title>
<!-- Node1 -->
<g id="node1" class="node">
<title>Node1</title>
<g id="a_node1"><a xlink:title="Send a STOP request to the DAQ.">
<polygon fill="#bfbfbf" stroke="black" points="0,-77 0,-96 97,-96 97,-77 0,-77"/>
<text text-anchor="middle" x="48.5" y="-84" font-family="Helvetica,sans-Serif" font-size="10.00">Kistler::API::stop</text>
</a>
</g>
</g>
<!-- Node2 -->
<g id="node2" class="node">
<title>Node2</title>
<g id="a_node2"><a xlink:href="../../dc/d44/class_e_s_c_1_1_c_l_i.html#abe1e5a3cc2cbd55c0704e9b13842e436" target="_top" xlink:title=" ">
<polygon fill="none" stroke="black" points="152.5,-99 152.5,-118 238.5,-118 238.5,-99 152.5,-99"/>
<text text-anchor="middle" x="195.5" y="-106" font-family="Helvetica,sans-Serif" font-size="10.00">ESC::CLI::logln</text>
</a>
</g>
</g>
<!-- Node1&#45;&gt;Node2 -->
<g id="edge1" class="edge">
<title>Node1&#45;&gt;Node2</title>
<path fill="none" stroke="midnightblue" d="M97.38,-93.76C111.72,-95.94 127.53,-98.34 142.14,-100.56"/>
<polygon fill="midnightblue" stroke="midnightblue" points="141.63,-104.02 152.04,-102.06 142.68,-97.1 141.63,-104.02"/>
</g>
<!-- Node4 -->
<g id="node4" class="node">
<title>Node4</title>
<g id="a_node4"><a xlink:href="../../d7/d60/class_communication_1_1_h_t_t_p__client.html#a241e78ccad7bcbc7597cb2dde7d7e402" target="_top" xlink:title=" ">
<polygon fill="none" stroke="black" points="133,-49.5 133,-79.5 258,-79.5 258,-49.5 133,-49.5"/>
<text text-anchor="start" x="141" y="-67.5" font-family="Helvetica,sans-Serif" font-size="10.00">Communication::HTTP</text>
<text text-anchor="middle" x="195.5" y="-56.5" font-family="Helvetica,sans-Serif" font-size="10.00">_client::post</text>
</a>
</g>
</g>
<!-- Node1&#45;&gt;Node4 -->
<g id="edge3" class="edge">
<title>Node1&#45;&gt;Node4</title>
<path fill="none" stroke="midnightblue" d="M97.38,-79.24C105.56,-77.99 114.22,-76.68 122.86,-75.37"/>
<polygon fill="midnightblue" stroke="midnightblue" points="123.6,-78.8 132.97,-73.84 122.55,-71.88 123.6,-78.8"/>
</g>
<!-- Node3 -->
<g id="node3" class="node">
<title>Node3</title>
<g id="a_node3"><a xlink:href="../../d2/d52/namespace_e_s_c.html#a1ab0660788056c78944278261498664a" target="_top" xlink:title=" ">
<polygon fill="none" stroke="black" points="318,-99 318,-118 398,-118 398,-99 318,-99"/>
<text text-anchor="middle" x="358" y="-106" font-family="Helvetica,sans-Serif" font-size="10.00">ESC::get_pos</text>
</a>
</g>
</g>
<!-- Node2&#45;&gt;Node3 -->
<g id="edge2" class="edge">
<title>Node2&#45;&gt;Node3</title>
<path fill="none" stroke="midnightblue" d="M238.67,-108.5C259.84,-108.5 285.61,-108.5 307.69,-108.5"/>
<polygon fill="midnightblue" stroke="midnightblue" points="307.87,-112 317.87,-108.5 307.87,-105 307.87,-112"/>
</g>
<!-- Node5 -->
<g id="node5" class="node">
<title>Node5</title>
<g id="a_node5"><a xlink:href="../../df/dcd/class_communication_1_1_client.html#a73fec58648938364cd65d690f50bd7ec" target="_top" xlink:title="readS read the com inmterface.">
<polygon fill="none" stroke="black" points="294,-49.5 294,-79.5 422,-79.5 422,-49.5 294,-49.5"/>
<text text-anchor="start" x="302" y="-67.5" font-family="Helvetica,sans-Serif" font-size="10.00">Communication::Client</text>
<text text-anchor="middle" x="358" y="-56.5" font-family="Helvetica,sans-Serif" font-size="10.00">::readS</text>
</a>
</g>
</g>
<!-- Node4&#45;&gt;Node5 -->
<g id="edge4" class="edge">
<title>Node4&#45;&gt;Node5</title>
<path fill="none" stroke="midnightblue" d="M258.09,-64.5C266.55,-64.5 275.29,-64.5 283.92,-64.5"/>
<polygon fill="midnightblue" stroke="midnightblue" points="283.98,-68 293.98,-64.5 283.98,-61 283.98,-68"/>
</g>
<!-- Node7 -->
<g id="node7" class="node">
<title>Node7</title>
<g id="a_node7"><a xlink:href="../../df/dcd/class_communication_1_1_client.html#a32bd631bcb3b0a3476b146a0cc49332d" target="_top" xlink:title="writeS write the com interface.">
<polygon fill="none" stroke="black" points="294,-0.5 294,-30.5 422,-30.5 422,-0.5 294,-0.5"/>
<text text-anchor="start" x="302" y="-18.5" font-family="Helvetica,sans-Serif" font-size="10.00">Communication::Client</text>
<text text-anchor="middle" x="358" y="-7.5" font-family="Helvetica,sans-Serif" font-size="10.00">::writeS</text>
</a>
</g>
</g>
<!-- Node4&#45;&gt;Node7 -->
<g id="edge6" class="edge">
<title>Node4&#45;&gt;Node7</title>
<path fill="none" stroke="midnightblue" d="M245.96,-49.4C262.36,-44.39 280.79,-38.77 297.84,-33.56"/>
<polygon fill="midnightblue" stroke="midnightblue" points="299.16,-36.82 307.7,-30.55 297.11,-30.12 299.16,-36.82"/>
</g>
<!-- Node6 -->
<g id="node6" class="node">
<title>Node6</title>
<g id="a_node6"><a xlink:href="../../df/dcd/class_communication_1_1_client.html#a7020654cbb2e6f707fe637fc84d8328c" target="_top" xlink:title="CRC Compute and return the CRC over the n first bytes of buf.">
<polygon fill="none" stroke="black" points="458,-30 458,-49 613,-49 613,-30 458,-30"/>
<text text-anchor="middle" x="535.5" y="-37" font-family="Helvetica,sans-Serif" font-size="10.00">Communication::Client::CRC</text>
</a>
</g>
</g>
<!-- Node5&#45;&gt;Node6 -->
<g id="edge5" class="edge">
<title>Node5&#45;&gt;Node6</title>
<path fill="none" stroke="midnightblue" d="M422.36,-55.47C433.75,-53.85 445.74,-52.14 457.46,-50.47"/>
<polygon fill="midnightblue" stroke="midnightblue" points="458.28,-53.89 467.68,-49.02 457.29,-46.96 458.28,-53.89"/>
</g>
<!-- Node7&#45;&gt;Node6 -->
<g id="edge7" class="edge">
<title>Node7&#45;&gt;Node6</title>
<path fill="none" stroke="midnightblue" d="M422.36,-24.16C432.96,-25.61 444.07,-27.13 455.02,-28.63"/>
<polygon fill="midnightblue" stroke="midnightblue" points="454.61,-32.11 465,-30 455.56,-25.17 454.61,-32.11"/>
</g>
</g>
</svg>
