<?xml version="1.0" encoding="UTF-8" standalone="no"?>
<!DOCTYPE svg PUBLIC "-//W3C//DTD SVG 1.1//EN"
 "http://www.w3.org/Graphics/SVG/1.1/DTD/svg11.dtd">
<!-- Generated by graphviz version 2.43.0 (0)
 -->
<!-- Title: Kistler::API::enable_config Pages: 1 -->
<svg width="565pt" height="39pt"
 viewBox="0.00 0.00 565.00 39.00" xmlns="http://www.w3.org/2000/svg" xmlns:xlink="http://www.w3.org/1999/xlink">
<g id="graph0" class="graph" transform="scale(1 1) rotate(0) translate(4 35)">
<title>Kistler::API::enable_config</title>
<!-- Node1 -->
<g id="node1" class="node">
<title>Node1</title>
<g id="a_node1"><a xlink:title="Enable or disable the measurement configuration of the DAQ. To set a new configuration,...">
<polygon fill="#bfbfbf" stroke="black" points="448,-0.5 448,-30.5 557,-30.5 557,-0.5 448,-0.5"/>
<text text-anchor="start" x="456" y="-18.5" font-family="Helvetica,sans-Serif" font-size="10.00">Kistler::API::enable</text>
<text text-anchor="middle" x="502.5" y="-7.5" font-family="Helvetica,sans-Serif" font-size="10.00">_config</text>
</a>
</g>
</g>
<!-- Node2 -->
<g id="node2" class="node">
<title>Node2</title>
<g id="a_node2"><a xlink:href="../../da/d94/class_kistler_1_1_a_p_i.html#aadc38197a3536983e07d1687fbe0e1d0" target="_top" xlink:title="Set the configuration of the DAQ.">
<polygon fill="none" stroke="black" points="287,-6 287,-25 412,-25 412,-6 287,-6"/>
<text text-anchor="middle" x="349.5" y="-13" font-family="Helvetica,sans-Serif" font-size="10.00">Kistler::API::set_config</text>
</a>
</g>
</g>
<!-- Node1&#45;&gt;Node2 -->
<g id="edge1" class="edge">
<title>Node1&#45;&gt;Node2</title>
<path fill="none" stroke="midnightblue" d="M437.68,-15.5C429.25,-15.5 420.62,-15.5 412.23,-15.5"/>
<polygon fill="midnightblue" stroke="midnightblue" points="437.84,-19 447.84,-15.5 437.84,-12 437.84,-19"/>
</g>
<!-- Node3 -->
<g id="node3" class="node">
<title>Node3</title>
<g id="a_node3"><a xlink:href="../../da/d97/class_kistler_1_1_d_a_q.html#a291e83bbb30446417bfc54f0b02bf41e" target="_top" xlink:title="Configure the DAQ.">
<polygon fill="none" stroke="black" points="140,-6 140,-25 251,-25 251,-6 140,-6"/>
<text text-anchor="middle" x="195.5" y="-13" font-family="Helvetica,sans-Serif" font-size="10.00">Kistler::DAQ::config</text>
</a>
</g>
</g>
<!-- Node2&#45;&gt;Node3 -->
<g id="edge2" class="edge">
<title>Node2&#45;&gt;Node3</title>
<path fill="none" stroke="midnightblue" d="M276.47,-15.5C268.05,-15.5 259.56,-15.5 251.43,-15.5"/>
<polygon fill="midnightblue" stroke="midnightblue" points="276.68,-19 286.68,-15.5 276.68,-12 276.68,-19"/>
</g>
<!-- Node4 -->
<g id="node4" class="node">
<title>Node4</title>
<g id="a_node4"><a xlink:href="../../da/d97/class_kistler_1_1_d_a_q.html#a1c97f3c5178041e0bf2a836eead0bc8c" target="_top" xlink:title=" ">
<polygon fill="none" stroke="black" points="0,-6 0,-25 104,-25 104,-6 0,-6"/>
<text text-anchor="middle" x="52" y="-13" font-family="Helvetica,sans-Serif" font-size="10.00">Kistler::DAQ::DAQ</text>
</a>
</g>
</g>
<!-- Node3&#45;&gt;Node4 -->
<g id="edge3" class="edge">
<title>Node3&#45;&gt;Node4</title>
<path fill="none" stroke="midnightblue" d="M129.56,-15.5C121.09,-15.5 112.51,-15.5 104.31,-15.5"/>
<polygon fill="midnightblue" stroke="midnightblue" points="129.79,-19 139.79,-15.5 129.79,-12 129.79,-19"/>
</g>
</g>
</svg>
