<?xml version="1.0" encoding="UTF-8" standalone="no"?>
<!DOCTYPE svg PUBLIC "-//W3C//DTD SVG 1.1//EN"
 "http://www.w3.org/Graphics/SVG/1.1/DTD/svg11.dtd">
<!-- Generated by graphviz version 2.43.0 (0)
 -->
<!-- Title: Kistler::API::set_config Pages: 1 -->
<svg width="813pt" height="189pt"
 viewBox="0.00 0.00 813.00 189.00" xmlns="http://www.w3.org/2000/svg" xmlns:xlink="http://www.w3.org/1999/xlink">
<g id="graph0" class="graph" transform="scale(1 1) rotate(0) translate(4 185)">
<title>Kistler::API::set_config</title>
<!-- Node1 -->
<g id="node1" class="node">
<title>Node1</title>
<g id="a_node1"><a xlink:title="Set the configuration of the DAQ.">
<polygon fill="#bfbfbf" stroke="black" points="0,-82.5 0,-101.5 125,-101.5 125,-82.5 0,-82.5"/>
<text text-anchor="middle" x="62.5" y="-89.5" font-family="Helvetica,sans-Serif" font-size="10.00">Kistler::API::set_config</text>
</a>
</g>
</g>
<!-- Node2 -->
<g id="node2" class="node">
<title>Node2</title>
<g id="a_node2"><a xlink:href="../../da/d94/class_kistler_1_1_a_p_i.html#a19649fd0c024f8a66eaff543114532e9" target="_top" xlink:title="Check the satue of the reply (result:0 =&gt; OK)">
<polygon fill="none" stroke="black" points="335.5,-115 335.5,-145 439.5,-145 439.5,-115 335.5,-115"/>
<text text-anchor="start" x="343.5" y="-133" font-family="Helvetica,sans-Serif" font-size="10.00">Kistler::API::check</text>
<text text-anchor="middle" x="387.5" y="-122" font-family="Helvetica,sans-Serif" font-size="10.00">_msg_error</text>
</a>
</g>
</g>
<!-- Node1&#45;&gt;Node2 -->
<g id="edge1" class="edge">
<title>Node1&#45;&gt;Node2</title>
<path fill="none" stroke="midnightblue" d="M94.36,-101.54C113.38,-107.02 138.38,-113.48 161,-117 216.12,-125.57 279.6,-128.63 325.14,-129.66"/>
<polygon fill="midnightblue" stroke="midnightblue" points="325.09,-133.16 335.15,-129.86 325.23,-126.16 325.09,-133.16"/>
</g>
<!-- Node4 -->
<g id="node4" class="node">
<title>Node4</title>
<g id="a_node4"><a xlink:href="../../dc/d44/class_e_s_c_1_1_c_l_i.html#abe1e5a3cc2cbd55c0704e9b13842e436" target="_top" xlink:title=" ">
<polygon fill="none" stroke="black" points="507,-161.5 507,-180.5 593,-180.5 593,-161.5 507,-161.5"/>
<text text-anchor="middle" x="550" y="-168.5" font-family="Helvetica,sans-Serif" font-size="10.00">ESC::CLI::logln</text>
</a>
</g>
</g>
<!-- Node1&#45;&gt;Node4 -->
<g id="edge12" class="edge">
<title>Node1&#45;&gt;Node4</title>
<path fill="none" stroke="midnightblue" d="M80.51,-101.63C99.5,-111.92 131.47,-127.84 161,-136 277.74,-168.26 421.02,-172.52 496.58,-172.16"/>
<polygon fill="midnightblue" stroke="midnightblue" points="496.81,-175.66 506.78,-172.08 496.75,-168.66 496.81,-175.66"/>
</g>
<!-- Node6 -->
<g id="node6" class="node">
<title>Node6</title>
<g id="a_node6"><a xlink:href="../../da/d94/class_kistler_1_1_a_p_i.html#aeb67a2504717300d59713593da6966e6" target="_top" xlink:title="Enable or disable the measurement configuration of the DAQ. To set a new configuration,...">
<polygon fill="none" stroke="black" points="170.5,-77 170.5,-107 279.5,-107 279.5,-77 170.5,-77"/>
<text text-anchor="start" x="178.5" y="-95" font-family="Helvetica,sans-Serif" font-size="10.00">Kistler::API::enable</text>
<text text-anchor="middle" x="225" y="-84" font-family="Helvetica,sans-Serif" font-size="10.00">_config</text>
</a>
</g>
</g>
<!-- Node1&#45;&gt;Node6 -->
<g id="edge5" class="edge">
<title>Node1&#45;&gt;Node6</title>
<path fill="none" stroke="midnightblue" d="M125.09,-92C136.65,-92 148.75,-92 160.37,-92"/>
<polygon fill="midnightblue" stroke="midnightblue" points="160.42,-95.5 170.42,-92 160.42,-88.5 160.42,-95.5"/>
</g>
<!-- Node7 -->
<g id="node7" class="node">
<title>Node7</title>
<g id="a_node7"><a xlink:href="../../d7/d60/class_communication_1_1_h_t_t_p__client.html#a241e78ccad7bcbc7597cb2dde7d7e402" target="_top" xlink:title=" ">
<polygon fill="none" stroke="black" points="325,-49 325,-79 450,-79 450,-49 325,-49"/>
<text text-anchor="start" x="333" y="-67" font-family="Helvetica,sans-Serif" font-size="10.00">Communication::HTTP</text>
<text text-anchor="middle" x="387.5" y="-56" font-family="Helvetica,sans-Serif" font-size="10.00">_client::post</text>
</a>
</g>
</g>
<!-- Node1&#45;&gt;Node7 -->
<g id="edge13" class="edge">
<title>Node1&#45;&gt;Node7</title>
<path fill="none" stroke="midnightblue" d="M93.01,-82.48C112.16,-76.79 137.79,-70.09 161,-67 212.13,-60.2 270.35,-59.61 314.83,-60.63"/>
<polygon fill="midnightblue" stroke="midnightblue" points="314.87,-64.13 324.96,-60.9 315.06,-57.14 314.87,-64.13"/>
</g>
<!-- Node11 -->
<g id="node11" class="node">
<title>Node11</title>
<g id="a_node11"><a xlink:href="../../d5/dbe/struct_kistler_1_1_a_p_i_1_1_trigger.html#a152ea47aa0aa7fac407b363ea67f2a84" target="_top" xlink:title=" ">
<polygon fill="none" stroke="black" points="161,-0.5 161,-19.5 289,-19.5 289,-0.5 161,-0.5"/>
<text text-anchor="middle" x="225" y="-7.5" font-family="Helvetica,sans-Serif" font-size="10.00">Kistler::API::Trigger::str</text>
</a>
</g>
</g>
<!-- Node1&#45;&gt;Node11 -->
<g id="edge14" class="edge">
<title>Node1&#45;&gt;Node11</title>
<path fill="none" stroke="midnightblue" d="M77.93,-82.34C96.58,-70.1 130.32,-48.83 161,-34 169.12,-30.08 178.05,-26.34 186.58,-23.04"/>
<polygon fill="midnightblue" stroke="midnightblue" points="187.84,-26.3 195.96,-19.5 185.37,-19.75 187.84,-26.3"/>
</g>
<!-- Node3 -->
<g id="node3" class="node">
<title>Node3</title>
<g id="a_node3"><a xlink:href="../../d2/d52/namespace_e_s_c.html#a080ff5f5b8a2ed3567a541acfa69a425" target="_top" xlink:title="fstr Prints a formated string.">
<polygon fill="none" stroke="black" points="521,-120.5 521,-139.5 579,-139.5 579,-120.5 521,-120.5"/>
<text text-anchor="middle" x="550" y="-127.5" font-family="Helvetica,sans-Serif" font-size="10.00">ESC::fstr</text>
</a>
</g>
</g>
<!-- Node2&#45;&gt;Node3 -->
<g id="edge2" class="edge">
<title>Node2&#45;&gt;Node3</title>
<path fill="none" stroke="midnightblue" d="M439.72,-130C462.64,-130 489.21,-130 510.41,-130"/>
<polygon fill="midnightblue" stroke="midnightblue" points="510.65,-133.5 520.65,-130 510.65,-126.5 510.65,-133.5"/>
</g>
<!-- Node2&#45;&gt;Node4 -->
<g id="edge3" class="edge">
<title>Node2&#45;&gt;Node4</title>
<path fill="none" stroke="midnightblue" d="M439.72,-143.09C459.65,-148.17 482.33,-153.97 501.84,-158.95"/>
<polygon fill="midnightblue" stroke="midnightblue" points="501.17,-162.39 511.72,-161.48 502.9,-155.61 501.17,-162.39"/>
</g>
<!-- Node5 -->
<g id="node5" class="node">
<title>Node5</title>
<g id="a_node5"><a xlink:href="../../d2/d52/namespace_e_s_c.html#a1ab0660788056c78944278261498664a" target="_top" xlink:title=" ">
<polygon fill="none" stroke="black" points="687.5,-161.5 687.5,-180.5 767.5,-180.5 767.5,-161.5 687.5,-161.5"/>
<text text-anchor="middle" x="727.5" y="-168.5" font-family="Helvetica,sans-Serif" font-size="10.00">ESC::get_pos</text>
</a>
</g>
</g>
<!-- Node4&#45;&gt;Node5 -->
<g id="edge4" class="edge">
<title>Node4&#45;&gt;Node5</title>
<path fill="none" stroke="midnightblue" d="M593.04,-171C618.28,-171 650.53,-171 677,-171"/>
<polygon fill="midnightblue" stroke="midnightblue" points="677.21,-174.5 687.21,-171 677.21,-167.5 677.21,-174.5"/>
</g>
<!-- Node6&#45;&gt;Node2 -->
<g id="edge6" class="edge">
<title>Node6&#45;&gt;Node2</title>
<path fill="none" stroke="midnightblue" d="M279.89,-104.76C294.61,-108.24 310.65,-112.04 325.73,-115.61"/>
<polygon fill="midnightblue" stroke="midnightblue" points="324.93,-119.02 335.47,-117.92 326.54,-112.21 324.93,-119.02"/>
</g>
<!-- Node6&#45;&gt;Node7 -->
<g id="edge7" class="edge">
<title>Node6&#45;&gt;Node7</title>
<path fill="none" stroke="midnightblue" d="M279.89,-82.6C291.2,-80.63 303.3,-78.51 315.14,-76.45"/>
<polygon fill="midnightblue" stroke="midnightblue" points="315.75,-79.9 325,-74.73 314.55,-73 315.75,-79.9"/>
</g>
<!-- Node8 -->
<g id="node8" class="node">
<title>Node8</title>
<g id="a_node8"><a xlink:href="../../df/dcd/class_communication_1_1_client.html#a73fec58648938364cd65d690f50bd7ec" target="_top" xlink:title="readS read the com inmterface.">
<polygon fill="none" stroke="black" points="486,-60 486,-90 614,-90 614,-60 486,-60"/>
<text text-anchor="start" x="494" y="-78" font-family="Helvetica,sans-Serif" font-size="10.00">Communication::Client</text>
<text text-anchor="middle" x="550" y="-67" font-family="Helvetica,sans-Serif" font-size="10.00">::readS</text>
</a>
</g>
</g>
<!-- Node7&#45;&gt;Node8 -->
<g id="edge8" class="edge">
<title>Node7&#45;&gt;Node8</title>
<path fill="none" stroke="midnightblue" d="M450.09,-68.22C458.55,-68.8 467.29,-69.4 475.92,-69.99"/>
<polygon fill="midnightblue" stroke="midnightblue" points="475.76,-73.49 485.98,-70.68 476.24,-66.5 475.76,-73.49"/>
</g>
<!-- Node10 -->
<g id="node10" class="node">
<title>Node10</title>
<g id="a_node10"><a xlink:href="../../df/dcd/class_communication_1_1_client.html#a32bd631bcb3b0a3476b146a0cc49332d" target="_top" xlink:title="writeS write the com interface.">
<polygon fill="none" stroke="black" points="486,-11 486,-41 614,-41 614,-11 486,-11"/>
<text text-anchor="start" x="494" y="-29" font-family="Helvetica,sans-Serif" font-size="10.00">Communication::Client</text>
<text text-anchor="middle" x="550" y="-18" font-family="Helvetica,sans-Serif" font-size="10.00">::writeS</text>
</a>
</g>
</g>
<!-- Node7&#45;&gt;Node10 -->
<g id="edge10" class="edge">
<title>Node7&#45;&gt;Node10</title>
<path fill="none" stroke="midnightblue" d="M450.09,-49.42C458.64,-47.39 467.48,-45.3 476.2,-43.24"/>
<polygon fill="midnightblue" stroke="midnightblue" points="477.05,-46.63 485.98,-40.92 475.44,-39.82 477.05,-46.63"/>
</g>
<!-- Node9 -->
<g id="node9" class="node">
<title>Node9</title>
<g id="a_node9"><a xlink:href="../../df/dcd/class_communication_1_1_client.html#a7020654cbb2e6f707fe637fc84d8328c" target="_top" xlink:title="CRC Compute and return the CRC over the n first bytes of buf.">
<polygon fill="none" stroke="black" points="650,-41.5 650,-60.5 805,-60.5 805,-41.5 650,-41.5"/>
<text text-anchor="middle" x="727.5" y="-48.5" font-family="Helvetica,sans-Serif" font-size="10.00">Communication::Client::CRC</text>
</a>
</g>
</g>
<!-- Node8&#45;&gt;Node9 -->
<g id="edge9" class="edge">
<title>Node8&#45;&gt;Node9</title>
<path fill="none" stroke="midnightblue" d="M614.36,-66.34C624.96,-64.89 636.07,-63.37 647.02,-61.87"/>
<polygon fill="midnightblue" stroke="midnightblue" points="647.56,-65.33 657,-60.5 646.61,-58.39 647.56,-65.33"/>
</g>
<!-- Node10&#45;&gt;Node9 -->
<g id="edge11" class="edge">
<title>Node10&#45;&gt;Node9</title>
<path fill="none" stroke="midnightblue" d="M614.36,-35.03C625.75,-36.65 637.74,-38.36 649.46,-40.03"/>
<polygon fill="midnightblue" stroke="midnightblue" points="649.29,-43.54 659.68,-41.48 650.28,-36.61 649.29,-43.54"/>
</g>
</g>
</svg>
