<?xml version="1.0" encoding="UTF-8" standalone="no"?>
<!DOCTYPE svg PUBLIC "-//W3C//DTD SVG 1.1//EN"
 "http://www.w3.org/Graphics/SVG/1.1/DTD/svg11.dtd">
<!-- Generated by graphviz version 2.43.0 (0)
 -->
<!-- Title: Kistler::API::delete_client Pages: 1 -->
<svg width="631pt" height="174pt"
 viewBox="0.00 0.00 631.00 174.00" xmlns="http://www.w3.org/2000/svg" xmlns:xlink="http://www.w3.org/1999/xlink">
<g id="graph0" class="graph" transform="scale(1 1) rotate(0) translate(4 170)">
<title>Kistler::API::delete_client</title>
<!-- Node1 -->
<g id="node1" class="node">
<title>Node1</title>
<g id="a_node1"><a xlink:title="Unregister a client.">
<polygon fill="#bfbfbf" stroke="black" points="0,-91.5 0,-121.5 107,-121.5 107,-91.5 0,-91.5"/>
<text text-anchor="start" x="8" y="-109.5" font-family="Helvetica,sans-Serif" font-size="10.00">Kistler::API::delete</text>
<text text-anchor="middle" x="53.5" y="-98.5" font-family="Helvetica,sans-Serif" font-size="10.00">_client</text>
</a>
</g>
</g>
<!-- Node2 -->
<g id="node2" class="node">
<title>Node2</title>
<g id="a_node2"><a xlink:href="../../da/d94/class_kistler_1_1_a_p_i.html#a19649fd0c024f8a66eaff543114532e9" target="_top" xlink:title="Check the satue of the reply (result:0 =&gt; OK)">
<polygon fill="none" stroke="black" points="153.5,-135.5 153.5,-165.5 257.5,-165.5 257.5,-135.5 153.5,-135.5"/>
<text text-anchor="start" x="161.5" y="-153.5" font-family="Helvetica,sans-Serif" font-size="10.00">Kistler::API::check</text>
<text text-anchor="middle" x="205.5" y="-142.5" font-family="Helvetica,sans-Serif" font-size="10.00">_msg_error</text>
</a>
</g>
</g>
<!-- Node1&#45;&gt;Node2 -->
<g id="edge1" class="edge">
<title>Node1&#45;&gt;Node2</title>
<path fill="none" stroke="midnightblue" d="M105.7,-121.52C117.82,-125.07 130.87,-128.9 143.38,-132.57"/>
<polygon fill="midnightblue" stroke="midnightblue" points="142.69,-136.02 153.27,-135.47 144.66,-129.3 142.69,-136.02"/>
</g>
<!-- Node4 -->
<g id="node4" class="node">
<title>Node4</title>
<g id="a_node4"><a xlink:href="../../dc/d44/class_e_s_c_1_1_c_l_i.html#abe1e5a3cc2cbd55c0704e9b13842e436" target="_top" xlink:title=" ">
<polygon fill="none" stroke="black" points="325,-102 325,-121 411,-121 411,-102 325,-102"/>
<text text-anchor="middle" x="368" y="-109" font-family="Helvetica,sans-Serif" font-size="10.00">ESC::CLI::logln</text>
</a>
</g>
</g>
<!-- Node1&#45;&gt;Node4 -->
<g id="edge5" class="edge">
<title>Node1&#45;&gt;Node4</title>
<path fill="none" stroke="midnightblue" d="M107.16,-107.34C164.8,-108.26 256.67,-109.73 314.32,-110.66"/>
<polygon fill="midnightblue" stroke="midnightblue" points="314.62,-114.16 324.67,-110.82 314.73,-107.16 314.62,-114.16"/>
</g>
<!-- Node6 -->
<g id="node6" class="node">
<title>Node6</title>
<g id="a_node6"><a xlink:href="../../d7/d60/class_communication_1_1_h_t_t_p__client.html#a241e78ccad7bcbc7597cb2dde7d7e402" target="_top" xlink:title=" ">
<polygon fill="none" stroke="black" points="143,-47.5 143,-77.5 268,-77.5 268,-47.5 143,-47.5"/>
<text text-anchor="start" x="151" y="-65.5" font-family="Helvetica,sans-Serif" font-size="10.00">Communication::HTTP</text>
<text text-anchor="middle" x="205.5" y="-54.5" font-family="Helvetica,sans-Serif" font-size="10.00">_client::post</text>
</a>
</g>
</g>
<!-- Node1&#45;&gt;Node6 -->
<g id="edge6" class="edge">
<title>Node1&#45;&gt;Node6</title>
<path fill="none" stroke="midnightblue" d="M105.7,-91.48C117.82,-87.93 130.87,-84.1 143.38,-80.43"/>
<polygon fill="midnightblue" stroke="midnightblue" points="144.66,-83.7 153.27,-77.53 142.69,-76.98 144.66,-83.7"/>
</g>
<!-- Node3 -->
<g id="node3" class="node">
<title>Node3</title>
<g id="a_node3"><a xlink:href="../../d2/d52/namespace_e_s_c.html#a080ff5f5b8a2ed3567a541acfa69a425" target="_top" xlink:title="fstr Prints a formated string.">
<polygon fill="none" stroke="black" points="339,-141 339,-160 397,-160 397,-141 339,-141"/>
<text text-anchor="middle" x="368" y="-148" font-family="Helvetica,sans-Serif" font-size="10.00">ESC::fstr</text>
</a>
</g>
</g>
<!-- Node2&#45;&gt;Node3 -->
<g id="edge2" class="edge">
<title>Node2&#45;&gt;Node3</title>
<path fill="none" stroke="midnightblue" d="M257.72,-150.5C280.64,-150.5 307.21,-150.5 328.41,-150.5"/>
<polygon fill="midnightblue" stroke="midnightblue" points="328.65,-154 338.65,-150.5 328.65,-147 328.65,-154"/>
</g>
<!-- Node2&#45;&gt;Node4 -->
<g id="edge3" class="edge">
<title>Node2&#45;&gt;Node4</title>
<path fill="none" stroke="midnightblue" d="M257.72,-138.05C276.93,-133.39 298.7,-128.1 317.73,-123.47"/>
<polygon fill="midnightblue" stroke="midnightblue" points="318.8,-126.81 327.69,-121.05 317.15,-120.01 318.8,-126.81"/>
</g>
<!-- Node5 -->
<g id="node5" class="node">
<title>Node5</title>
<g id="a_node5"><a xlink:href="../../d2/d52/namespace_e_s_c.html#a1ab0660788056c78944278261498664a" target="_top" xlink:title=" ">
<polygon fill="none" stroke="black" points="505.5,-102 505.5,-121 585.5,-121 585.5,-102 505.5,-102"/>
<text text-anchor="middle" x="545.5" y="-109" font-family="Helvetica,sans-Serif" font-size="10.00">ESC::get_pos</text>
</a>
</g>
</g>
<!-- Node4&#45;&gt;Node5 -->
<g id="edge4" class="edge">
<title>Node4&#45;&gt;Node5</title>
<path fill="none" stroke="midnightblue" d="M411.04,-111.5C436.28,-111.5 468.53,-111.5 495,-111.5"/>
<polygon fill="midnightblue" stroke="midnightblue" points="495.21,-115 505.21,-111.5 495.21,-108 495.21,-115"/>
</g>
<!-- Node7 -->
<g id="node7" class="node">
<title>Node7</title>
<g id="a_node7"><a xlink:href="../../df/dcd/class_communication_1_1_client.html#a73fec58648938364cd65d690f50bd7ec" target="_top" xlink:title="readS read the com inmterface.">
<polygon fill="none" stroke="black" points="304,-49.5 304,-79.5 432,-79.5 432,-49.5 304,-49.5"/>
<text text-anchor="start" x="312" y="-67.5" font-family="Helvetica,sans-Serif" font-size="10.00">Communication::Client</text>
<text text-anchor="middle" x="368" y="-56.5" font-family="Helvetica,sans-Serif" font-size="10.00">::readS</text>
</a>
</g>
</g>
<!-- Node6&#45;&gt;Node7 -->
<g id="edge7" class="edge">
<title>Node6&#45;&gt;Node7</title>
<path fill="none" stroke="midnightblue" d="M268.09,-63.27C276.55,-63.37 285.29,-63.48 293.92,-63.59"/>
<polygon fill="midnightblue" stroke="midnightblue" points="293.93,-67.09 303.98,-63.71 294.02,-60.09 293.93,-67.09"/>
</g>
<!-- Node9 -->
<g id="node9" class="node">
<title>Node9</title>
<g id="a_node9"><a xlink:href="../../df/dcd/class_communication_1_1_client.html#a32bd631bcb3b0a3476b146a0cc49332d" target="_top" xlink:title="writeS write the com interface.">
<polygon fill="none" stroke="black" points="304,-0.5 304,-30.5 432,-30.5 432,-0.5 304,-0.5"/>
<text text-anchor="start" x="312" y="-18.5" font-family="Helvetica,sans-Serif" font-size="10.00">Communication::Client</text>
<text text-anchor="middle" x="368" y="-7.5" font-family="Helvetica,sans-Serif" font-size="10.00">::writeS</text>
</a>
</g>
</g>
<!-- Node6&#45;&gt;Node9 -->
<g id="edge9" class="edge">
<title>Node6&#45;&gt;Node9</title>
<path fill="none" stroke="midnightblue" d="M257.72,-47.5C273.07,-43.01 290.05,-38.03 305.97,-33.37"/>
<polygon fill="midnightblue" stroke="midnightblue" points="307.1,-36.69 315.71,-30.52 305.13,-29.97 307.1,-36.69"/>
</g>
<!-- Node8 -->
<g id="node8" class="node">
<title>Node8</title>
<g id="a_node8"><a xlink:href="../../df/dcd/class_communication_1_1_client.html#a7020654cbb2e6f707fe637fc84d8328c" target="_top" xlink:title="CRC Compute and return the CRC over the n first bytes of buf.">
<polygon fill="none" stroke="black" points="468,-31 468,-50 623,-50 623,-31 468,-31"/>
<text text-anchor="middle" x="545.5" y="-38" font-family="Helvetica,sans-Serif" font-size="10.00">Communication::Client::CRC</text>
</a>
</g>
</g>
<!-- Node7&#45;&gt;Node8 -->
<g id="edge8" class="edge">
<title>Node7&#45;&gt;Node8</title>
<path fill="none" stroke="midnightblue" d="M432.36,-55.84C442.96,-54.39 454.07,-52.87 465.02,-51.37"/>
<polygon fill="midnightblue" stroke="midnightblue" points="465.56,-54.83 475,-50 464.61,-47.89 465.56,-54.83"/>
</g>
<!-- Node9&#45;&gt;Node8 -->
<g id="edge10" class="edge">
<title>Node9&#45;&gt;Node8</title>
<path fill="none" stroke="midnightblue" d="M432.36,-24.53C443.75,-26.15 455.74,-27.86 467.46,-29.53"/>
<polygon fill="midnightblue" stroke="midnightblue" points="467.29,-33.04 477.68,-30.98 468.28,-26.11 467.29,-33.04"/>
</g>
</g>
</svg>
