<?xml version="1.0" encoding="UTF-8" standalone="no"?>
<!DOCTYPE svg PUBLIC "-//W3C//DTD SVG 1.1//EN"
 "http://www.w3.org/Graphics/SVG/1.1/DTD/svg11.dtd">
<!-- Generated by graphviz version 2.43.0 (0)
 -->
<!-- Title: main Pages: 1 -->
<svg width="404pt" height="204pt"
 viewBox="0.00 0.00 404.00 204.00" xmlns="http://www.w3.org/2000/svg" xmlns:xlink="http://www.w3.org/1999/xlink">
<g id="graph0" class="graph" transform="scale(1 1) rotate(0) translate(4 200)">
<title>main</title>
<!-- Node1 -->
<g id="node1" class="node">
<title>Node1</title>
<g id="a_node1"><a xlink:title=" ">
<polygon fill="#bfbfbf" stroke="black" points="0,-79 0,-98 41,-98 41,-79 0,-79"/>
<text text-anchor="middle" x="20.5" y="-86" font-family="Helvetica,sans-Serif" font-size="10.00">main</text>
</a>
</g>
</g>
<!-- Node2 -->
<g id="node2" class="node">
<title>Node2</title>
<g id="a_node2"><a xlink:href="../../df/dcd/class_communication_1_1_client.html#a66336ae23ea502a9395010407a952664" target="_top" xlink:title="open_connection Open the connection the serial or network or interface">
<polygon fill="none" stroke="black" points="77,-165.5 77,-195.5 205,-195.5 205,-165.5 77,-165.5"/>
<text text-anchor="start" x="85" y="-183.5" font-family="Helvetica,sans-Serif" font-size="10.00">Communication::Client</text>
<text text-anchor="middle" x="141" y="-172.5" font-family="Helvetica,sans-Serif" font-size="10.00">::open_connection</text>
</a>
</g>
</g>
<!-- Node1&#45;&gt;Node2 -->
<g id="edge1" class="edge">
<title>Node1&#45;&gt;Node2</title>
<path fill="none" stroke="midnightblue" d="M27.09,-98.19C35.95,-112.75 54.51,-140.27 77,-156.5 78.89,-157.86 80.87,-159.16 82.9,-160.39"/>
<polygon fill="midnightblue" stroke="midnightblue" points="81.7,-163.72 92.16,-165.38 85.02,-157.56 81.7,-163.72"/>
</g>
<!-- Node3 -->
<g id="node3" class="node">
<title>Node3</title>
<g id="a_node3"><a xlink:href="../../d6/d55/classlsl_1_1stream__outlet.html#a675bbe044a5053087e05e0267fe6722a" target="_top" xlink:title=" ">
<polygon fill="none" stroke="black" points="90,-98.5 90,-128.5 192,-128.5 192,-98.5 90,-98.5"/>
<text text-anchor="start" x="98" y="-116.5" font-family="Helvetica,sans-Serif" font-size="10.00">lsl::stream_outlet</text>
<text text-anchor="middle" x="141" y="-105.5" font-family="Helvetica,sans-Serif" font-size="10.00">::push_sample</text>
</a>
</g>
</g>
<!-- Node1&#45;&gt;Node3 -->
<g id="edge2" class="edge">
<title>Node1&#45;&gt;Node3</title>
<path fill="none" stroke="midnightblue" d="M41.07,-92.63C51.81,-94.89 65.76,-97.84 79.79,-100.8"/>
<polygon fill="midnightblue" stroke="midnightblue" points="79.47,-104.31 89.97,-102.95 80.91,-97.46 79.47,-104.31"/>
</g>
<!-- Node4 -->
<g id="node4" class="node">
<title>Node4</title>
<g id="a_node4"><a xlink:href="../../df/dcd/class_communication_1_1_client.html#a73fec58648938364cd65d690f50bd7ec" target="_top" xlink:title="readS read the com inmterface.">
<polygon fill="none" stroke="black" points="77,-49.5 77,-79.5 205,-79.5 205,-49.5 77,-49.5"/>
<text text-anchor="start" x="85" y="-67.5" font-family="Helvetica,sans-Serif" font-size="10.00">Communication::Client</text>
<text text-anchor="middle" x="141" y="-56.5" font-family="Helvetica,sans-Serif" font-size="10.00">::readS</text>
</a>
</g>
</g>
<!-- Node1&#45;&gt;Node4 -->
<g id="edge4" class="edge">
<title>Node1&#45;&gt;Node4</title>
<path fill="none" stroke="midnightblue" d="M41.07,-84.54C48.48,-83.03 57.43,-81.22 66.88,-79.31"/>
<polygon fill="midnightblue" stroke="midnightblue" points="67.76,-82.7 76.87,-77.29 66.37,-75.84 67.76,-82.7"/>
</g>
<!-- Node6 -->
<g id="node6" class="node">
<title>Node6</title>
<g id="a_node6"><a xlink:href="../../df/dcd/class_communication_1_1_client.html#a32bd631bcb3b0a3476b146a0cc49332d" target="_top" xlink:title="writeS write the com interface.">
<polygon fill="none" stroke="black" points="77,-0.5 77,-30.5 205,-30.5 205,-0.5 77,-0.5"/>
<text text-anchor="start" x="85" y="-18.5" font-family="Helvetica,sans-Serif" font-size="10.00">Communication::Client</text>
<text text-anchor="middle" x="141" y="-7.5" font-family="Helvetica,sans-Serif" font-size="10.00">::writeS</text>
</a>
</g>
</g>
<!-- Node1&#45;&gt;Node6 -->
<g id="edge6" class="edge">
<title>Node1&#45;&gt;Node6</title>
<path fill="none" stroke="midnightblue" d="M30.55,-78.94C40.95,-68.4 58.92,-51.47 77,-40.5 80.21,-38.55 83.59,-36.71 87.06,-34.96"/>
<polygon fill="midnightblue" stroke="midnightblue" points="88.81,-38 96.37,-30.58 85.84,-31.67 88.81,-38"/>
</g>
<!-- Node3&#45;&gt;Node3 -->
<g id="edge3" class="edge">
<title>Node3&#45;&gt;Node3</title>
<path fill="none" stroke="midnightblue" d="M120.09,-128.66C115.04,-138.06 122.02,-147 141,-147 152.57,-147 159.68,-143.68 162.32,-138.96"/>
<polygon fill="midnightblue" stroke="midnightblue" points="165.81,-138.51 161.91,-128.66 158.81,-138.79 165.81,-138.51"/>
</g>
<!-- Node5 -->
<g id="node5" class="node">
<title>Node5</title>
<g id="a_node5"><a xlink:href="../../df/dcd/class_communication_1_1_client.html#a7020654cbb2e6f707fe637fc84d8328c" target="_top" xlink:title="CRC Compute and return the CRC over the n first bytes of buf.">
<polygon fill="none" stroke="black" points="241,-30 241,-49 396,-49 396,-30 241,-30"/>
<text text-anchor="middle" x="318.5" y="-37" font-family="Helvetica,sans-Serif" font-size="10.00">Communication::Client::CRC</text>
</a>
</g>
</g>
<!-- Node4&#45;&gt;Node5 -->
<g id="edge5" class="edge">
<title>Node4&#45;&gt;Node5</title>
<path fill="none" stroke="midnightblue" d="M205.36,-55.47C216.75,-53.85 228.74,-52.14 240.46,-50.47"/>
<polygon fill="midnightblue" stroke="midnightblue" points="241.28,-53.89 250.68,-49.02 240.29,-46.96 241.28,-53.89"/>
</g>
<!-- Node6&#45;&gt;Node5 -->
<g id="edge7" class="edge">
<title>Node6&#45;&gt;Node5</title>
<path fill="none" stroke="midnightblue" d="M205.36,-24.16C215.96,-25.61 227.07,-27.13 238.02,-28.63"/>
<polygon fill="midnightblue" stroke="midnightblue" points="237.61,-32.11 248,-30 238.56,-25.17 237.61,-32.11"/>
</g>
</g>
</svg>
