<?xml version="1.0" encoding="UTF-8" standalone="no"?>
<!DOCTYPE svg PUBLIC "-//W3C//DTD SVG 1.1//EN"
 "http://www.w3.org/Graphics/SVG/1.1/DTD/svg11.dtd">
<!-- Generated by graphviz version 2.43.0 (0)
 -->
<!-- Title: /home/aightech/dev/kistler_DAQ/lib/com_client/src/http_client.cpp Pages: 1 -->
<svg width="467pt" height="274pt"
 viewBox="0.00 0.00 466.50 274.00" xmlns="http://www.w3.org/2000/svg" xmlns:xlink="http://www.w3.org/1999/xlink">
<g id="graph0" class="graph" transform="scale(1 1) rotate(0) translate(4 270)">
<title>/home/aightech/dev/kistler_DAQ/lib/com_client/src/http_client.cpp</title>
<!-- Node1 -->
<g id="node1" class="node">
<title>Node1</title>
<g id="a_node1"><a xlink:title=" ">
<polygon fill="#bfbfbf" stroke="black" points="81.5,-224.5 81.5,-265.5 222.5,-265.5 222.5,-224.5 81.5,-224.5"/>
<text text-anchor="start" x="89.5" y="-253.5" font-family="Helvetica,sans-Serif" font-size="10.00">/home/aightech/dev</text>
<text text-anchor="start" x="89.5" y="-242.5" font-family="Helvetica,sans-Serif" font-size="10.00">/kistler_DAQ/lib/com</text>
<text text-anchor="middle" x="152" y="-231.5" font-family="Helvetica,sans-Serif" font-size="10.00">_client/src/http_client.cpp</text>
</a>
</g>
</g>
<!-- Node2 -->
<g id="node2" class="node">
<title>Node2</title>
<g id="a_node2"><a xlink:href="../../d9/dcd/http__client_8hpp.html" target="_top" xlink:title=" ">
<polygon fill="none" stroke="black" points="107.5,-168.5 107.5,-187.5 196.5,-187.5 196.5,-168.5 107.5,-168.5"/>
<text text-anchor="middle" x="152" y="-175.5" font-family="Helvetica,sans-Serif" font-size="10.00">http_client.hpp</text>
</a>
</g>
</g>
<!-- Node1&#45;&gt;Node2 -->
<g id="edge1" class="edge">
<title>Node1&#45;&gt;Node2</title>
<path fill="none" stroke="midnightblue" d="M152,-224.5C152,-216.07 152,-206.24 152,-197.87"/>
<polygon fill="midnightblue" stroke="midnightblue" points="155.5,-197.65 152,-187.65 148.5,-197.65 155.5,-197.65"/>
</g>
<!-- Node3 -->
<g id="node3" class="node">
<title>Node3</title>
<g id="a_node3"><a xlink:href="../../dc/d13/com__client_8hpp.html" target="_top" xlink:title=" ">
<polygon fill="none" stroke="black" points="62.5,-112.5 62.5,-131.5 153.5,-131.5 153.5,-112.5 62.5,-112.5"/>
<text text-anchor="middle" x="108" y="-119.5" font-family="Helvetica,sans-Serif" font-size="10.00">com_client.hpp</text>
</a>
</g>
</g>
<!-- Node2&#45;&gt;Node3 -->
<g id="edge2" class="edge">
<title>Node2&#45;&gt;Node3</title>
<path fill="none" stroke="midnightblue" d="M144.73,-168.08C138.46,-160.38 129.21,-149.03 121.57,-139.65"/>
<polygon fill="midnightblue" stroke="midnightblue" points="124.16,-137.29 115.13,-131.75 118.73,-141.71 124.16,-137.29"/>
</g>
<!-- Node14 -->
<g id="node14" class="node">
<title>Node14</title>
<g id="a_node14"><a xlink:title=" ">
<polygon fill="none" stroke="#bfbfbf" points="172,-112.5 172,-131.5 222,-131.5 222,-112.5 172,-112.5"/>
<text text-anchor="middle" x="197" y="-119.5" font-family="Helvetica,sans-Serif" font-size="10.00">cstring</text>
</a>
</g>
</g>
<!-- Node2&#45;&gt;Node14 -->
<g id="edge14" class="edge">
<title>Node2&#45;&gt;Node14</title>
<path fill="none" stroke="midnightblue" d="M159.43,-168.08C165.85,-160.38 175.31,-149.03 183.12,-139.65"/>
<polygon fill="midnightblue" stroke="midnightblue" points="185.99,-141.67 189.71,-131.75 180.62,-137.19 185.99,-141.67"/>
</g>
<!-- Node4 -->
<g id="node4" class="node">
<title>Node4</title>
<g id="a_node4"><a xlink:title=" ">
<polygon fill="none" stroke="#bfbfbf" points="0,-0.5 0,-19.5 60,-19.5 60,-0.5 0,-0.5"/>
<text text-anchor="middle" x="30" y="-7.5" font-family="Helvetica,sans-Serif" font-size="10.00">iostream</text>
</a>
</g>
</g>
<!-- Node3&#45;&gt;Node4 -->
<g id="edge3" class="edge">
<title>Node3&#45;&gt;Node4</title>
<path fill="none" stroke="midnightblue" d="M62.27,-112.9C41.06,-106.61 17.77,-95.51 5,-76 -4.88,-60.9 5.26,-41.3 15.44,-27.59"/>
<polygon fill="midnightblue" stroke="midnightblue" points="18.38,-29.52 21.92,-19.54 12.92,-25.13 18.38,-29.52"/>
</g>
<!-- Node5 -->
<g id="node5" class="node">
<title>Node5</title>
<g id="a_node5"><a xlink:title=" ">
<polygon fill="none" stroke="#bfbfbf" points="14.5,-56.5 14.5,-75.5 65.5,-75.5 65.5,-56.5 14.5,-56.5"/>
<text text-anchor="middle" x="40" y="-63.5" font-family="Helvetica,sans-Serif" font-size="10.00">math.h</text>
</a>
</g>
</g>
<!-- Node3&#45;&gt;Node5 -->
<g id="edge4" class="edge">
<title>Node3&#45;&gt;Node5</title>
<path fill="none" stroke="midnightblue" d="M97.07,-112.32C86.83,-104.18 71.28,-91.84 59,-82.09"/>
<polygon fill="midnightblue" stroke="midnightblue" points="61.13,-79.31 51.12,-75.83 56.78,-84.79 61.13,-79.31"/>
</g>
<!-- Node6 -->
<g id="node6" class="node">
<title>Node6</title>
<g id="a_node6"><a xlink:title=" ">
<polygon fill="none" stroke="#bfbfbf" points="84,-56.5 84,-75.5 132,-75.5 132,-56.5 84,-56.5"/>
<text text-anchor="middle" x="108" y="-63.5" font-family="Helvetica,sans-Serif" font-size="10.00">mutex</text>
</a>
</g>
</g>
<!-- Node3&#45;&gt;Node6 -->
<g id="edge5" class="edge">
<title>Node3&#45;&gt;Node6</title>
<path fill="none" stroke="midnightblue" d="M108,-112.08C108,-105.01 108,-94.86 108,-85.99"/>
<polygon fill="midnightblue" stroke="midnightblue" points="111.5,-85.75 108,-75.75 104.5,-85.75 111.5,-85.75"/>
</g>
<!-- Node7 -->
<g id="node7" class="node">
<title>Node7</title>
<g id="a_node7"><a xlink:title=" ">
<polygon fill="none" stroke="#bfbfbf" points="150.5,-56.5 150.5,-75.5 215.5,-75.5 215.5,-56.5 150.5,-56.5"/>
<text text-anchor="middle" x="183" y="-63.5" font-family="Helvetica,sans-Serif" font-size="10.00">stdexcept</text>
</a>
</g>
</g>
<!-- Node3&#45;&gt;Node7 -->
<g id="edge6" class="edge">
<title>Node3&#45;&gt;Node7</title>
<path fill="none" stroke="midnightblue" d="M120.05,-112.32C131.46,-104.11 148.83,-91.6 162.43,-81.81"/>
<polygon fill="midnightblue" stroke="midnightblue" points="164.66,-84.52 170.73,-75.83 160.57,-78.84 164.66,-84.52"/>
</g>
<!-- Node8 -->
<g id="node8" class="node">
<title>Node8</title>
<g id="a_node8"><a xlink:href="../../df/df2/str_a_n_s_iseq_8hpp.html" target="_top" xlink:title=" ">
<polygon fill="none" stroke="black" points="233.5,-56.5 233.5,-75.5 324.5,-75.5 324.5,-56.5 233.5,-56.5"/>
<text text-anchor="middle" x="279" y="-63.5" font-family="Helvetica,sans-Serif" font-size="10.00">strANSIseq.hpp</text>
</a>
</g>
</g>
<!-- Node3&#45;&gt;Node8 -->
<g id="edge7" class="edge">
<title>Node3&#45;&gt;Node8</title>
<path fill="none" stroke="midnightblue" d="M135.1,-112.44C163.99,-103.32 209.92,-88.81 242.11,-78.65"/>
<polygon fill="midnightblue" stroke="midnightblue" points="243.55,-81.87 252.03,-75.52 241.44,-75.19 243.55,-81.87"/>
</g>
<!-- Node8&#45;&gt;Node4 -->
<g id="edge9" class="edge">
<title>Node8&#45;&gt;Node4</title>
<path fill="none" stroke="midnightblue" d="M239.55,-56.44C193.27,-46.41 116.96,-29.86 70.31,-19.74"/>
<polygon fill="midnightblue" stroke="midnightblue" points="70.78,-16.26 60.26,-17.56 69.29,-23.1 70.78,-16.26"/>
</g>
<!-- Node9 -->
<g id="node9" class="node">
<title>Node9</title>
<g id="a_node9"><a xlink:title=" ">
<polygon fill="none" stroke="#bfbfbf" points="121.5,-0.5 121.5,-19.5 174.5,-19.5 174.5,-0.5 121.5,-0.5"/>
<text text-anchor="middle" x="148" y="-7.5" font-family="Helvetica,sans-Serif" font-size="10.00">cstdarg</text>
</a>
</g>
</g>
<!-- Node8&#45;&gt;Node9 -->
<g id="edge8" class="edge">
<title>Node8&#45;&gt;Node9</title>
<path fill="none" stroke="midnightblue" d="M258.24,-56.44C236.68,-47.56 202.74,-33.56 178.21,-23.45"/>
<polygon fill="midnightblue" stroke="midnightblue" points="179.24,-20.09 168.66,-19.52 176.57,-26.56 179.24,-20.09"/>
</g>
<!-- Node10 -->
<g id="node10" class="node">
<title>Node10</title>
<g id="a_node10"><a xlink:title=" ">
<polygon fill="none" stroke="#bfbfbf" points="193,-0.5 193,-19.5 237,-19.5 237,-0.5 193,-0.5"/>
<text text-anchor="middle" x="215" y="-7.5" font-family="Helvetica,sans-Serif" font-size="10.00">string</text>
</a>
</g>
</g>
<!-- Node8&#45;&gt;Node10 -->
<g id="edge10" class="edge">
<title>Node8&#45;&gt;Node10</title>
<path fill="none" stroke="midnightblue" d="M268.72,-56.32C259.16,-48.26 244.72,-36.08 233.22,-26.37"/>
<polygon fill="midnightblue" stroke="midnightblue" points="235.37,-23.61 225.47,-19.83 230.86,-28.96 235.37,-23.61"/>
</g>
<!-- Node11 -->
<g id="node11" class="node">
<title>Node11</title>
<g id="a_node11"><a xlink:title=" ">
<polygon fill="none" stroke="#bfbfbf" points="255.5,-0.5 255.5,-19.5 302.5,-19.5 302.5,-0.5 255.5,-0.5"/>
<text text-anchor="middle" x="279" y="-7.5" font-family="Helvetica,sans-Serif" font-size="10.00">vector</text>
</a>
</g>
</g>
<!-- Node8&#45;&gt;Node11 -->
<g id="edge11" class="edge">
<title>Node8&#45;&gt;Node11</title>
<path fill="none" stroke="midnightblue" d="M279,-56.08C279,-49.01 279,-38.86 279,-29.99"/>
<polygon fill="midnightblue" stroke="midnightblue" points="282.5,-29.75 279,-19.75 275.5,-29.75 282.5,-29.75"/>
</g>
<!-- Node12 -->
<g id="node12" class="node">
<title>Node12</title>
<g id="a_node12"><a xlink:title=" ">
<polygon fill="none" stroke="#bfbfbf" points="321,-0.5 321,-19.5 377,-19.5 377,-0.5 321,-0.5"/>
<text text-anchor="middle" x="349" y="-7.5" font-family="Helvetica,sans-Serif" font-size="10.00">unistd.h</text>
</a>
</g>
</g>
<!-- Node8&#45;&gt;Node12 -->
<g id="edge12" class="edge">
<title>Node8&#45;&gt;Node12</title>
<path fill="none" stroke="midnightblue" d="M290.25,-56.32C300.8,-48.18 316.8,-35.84 329.44,-26.09"/>
<polygon fill="midnightblue" stroke="midnightblue" points="331.77,-28.71 337.55,-19.83 327.49,-23.17 331.77,-28.71"/>
</g>
<!-- Node13 -->
<g id="node13" class="node">
<title>Node13</title>
<g id="a_node13"><a xlink:title=" ">
<polygon fill="none" stroke="#bfbfbf" points="395.5,-0.5 395.5,-19.5 458.5,-19.5 458.5,-0.5 395.5,-0.5"/>
<text text-anchor="middle" x="427" y="-7.5" font-family="Helvetica,sans-Serif" font-size="10.00">termios.h</text>
</a>
</g>
</g>
<!-- Node8&#45;&gt;Node13 -->
<g id="edge13" class="edge">
<title>Node8&#45;&gt;Node13</title>
<path fill="none" stroke="midnightblue" d="M302.45,-56.44C327.13,-47.44 366.19,-33.19 393.98,-23.05"/>
<polygon fill="midnightblue" stroke="midnightblue" points="395.46,-26.23 403.66,-19.52 393.06,-19.66 395.46,-26.23"/>
</g>
</g>
</svg>
