<?xml version="1.0" encoding="UTF-8" standalone="no"?>
<!DOCTYPE svg PUBLIC "-//W3C//DTD SVG 1.1//EN"
 "http://www.w3.org/Graphics/SVG/1.1/DTD/svg11.dtd">
<!-- Generated by graphviz version 2.43.0 (0)
 -->
<!-- Title: /home/aightech/dev/kistler_DAQ/include/kistler_API.hpp Pages: 1 -->
<svg width="353pt" height="206pt"
 viewBox="0.00 0.00 353.00 206.00" xmlns="http://www.w3.org/2000/svg" xmlns:xlink="http://www.w3.org/1999/xlink">
<g id="graph0" class="graph" transform="scale(1 1) rotate(0) translate(4 202)">
<title>/home/aightech/dev/kistler_DAQ/include/kistler_API.hpp</title>
<!-- Node1 -->
<g id="node1" class="node">
<title>Node1</title>
<g id="a_node1"><a xlink:title=" ">
<polygon fill="#bfbfbf" stroke="black" points="153,-156.5 153,-197.5 269,-197.5 269,-156.5 153,-156.5"/>
<text text-anchor="start" x="161" y="-185.5" font-family="Helvetica,sans-Serif" font-size="10.00">/home/aightech/dev</text>
<text text-anchor="start" x="161" y="-174.5" font-family="Helvetica,sans-Serif" font-size="10.00">/kistler_DAQ/include</text>
<text text-anchor="middle" x="211" y="-163.5" font-family="Helvetica,sans-Serif" font-size="10.00">/kistler_API.hpp</text>
</a>
</g>
</g>
<!-- Node2 -->
<g id="node2" class="node">
<title>Node2</title>
<g id="a_node2"><a xlink:href="../../d0/ddf/kistler___d_a_q_8hpp.html" target="_top" xlink:title=" ">
<polygon fill="none" stroke="black" points="83,-78.5 83,-119.5 199,-119.5 199,-78.5 83,-78.5"/>
<text text-anchor="start" x="91" y="-107.5" font-family="Helvetica,sans-Serif" font-size="10.00">/home/aightech/dev</text>
<text text-anchor="start" x="91" y="-96.5" font-family="Helvetica,sans-Serif" font-size="10.00">/kistler_DAQ/include</text>
<text text-anchor="middle" x="141" y="-85.5" font-family="Helvetica,sans-Serif" font-size="10.00">/kistler_DAQ.hpp</text>
</a>
</g>
</g>
<!-- Node1&#45;&gt;Node2 -->
<g id="edge1" class="edge">
<title>Node1&#45;&gt;Node2</title>
<path fill="none" stroke="midnightblue" d="M186.05,-148.92C177.11,-139.2 167.2,-128.45 158.97,-119.51"/>
<polygon fill="midnightblue" stroke="midnightblue" points="183.62,-151.44 192.97,-156.43 188.77,-146.7 183.62,-151.44"/>
</g>
<!-- Node5 -->
<g id="node5" class="node">
<title>Node5</title>
<g id="a_node5"><a xlink:href="../../dc/d5f/kistler___a_p_i_8cpp.html" target="_top" xlink:title=" ">
<polygon fill="none" stroke="black" points="217,-78.5 217,-119.5 345,-119.5 345,-78.5 217,-78.5"/>
<text text-anchor="start" x="225" y="-107.5" font-family="Helvetica,sans-Serif" font-size="10.00">/home/aightech/dev</text>
<text text-anchor="start" x="225" y="-96.5" font-family="Helvetica,sans-Serif" font-size="10.00">/kistler_DAQ/src/kistler</text>
<text text-anchor="middle" x="281" y="-85.5" font-family="Helvetica,sans-Serif" font-size="10.00">_API.cpp</text>
</a>
</g>
</g>
<!-- Node1&#45;&gt;Node5 -->
<g id="edge4" class="edge">
<title>Node1&#45;&gt;Node5</title>
<path fill="none" stroke="midnightblue" d="M235.95,-148.92C244.89,-139.2 254.8,-128.45 263.03,-119.51"/>
<polygon fill="midnightblue" stroke="midnightblue" points="233.23,-146.7 229.03,-156.43 238.38,-151.44 233.23,-146.7"/>
</g>
<!-- Node3 -->
<g id="node3" class="node">
<title>Node3</title>
<g id="a_node3"><a xlink:href="../../d9/dd6/kistler___d_a_q_8cpp.html" target="_top" xlink:title=" ">
<polygon fill="none" stroke="black" points="0,-0.5 0,-41.5 128,-41.5 128,-0.5 0,-0.5"/>
<text text-anchor="start" x="8" y="-29.5" font-family="Helvetica,sans-Serif" font-size="10.00">/home/aightech/dev</text>
<text text-anchor="start" x="8" y="-18.5" font-family="Helvetica,sans-Serif" font-size="10.00">/kistler_DAQ/src/kistler</text>
<text text-anchor="middle" x="64" y="-7.5" font-family="Helvetica,sans-Serif" font-size="10.00">_DAQ.cpp</text>
</a>
</g>
</g>
<!-- Node2&#45;&gt;Node3 -->
<g id="edge2" class="edge">
<title>Node2&#45;&gt;Node3</title>
<path fill="none" stroke="midnightblue" d="M113.85,-71.2C103.93,-61.42 92.91,-50.54 83.76,-41.51"/>
<polygon fill="midnightblue" stroke="midnightblue" points="111.59,-73.89 121.17,-78.43 116.51,-68.91 111.59,-73.89"/>
</g>
<!-- Node4 -->
<g id="node4" class="node">
<title>Node4</title>
<g id="a_node4"><a xlink:href="../../de/dfb/src_2main_8cpp.html" target="_top" xlink:title=" ">
<polygon fill="none" stroke="black" points="146.5,-6 146.5,-36 289.5,-36 289.5,-6 146.5,-6"/>
<text text-anchor="start" x="154.5" y="-24" font-family="Helvetica,sans-Serif" font-size="10.00">/home/aightech/dev</text>
<text text-anchor="middle" x="218" y="-13" font-family="Helvetica,sans-Serif" font-size="10.00">/kistler_DAQ/src/main.cpp</text>
</a>
</g>
</g>
<!-- Node2&#45;&gt;Node4 -->
<g id="edge3" class="edge">
<title>Node2&#45;&gt;Node4</title>
<path fill="none" stroke="midnightblue" d="M168.03,-71.32C180,-59.51 193.6,-46.08 203.59,-36.23"/>
<polygon fill="midnightblue" stroke="midnightblue" points="165.49,-68.91 160.83,-78.43 170.41,-73.89 165.49,-68.91"/>
</g>
</g>
</svg>
