<?xml version="1.0" encoding="UTF-8" standalone="no"?>
<!DOCTYPE svg PUBLIC "-//W3C//DTD SVG 1.1//EN"
 "http://www.w3.org/Graphics/SVG/1.1/DTD/svg11.dtd">
<!-- Generated by graphviz version 2.43.0 (0)
 -->
<!-- Title: ESC::fstr Pages: 1 -->
<svg width="857pt" height="586pt"
 viewBox="0.00 0.00 857.00 586.00" xmlns="http://www.w3.org/2000/svg" xmlns:xlink="http://www.w3.org/1999/xlink">
<g id="graph0" class="graph" transform="scale(1 1) rotate(0) translate(4 582)">
<title>ESC::fstr</title>
<!-- Node1 -->
<g id="node1" class="node">
<title>Node1</title>
<g id="a_node1"><a xlink:title="fstr Prints a formated string.">
<polygon fill="#bfbfbf" stroke="black" points="791,-126 791,-145 849,-145 849,-126 791,-126"/>
<text text-anchor="middle" x="820" y="-133" font-family="Helvetica,sans-Serif" font-size="10.00">ESC::fstr</text>
</a>
</g>
</g>
<!-- Node2 -->
<g id="node2" class="node">
<title>Node2</title>
<g id="a_node2"><a xlink:href="../../da/d94/class_kistler_1_1_a_p_i.html#a19649fd0c024f8a66eaff543114532e9" target="_top" xlink:title="Check the satue of the reply (result:0 =&gt; OK)">
<polygon fill="none" stroke="black" points="639,-366.5 639,-396.5 743,-396.5 743,-366.5 639,-366.5"/>
<text text-anchor="start" x="647" y="-384.5" font-family="Helvetica,sans-Serif" font-size="10.00">Kistler::API::check</text>
<text text-anchor="middle" x="691" y="-373.5" font-family="Helvetica,sans-Serif" font-size="10.00">_msg_error</text>
</a>
</g>
</g>
<!-- Node1&#45;&gt;Node2 -->
<g id="edge1" class="edge">
<title>Node1&#45;&gt;Node2</title>
<path fill="none" stroke="midnightblue" d="M809.34,-154.2C785.1,-201.16 722.03,-323.33 699.85,-366.29"/>
<polygon fill="midnightblue" stroke="midnightblue" points="812.54,-155.63 814.02,-145.14 806.32,-152.42 812.54,-155.63"/>
</g>
<!-- Node15 -->
<g id="node15" class="node">
<title>Node15</title>
<g id="a_node15"><a xlink:href="../../dc/d44/class_e_s_c_1_1_c_l_i.html#a47b6c71a4c59354a3f9c0cd9bd011807" target="_top" xlink:title=" ">
<polygon fill="none" stroke="black" points="652.5,-214 652.5,-233 729.5,-233 729.5,-214 652.5,-214"/>
<text text-anchor="middle" x="691" y="-221" font-family="Helvetica,sans-Serif" font-size="10.00">ESC::CLI::CLI</text>
</a>
</g>
</g>
<!-- Node1&#45;&gt;Node15 -->
<g id="edge20" class="edge">
<title>Node1&#45;&gt;Node15</title>
<path fill="none" stroke="midnightblue" d="M806.74,-153.35C795.12,-168.97 776.32,-191.19 755,-204.5 747.34,-209.28 738.41,-212.92 729.72,-215.66"/>
<polygon fill="midnightblue" stroke="midnightblue" points="809.72,-155.19 812.71,-145.03 804.04,-151.11 809.72,-155.19"/>
</g>
<!-- Node16 -->
<g id="node16" class="node">
<title>Node16</title>
<g id="a_node16"><a xlink:href="../../df/dcd/class_communication_1_1_client.html#aa448a9277e9bed8326f74ad81062ab77" target="_top" xlink:title=" ">
<polygon fill="none" stroke="black" points="627,-164.5 627,-194.5 755,-194.5 755,-164.5 627,-164.5"/>
<text text-anchor="start" x="635" y="-182.5" font-family="Helvetica,sans-Serif" font-size="10.00">Communication::Client</text>
<text text-anchor="middle" x="691" y="-171.5" font-family="Helvetica,sans-Serif" font-size="10.00">::close_connection</text>
</a>
</g>
</g>
<!-- Node1&#45;&gt;Node16 -->
<g id="edge21" class="edge">
<title>Node1&#45;&gt;Node16</title>
<path fill="none" stroke="midnightblue" d="M781.8,-148.39C767.29,-153.42 750.55,-159.22 735.48,-164.43"/>
<polygon fill="midnightblue" stroke="midnightblue" points="783.14,-151.63 791.44,-145.05 780.85,-145.01 783.14,-151.63"/>
</g>
<!-- Node19 -->
<g id="node19" class="node">
<title>Node19</title>
<g id="a_node19"><a xlink:href="../../d2/d52/namespace_e_s_c.html#a6f0f9c5cc6b334d09b6da6834c02af16" target="_top" xlink:title=" ">
<polygon fill="none" stroke="black" points="656.5,-126 656.5,-145 725.5,-145 725.5,-126 656.5,-126"/>
<text text-anchor="middle" x="691" y="-133" font-family="Helvetica,sans-Serif" font-size="10.00">ESC::fstr_n</text>
</a>
</g>
</g>
<!-- Node1&#45;&gt;Node19 -->
<g id="edge25" class="edge">
<title>Node1&#45;&gt;Node19</title>
<path fill="none" stroke="midnightblue" d="M780.36,-135.5C762.86,-135.5 742.36,-135.5 725.51,-135.5"/>
<polygon fill="midnightblue" stroke="midnightblue" points="780.81,-139 790.81,-135.5 780.81,-132 780.81,-139"/>
</g>
<!-- Node20 -->
<g id="node20" class="node">
<title>Node20</title>
<g id="a_node20"><a xlink:href="../../dc/d44/class_e_s_c_1_1_c_l_i.html#aee4e23e87ebd3cf3909f1760a5fda04b" target="_top" xlink:title=" ">
<polygon fill="none" stroke="black" points="638,-88 638,-107 744,-107 744,-88 638,-88"/>
<text text-anchor="middle" x="691" y="-95" font-family="Helvetica,sans-Serif" font-size="10.00">ESC::CLI::log_error</text>
</a>
</g>
</g>
<!-- Node1&#45;&gt;Node20 -->
<g id="edge26" class="edge">
<title>Node1&#45;&gt;Node20</title>
<path fill="none" stroke="midnightblue" d="M781.13,-124.17C762.98,-118.74 741.47,-112.3 724.13,-107.12"/>
<polygon fill="midnightblue" stroke="midnightblue" points="780.23,-127.55 790.81,-127.07 782.24,-120.85 780.23,-127.55"/>
</g>
<!-- Node22 -->
<g id="node22" class="node">
<title>Node22</title>
<g id="a_node22"><a xlink:href="../../d8/d00/lib_2com__client_2lib_2str_a_n_s_iseq_2src_2main_8cpp.html#a3c04138a5bfe5d72780bb7e82a18e627" target="_top" xlink:title=" ">
<polygon fill="none" stroke="black" points="670.5,-50 670.5,-69 711.5,-69 711.5,-50 670.5,-50"/>
<text text-anchor="middle" x="691" y="-57" font-family="Helvetica,sans-Serif" font-size="10.00">main</text>
</a>
</g>
</g>
<!-- Node1&#45;&gt;Node22 -->
<g id="edge28" class="edge">
<title>Node1&#45;&gt;Node22</title>
<path fill="none" stroke="midnightblue" d="M803.38,-117.99C791.29,-105.4 773.53,-88.87 755,-78.5 741.44,-70.91 724.51,-66.02 711.61,-63.11"/>
<polygon fill="midnightblue" stroke="midnightblue" points="801.09,-120.66 810.46,-125.59 806.21,-115.89 801.09,-120.66"/>
</g>
<!-- Node23 -->
<g id="node23" class="node">
<title>Node23</title>
<g id="a_node23"><a xlink:href="../../da/d97/class_kistler_1_1_d_a_q.html#a3d0ae8c3f89ca09717a55451b34f6e6f" target="_top" xlink:title="Read a subframe as an event (type 0 in header)">
<polygon fill="none" stroke="black" points="639,-0.5 639,-30.5 743,-30.5 743,-0.5 639,-0.5"/>
<text text-anchor="start" x="647" y="-18.5" font-family="Helvetica,sans-Serif" font-size="10.00">Kistler::DAQ::read</text>
<text text-anchor="middle" x="691" y="-7.5" font-family="Helvetica,sans-Serif" font-size="10.00">_event</text>
</a>
</g>
</g>
<!-- Node1&#45;&gt;Node23 -->
<g id="edge29" class="edge">
<title>Node1&#45;&gt;Node23</title>
<path fill="none" stroke="midnightblue" d="M810.5,-116.48C800.16,-95.29 780.82,-61.29 755,-40.5 750.23,-36.66 744.8,-33.35 739.18,-30.51"/>
<polygon fill="midnightblue" stroke="midnightblue" points="807.43,-118.17 814.84,-125.74 813.76,-115.2 807.43,-118.17"/>
</g>
<!-- Node3 -->
<g id="node3" class="node">
<title>Node3</title>
<g id="a_node3"><a xlink:href="../../da/d94/class_kistler_1_1_a_p_i.html#a46c24eb334e1af47b3b17408918c5491" target="_top" xlink:title="Close a streaming port.">
<polygon fill="none" stroke="black" points="475,-459.5 475,-489.5 576,-489.5 576,-459.5 475,-459.5"/>
<text text-anchor="start" x="483" y="-477.5" font-family="Helvetica,sans-Serif" font-size="10.00">Kistler::API::close</text>
<text text-anchor="middle" x="525.5" y="-466.5" font-family="Helvetica,sans-Serif" font-size="10.00">_stream</text>
</a>
</g>
</g>
<!-- Node2&#45;&gt;Node3 -->
<g id="edge2" class="edge">
<title>Node2&#45;&gt;Node3</title>
<path fill="none" stroke="midnightblue" d="M663.19,-402.98C643.91,-417.7 616.87,-436.95 591,-450.5 584.86,-453.72 578.19,-456.71 571.55,-459.41"/>
<polygon fill="midnightblue" stroke="midnightblue" points="665.44,-405.66 671.2,-396.77 661.15,-400.13 665.44,-405.66"/>
</g>
<!-- Node7 -->
<g id="node7" class="node">
<title>Node7</title>
<g id="a_node7"><a xlink:href="../../da/d94/class_kistler_1_1_a_p_i.html#a5a1c3d8d1e5b6f496726293f09cc91c9" target="_top" xlink:title="Unregister a client.">
<polygon fill="none" stroke="black" points="472,-410.5 472,-440.5 579,-440.5 579,-410.5 472,-410.5"/>
<text text-anchor="start" x="480" y="-428.5" font-family="Helvetica,sans-Serif" font-size="10.00">Kistler::API::delete</text>
<text text-anchor="middle" x="525.5" y="-417.5" font-family="Helvetica,sans-Serif" font-size="10.00">_client</text>
</a>
</g>
</g>
<!-- Node2&#45;&gt;Node7 -->
<g id="edge6" class="edge">
<title>Node2&#45;&gt;Node7</title>
<path fill="none" stroke="midnightblue" d="M628.71,-397.99C612.36,-402.39 594.84,-407.11 579.01,-411.37"/>
<polygon fill="midnightblue" stroke="midnightblue" points="629.97,-401.28 638.72,-395.3 628.15,-394.52 629.97,-401.28"/>
</g>
<!-- Node8 -->
<g id="node8" class="node">
<title>Node8</title>
<g id="a_node8"><a xlink:href="../../da/d94/class_kistler_1_1_a_p_i.html#aeb67a2504717300d59713593da6966e6" target="_top" xlink:title="Enable or disable the measurement configuration of the DAQ. To set a new configuration,...">
<polygon fill="none" stroke="black" points="471,-547.5 471,-577.5 580,-577.5 580,-547.5 471,-547.5"/>
<text text-anchor="start" x="479" y="-565.5" font-family="Helvetica,sans-Serif" font-size="10.00">Kistler::API::enable</text>
<text text-anchor="middle" x="525.5" y="-554.5" font-family="Helvetica,sans-Serif" font-size="10.00">_config</text>
</a>
</g>
</g>
<!-- Node2&#45;&gt;Node8 -->
<g id="edge8" class="edge">
<title>Node2&#45;&gt;Node8</title>
<path fill="none" stroke="midnightblue" d="M679.22,-406.05C663.81,-438.7 632.69,-496.45 591,-532.5 584.18,-538.4 576.01,-543.37 567.8,-547.47"/>
<polygon fill="midnightblue" stroke="midnightblue" points="682.48,-407.33 683.49,-396.78 676.12,-404.4 682.48,-407.33"/>
</g>
<!-- Node9 -->
<g id="node9" class="node">
<title>Node9</title>
<g id="a_node9"><a xlink:href="../../da/d94/class_kistler_1_1_a_p_i.html#aadc38197a3536983e07d1687fbe0e1d0" target="_top" xlink:title="Set the configuration of the DAQ.">
<polygon fill="none" stroke="black" points="293,-509 293,-528 418,-528 418,-509 293,-509"/>
<text text-anchor="middle" x="355.5" y="-516" font-family="Helvetica,sans-Serif" font-size="10.00">Kistler::API::set_config</text>
</a>
</g>
</g>
<!-- Node2&#45;&gt;Node9 -->
<g id="edge17" class="edge">
<title>Node2&#45;&gt;Node9</title>
<path fill="none" stroke="midnightblue" d="M677.61,-405.54C661.72,-433.55 631.34,-478.66 591,-499.5 537.38,-527.2 467.54,-529.25 418.07,-526.04"/>
<polygon fill="midnightblue" stroke="midnightblue" points="680.69,-407.2 682.43,-396.75 674.55,-403.83 680.69,-407.2"/>
</g>
<!-- Node11 -->
<g id="node11" class="node">
<title>Node11</title>
<g id="a_node11"><a xlink:href="../../da/d94/class_kistler_1_1_a_p_i.html#ad3884e4543f20438744b31b5f1e2cb41" target="_top" xlink:title="Get the value of a parameter of the DAQ via the REST API.">
<polygon fill="none" stroke="black" points="461.5,-372 461.5,-391 589.5,-391 589.5,-372 461.5,-372"/>
<text text-anchor="middle" x="525.5" y="-379" font-family="Helvetica,sans-Serif" font-size="10.00">Kistler::API::get_param</text>
</a>
</g>
</g>
<!-- Node2&#45;&gt;Node11 -->
<g id="edge12" class="edge">
<title>Node2&#45;&gt;Node11</title>
<path fill="none" stroke="midnightblue" d="M628.68,-381.5C615.93,-381.5 602.49,-381.5 589.68,-381.5"/>
<polygon fill="midnightblue" stroke="midnightblue" points="628.72,-385 638.72,-381.5 628.72,-378 628.72,-385"/>
</g>
<!-- Node12 -->
<g id="node12" class="node">
<title>Node12</title>
<g id="a_node12"><a xlink:href="../../da/d94/class_kistler_1_1_a_p_i.html#a0e3329ec10d12ef325520b4c106f8d83" target="_top" xlink:title="Register a new client and get its ID.">
<polygon fill="none" stroke="black" points="461.5,-334 461.5,-353 589.5,-353 589.5,-334 461.5,-334"/>
<text text-anchor="middle" x="525.5" y="-341" font-family="Helvetica,sans-Serif" font-size="10.00">Kistler::API::new_client</text>
</a>
</g>
</g>
<!-- Node2&#45;&gt;Node12 -->
<g id="edge13" class="edge">
<title>Node2&#45;&gt;Node12</title>
<path fill="none" stroke="midnightblue" d="M628.84,-367.29C608.37,-362.53 586.06,-357.34 567.5,-353.03"/>
<polygon fill="midnightblue" stroke="midnightblue" points="628.18,-370.73 638.72,-369.58 629.77,-363.91 628.18,-370.73"/>
</g>
<!-- Node13 -->
<g id="node13" class="node">
<title>Node13</title>
<g id="a_node13"><a xlink:href="../../da/d94/class_kistler_1_1_a_p_i.html#a098b5c9b8d99e1759efba5ef119475d9" target="_top" xlink:title="Open a streaming port. The port will be closed if no connection is made within 30 seconds.">
<polygon fill="none" stroke="black" points="475.5,-284.5 475.5,-314.5 575.5,-314.5 575.5,-284.5 475.5,-284.5"/>
<text text-anchor="start" x="483.5" y="-302.5" font-family="Helvetica,sans-Serif" font-size="10.00">Kistler::API::open</text>
<text text-anchor="middle" x="525.5" y="-291.5" font-family="Helvetica,sans-Serif" font-size="10.00">_stream</text>
</a>
</g>
</g>
<!-- Node2&#45;&gt;Node13 -->
<g id="edge15" class="edge">
<title>Node2&#45;&gt;Node13</title>
<path fill="none" stroke="midnightblue" d="M657.57,-361.15C638.56,-349.65 613.86,-335.43 591,-324.5 583.74,-321.03 575.86,-317.66 568.19,-314.58"/>
<polygon fill="midnightblue" stroke="midnightblue" points="655.79,-364.16 666.15,-366.39 659.44,-358.19 655.79,-364.16"/>
</g>
<!-- Node14 -->
<g id="node14" class="node">
<title>Node14</title>
<g id="a_node14"><a xlink:href="../../da/d94/class_kistler_1_1_a_p_i.html#a1241535349db9c80adea109500ba7c79" target="_top" xlink:title="Send a START request to the DAQ.">
<polygon fill="none" stroke="black" points="476.5,-246 476.5,-265 574.5,-265 574.5,-246 476.5,-246"/>
<text text-anchor="middle" x="525.5" y="-253" font-family="Helvetica,sans-Serif" font-size="10.00">Kistler::API::start</text>
</a>
</g>
</g>
<!-- Node2&#45;&gt;Node14 -->
<g id="edge18" class="edge">
<title>Node2&#45;&gt;Node14</title>
<path fill="none" stroke="midnightblue" d="M673.77,-357.93C656.06,-333.91 625.58,-297.18 591,-275.5 584.15,-271.2 576.3,-267.77 568.5,-265.04"/>
<polygon fill="midnightblue" stroke="midnightblue" points="671.01,-360.09 679.7,-366.15 676.69,-355.99 671.01,-360.09"/>
</g>
<!-- Node4 -->
<g id="node4" class="node">
<title>Node4</title>
<g id="a_node4"><a xlink:href="../../da/d97/class_kistler_1_1_d_a_q.html#a4f89e1c93f34ce2b85fe0e10287b8165" target="_top" xlink:title="Thread streaming LSL samples.">
<polygon fill="none" stroke="black" points="287,-306.5 287,-336.5 424,-336.5 424,-306.5 287,-306.5"/>
<text text-anchor="start" x="295" y="-324.5" font-family="Helvetica,sans-Serif" font-size="10.00">Kistler::DAQ::_streaming</text>
<text text-anchor="middle" x="355.5" y="-313.5" font-family="Helvetica,sans-Serif" font-size="10.00">_thread</text>
</a>
</g>
</g>
<!-- Node3&#45;&gt;Node4 -->
<g id="edge3" class="edge">
<title>Node3&#45;&gt;Node4</title>
<path fill="none" stroke="midnightblue" d="M465.9,-454.39C463.86,-453.16 461.89,-451.86 460,-450.5 416,-418.73 380.56,-363.56 365.02,-336.85"/>
<polygon fill="midnightblue" stroke="midnightblue" points="464.7,-457.71 475.16,-459.36 468.01,-451.55 464.7,-457.71"/>
</g>
<!-- Node5 -->
<g id="node5" class="node">
<title>Node5</title>
<g id="a_node5"><a xlink:href="../../da/d97/class_kistler_1_1_d_a_q.html#a5a7c06429dcad460b083b5f2a2bbda5a" target="_top" xlink:title="Start a LSL streaming thread.">
<polygon fill="none" stroke="black" points="143.5,-339.5 143.5,-369.5 247.5,-369.5 247.5,-339.5 143.5,-339.5"/>
<text text-anchor="start" x="151.5" y="-357.5" font-family="Helvetica,sans-Serif" font-size="10.00">Kistler::DAQ::start</text>
<text text-anchor="middle" x="195.5" y="-346.5" font-family="Helvetica,sans-Serif" font-size="10.00">_streaming</text>
</a>
</g>
</g>
<!-- Node4&#45;&gt;Node5 -->
<g id="edge4" class="edge">
<title>Node4&#45;&gt;Node5</title>
<path fill="none" stroke="midnightblue" d="M276.74,-337.74C266.87,-339.8 256.97,-341.87 247.66,-343.81"/>
<polygon fill="midnightblue" stroke="midnightblue" points="277.5,-341.16 286.58,-335.69 276.07,-334.3 277.5,-341.16"/>
</g>
<!-- Node6 -->
<g id="node6" class="node">
<title>Node6</title>
<g id="a_node6"><a xlink:href="../../da/d97/class_kistler_1_1_d_a_q.html#a1c97f3c5178041e0bf2a836eead0bc8c" target="_top" xlink:title=" ">
<polygon fill="none" stroke="black" points="0,-367 0,-386 104,-386 104,-367 0,-367"/>
<text text-anchor="middle" x="52" y="-374" font-family="Helvetica,sans-Serif" font-size="10.00">Kistler::DAQ::DAQ</text>
</a>
</g>
</g>
<!-- Node5&#45;&gt;Node6 -->
<g id="edge5" class="edge">
<title>Node5&#45;&gt;Node6</title>
<path fill="none" stroke="midnightblue" d="M133.34,-364.01C123.56,-365.53 113.53,-367.09 104.01,-368.57"/>
<polygon fill="midnightblue" stroke="midnightblue" points="134.07,-367.44 143.42,-362.44 133,-360.52 134.07,-367.44"/>
</g>
<!-- Node7&#45;&gt;Node4 -->
<g id="edge7" class="edge">
<title>Node7&#45;&gt;Node4</title>
<path fill="none" stroke="midnightblue" d="M471.44,-406.35C467.51,-404.5 463.65,-402.55 460,-400.5 426.87,-381.93 392.65,-353.71 373.04,-336.51"/>
<polygon fill="midnightblue" stroke="midnightblue" points="470.15,-409.6 480.71,-410.46 472.99,-403.21 470.15,-409.6"/>
</g>
<!-- Node8&#45;&gt;Node9 -->
<g id="edge9" class="edge">
<title>Node8&#45;&gt;Node9</title>
<path fill="none" stroke="midnightblue" d="M461.16,-545.91C438.11,-539.87 412.84,-533.26 392.91,-528.04"/>
<polygon fill="midnightblue" stroke="midnightblue" points="460.32,-549.31 470.88,-548.46 462.09,-542.54 460.32,-549.31"/>
</g>
<!-- Node10 -->
<g id="node10" class="node">
<title>Node10</title>
<g id="a_node10"><a xlink:href="../../da/d97/class_kistler_1_1_d_a_q.html#a291e83bbb30446417bfc54f0b02bf41e" target="_top" xlink:title="Configure the DAQ.">
<polygon fill="none" stroke="black" points="140,-476 140,-495 251,-495 251,-476 140,-476"/>
<text text-anchor="middle" x="195.5" y="-483" font-family="Helvetica,sans-Serif" font-size="10.00">Kistler::DAQ::config</text>
</a>
</g>
</g>
<!-- Node9&#45;&gt;Node10 -->
<g id="edge10" class="edge">
<title>Node9&#45;&gt;Node10</title>
<path fill="none" stroke="midnightblue" d="M298.98,-506.9C280.37,-503.02 259.86,-498.73 242.1,-495.02"/>
<polygon fill="midnightblue" stroke="midnightblue" points="298.3,-510.34 308.8,-508.96 299.73,-503.48 298.3,-510.34"/>
</g>
<!-- Node10&#45;&gt;Node6 -->
<g id="edge11" class="edge">
<title>Node10&#45;&gt;Node6</title>
<path fill="none" stroke="midnightblue" d="M173.91,-469.64C144.22,-446.77 90.25,-405.2 65.73,-386.31"/>
<polygon fill="midnightblue" stroke="midnightblue" points="171.88,-472.5 181.94,-475.83 176.16,-466.95 171.88,-472.5"/>
</g>
<!-- Node12&#45;&gt;Node4 -->
<g id="edge14" class="edge">
<title>Node12&#45;&gt;Node4</title>
<path fill="none" stroke="midnightblue" d="M451.34,-333.92C442.29,-332.73 433.07,-331.53 424.1,-330.35"/>
<polygon fill="midnightblue" stroke="midnightblue" points="451.1,-337.42 461.47,-335.25 452,-330.48 451.1,-337.42"/>
</g>
<!-- Node13&#45;&gt;Node4 -->
<g id="edge16" class="edge">
<title>Node13&#45;&gt;Node4</title>
<path fill="none" stroke="midnightblue" d="M465.43,-307.24C452.04,-308.99 437.73,-310.86 424.02,-312.66"/>
<polygon fill="midnightblue" stroke="midnightblue" points="465.99,-310.69 475.46,-305.92 465.09,-303.75 465.99,-310.69"/>
</g>
<!-- Node14&#45;&gt;Node4 -->
<g id="edge19" class="edge">
<title>Node14&#45;&gt;Node4</title>
<path fill="none" stroke="midnightblue" d="M481.43,-268.08C474.23,-270.41 466.87,-272.92 460,-275.5 435.33,-284.77 408.13,-296.94 387.81,-306.43"/>
<polygon fill="midnightblue" stroke="midnightblue" points="482.61,-271.38 491.1,-265.04 480.51,-264.7 482.61,-271.38"/>
</g>
<!-- Node16&#45;&gt;Node4 -->
<g id="edge22" class="edge">
<title>Node16&#45;&gt;Node4</title>
<path fill="none" stroke="midnightblue" d="M616.92,-193.94C560.4,-205.79 487.31,-222.79 460,-236.5 424.05,-254.55 389.42,-287.02 370.75,-306.18"/>
<polygon fill="midnightblue" stroke="midnightblue" points="617.83,-197.33 626.91,-191.87 616.41,-190.48 617.83,-197.33"/>
</g>
<!-- Node17 -->
<g id="node17" class="node">
<title>Node17</title>
<g id="a_node17"><a xlink:href="../../d7/d60/class_communication_1_1_h_t_t_p__client.html#a9cbcd819dda4fc2fd0c4295bce974dff" target="_top" xlink:title=" ">
<polygon fill="none" stroke="black" points="463,-158.5 463,-188.5 588,-188.5 588,-158.5 463,-158.5"/>
<text text-anchor="start" x="471" y="-176.5" font-family="Helvetica,sans-Serif" font-size="10.00">Communication::HTTP</text>
<text text-anchor="middle" x="525.5" y="-165.5" font-family="Helvetica,sans-Serif" font-size="10.00">_client::~HTTP_client</text>
</a>
</g>
</g>
<!-- Node16&#45;&gt;Node17 -->
<g id="edge23" class="edge">
<title>Node16&#45;&gt;Node17</title>
<path fill="none" stroke="midnightblue" d="M616.58,-176.81C607.1,-176.46 597.47,-176.1 588.2,-175.76"/>
<polygon fill="midnightblue" stroke="midnightblue" points="616.66,-180.31 626.79,-177.18 616.92,-173.32 616.66,-180.31"/>
</g>
<!-- Node18 -->
<g id="node18" class="node">
<title>Node18</title>
<g id="a_node18"><a xlink:href="../../dc/db1/class_communication_1_1_server.html#aef74c77dc02436ee1dc6d16310837b12" target="_top" xlink:title=" ">
<polygon fill="none" stroke="black" points="460,-109.5 460,-139.5 591,-139.5 591,-109.5 460,-109.5"/>
<text text-anchor="start" x="468" y="-127.5" font-family="Helvetica,sans-Serif" font-size="10.00">Communication::Server</text>
<text text-anchor="middle" x="525.5" y="-116.5" font-family="Helvetica,sans-Serif" font-size="10.00">::~Server</text>
</a>
</g>
</g>
<!-- Node16&#45;&gt;Node18 -->
<g id="edge24" class="edge">
<title>Node16&#45;&gt;Node18</title>
<path fill="none" stroke="midnightblue" d="M635.61,-161.2C614.67,-154.16 591.03,-146.21 571.12,-139.51"/>
<polygon fill="midnightblue" stroke="midnightblue" points="634.73,-164.6 645.32,-164.47 636.96,-157.97 634.73,-164.6"/>
</g>
<!-- Node21 -->
<g id="node21" class="node">
<title>Node21</title>
<g id="a_node21"><a xlink:href="../../dc/db1/class_communication_1_1_server.html#a3571bd6913a55394cde0ced0f404685d" target="_top" xlink:title=" ">
<polygon fill="none" stroke="black" points="460,-60.5 460,-90.5 591,-90.5 591,-60.5 460,-60.5"/>
<text text-anchor="start" x="468" y="-78.5" font-family="Helvetica,sans-Serif" font-size="10.00">Communication::Server</text>
<text text-anchor="middle" x="525.5" y="-67.5" font-family="Helvetica,sans-Serif" font-size="10.00">::Server</text>
</a>
</g>
</g>
<!-- Node20&#45;&gt;Node21 -->
<g id="edge27" class="edge">
<title>Node20&#45;&gt;Node21</title>
<path fill="none" stroke="midnightblue" d="M627.88,-89.14C615.84,-87.52 603.2,-85.82 591.09,-84.19"/>
<polygon fill="midnightblue" stroke="midnightblue" points="627.44,-92.61 637.82,-90.48 628.37,-85.68 627.44,-92.61"/>
</g>
<!-- Node23&#45;&gt;Node4 -->
<g id="edge30" class="edge">
<title>Node23&#45;&gt;Node4</title>
<path fill="none" stroke="midnightblue" d="M628.76,-9.3C578.15,-7.56 507.19,-13.34 460,-51.5 377.25,-118.42 360.57,-259.67 357.29,-306.24"/>
<polygon fill="midnightblue" stroke="midnightblue" points="628.77,-12.81 638.92,-9.76 629.08,-5.81 628.77,-12.81"/>
</g>
</g>
</svg>
