<?xml version="1.0" encoding="UTF-8" standalone="no"?>
<!DOCTYPE svg PUBLIC "-//W3C//DTD SVG 1.1//EN"
 "http://www.w3.org/Graphics/SVG/1.1/DTD/svg11.dtd">
<!-- Generated by graphviz version 2.43.0 (0)
 -->
<!-- Title: ESC::get_pos Pages: 1 -->
<svg width="1001pt" height="708pt"
 viewBox="0.00 0.00 1001.00 707.99" xmlns="http://www.w3.org/2000/svg" xmlns:xlink="http://www.w3.org/1999/xlink">
<g id="graph0" class="graph" transform="scale(1 1) rotate(0) translate(4 703.99)">
<title>ESC::get_pos</title>
<!-- Node1 -->
<g id="node1" class="node">
<title>Node1</title>
<g id="a_node1"><a xlink:title=" ">
<polygon fill="#bfbfbf" stroke="black" points="913,-343.49 913,-362.49 993,-362.49 993,-343.49 913,-343.49"/>
<text text-anchor="middle" x="953" y="-350.49" font-family="Helvetica,sans-Serif" font-size="10.00">ESC::get_pos</text>
</a>
</g>
</g>
<!-- Node2 -->
<g id="node2" class="node">
<title>Node2</title>
<g id="a_node2"><a xlink:href="../../dc/d44/class_e_s_c_1_1_c_l_i.html#abe1e5a3cc2cbd55c0704e9b13842e436" target="_top" xlink:title=" ">
<polygon fill="none" stroke="black" points="791,-343.49 791,-362.49 877,-362.49 877,-343.49 791,-343.49"/>
<text text-anchor="middle" x="834" y="-350.49" font-family="Helvetica,sans-Serif" font-size="10.00">ESC::CLI::logln</text>
</a>
</g>
</g>
<!-- Node1&#45;&gt;Node2 -->
<g id="edge1" class="edge">
<title>Node1&#45;&gt;Node2</title>
<path fill="none" stroke="midnightblue" d="M902.59,-352.99C894.14,-352.99 885.43,-352.99 877.19,-352.99"/>
<polygon fill="midnightblue" stroke="midnightblue" points="902.72,-356.49 912.72,-352.99 902.72,-349.49 902.72,-356.49"/>
</g>
<!-- Node3 -->
<g id="node3" class="node">
<title>Node3</title>
<g id="a_node3"><a xlink:href="../../da/d97/class_kistler_1_1_d_a_q.html#a4f89e1c93f34ce2b85fe0e10287b8165" target="_top" xlink:title="Thread streaming LSL samples.">
<polygon fill="none" stroke="black" points="287,-318.99 287,-348.99 424,-348.99 424,-318.99 287,-318.99"/>
<text text-anchor="start" x="295" y="-336.99" font-family="Helvetica,sans-Serif" font-size="10.00">Kistler::DAQ::_streaming</text>
<text text-anchor="middle" x="355.5" y="-325.99" font-family="Helvetica,sans-Serif" font-size="10.00">_thread</text>
</a>
</g>
</g>
<!-- Node2&#45;&gt;Node3 -->
<g id="edge2" class="edge">
<title>Node2&#45;&gt;Node3</title>
<path fill="none" stroke="midnightblue" d="M832.07,-333.04C828.93,-287.82 815.15,-176.48 755,-111.99 701.41,-54.53 668.14,-60.93 591,-45.99 533.84,-34.92 507.62,-12.49 460,-45.99 412.74,-79.22 371.07,-263.87 359.61,-318.66"/>
<polygon fill="midnightblue" stroke="midnightblue" points="828.59,-333.49 832.68,-343.27 835.58,-333.08 828.59,-333.49"/>
</g>
<!-- Node6 -->
<g id="node6" class="node">
<title>Node6</title>
<g id="a_node6"><a xlink:href="../../da/d94/class_kistler_1_1_a_p_i.html#a19649fd0c024f8a66eaff543114532e9" target="_top" xlink:title="Check the satue of the reply (result:0 =&gt; OK)">
<polygon fill="none" stroke="black" points="639,-476.99 639,-506.99 743,-506.99 743,-476.99 639,-476.99"/>
<text text-anchor="start" x="647" y="-494.99" font-family="Helvetica,sans-Serif" font-size="10.00">Kistler::API::check</text>
<text text-anchor="middle" x="691" y="-483.99" font-family="Helvetica,sans-Serif" font-size="10.00">_msg_error</text>
</a>
</g>
</g>
<!-- Node2&#45;&gt;Node6 -->
<g id="edge5" class="edge">
<title>Node2&#45;&gt;Node6</title>
<path fill="none" stroke="midnightblue" d="M823.51,-371.68C810.71,-395.33 785.91,-436.11 755,-461.99 748.03,-467.82 739.74,-472.81 731.5,-476.95"/>
<polygon fill="midnightblue" stroke="midnightblue" points="826.68,-373.16 828.24,-362.68 820.49,-369.9 826.68,-373.16"/>
</g>
<!-- Node7 -->
<g id="node7" class="node">
<title>Node7</title>
<g id="a_node7"><a xlink:href="../../da/d94/class_kistler_1_1_a_p_i.html#a46c24eb334e1af47b3b17408918c5491" target="_top" xlink:title="Close a streaming port.">
<polygon fill="none" stroke="black" points="475,-455.99 475,-485.99 576,-485.99 576,-455.99 475,-455.99"/>
<text text-anchor="start" x="483" y="-473.99" font-family="Helvetica,sans-Serif" font-size="10.00">Kistler::API::close</text>
<text text-anchor="middle" x="525.5" y="-462.99" font-family="Helvetica,sans-Serif" font-size="10.00">_stream</text>
</a>
</g>
</g>
<!-- Node2&#45;&gt;Node7 -->
<g id="edge27" class="edge">
<title>Node2&#45;&gt;Node7</title>
<path fill="none" stroke="midnightblue" d="M813.15,-368.72C797.96,-380.12 776.1,-395.19 755,-404.99 696.2,-432.28 623.58,-450.92 576.21,-461.26"/>
<polygon fill="midnightblue" stroke="midnightblue" points="815.45,-371.36 821.26,-362.5 811.2,-365.81 815.45,-371.36"/>
</g>
<!-- Node8 -->
<g id="node8" class="node">
<title>Node8</title>
<g id="a_node8"><a xlink:href="../../da/d94/class_kistler_1_1_a_p_i.html#a5a1c3d8d1e5b6f496726293f09cc91c9" target="_top" xlink:title="Unregister a client.">
<polygon fill="none" stroke="black" points="472,-406.99 472,-436.99 579,-436.99 579,-406.99 472,-406.99"/>
<text text-anchor="start" x="480" y="-424.99" font-family="Helvetica,sans-Serif" font-size="10.00">Kistler::API::delete</text>
<text text-anchor="middle" x="525.5" y="-413.99" font-family="Helvetica,sans-Serif" font-size="10.00">_client</text>
</a>
</g>
</g>
<!-- Node2&#45;&gt;Node8 -->
<g id="edge31" class="edge">
<title>Node2&#45;&gt;Node8</title>
<path fill="none" stroke="midnightblue" d="M796.29,-365.75C783.34,-369.99 768.61,-374.51 755,-377.99 695.31,-393.24 625.65,-405.93 579.08,-413.71"/>
<polygon fill="midnightblue" stroke="midnightblue" points="797.41,-369.07 805.8,-362.59 795.21,-362.43 797.41,-369.07"/>
</g>
<!-- Node10 -->
<g id="node10" class="node">
<title>Node10</title>
<g id="a_node10"><a xlink:href="../../da/d94/class_kistler_1_1_a_p_i.html#aadc38197a3536983e07d1687fbe0e1d0" target="_top" xlink:title="Set the configuration of the DAQ.">
<polygon fill="none" stroke="black" points="293,-554.49 293,-573.49 418,-573.49 418,-554.49 293,-554.49"/>
<text text-anchor="middle" x="355.5" y="-561.49" font-family="Helvetica,sans-Serif" font-size="10.00">Kistler::API::set_config</text>
</a>
</g>
</g>
<!-- Node2&#45;&gt;Node10 -->
<g id="edge36" class="edge">
<title>Node2&#45;&gt;Node10</title>
<path fill="none" stroke="midnightblue" d="M830.93,-372.61C825.59,-414.38 807.84,-513.25 755,-573.99 701.12,-635.93 670.76,-639.54 591,-658.99 534.43,-672.77 514.25,-680.11 460,-658.99 415,-641.46 377.69,-594.22 363.1,-573.71"/>
<polygon fill="midnightblue" stroke="midnightblue" points="834.42,-372.97 832.11,-362.63 827.46,-372.15 834.42,-372.97"/>
</g>
<!-- Node11 -->
<g id="node11" class="node">
<title>Node11</title>
<g id="a_node11"><a xlink:href="../../da/d97/class_kistler_1_1_d_a_q.html#a291e83bbb30446417bfc54f0b02bf41e" target="_top" xlink:title="Configure the DAQ.">
<polygon fill="none" stroke="black" points="140,-554.49 140,-573.49 251,-573.49 251,-554.49 140,-554.49"/>
<text text-anchor="middle" x="195.5" y="-561.49" font-family="Helvetica,sans-Serif" font-size="10.00">Kistler::DAQ::config</text>
</a>
</g>
</g>
<!-- Node2&#45;&gt;Node11 -->
<g id="edge28" class="edge">
<title>Node2&#45;&gt;Node11</title>
<path fill="none" stroke="midnightblue" d="M833.3,-372.81C832.96,-422.49 825.08,-553.46 755,-625.99 662.43,-721.78 590.4,-706.2 460,-678.99 360.08,-658.13 251.65,-597.21 212.07,-573.54"/>
<polygon fill="midnightblue" stroke="midnightblue" points="836.8,-372.5 833.27,-362.51 829.8,-372.52 836.8,-372.5"/>
</g>
<!-- Node13 -->
<g id="node13" class="node">
<title>Node13</title>
<g id="a_node13"><a xlink:href="../../da/d94/class_kistler_1_1_a_p_i.html#a0e3329ec10d12ef325520b4c106f8d83" target="_top" xlink:title="Register a new client and get its ID.">
<polygon fill="none" stroke="black" points="461.5,-368.49 461.5,-387.49 589.5,-387.49 589.5,-368.49 461.5,-368.49"/>
<text text-anchor="middle" x="525.5" y="-375.49" font-family="Helvetica,sans-Serif" font-size="10.00">Kistler::API::new_client</text>
</a>
</g>
</g>
<!-- Node2&#45;&gt;Node13 -->
<g id="edge32" class="edge">
<title>Node2&#45;&gt;Node13</title>
<path fill="none" stroke="midnightblue" d="M780.53,-357.27C727.65,-361.58 646.01,-368.24 589.63,-372.84"/>
<polygon fill="midnightblue" stroke="midnightblue" points="781.02,-360.74 790.7,-356.44 780.45,-353.76 781.02,-360.74"/>
</g>
<!-- Node14 -->
<g id="node14" class="node">
<title>Node14</title>
<g id="a_node14"><a xlink:href="../../da/d94/class_kistler_1_1_a_p_i.html#a098b5c9b8d99e1759efba5ef119475d9" target="_top" xlink:title="Open a streaming port. The port will be closed if no connection is made within 30 seconds.">
<polygon fill="none" stroke="black" points="475.5,-318.99 475.5,-348.99 575.5,-348.99 575.5,-318.99 475.5,-318.99"/>
<text text-anchor="start" x="483.5" y="-336.99" font-family="Helvetica,sans-Serif" font-size="10.00">Kistler::API::open</text>
<text text-anchor="middle" x="525.5" y="-325.99" font-family="Helvetica,sans-Serif" font-size="10.00">_stream</text>
</a>
</g>
</g>
<!-- Node2&#45;&gt;Node14 -->
<g id="edge33" class="edge">
<title>Node2&#45;&gt;Node14</title>
<path fill="none" stroke="midnightblue" d="M780.39,-349.73C722.97,-346.17 631.75,-340.51 575.7,-337.04"/>
<polygon fill="midnightblue" stroke="midnightblue" points="780.51,-353.24 790.7,-350.36 780.94,-346.25 780.51,-353.24"/>
</g>
<!-- Node15 -->
<g id="node15" class="node">
<title>Node15</title>
<g id="a_node15"><a xlink:href="../../da/d94/class_kistler_1_1_a_p_i.html#a1241535349db9c80adea109500ba7c79" target="_top" xlink:title="Send a START request to the DAQ.">
<polygon fill="none" stroke="black" points="476.5,-630.49 476.5,-649.49 574.5,-649.49 574.5,-630.49 476.5,-630.49"/>
<text text-anchor="middle" x="525.5" y="-637.49" font-family="Helvetica,sans-Serif" font-size="10.00">Kistler::API::start</text>
</a>
</g>
</g>
<!-- Node2&#45;&gt;Node15 -->
<g id="edge37" class="edge">
<title>Node2&#45;&gt;Node15</title>
<path fill="none" stroke="midnightblue" d="M827.7,-372.28C817.89,-405.13 794.25,-472.67 755,-516.99 697.78,-581.6 669.6,-585.34 591,-620.99 582.92,-624.65 573.95,-627.81 565.34,-630.45"/>
<polygon fill="midnightblue" stroke="midnightblue" points="831.09,-373.13 830.5,-362.55 824.37,-371.19 831.09,-373.13"/>
</g>
<!-- Node16 -->
<g id="node16" class="node">
<title>Node16</title>
<g id="a_node16"><a xlink:href="../../df/dcd/class_communication_1_1_client.html#aea957bd14f311e1f6621e7611022b5c4" target="_top" xlink:title=" ">
<polygon fill="none" stroke="black" points="627,-236.99 627,-266.99 755,-266.99 755,-236.99 627,-236.99"/>
<text text-anchor="start" x="635" y="-254.99" font-family="Helvetica,sans-Serif" font-size="10.00">Communication::Client</text>
<text text-anchor="middle" x="691" y="-243.99" font-family="Helvetica,sans-Serif" font-size="10.00">::Client</text>
</a>
</g>
</g>
<!-- Node2&#45;&gt;Node16 -->
<g id="edge22" class="edge">
<title>Node2&#45;&gt;Node16</title>
<path fill="none" stroke="midnightblue" d="M818.59,-335.37C804.02,-318.5 780.13,-293.27 755,-276.99 749.27,-273.27 742.91,-269.96 736.49,-267.06"/>
<polygon fill="midnightblue" stroke="midnightblue" points="816.19,-337.95 825.31,-343.34 821.54,-333.44 816.19,-337.95"/>
</g>
<!-- Node17 -->
<g id="node17" class="node">
<title>Node17</title>
<g id="a_node17"><a xlink:href="../../df/dcd/class_communication_1_1_client.html#aa448a9277e9bed8326f74ad81062ab77" target="_top" xlink:title=" ">
<polygon fill="none" stroke="black" points="627,-121.99 627,-151.99 755,-151.99 755,-121.99 627,-121.99"/>
<text text-anchor="start" x="635" y="-139.99" font-family="Helvetica,sans-Serif" font-size="10.00">Communication::Client</text>
<text text-anchor="middle" x="691" y="-128.99" font-family="Helvetica,sans-Serif" font-size="10.00">::close_connection</text>
</a>
</g>
</g>
<!-- Node2&#45;&gt;Node17 -->
<g id="edge23" class="edge">
<title>Node2&#45;&gt;Node17</title>
<path fill="none" stroke="midnightblue" d="M828.23,-333.4C819,-298.78 795.92,-225.93 755,-177.99 746.1,-167.56 733.91,-158.79 722.61,-152.07"/>
<polygon fill="midnightblue" stroke="midnightblue" points="824.87,-334.39 830.74,-343.21 831.65,-332.66 824.87,-334.39"/>
</g>
<!-- Node20 -->
<g id="node20" class="node">
<title>Node20</title>
<g id="a_node20"><a xlink:href="../../da/d97/class_kistler_1_1_d_a_q.html#ac5dc9fa5e3a40556eb6879b071b269be" target="_top" xlink:title="Connect to the DAQ.">
<polygon fill="none" stroke="black" points="295.5,-55.49 295.5,-74.49 415.5,-74.49 415.5,-55.49 295.5,-55.49"/>
<text text-anchor="middle" x="355.5" y="-62.49" font-family="Helvetica,sans-Serif" font-size="10.00">Kistler::DAQ::connect</text>
</a>
</g>
</g>
<!-- Node2&#45;&gt;Node20 -->
<g id="edge29" class="edge">
<title>Node2&#45;&gt;Node20</title>
<path fill="none" stroke="midnightblue" d="M830.77,-333.24C823.44,-272.1 798.1,-87.75 755,-48.99 645.34,49.64 442.29,-26.93 377.17,-55.44"/>
<polygon fill="midnightblue" stroke="midnightblue" points="827.32,-333.92 831.96,-343.45 834.28,-333.11 827.32,-333.92"/>
</g>
<!-- Node21 -->
<g id="node21" class="node">
<title>Node21</title>
<g id="a_node21"><a xlink:href="../../da/d97/class_kistler_1_1_d_a_q.html#a3d0ae8c3f89ca09717a55451b34f6e6f" target="_top" xlink:title="Read a subframe as an event (type 0 in header)">
<polygon fill="none" stroke="black" points="639,-187.99 639,-217.99 743,-217.99 743,-187.99 639,-187.99"/>
<text text-anchor="start" x="647" y="-205.99" font-family="Helvetica,sans-Serif" font-size="10.00">Kistler::DAQ::read</text>
<text text-anchor="middle" x="691" y="-194.99" font-family="Helvetica,sans-Serif" font-size="10.00">_event</text>
</a>
</g>
</g>
<!-- Node2&#45;&gt;Node21 -->
<g id="edge34" class="edge">
<title>Node2&#45;&gt;Node21</title>
<path fill="none" stroke="midnightblue" d="M825.75,-333.7C814.55,-306.35 790.55,-256.34 755,-226.99 750.85,-223.56 746.15,-220.59 741.25,-218.02"/>
<polygon fill="midnightblue" stroke="midnightblue" points="822.61,-335.28 829.53,-343.3 829.12,-332.71 822.61,-335.28"/>
</g>
<!-- Node22 -->
<g id="node22" class="node">
<title>Node22</title>
<g id="a_node22"><a xlink:href="../../da/d94/class_kistler_1_1_a_p_i.html#a5410196834e57bb4376380d609390e25" target="_top" xlink:title="Send a STOP request to the DAQ.">
<polygon fill="none" stroke="black" points="642.5,-286.49 642.5,-305.49 739.5,-305.49 739.5,-286.49 642.5,-286.49"/>
<text text-anchor="middle" x="691" y="-293.49" font-family="Helvetica,sans-Serif" font-size="10.00">Kistler::API::stop</text>
</a>
</g>
</g>
<!-- Node2&#45;&gt;Node22 -->
<g id="edge38" class="edge">
<title>Node2&#45;&gt;Node22</title>
<path fill="none" stroke="midnightblue" d="M801.58,-339.39C787.4,-333.33 770.41,-326.18 755,-319.99 742.84,-315.1 729.26,-309.89 717.83,-305.59"/>
<polygon fill="midnightblue" stroke="midnightblue" points="800.33,-342.66 810.9,-343.38 803.09,-336.23 800.33,-342.66"/>
</g>
<!-- Node4 -->
<g id="node4" class="node">
<title>Node4</title>
<g id="a_node4"><a xlink:href="../../da/d97/class_kistler_1_1_d_a_q.html#a5a7c06429dcad460b083b5f2a2bbda5a" target="_top" xlink:title="Start a LSL streaming thread.">
<polygon fill="none" stroke="black" points="143.5,-318.99 143.5,-348.99 247.5,-348.99 247.5,-318.99 143.5,-318.99"/>
<text text-anchor="start" x="151.5" y="-336.99" font-family="Helvetica,sans-Serif" font-size="10.00">Kistler::DAQ::start</text>
<text text-anchor="middle" x="195.5" y="-325.99" font-family="Helvetica,sans-Serif" font-size="10.00">_streaming</text>
</a>
</g>
</g>
<!-- Node3&#45;&gt;Node4 -->
<g id="edge3" class="edge">
<title>Node3&#45;&gt;Node4</title>
<path fill="none" stroke="midnightblue" d="M276.43,-333.99C266.66,-333.99 256.87,-333.99 247.66,-333.99"/>
<polygon fill="midnightblue" stroke="midnightblue" points="276.58,-337.49 286.58,-333.99 276.58,-330.49 276.58,-337.49"/>
</g>
<!-- Node5 -->
<g id="node5" class="node">
<title>Node5</title>
<g id="a_node5"><a xlink:href="../../da/d97/class_kistler_1_1_d_a_q.html#a1c97f3c5178041e0bf2a836eead0bc8c" target="_top" xlink:title=" ">
<polygon fill="none" stroke="black" points="0,-324.49 0,-343.49 104,-343.49 104,-324.49 0,-324.49"/>
<text text-anchor="middle" x="52" y="-331.49" font-family="Helvetica,sans-Serif" font-size="10.00">Kistler::DAQ::DAQ</text>
</a>
</g>
</g>
<!-- Node4&#45;&gt;Node5 -->
<g id="edge4" class="edge">
<title>Node4&#45;&gt;Node5</title>
<path fill="none" stroke="midnightblue" d="M133.34,-333.99C123.56,-333.99 113.53,-333.99 104.01,-333.99"/>
<polygon fill="midnightblue" stroke="midnightblue" points="133.42,-337.49 143.42,-333.99 133.42,-330.49 133.42,-337.49"/>
</g>
<!-- Node6&#45;&gt;Node7 -->
<g id="edge6" class="edge">
<title>Node6&#45;&gt;Node7</title>
<path fill="none" stroke="midnightblue" d="M628.7,-484.11C611.38,-481.89 592.75,-479.5 576.2,-477.37"/>
<polygon fill="midnightblue" stroke="midnightblue" points="628.35,-487.6 638.72,-485.4 629.24,-480.65 628.35,-487.6"/>
</g>
<!-- Node6&#45;&gt;Node8 -->
<g id="edge8" class="edge">
<title>Node6&#45;&gt;Node8</title>
<path fill="none" stroke="midnightblue" d="M648.66,-472.56C630.99,-464.43 610.09,-455.02 591,-446.99 583.14,-443.68 574.68,-440.28 566.55,-437.1"/>
<polygon fill="midnightblue" stroke="midnightblue" points="647.56,-475.91 658.1,-476.93 650.5,-469.55 647.56,-475.91"/>
</g>
<!-- Node9 -->
<g id="node9" class="node">
<title>Node9</title>
<g id="a_node9"><a xlink:href="../../da/d94/class_kistler_1_1_a_p_i.html#aeb67a2504717300d59713593da6966e6" target="_top" xlink:title="Enable or disable the measurement configuration of the DAQ. To set a new configuration,...">
<polygon fill="none" stroke="black" points="471,-504.99 471,-534.99 580,-534.99 580,-504.99 471,-504.99"/>
<text text-anchor="start" x="479" y="-522.99" font-family="Helvetica,sans-Serif" font-size="10.00">Kistler::API::enable</text>
<text text-anchor="middle" x="525.5" y="-511.99" font-family="Helvetica,sans-Serif" font-size="10.00">_config</text>
</a>
</g>
</g>
<!-- Node6&#45;&gt;Node9 -->
<g id="edge10" class="edge">
<title>Node6&#45;&gt;Node9</title>
<path fill="none" stroke="midnightblue" d="M628.46,-502.53C612.57,-505.25 595.59,-508.15 580.14,-510.8"/>
<polygon fill="midnightblue" stroke="midnightblue" points="629.45,-505.91 638.72,-500.77 628.27,-499.01 629.45,-505.91"/>
</g>
<!-- Node6&#45;&gt;Node10 -->
<g id="edge19" class="edge">
<title>Node6&#45;&gt;Node10</title>
<path fill="none" stroke="midnightblue" d="M659.48,-512.57C640.6,-524.2 615.38,-537.81 591,-544.99 534.18,-561.71 466.5,-565.58 418.48,-565.8"/>
<polygon fill="midnightblue" stroke="midnightblue" points="661.36,-515.52 667.95,-507.23 657.63,-509.6 661.36,-515.52"/>
</g>
<!-- Node12 -->
<g id="node12" class="node">
<title>Node12</title>
<g id="a_node12"><a xlink:href="../../da/d94/class_kistler_1_1_a_p_i.html#ad3884e4543f20438744b31b5f1e2cb41" target="_top" xlink:title="Get the value of a parameter of the DAQ via the REST API.">
<polygon fill="none" stroke="black" points="461.5,-592.49 461.5,-611.49 589.5,-611.49 589.5,-592.49 461.5,-592.49"/>
<text text-anchor="middle" x="525.5" y="-599.49" font-family="Helvetica,sans-Serif" font-size="10.00">Kistler::API::get_param</text>
</a>
</g>
</g>
<!-- Node6&#45;&gt;Node12 -->
<g id="edge14" class="edge">
<title>Node6&#45;&gt;Node12</title>
<path fill="none" stroke="midnightblue" d="M668.68,-514.6C649.76,-533.61 620.6,-560.42 591,-577.99 581.14,-583.84 569.6,-588.68 559.03,-592.44"/>
<polygon fill="midnightblue" stroke="midnightblue" points="671.4,-516.83 675.89,-507.23 666.4,-511.93 671.4,-516.83"/>
</g>
<!-- Node6&#45;&gt;Node13 -->
<g id="edge15" class="edge">
<title>Node6&#45;&gt;Node13</title>
<path fill="none" stroke="midnightblue" d="M671.18,-468.83C652.78,-447.6 622.95,-416.71 591,-397.99 583.72,-393.72 575.43,-390.27 567.28,-387.52"/>
<polygon fill="midnightblue" stroke="midnightblue" points="668.74,-471.36 677.88,-476.72 674.07,-466.83 668.74,-471.36"/>
</g>
<!-- Node6&#45;&gt;Node14 -->
<g id="edge17" class="edge">
<title>Node6&#45;&gt;Node14</title>
<path fill="none" stroke="midnightblue" d="M677.59,-467.82C661.35,-438.38 630.28,-388.87 591,-358.99 586.03,-355.21 580.42,-351.93 574.63,-349.11"/>
<polygon fill="midnightblue" stroke="midnightblue" points="674.51,-469.48 682.33,-476.63 680.67,-466.16 674.51,-469.48"/>
</g>
<!-- Node6&#45;&gt;Node15 -->
<g id="edge20" class="edge">
<title>Node6&#45;&gt;Node15</title>
<path fill="none" stroke="midnightblue" d="M672.25,-515.08C659.62,-531.5 642.26,-554.09 627,-573.99 610.98,-594.86 612.69,-606.09 591,-620.99 585.32,-624.89 578.84,-628 572.22,-630.48"/>
<polygon fill="midnightblue" stroke="midnightblue" points="675.06,-517.16 678.38,-507.09 669.51,-512.89 675.06,-517.16"/>
</g>
<!-- Node7&#45;&gt;Node3 -->
<g id="edge7" class="edge">
<title>Node7&#45;&gt;Node3</title>
<path fill="none" stroke="midnightblue" d="M467.02,-451.29C464.6,-449.93 462.25,-448.5 460,-446.99 419.4,-419.64 383.69,-373.23 366.82,-349.28"/>
<polygon fill="midnightblue" stroke="midnightblue" points="465.54,-454.46 476.05,-455.86 468.71,-448.22 465.54,-454.46"/>
</g>
<!-- Node8&#45;&gt;Node3 -->
<g id="edge9" class="edge">
<title>Node8&#45;&gt;Node3</title>
<path fill="none" stroke="midnightblue" d="M473.15,-403.04C468.66,-401.1 464.22,-399.07 460,-396.99 430.95,-382.65 399.39,-362.77 378.86,-349.2"/>
<polygon fill="midnightblue" stroke="midnightblue" points="471.82,-406.28 482.4,-406.91 474.52,-399.82 471.82,-406.28"/>
</g>
<!-- Node9&#45;&gt;Node10 -->
<g id="edge11" class="edge">
<title>Node9&#45;&gt;Node10</title>
<path fill="none" stroke="midnightblue" d="M461.16,-536.58C438.11,-542.61 412.84,-549.23 392.91,-554.45"/>
<polygon fill="midnightblue" stroke="midnightblue" points="462.09,-539.95 470.88,-534.03 460.32,-533.18 462.09,-539.95"/>
</g>
<!-- Node10&#45;&gt;Node11 -->
<g id="edge12" class="edge">
<title>Node10&#45;&gt;Node11</title>
<path fill="none" stroke="midnightblue" d="M282.85,-563.99C272.21,-563.99 261.4,-563.99 251.18,-563.99"/>
<polygon fill="midnightblue" stroke="midnightblue" points="282.96,-567.49 292.96,-563.99 282.96,-560.49 282.96,-567.49"/>
</g>
<!-- Node11&#45;&gt;Node5 -->
<g id="edge13" class="edge">
<title>Node11&#45;&gt;Node5</title>
<path fill="none" stroke="midnightblue" d="M183.25,-545.7C154.75,-499.37 80.45,-378.61 58.93,-343.62"/>
<polygon fill="midnightblue" stroke="midnightblue" points="180.38,-547.71 188.6,-554.4 186.34,-544.05 180.38,-547.71"/>
</g>
<!-- Node13&#45;&gt;Node3 -->
<g id="edge16" class="edge">
<title>Node13&#45;&gt;Node3</title>
<path fill="none" stroke="midnightblue" d="M478.31,-365.89C458.44,-360.69 435,-354.55 414.02,-349.05"/>
<polygon fill="midnightblue" stroke="midnightblue" points="477.49,-369.29 488.05,-368.44 479.26,-362.52 477.49,-369.29"/>
</g>
<!-- Node14&#45;&gt;Node3 -->
<g id="edge18" class="edge">
<title>Node14&#45;&gt;Node3</title>
<path fill="none" stroke="midnightblue" d="M465.43,-333.99C452.04,-333.99 437.73,-333.99 424.02,-333.99"/>
<polygon fill="midnightblue" stroke="midnightblue" points="465.46,-337.49 475.46,-333.99 465.46,-330.49 465.46,-337.49"/>
</g>
<!-- Node15&#45;&gt;Node3 -->
<g id="edge21" class="edge">
<title>Node15&#45;&gt;Node3</title>
<path fill="none" stroke="midnightblue" d="M467.4,-626.7C464.75,-625.01 462.26,-623.12 460,-620.99 438.89,-601.1 378.15,-405.2 361.04,-348.99"/>
<polygon fill="midnightblue" stroke="midnightblue" points="465.82,-629.82 476.3,-631.38 469.08,-623.62 465.82,-629.82"/>
</g>
<!-- Node17&#45;&gt;Node3 -->
<g id="edge24" class="edge">
<title>Node17&#45;&gt;Node3</title>
<path fill="none" stroke="midnightblue" d="M616.96,-141.43C568.96,-147.33 506.65,-160.9 460,-191.99 410.75,-224.81 376.71,-289.43 363.11,-318.81"/>
<polygon fill="midnightblue" stroke="midnightblue" points="617.44,-144.9 626.98,-140.28 616.65,-137.94 617.44,-144.9"/>
</g>
<!-- Node18 -->
<g id="node18" class="node">
<title>Node18</title>
<g id="a_node18"><a xlink:href="../../d7/d60/class_communication_1_1_h_t_t_p__client.html#a9cbcd819dda4fc2fd0c4295bce974dff" target="_top" xlink:title=" ">
<polygon fill="none" stroke="black" points="463,-104.99 463,-134.99 588,-134.99 588,-104.99 463,-104.99"/>
<text text-anchor="start" x="471" y="-122.99" font-family="Helvetica,sans-Serif" font-size="10.00">Communication::HTTP</text>
<text text-anchor="middle" x="525.5" y="-111.99" font-family="Helvetica,sans-Serif" font-size="10.00">_client::~HTTP_client</text>
</a>
</g>
</g>
<!-- Node17&#45;&gt;Node18 -->
<g id="edge25" class="edge">
<title>Node17&#45;&gt;Node18</title>
<path fill="none" stroke="midnightblue" d="M616.58,-129.35C607.1,-128.37 597.47,-127.37 588.2,-126.4"/>
<polygon fill="midnightblue" stroke="midnightblue" points="616.48,-132.86 626.79,-130.41 617.2,-125.9 616.48,-132.86"/>
</g>
<!-- Node19 -->
<g id="node19" class="node">
<title>Node19</title>
<g id="a_node19"><a xlink:href="../../dc/db1/class_communication_1_1_server.html#aef74c77dc02436ee1dc6d16310837b12" target="_top" xlink:title=" ">
<polygon fill="none" stroke="black" points="460,-55.99 460,-85.99 591,-85.99 591,-55.99 460,-55.99"/>
<text text-anchor="start" x="468" y="-73.99" font-family="Helvetica,sans-Serif" font-size="10.00">Communication::Server</text>
<text text-anchor="middle" x="525.5" y="-62.99" font-family="Helvetica,sans-Serif" font-size="10.00">::~Server</text>
</a>
</g>
</g>
<!-- Node17&#45;&gt;Node19 -->
<g id="edge26" class="edge">
<title>Node17&#45;&gt;Node19</title>
<path fill="none" stroke="midnightblue" d="M646.13,-117.87C629,-110.54 609.15,-102.21 591,-94.99 583.56,-92.03 575.6,-88.97 567.9,-86.08"/>
<polygon fill="midnightblue" stroke="midnightblue" points="644.77,-121.1 655.34,-121.83 647.53,-114.67 644.77,-121.1"/>
</g>
<!-- Node20&#45;&gt;Node5 -->
<g id="edge30" class="edge">
<title>Node20&#45;&gt;Node5</title>
<path fill="none" stroke="midnightblue" d="M336.3,-81.22C279.86,-131.58 108.86,-284.15 63.92,-324.25"/>
<polygon fill="midnightblue" stroke="midnightblue" points="338.64,-83.83 343.77,-74.56 333.98,-78.61 338.64,-83.83"/>
</g>
<!-- Node21&#45;&gt;Node3 -->
<g id="edge35" class="edge">
<title>Node21&#45;&gt;Node3</title>
<path fill="none" stroke="midnightblue" d="M628.78,-195.94C580.51,-193.09 512.77,-195.26 460,-220.99 415.04,-242.91 380.3,-293.57 365.01,-318.94"/>
<polygon fill="midnightblue" stroke="midnightblue" points="628.56,-199.43 638.77,-196.62 629.03,-192.45 628.56,-199.43"/>
</g>
<!-- Node22&#45;&gt;Node3 -->
<g id="edge39" class="edge">
<title>Node22&#45;&gt;Node3</title>
<path fill="none" stroke="midnightblue" d="M631.96,-296.84C585.29,-298.17 518.15,-301.53 460,-309.99 444.85,-312.19 428.64,-315.49 413.66,-318.94"/>
<polygon fill="midnightblue" stroke="midnightblue" points="632.28,-300.34 642.19,-296.57 632.1,-293.34 632.28,-300.34"/>
</g>
<!-- Node23 -->
<g id="node23" class="node">
<title>Node23</title>
<g id="a_node23"><a xlink:href="../../da/d97/class_kistler_1_1_d_a_q.html#a95fa86f19c6c063f55b657a7f83270da" target="_top" xlink:title="Stop the streaming thread.">
<polygon fill="none" stroke="black" points="474,-230.99 474,-260.99 577,-260.99 577,-230.99 474,-230.99"/>
<text text-anchor="start" x="482" y="-248.99" font-family="Helvetica,sans-Serif" font-size="10.00">Kistler::DAQ::stop</text>
<text text-anchor="middle" x="525.5" y="-237.99" font-family="Helvetica,sans-Serif" font-size="10.00">_streaming</text>
</a>
</g>
</g>
<!-- Node22&#45;&gt;Node23 -->
<g id="edge40" class="edge">
<title>Node22&#45;&gt;Node23</title>
<path fill="none" stroke="midnightblue" d="M648.62,-283.55C641.41,-281.37 633.99,-279.12 627,-276.99 610.06,-271.82 591.53,-266.12 575.04,-261.03"/>
<polygon fill="midnightblue" stroke="midnightblue" points="647.68,-286.92 658.26,-286.46 649.7,-280.22 647.68,-286.92"/>
</g>
</g>
</svg>
