<?xml version="1.0" encoding="UTF-8" standalone="no"?>
<!DOCTYPE svg PUBLIC "-//W3C//DTD SVG 1.1//EN"
 "http://www.w3.org/Graphics/SVG/1.1/DTD/svg11.dtd">
<!-- Generated by graphviz version 2.43.0 (0)
 -->
<!-- Title: /home/aightech/dev/kistler_DAQ/lib/com_client/src/com_client.cpp Pages: 1 -->
<svg width="684pt" height="218pt"
 viewBox="0.00 0.00 684.00 218.00" xmlns="http://www.w3.org/2000/svg" xmlns:xlink="http://www.w3.org/1999/xlink">
<g id="graph0" class="graph" transform="scale(1 1) rotate(0) translate(4 214)">
<title>/home/aightech/dev/kistler_DAQ/lib/com_client/src/com_client.cpp</title>
<!-- Node1 -->
<g id="node1" class="node">
<title>Node1</title>
<g id="a_node1"><a xlink:title=" ">
<polygon fill="#bfbfbf" stroke="black" points="209,-168.5 209,-209.5 352,-209.5 352,-168.5 209,-168.5"/>
<text text-anchor="start" x="217" y="-197.5" font-family="Helvetica,sans-Serif" font-size="10.00">/home/aightech/dev</text>
<text text-anchor="start" x="217" y="-186.5" font-family="Helvetica,sans-Serif" font-size="10.00">/kistler_DAQ/lib/com</text>
<text text-anchor="middle" x="280.5" y="-175.5" font-family="Helvetica,sans-Serif" font-size="10.00">_client/src/com_client.cpp</text>
</a>
</g>
</g>
<!-- Node2 -->
<g id="node2" class="node">
<title>Node2</title>
<g id="a_node2"><a xlink:title=" ">
<polygon fill="none" stroke="#bfbfbf" points="0,-112.5 0,-131.5 51,-131.5 51,-112.5 0,-112.5"/>
<text text-anchor="middle" x="25.5" y="-119.5" font-family="Helvetica,sans-Serif" font-size="10.00">errno.h</text>
</a>
</g>
</g>
<!-- Node1&#45;&gt;Node2 -->
<g id="edge1" class="edge">
<title>Node1&#45;&gt;Node2</title>
<path fill="none" stroke="midnightblue" d="M208.65,-169.76C168.1,-159.45 116.22,-146.25 61.08,-132.14"/>
<polygon fill="midnightblue" stroke="midnightblue" points="61.67,-128.68 51.11,-129.59 59.93,-135.46 61.67,-128.68"/>
</g>
<!-- Node3 -->
<g id="node3" class="node">
<title>Node3</title>
<g id="a_node3"><a xlink:title=" ">
<polygon fill="none" stroke="#bfbfbf" points="69.5,-112.5 69.5,-131.5 119.5,-131.5 119.5,-112.5 69.5,-112.5"/>
<text text-anchor="middle" x="94.5" y="-119.5" font-family="Helvetica,sans-Serif" font-size="10.00">stdio.h</text>
</a>
</g>
</g>
<!-- Node1&#45;&gt;Node3 -->
<g id="edge2" class="edge">
<title>Node1&#45;&gt;Node3</title>
<path fill="none" stroke="midnightblue" d="M224.69,-168.5C193.57,-157.62 155.8,-144.42 128.97,-135.05"/>
<polygon fill="midnightblue" stroke="midnightblue" points="129.85,-131.65 119.26,-131.65 127.54,-138.26 129.85,-131.65"/>
</g>
<!-- Node4 -->
<g id="node4" class="node">
<title>Node4</title>
<g id="a_node4"><a xlink:title=" ">
<polygon fill="none" stroke="#bfbfbf" points="138,-112.5 138,-131.5 191,-131.5 191,-112.5 138,-112.5"/>
<text text-anchor="middle" x="164.5" y="-119.5" font-family="Helvetica,sans-Serif" font-size="10.00">stdlib.h</text>
</a>
</g>
</g>
<!-- Node1&#45;&gt;Node4 -->
<g id="edge3" class="edge">
<title>Node1&#45;&gt;Node4</title>
<path fill="none" stroke="midnightblue" d="M245.7,-168.5C227.4,-158.24 205.41,-145.93 188.94,-136.69"/>
<polygon fill="midnightblue" stroke="midnightblue" points="190.38,-133.49 179.94,-131.65 186.95,-139.59 190.38,-133.49"/>
</g>
<!-- Node5 -->
<g id="node5" class="node">
<title>Node5</title>
<g id="a_node5"><a xlink:title=" ">
<polygon fill="none" stroke="#bfbfbf" points="209,-112.5 209,-131.5 262,-131.5 262,-112.5 209,-112.5"/>
<text text-anchor="middle" x="235.5" y="-119.5" font-family="Helvetica,sans-Serif" font-size="10.00">string.h</text>
</a>
</g>
</g>
<!-- Node1&#45;&gt;Node5 -->
<g id="edge4" class="edge">
<title>Node1&#45;&gt;Node5</title>
<path fill="none" stroke="midnightblue" d="M267,-168.5C260.7,-159.39 253.27,-148.66 247.21,-139.91"/>
<polygon fill="midnightblue" stroke="midnightblue" points="250.06,-137.88 241.49,-131.65 244.3,-141.87 250.06,-137.88"/>
</g>
<!-- Node6 -->
<g id="node6" class="node">
<title>Node6</title>
<g id="a_node6"><a xlink:href="../../dc/d13/com__client_8hpp.html" target="_top" xlink:title=" ">
<polygon fill="none" stroke="black" points="280,-112.5 280,-131.5 371,-131.5 371,-112.5 280,-112.5"/>
<text text-anchor="middle" x="325.5" y="-119.5" font-family="Helvetica,sans-Serif" font-size="10.00">com_client.hpp</text>
</a>
</g>
</g>
<!-- Node1&#45;&gt;Node6 -->
<g id="edge5" class="edge">
<title>Node1&#45;&gt;Node6</title>
<path fill="none" stroke="midnightblue" d="M294,-168.5C300.3,-159.39 307.73,-148.66 313.79,-139.91"/>
<polygon fill="midnightblue" stroke="midnightblue" points="316.7,-141.87 319.51,-131.65 310.94,-137.88 316.7,-141.87"/>
</g>
<!-- Node17 -->
<g id="node17" class="node">
<title>Node17</title>
<g id="a_node17"><a xlink:title=" ">
<polygon fill="none" stroke="#bfbfbf" points="389,-112.5 389,-131.5 436,-131.5 436,-112.5 389,-112.5"/>
<text text-anchor="middle" x="412.5" y="-119.5" font-family="Helvetica,sans-Serif" font-size="10.00">cerrno</text>
</a>
</g>
</g>
<!-- Node1&#45;&gt;Node17 -->
<g id="edge17" class="edge">
<title>Node1&#45;&gt;Node17</title>
<path fill="none" stroke="midnightblue" d="M320.1,-168.5C341.32,-158.05 366.88,-145.46 385.74,-136.18"/>
<polygon fill="midnightblue" stroke="midnightblue" points="387.5,-139.21 394.93,-131.65 384.41,-132.93 387.5,-139.21"/>
</g>
<!-- Node18 -->
<g id="node18" class="node">
<title>Node18</title>
<g id="a_node18"><a xlink:title=" ">
<polygon fill="none" stroke="#bfbfbf" points="454,-112.5 454,-131.5 505,-131.5 505,-112.5 454,-112.5"/>
<text text-anchor="middle" x="479.5" y="-119.5" font-family="Helvetica,sans-Serif" font-size="10.00">clocale</text>
</a>
</g>
</g>
<!-- Node1&#45;&gt;Node18 -->
<g id="edge18" class="edge">
<title>Node1&#45;&gt;Node18</title>
<path fill="none" stroke="midnightblue" d="M340.21,-168.5C374.1,-157.43 415.38,-143.94 444.16,-134.54"/>
<polygon fill="midnightblue" stroke="midnightblue" points="445.37,-137.83 453.79,-131.4 443.2,-131.18 445.37,-137.83"/>
</g>
<!-- Node19 -->
<g id="node19" class="node">
<title>Node19</title>
<g id="a_node19"><a xlink:title=" ">
<polygon fill="none" stroke="#bfbfbf" points="523.5,-112.5 523.5,-131.5 573.5,-131.5 573.5,-112.5 523.5,-112.5"/>
<text text-anchor="middle" x="548.5" y="-119.5" font-family="Helvetica,sans-Serif" font-size="10.00">cstring</text>
</a>
</g>
</g>
<!-- Node1&#45;&gt;Node19 -->
<g id="edge19" class="edge">
<title>Node1&#45;&gt;Node19</title>
<path fill="none" stroke="midnightblue" d="M352.04,-171.35C395.98,-161.01 453.66,-147.25 513.29,-132.26"/>
<polygon fill="midnightblue" stroke="midnightblue" points="514.42,-135.59 523.27,-129.75 512.71,-128.8 514.42,-135.59"/>
</g>
<!-- Node7 -->
<g id="node7" class="node">
<title>Node7</title>
<g id="a_node7"><a xlink:title=" ">
<polygon fill="none" stroke="#bfbfbf" points="217.5,-0.5 217.5,-19.5 277.5,-19.5 277.5,-0.5 217.5,-0.5"/>
<text text-anchor="middle" x="247.5" y="-7.5" font-family="Helvetica,sans-Serif" font-size="10.00">iostream</text>
</a>
</g>
</g>
<!-- Node6&#45;&gt;Node7 -->
<g id="edge6" class="edge">
<title>Node6&#45;&gt;Node7</title>
<path fill="none" stroke="midnightblue" d="M279.77,-112.9C258.56,-106.61 235.27,-95.51 222.5,-76 212.62,-60.9 222.76,-41.3 232.94,-27.59"/>
<polygon fill="midnightblue" stroke="midnightblue" points="235.88,-29.52 239.42,-19.54 230.42,-25.13 235.88,-29.52"/>
</g>
<!-- Node8 -->
<g id="node8" class="node">
<title>Node8</title>
<g id="a_node8"><a xlink:title=" ">
<polygon fill="none" stroke="#bfbfbf" points="232,-56.5 232,-75.5 283,-75.5 283,-56.5 232,-56.5"/>
<text text-anchor="middle" x="257.5" y="-63.5" font-family="Helvetica,sans-Serif" font-size="10.00">math.h</text>
</a>
</g>
</g>
<!-- Node6&#45;&gt;Node8 -->
<g id="edge7" class="edge">
<title>Node6&#45;&gt;Node8</title>
<path fill="none" stroke="midnightblue" d="M314.57,-112.32C304.33,-104.18 288.78,-91.84 276.5,-82.09"/>
<polygon fill="midnightblue" stroke="midnightblue" points="278.63,-79.31 268.62,-75.83 274.28,-84.79 278.63,-79.31"/>
</g>
<!-- Node9 -->
<g id="node9" class="node">
<title>Node9</title>
<g id="a_node9"><a xlink:title=" ">
<polygon fill="none" stroke="#bfbfbf" points="301.5,-56.5 301.5,-75.5 349.5,-75.5 349.5,-56.5 301.5,-56.5"/>
<text text-anchor="middle" x="325.5" y="-63.5" font-family="Helvetica,sans-Serif" font-size="10.00">mutex</text>
</a>
</g>
</g>
<!-- Node6&#45;&gt;Node9 -->
<g id="edge8" class="edge">
<title>Node6&#45;&gt;Node9</title>
<path fill="none" stroke="midnightblue" d="M325.5,-112.08C325.5,-105.01 325.5,-94.86 325.5,-85.99"/>
<polygon fill="midnightblue" stroke="midnightblue" points="329,-85.75 325.5,-75.75 322,-85.75 329,-85.75"/>
</g>
<!-- Node10 -->
<g id="node10" class="node">
<title>Node10</title>
<g id="a_node10"><a xlink:title=" ">
<polygon fill="none" stroke="#bfbfbf" points="368,-56.5 368,-75.5 433,-75.5 433,-56.5 368,-56.5"/>
<text text-anchor="middle" x="400.5" y="-63.5" font-family="Helvetica,sans-Serif" font-size="10.00">stdexcept</text>
</a>
</g>
</g>
<!-- Node6&#45;&gt;Node10 -->
<g id="edge9" class="edge">
<title>Node6&#45;&gt;Node10</title>
<path fill="none" stroke="midnightblue" d="M337.55,-112.32C348.96,-104.11 366.33,-91.6 379.93,-81.81"/>
<polygon fill="midnightblue" stroke="midnightblue" points="382.16,-84.52 388.23,-75.83 378.07,-78.84 382.16,-84.52"/>
</g>
<!-- Node11 -->
<g id="node11" class="node">
<title>Node11</title>
<g id="a_node11"><a xlink:href="../../df/df2/str_a_n_s_iseq_8hpp.html" target="_top" xlink:title=" ">
<polygon fill="none" stroke="black" points="451,-56.5 451,-75.5 542,-75.5 542,-56.5 451,-56.5"/>
<text text-anchor="middle" x="496.5" y="-63.5" font-family="Helvetica,sans-Serif" font-size="10.00">strANSIseq.hpp</text>
</a>
</g>
</g>
<!-- Node6&#45;&gt;Node11 -->
<g id="edge10" class="edge">
<title>Node6&#45;&gt;Node11</title>
<path fill="none" stroke="midnightblue" d="M352.6,-112.44C381.49,-103.32 427.42,-88.81 459.61,-78.65"/>
<polygon fill="midnightblue" stroke="midnightblue" points="461.05,-81.87 469.53,-75.52 458.94,-75.19 461.05,-81.87"/>
</g>
<!-- Node11&#45;&gt;Node7 -->
<g id="edge12" class="edge">
<title>Node11&#45;&gt;Node7</title>
<path fill="none" stroke="midnightblue" d="M457.05,-56.44C410.77,-46.41 334.46,-29.86 287.81,-19.74"/>
<polygon fill="midnightblue" stroke="midnightblue" points="288.28,-16.26 277.76,-17.56 286.79,-23.1 288.28,-16.26"/>
</g>
<!-- Node12 -->
<g id="node12" class="node">
<title>Node12</title>
<g id="a_node12"><a xlink:title=" ">
<polygon fill="none" stroke="#bfbfbf" points="339,-0.5 339,-19.5 392,-19.5 392,-0.5 339,-0.5"/>
<text text-anchor="middle" x="365.5" y="-7.5" font-family="Helvetica,sans-Serif" font-size="10.00">cstdarg</text>
</a>
</g>
</g>
<!-- Node11&#45;&gt;Node12 -->
<g id="edge11" class="edge">
<title>Node11&#45;&gt;Node12</title>
<path fill="none" stroke="midnightblue" d="M475.74,-56.44C454.18,-47.56 420.24,-33.56 395.71,-23.45"/>
<polygon fill="midnightblue" stroke="midnightblue" points="396.74,-20.09 386.16,-19.52 394.07,-26.56 396.74,-20.09"/>
</g>
<!-- Node13 -->
<g id="node13" class="node">
<title>Node13</title>
<g id="a_node13"><a xlink:title=" ">
<polygon fill="none" stroke="#bfbfbf" points="410.5,-0.5 410.5,-19.5 454.5,-19.5 454.5,-0.5 410.5,-0.5"/>
<text text-anchor="middle" x="432.5" y="-7.5" font-family="Helvetica,sans-Serif" font-size="10.00">string</text>
</a>
</g>
</g>
<!-- Node11&#45;&gt;Node13 -->
<g id="edge13" class="edge">
<title>Node11&#45;&gt;Node13</title>
<path fill="none" stroke="midnightblue" d="M486.22,-56.32C476.66,-48.26 462.22,-36.08 450.72,-26.37"/>
<polygon fill="midnightblue" stroke="midnightblue" points="452.87,-23.61 442.97,-19.83 448.36,-28.96 452.87,-23.61"/>
</g>
<!-- Node14 -->
<g id="node14" class="node">
<title>Node14</title>
<g id="a_node14"><a xlink:title=" ">
<polygon fill="none" stroke="#bfbfbf" points="473,-0.5 473,-19.5 520,-19.5 520,-0.5 473,-0.5"/>
<text text-anchor="middle" x="496.5" y="-7.5" font-family="Helvetica,sans-Serif" font-size="10.00">vector</text>
</a>
</g>
</g>
<!-- Node11&#45;&gt;Node14 -->
<g id="edge14" class="edge">
<title>Node11&#45;&gt;Node14</title>
<path fill="none" stroke="midnightblue" d="M496.5,-56.08C496.5,-49.01 496.5,-38.86 496.5,-29.99"/>
<polygon fill="midnightblue" stroke="midnightblue" points="500,-29.75 496.5,-19.75 493,-29.75 500,-29.75"/>
</g>
<!-- Node15 -->
<g id="node15" class="node">
<title>Node15</title>
<g id="a_node15"><a xlink:title=" ">
<polygon fill="none" stroke="#bfbfbf" points="538.5,-0.5 538.5,-19.5 594.5,-19.5 594.5,-0.5 538.5,-0.5"/>
<text text-anchor="middle" x="566.5" y="-7.5" font-family="Helvetica,sans-Serif" font-size="10.00">unistd.h</text>
</a>
</g>
</g>
<!-- Node11&#45;&gt;Node15 -->
<g id="edge15" class="edge">
<title>Node11&#45;&gt;Node15</title>
<path fill="none" stroke="midnightblue" d="M507.75,-56.32C518.3,-48.18 534.3,-35.84 546.94,-26.09"/>
<polygon fill="midnightblue" stroke="midnightblue" points="549.27,-28.71 555.05,-19.83 544.99,-23.17 549.27,-28.71"/>
</g>
<!-- Node16 -->
<g id="node16" class="node">
<title>Node16</title>
<g id="a_node16"><a xlink:title=" ">
<polygon fill="none" stroke="#bfbfbf" points="613,-0.5 613,-19.5 676,-19.5 676,-0.5 613,-0.5"/>
<text text-anchor="middle" x="644.5" y="-7.5" font-family="Helvetica,sans-Serif" font-size="10.00">termios.h</text>
</a>
</g>
</g>
<!-- Node11&#45;&gt;Node16 -->
<g id="edge16" class="edge">
<title>Node11&#45;&gt;Node16</title>
<path fill="none" stroke="midnightblue" d="M519.95,-56.44C544.63,-47.44 583.69,-33.19 611.48,-23.05"/>
<polygon fill="midnightblue" stroke="midnightblue" points="612.96,-26.23 621.16,-19.52 610.56,-19.66 612.96,-26.23"/>
</g>
</g>
</svg>
