<?xml version="1.0" encoding="UTF-8" standalone="no"?>
<!DOCTYPE svg PUBLIC "-//W3C//DTD SVG 1.1//EN"
 "http://www.w3.org/Graphics/SVG/1.1/DTD/svg11.dtd">
<!-- Generated by graphviz version 2.43.0 (0)
 -->
<!-- Title: /home/aightech/dev/kistler_DAQ/lib/com_client Pages: 1 -->
<svg width="342pt" height="255pt"
 viewBox="0.00 0.00 342.00 255.00" xmlns="http://www.w3.org/2000/svg" xmlns:xlink="http://www.w3.org/1999/xlink">
<g id="graph0" class="graph" transform="scale(1 1) rotate(0) translate(4 251)">
<title>/home/aightech/dev/kistler_DAQ/lib/com_client</title>
<g id="clust1" class="cluster">
<title>clusterdir_97aefd0d527b934f1d99a682da8fe6a9</title>
<g id="a_clust1"><a xlink:href="dir_97aefd0d527b934f1d99a682da8fe6a9.html" target="_top" xlink:title="lib">
<polygon fill="#ddddee" stroke="black" points="8,-8 8,-239 326,-239 326,-8 8,-8"/>
<text text-anchor="middle" x="167" y="-227" font-family="Helvetica,sans-Serif" font-size="10.00">lib</text>
</a>
</g>
</g>
<g id="clust2" class="cluster">
<title>clusterdir_828b3b76ec7e4d5f4331505083c8ff96</title>
<g id="a_clust2"><a xlink:href="dir_828b3b76ec7e4d5f4331505083c8ff96.html" target="_top">
<polygon fill="#eeeeff" stroke="black" points="16,-16 16,-212 318,-212 318,-16 16,-16"/>
</a>
</g>
</g>
<!-- dir_828b3b76ec7e4d5f4331505083c8ff96 -->
<g id="node1" class="node">
<title>dir_828b3b76ec7e4d5f4331505083c8ff96</title>
<text text-anchor="middle" x="275" y="-183.5" font-family="Helvetica,sans-Serif" font-size="10.00">com_client</text>
</g>
<!-- dir_f506d9ce3c3a9f2eb408c618d4bd843b -->
<g id="node2" class="node">
<title>dir_f506d9ce3c3a9f2eb408c618d4bd843b</title>
<g id="a_node2"><a xlink:href="dir_f506d9ce3c3a9f2eb408c618d4bd843b.html" target="_top" xlink:title="build">
<polygon fill="white" stroke="red" points="222,-204 168,-204 168,-168 222,-168 222,-204"/>
<text text-anchor="middle" x="195" y="-183.5" font-family="Helvetica,sans-Serif" font-size="10.00">build</text>
</a>
</g>
</g>
<!-- dir_82b1ac762ba39849ddc6febd35ea86e3 -->
<g id="node3" class="node">
<title>dir_82b1ac762ba39849ddc6febd35ea86e3</title>
<g id="a_node3"><a xlink:href="dir_82b1ac762ba39849ddc6febd35ea86e3.html" target="_top" xlink:title="include">
<polygon fill="white" stroke="black" points="150,-132 96,-132 96,-96 150,-96 150,-132"/>
<text text-anchor="middle" x="123" y="-111.5" font-family="Helvetica,sans-Serif" font-size="10.00">include</text>
</a>
</g>
</g>
<!-- dir_9f879cd3dbbe8956eb80a11d8210005b -->
<g id="node4" class="node">
<title>dir_9f879cd3dbbe8956eb80a11d8210005b</title>
<g id="a_node4"><a xlink:href="dir_9f879cd3dbbe8956eb80a11d8210005b.html" target="_top" xlink:title="lib">
<polygon fill="white" stroke="red" points="150,-60 96,-60 96,-24 150,-24 150,-60"/>
<text text-anchor="middle" x="123" y="-39.5" font-family="Helvetica,sans-Serif" font-size="10.00">lib</text>
</a>
</g>
</g>
<!-- dir_82b1ac762ba39849ddc6febd35ea86e3&#45;&gt;dir_9f879cd3dbbe8956eb80a11d8210005b -->
<g id="edge2" class="edge">
<title>dir_82b1ac762ba39849ddc6febd35ea86e3&#45;&gt;dir_9f879cd3dbbe8956eb80a11d8210005b</title>
<path fill="none" stroke="black" d="M123,-95.7C123,-87.98 123,-78.71 123,-70.11"/>
<polygon fill="black" stroke="black" points="126.5,-70.1 123,-60.1 119.5,-70.1 126.5,-70.1"/>
<g id="a_edge2&#45;headlabel"><a xlink:href="dir_000053_000051.html" target="_top" xlink:title="1">
<text text-anchor="middle" x="129.34" y="-71.2" font-family="Helvetica,sans-Serif" font-size="10.00">1</text>
</a>
</g>
</g>
<!-- dir_3a1df37c997cbaa165ceb52470158703 -->
<g id="node5" class="node">
<title>dir_3a1df37c997cbaa165ceb52470158703</title>
<g id="a_node5"><a xlink:href="dir_3a1df37c997cbaa165ceb52470158703.html" target="_top" xlink:title="src">
<polygon fill="white" stroke="black" points="150,-204 96,-204 96,-168 150,-168 150,-204"/>
<text text-anchor="middle" x="123" y="-183.5" font-family="Helvetica,sans-Serif" font-size="10.00">src</text>
</a>
</g>
</g>
<!-- dir_3a1df37c997cbaa165ceb52470158703&#45;&gt;dir_82b1ac762ba39849ddc6febd35ea86e3 -->
<g id="edge1" class="edge">
<title>dir_3a1df37c997cbaa165ceb52470158703&#45;&gt;dir_82b1ac762ba39849ddc6febd35ea86e3</title>
<path fill="none" stroke="black" d="M123,-167.7C123,-159.98 123,-150.71 123,-142.11"/>
<polygon fill="black" stroke="black" points="126.5,-142.1 123,-132.1 119.5,-142.1 126.5,-142.1"/>
<g id="a_edge1&#45;headlabel"><a xlink:href="dir_000056_000053.html" target="_top" xlink:title="3">
<text text-anchor="middle" x="129.34" y="-143.2" font-family="Helvetica,sans-Serif" font-size="10.00">3</text>
</a>
</g>
</g>
<!-- dir_13f0b8b61d0b0f996f13cf5cc7d9b3b1 -->
<g id="node6" class="node">
<title>dir_13f0b8b61d0b0f996f13cf5cc7d9b3b1</title>
<g id="a_node6"><a xlink:href="dir_13f0b8b61d0b0f996f13cf5cc7d9b3b1.html" target="_top" xlink:title="tool_lib">
<polygon fill="white" stroke="red" points="78,-204 24,-204 24,-168 78,-168 78,-204"/>
<text text-anchor="middle" x="51" y="-183.5" font-family="Helvetica,sans-Serif" font-size="10.00">tool_lib</text>
</a>
</g>
</g>
</g>
</svg>
