<?xml version="1.0" encoding="UTF-8" standalone="no"?>
<!DOCTYPE svg PUBLIC "-//W3C//DTD SVG 1.1//EN"
 "http://www.w3.org/Graphics/SVG/1.1/DTD/svg11.dtd">
<!-- Generated by graphviz version 2.43.0 (0)
 -->
<!-- Title: Graphical Class Hierarchy Pages: 1 -->
<svg width="337pt" height="154pt"
 viewBox="0.00 0.00 337.00 154.00" xmlns="http://www.w3.org/2000/svg" xmlns:xlink="http://www.w3.org/1999/xlink">
<g id="graph0" class="graph" transform="scale(1 1) rotate(0) translate(4 150)">
<title>Graphical Class Hierarchy</title>
<!-- Node0 -->
<g id="node1" class="node">
<title>Node0</title>
<g id="a_node1"><a xlink:href="dc/d44/class_e_s_c_1_1_c_l_i.html" target="_top" xlink:title=" ">
<polygon fill="none" stroke="black" points="0,-60.5 0,-79.5 56,-79.5 56,-60.5 0,-60.5"/>
<text text-anchor="middle" x="28" y="-67.5" font-family="Helvetica,sans-Serif" font-size="10.00">ESC::CLI</text>
</a>
</g>
</g>
<!-- Node1 -->
<g id="node2" class="node">
<title>Node1</title>
<g id="a_node2"><a xlink:href="df/dcd/class_communication_1_1_client.html" target="_top" xlink:title="Communication client class.">
<polygon fill="none" stroke="black" points="93.5,-126.5 93.5,-145.5 221.5,-145.5 221.5,-126.5 93.5,-126.5"/>
<text text-anchor="middle" x="157.5" y="-133.5" font-family="Helvetica,sans-Serif" font-size="10.00">Communication::Client</text>
</a>
</g>
</g>
<!-- Node0&#45;&gt;Node1 -->
<g id="edge1" class="edge">
<title>Node0&#45;&gt;Node1</title>
<path fill="none" stroke="midnightblue" d="M47.26,-86.37C59.25,-96.41 75.7,-108.85 92,-117 99.52,-120.76 107.91,-123.91 116.09,-126.49"/>
<polygon fill="midnightblue" stroke="midnightblue" points="49.24,-83.46 39.37,-79.59 44.67,-88.76 49.24,-83.46"/>
</g>
<!-- Node2 -->
<g id="node3" class="node">
<title>Node2</title>
<g id="a_node3"><a xlink:href="d7/d60/class_communication_1_1_h_t_t_p__client.html" target="_top" xlink:title=" ">
<polygon fill="none" stroke="black" points="95,-77 95,-107 220,-107 220,-77 95,-77"/>
<text text-anchor="start" x="103" y="-95" font-family="Helvetica,sans-Serif" font-size="10.00">Communication::HTTP</text>
<text text-anchor="middle" x="157.5" y="-84" font-family="Helvetica,sans-Serif" font-size="10.00">_client</text>
</a>
</g>
</g>
<!-- Node0&#45;&gt;Node2 -->
<g id="edge2" class="edge">
<title>Node0&#45;&gt;Node2</title>
<path fill="none" stroke="midnightblue" d="M66.17,-76.41C75.18,-77.97 85.06,-79.67 94.87,-81.37"/>
<polygon fill="midnightblue" stroke="midnightblue" points="66.49,-72.92 56.04,-74.67 65.3,-79.82 66.49,-72.92"/>
</g>
<!-- Node4 -->
<g id="node5" class="node">
<title>Node4</title>
<g id="a_node5"><a xlink:href="dc/db1/class_communication_1_1_server.html" target="_top" xlink:title=" ">
<polygon fill="none" stroke="black" points="92,-38.5 92,-57.5 223,-57.5 223,-38.5 92,-38.5"/>
<text text-anchor="middle" x="157.5" y="-45.5" font-family="Helvetica,sans-Serif" font-size="10.00">Communication::Server</text>
</a>
</g>
</g>
<!-- Node0&#45;&gt;Node4 -->
<g id="edge4" class="edge">
<title>Node0&#45;&gt;Node4</title>
<path fill="none" stroke="midnightblue" d="M66.16,-63.59C77.19,-61.69 89.51,-59.56 101.42,-57.5"/>
<polygon fill="midnightblue" stroke="midnightblue" points="65.3,-60.18 56.04,-65.33 66.49,-67.08 65.3,-60.18"/>
</g>
<!-- Node5 -->
<g id="node6" class="node">
<title>Node5</title>
<g id="a_node6"><a xlink:href="da/d97/class_kistler_1_1_d_a_q.html" target="_top" xlink:title=" ">
<polygon fill="none" stroke="black" points="119.5,-0.5 119.5,-19.5 195.5,-19.5 195.5,-0.5 119.5,-0.5"/>
<text text-anchor="middle" x="157.5" y="-7.5" font-family="Helvetica,sans-Serif" font-size="10.00">Kistler::DAQ</text>
</a>
</g>
</g>
<!-- Node0&#45;&gt;Node5 -->
<g id="edge5" class="edge">
<title>Node0&#45;&gt;Node5</title>
<path fill="none" stroke="midnightblue" d="M49.71,-54.32C61.59,-45.9 77.08,-35.87 92,-29 100.59,-25.04 110.2,-21.69 119.33,-18.95"/>
<polygon fill="midnightblue" stroke="midnightblue" points="47.43,-51.66 41.4,-60.37 51.54,-57.32 47.43,-51.66"/>
</g>
<!-- Node3 -->
<g id="node4" class="node">
<title>Node3</title>
<g id="a_node4"><a xlink:href="da/d94/class_kistler_1_1_a_p_i.html" target="_top" xlink:title="Object to handle the communication with the Kistler REST API.">
<polygon fill="none" stroke="black" points="259,-82.5 259,-101.5 329,-101.5 329,-82.5 259,-82.5"/>
<text text-anchor="middle" x="294" y="-89.5" font-family="Helvetica,sans-Serif" font-size="10.00">Kistler::API</text>
</a>
</g>
</g>
<!-- Node2&#45;&gt;Node3 -->
<g id="edge3" class="edge">
<title>Node2&#45;&gt;Node3</title>
<path fill="none" stroke="midnightblue" d="M230.52,-92C240.36,-92 250.08,-92 258.8,-92"/>
<polygon fill="midnightblue" stroke="midnightblue" points="230.24,-88.5 220.24,-92 230.24,-95.5 230.24,-88.5"/>
</g>
</g>
</svg>
