<?xml version="1.0" encoding="UTF-8" standalone="no"?>
<!DOCTYPE svg PUBLIC "-//W3C//DTD SVG 1.1//EN"
 "http://www.w3.org/Graphics/SVG/1.1/DTD/svg11.dtd">
<!-- Generated by graphviz version 2.43.0 (0)
 -->
<!-- Title: /home/aightech/dev/kistler_DAQ/lib/com_client/tool_lib/built_lsl/include/lsl_cpp.h Pages: 1 -->
<svg width="269pt" height="173pt"
 viewBox="0.00 0.00 268.50 173.00" xmlns="http://www.w3.org/2000/svg" xmlns:xlink="http://www.w3.org/1999/xlink">
<g id="graph0" class="graph" transform="scale(1 1) rotate(0) translate(4 169)">
<title>/home/aightech/dev/kistler_DAQ/lib/com_client/tool_lib/built_lsl/include/lsl_cpp.h</title>
<!-- Node1 -->
<g id="node1" class="node">
<title>Node1</title>
<g id="a_node1"><a xlink:title=" ">
<polygon fill="#bfbfbf" stroke="black" points="64.5,-112.5 64.5,-164.5 181.5,-164.5 181.5,-112.5 64.5,-112.5"/>
<text text-anchor="start" x="72.5" y="-152.5" font-family="Helvetica,sans-Serif" font-size="10.00">/home/aightech/dev</text>
<text text-anchor="start" x="72.5" y="-141.5" font-family="Helvetica,sans-Serif" font-size="10.00">/kistler_DAQ/lib/com</text>
<text text-anchor="start" x="72.5" y="-130.5" font-family="Helvetica,sans-Serif" font-size="10.00">_client/tool_lib/built</text>
<text text-anchor="middle" x="123" y="-119.5" font-family="Helvetica,sans-Serif" font-size="10.00">_lsl/include/lsl_cpp.h</text>
</a>
</g>
</g>
<!-- Node2 -->
<g id="node2" class="node">
<title>Node2</title>
<g id="a_node2"><a xlink:title=" ">
<polygon fill="none" stroke="#bfbfbf" points="0,-56.5 0,-75.5 44,-75.5 44,-56.5 0,-56.5"/>
<text text-anchor="middle" x="22" y="-63.5" font-family="Helvetica,sans-Serif" font-size="10.00">string</text>
</a>
</g>
</g>
<!-- Node1&#45;&gt;Node2 -->
<g id="edge1" class="edge">
<title>Node1&#45;&gt;Node2</title>
<path fill="none" stroke="midnightblue" d="M87.11,-112.45C72.32,-102.13 55.71,-90.53 42.97,-81.64"/>
<polygon fill="midnightblue" stroke="midnightblue" points="44.66,-78.55 34.46,-75.7 40.65,-84.29 44.66,-78.55"/>
</g>
<!-- Node3 -->
<g id="node3" class="node">
<title>Node3</title>
<g id="a_node3"><a xlink:title=" ">
<polygon fill="none" stroke="#bfbfbf" points="62.5,-56.5 62.5,-75.5 109.5,-75.5 109.5,-56.5 62.5,-56.5"/>
<text text-anchor="middle" x="86" y="-63.5" font-family="Helvetica,sans-Serif" font-size="10.00">vector</text>
</a>
</g>
</g>
<!-- Node1&#45;&gt;Node3 -->
<g id="edge2" class="edge">
<title>Node1&#45;&gt;Node3</title>
<path fill="none" stroke="midnightblue" d="M109.85,-112.45C105.01,-103.23 99.64,-93 95.22,-84.58"/>
<polygon fill="midnightblue" stroke="midnightblue" points="98.31,-82.92 90.56,-75.7 92.11,-86.18 98.31,-82.92"/>
</g>
<!-- Node4 -->
<g id="node4" class="node">
<title>Node4</title>
<g id="a_node4"><a xlink:title=" ">
<polygon fill="none" stroke="#bfbfbf" points="127.5,-56.5 127.5,-75.5 192.5,-75.5 192.5,-56.5 127.5,-56.5"/>
<text text-anchor="middle" x="160" y="-63.5" font-family="Helvetica,sans-Serif" font-size="10.00">stdexcept</text>
</a>
</g>
</g>
<!-- Node1&#45;&gt;Node4 -->
<g id="edge3" class="edge">
<title>Node1&#45;&gt;Node4</title>
<path fill="none" stroke="midnightblue" d="M136.15,-112.45C140.99,-103.23 146.36,-93 150.78,-84.58"/>
<polygon fill="midnightblue" stroke="midnightblue" points="153.89,-86.18 155.44,-75.7 147.69,-82.92 153.89,-86.18"/>
</g>
<!-- Node5 -->
<g id="node5" class="node">
<title>Node5</title>
<g id="a_node5"><a xlink:href="../../db/d8d/com__client_2tool__lib_2built__lsl_2include_2lsl__c_8h.html" target="_top" xlink:title=" ">
<polygon fill="none" stroke="black" points="210.5,-56.5 210.5,-75.5 257.5,-75.5 257.5,-56.5 210.5,-56.5"/>
<text text-anchor="middle" x="234" y="-63.5" font-family="Helvetica,sans-Serif" font-size="10.00">lsl_c.h</text>
</a>
</g>
</g>
<!-- Node1&#45;&gt;Node5 -->
<g id="edge4" class="edge">
<title>Node1&#45;&gt;Node5</title>
<path fill="none" stroke="midnightblue" d="M162.45,-112.45C179.11,-101.86 197.89,-89.94 212.02,-80.96"/>
<polygon fill="midnightblue" stroke="midnightblue" points="214.01,-83.84 220.57,-75.53 210.26,-77.93 214.01,-83.84"/>
</g>
<!-- Node6 -->
<g id="node6" class="node">
<title>Node6</title>
<g id="a_node6"><a xlink:title=" ">
<polygon fill="none" stroke="#bfbfbf" points="207.5,-0.5 207.5,-19.5 260.5,-19.5 260.5,-0.5 207.5,-0.5"/>
<text text-anchor="middle" x="234" y="-7.5" font-family="Helvetica,sans-Serif" font-size="10.00">stdint.h</text>
</a>
</g>
</g>
<!-- Node5&#45;&gt;Node6 -->
<g id="edge5" class="edge">
<title>Node5&#45;&gt;Node6</title>
<path fill="none" stroke="midnightblue" d="M234,-56.08C234,-49.01 234,-38.86 234,-29.99"/>
<polygon fill="midnightblue" stroke="midnightblue" points="237.5,-29.75 234,-19.75 230.5,-29.75 237.5,-29.75"/>
</g>
</g>
</svg>
