<?xml version="1.0" encoding="UTF-8" standalone="no"?>
<!DOCTYPE svg PUBLIC "-//W3C//DTD SVG 1.1//EN"
 "http://www.w3.org/Graphics/SVG/1.1/DTD/svg11.dtd">
<!-- Generated by graphviz version 2.43.0 (0)
 -->
<!-- Title: /home/aightech/dev/kistler_DAQ/lib/com_client/src/main.cpp Pages: 1 -->
<svg width="750pt" height="218pt"
 viewBox="0.00 0.00 750.00 218.00" xmlns="http://www.w3.org/2000/svg" xmlns:xlink="http://www.w3.org/1999/xlink">
<g id="graph0" class="graph" transform="scale(1 1) rotate(0) translate(4 214)">
<title>/home/aightech/dev/kistler_DAQ/lib/com_client/src/main.cpp</title>
<!-- Node1 -->
<g id="node1" class="node">
<title>Node1</title>
<g id="a_node1"><a xlink:title=" ">
<polygon fill="#bfbfbf" stroke="black" points="429.5,-168.5 429.5,-209.5 545.5,-209.5 545.5,-168.5 429.5,-168.5"/>
<text text-anchor="start" x="437.5" y="-197.5" font-family="Helvetica,sans-Serif" font-size="10.00">/home/aightech/dev</text>
<text text-anchor="start" x="437.5" y="-186.5" font-family="Helvetica,sans-Serif" font-size="10.00">/kistler_DAQ/lib/com</text>
<text text-anchor="middle" x="487.5" y="-175.5" font-family="Helvetica,sans-Serif" font-size="10.00">_client/src/main.cpp</text>
</a>
</g>
</g>
<!-- Node2 -->
<g id="node2" class="node">
<title>Node2</title>
<g id="a_node2"><a xlink:title=" ">
<polygon fill="none" stroke="#bfbfbf" points="0,-112.5 0,-131.5 47,-131.5 47,-112.5 0,-112.5"/>
<text text-anchor="middle" x="23.5" y="-119.5" font-family="Helvetica,sans-Serif" font-size="10.00">cmath</text>
</a>
</g>
</g>
<!-- Node1&#45;&gt;Node2 -->
<g id="edge1" class="edge">
<title>Node1&#45;&gt;Node2</title>
<path fill="none" stroke="midnightblue" d="M429.23,-182.99C347.95,-175.43 195.9,-159.24 57.17,-131.87"/>
<polygon fill="midnightblue" stroke="midnightblue" points="57.69,-128.41 47.2,-129.88 56.32,-135.27 57.69,-128.41"/>
</g>
<!-- Node3 -->
<g id="node3" class="node">
<title>Node3</title>
<g id="a_node3"><a xlink:title=" ">
<polygon fill="none" stroke="#bfbfbf" points="65.5,-112.5 65.5,-131.5 115.5,-131.5 115.5,-112.5 65.5,-112.5"/>
<text text-anchor="middle" x="90.5" y="-119.5" font-family="Helvetica,sans-Serif" font-size="10.00">cstring</text>
</a>
</g>
</g>
<!-- Node1&#45;&gt;Node3 -->
<g id="edge2" class="edge">
<title>Node1&#45;&gt;Node3</title>
<path fill="none" stroke="midnightblue" d="M429.3,-180.2C358.28,-170.39 234.65,-152.33 129.5,-132 128.23,-131.76 126.95,-131.5 125.65,-131.23"/>
<polygon fill="midnightblue" stroke="midnightblue" points="126.13,-127.76 115.62,-129.08 124.66,-134.6 126.13,-127.76"/>
</g>
<!-- Node4 -->
<g id="node4" class="node">
<title>Node4</title>
<g id="a_node4"><a xlink:title=" ">
<polygon fill="none" stroke="#bfbfbf" points="158.5,-0.5 158.5,-19.5 218.5,-19.5 218.5,-0.5 158.5,-0.5"/>
<text text-anchor="middle" x="188.5" y="-7.5" font-family="Helvetica,sans-Serif" font-size="10.00">iostream</text>
</a>
</g>
</g>
<!-- Node1&#45;&gt;Node4 -->
<g id="edge3" class="edge">
<title>Node1&#45;&gt;Node4</title>
<path fill="none" stroke="midnightblue" d="M429.34,-187.04C353.49,-182.27 223.31,-161.28 162.5,-76 151.86,-61.09 162.76,-41.2 173.53,-27.37"/>
<polygon fill="midnightblue" stroke="midnightblue" points="176.27,-29.55 180.02,-19.64 170.91,-25.05 176.27,-29.55"/>
</g>
<!-- Node5 -->
<g id="node5" class="node">
<title>Node5</title>
<g id="a_node5"><a xlink:title=" ">
<polygon fill="none" stroke="#bfbfbf" points="484.5,-0.5 484.5,-19.5 528.5,-19.5 528.5,-0.5 484.5,-0.5"/>
<text text-anchor="middle" x="506.5" y="-7.5" font-family="Helvetica,sans-Serif" font-size="10.00">string</text>
</a>
</g>
</g>
<!-- Node1&#45;&gt;Node5 -->
<g id="edge4" class="edge">
<title>Node1&#45;&gt;Node5</title>
<path fill="none" stroke="midnightblue" d="M497.33,-168.39C507.71,-146.5 523.39,-109.72 529.5,-76 531.09,-67.25 531.58,-64.64 529.5,-56 527.19,-46.42 522.48,-36.58 517.92,-28.56"/>
<polygon fill="midnightblue" stroke="midnightblue" points="520.79,-26.54 512.6,-19.81 514.81,-30.17 520.79,-26.54"/>
</g>
<!-- Node6 -->
<g id="node6" class="node">
<title>Node6</title>
<g id="a_node6"><a xlink:title=" ">
<polygon fill="none" stroke="#bfbfbf" points="557,-0.5 557,-19.5 604,-19.5 604,-0.5 557,-0.5"/>
<text text-anchor="middle" x="580.5" y="-7.5" font-family="Helvetica,sans-Serif" font-size="10.00">vector</text>
</a>
</g>
</g>
<!-- Node1&#45;&gt;Node6 -->
<g id="edge5" class="edge">
<title>Node1&#45;&gt;Node6</title>
<path fill="none" stroke="midnightblue" d="M505.26,-168.25C513.93,-157.94 524.06,-144.84 531.5,-132 551.41,-97.65 567.02,-53.66 574.89,-29.3"/>
<polygon fill="midnightblue" stroke="midnightblue" points="578.28,-30.18 577.94,-19.59 571.6,-28.08 578.28,-30.18"/>
</g>
<!-- Node7 -->
<g id="node7" class="node">
<title>Node7</title>
<g id="a_node7"><a xlink:title=" ">
<polygon fill="none" stroke="#bfbfbf" points="614.5,-112.5 614.5,-131.5 664.5,-131.5 664.5,-112.5 614.5,-112.5"/>
<text text-anchor="middle" x="639.5" y="-119.5" font-family="Helvetica,sans-Serif" font-size="10.00">stdio.h</text>
</a>
</g>
</g>
<!-- Node1&#45;&gt;Node7 -->
<g id="edge6" class="edge">
<title>Node1&#45;&gt;Node7</title>
<path fill="none" stroke="midnightblue" d="M533.11,-168.5C557.98,-157.86 588.05,-145 609.87,-135.67"/>
<polygon fill="midnightblue" stroke="midnightblue" points="611.45,-138.8 619.27,-131.65 608.7,-132.37 611.45,-138.8"/>
</g>
<!-- Node8 -->
<g id="node8" class="node">
<title>Node8</title>
<g id="a_node8"><a xlink:href="../../dc/d13/com__client_8hpp.html" target="_top" xlink:title=" ">
<polygon fill="none" stroke="black" points="338,-112.5 338,-131.5 429,-131.5 429,-112.5 338,-112.5"/>
<text text-anchor="middle" x="383.5" y="-119.5" font-family="Helvetica,sans-Serif" font-size="10.00">com_client.hpp</text>
</a>
</g>
</g>
<!-- Node1&#45;&gt;Node8 -->
<g id="edge7" class="edge">
<title>Node1&#45;&gt;Node8</title>
<path fill="none" stroke="midnightblue" d="M456.3,-168.5C440.2,-158.44 420.92,-146.38 406.24,-137.21"/>
<polygon fill="midnightblue" stroke="midnightblue" points="407.68,-133.98 397.34,-131.65 403.97,-139.92 407.68,-133.98"/>
</g>
<!-- Node16 -->
<g id="node16" class="node">
<title>Node16</title>
<g id="a_node16"><a xlink:title=" ">
<polygon fill="none" stroke="#bfbfbf" points="683,-112.5 683,-131.5 742,-131.5 742,-112.5 683,-112.5"/>
<text text-anchor="middle" x="712.5" y="-119.5" font-family="Helvetica,sans-Serif" font-size="10.00">lsl_cpp.h</text>
</a>
</g>
</g>
<!-- Node1&#45;&gt;Node16 -->
<g id="edge19" class="edge">
<title>Node1&#45;&gt;Node16</title>
<path fill="none" stroke="midnightblue" d="M545.74,-171.18C585.79,-159.6 637.92,-144.55 673.15,-134.37"/>
<polygon fill="midnightblue" stroke="midnightblue" points="674.42,-137.64 683.06,-131.51 672.48,-130.92 674.42,-137.64"/>
</g>
<!-- Node8&#45;&gt;Node4 -->
<g id="edge8" class="edge">
<title>Node8&#45;&gt;Node4</title>
<path fill="none" stroke="midnightblue" d="M361.74,-112.36C341.33,-103.96 310.19,-90.4 284.5,-76 256.91,-60.54 227.03,-39.57 208.06,-25.68"/>
<polygon fill="midnightblue" stroke="midnightblue" points="210.04,-22.79 199.92,-19.66 205.88,-28.42 210.04,-22.79"/>
</g>
<!-- Node9 -->
<g id="node9" class="node">
<title>Node9</title>
<g id="a_node9"><a xlink:title=" ">
<polygon fill="none" stroke="#bfbfbf" points="403,-56.5 403,-75.5 454,-75.5 454,-56.5 403,-56.5"/>
<text text-anchor="middle" x="428.5" y="-63.5" font-family="Helvetica,sans-Serif" font-size="10.00">math.h</text>
</a>
</g>
</g>
<!-- Node8&#45;&gt;Node9 -->
<g id="edge9" class="edge">
<title>Node8&#45;&gt;Node9</title>
<path fill="none" stroke="midnightblue" d="M390.93,-112.08C397.35,-104.38 406.81,-93.03 414.62,-83.65"/>
<polygon fill="midnightblue" stroke="midnightblue" points="417.49,-85.67 421.21,-75.75 412.12,-81.19 417.49,-85.67"/>
</g>
<!-- Node10 -->
<g id="node10" class="node">
<title>Node10</title>
<g id="a_node10"><a xlink:title=" ">
<polygon fill="none" stroke="#bfbfbf" points="472.5,-56.5 472.5,-75.5 520.5,-75.5 520.5,-56.5 472.5,-56.5"/>
<text text-anchor="middle" x="496.5" y="-63.5" font-family="Helvetica,sans-Serif" font-size="10.00">mutex</text>
</a>
</g>
</g>
<!-- Node8&#45;&gt;Node10 -->
<g id="edge10" class="edge">
<title>Node8&#45;&gt;Node10</title>
<path fill="none" stroke="midnightblue" d="M401.41,-112.44C419.75,-103.68 448.51,-89.94 469.59,-79.86"/>
<polygon fill="midnightblue" stroke="midnightblue" points="471.17,-82.99 478.68,-75.52 468.15,-76.67 471.17,-82.99"/>
</g>
<!-- Node11 -->
<g id="node11" class="node">
<title>Node11</title>
<g id="a_node11"><a xlink:title=" ">
<polygon fill="none" stroke="#bfbfbf" points="172,-56.5 172,-75.5 237,-75.5 237,-56.5 172,-56.5"/>
<text text-anchor="middle" x="204.5" y="-63.5" font-family="Helvetica,sans-Serif" font-size="10.00">stdexcept</text>
</a>
</g>
</g>
<!-- Node8&#45;&gt;Node11 -->
<g id="edge11" class="edge">
<title>Node8&#45;&gt;Node11</title>
<path fill="none" stroke="midnightblue" d="M355.14,-112.44C324.76,-103.28 276.39,-88.69 242.68,-78.52"/>
<polygon fill="midnightblue" stroke="midnightblue" points="243.32,-75.05 232.73,-75.52 241.29,-81.76 243.32,-75.05"/>
</g>
<!-- Node12 -->
<g id="node12" class="node">
<title>Node12</title>
<g id="a_node12"><a xlink:href="../../df/df2/str_a_n_s_iseq_8hpp.html" target="_top" xlink:title=" ">
<polygon fill="none" stroke="black" points="294,-56.5 294,-75.5 385,-75.5 385,-56.5 294,-56.5"/>
<text text-anchor="middle" x="339.5" y="-63.5" font-family="Helvetica,sans-Serif" font-size="10.00">strANSIseq.hpp</text>
</a>
</g>
</g>
<!-- Node8&#45;&gt;Node12 -->
<g id="edge12" class="edge">
<title>Node8&#45;&gt;Node12</title>
<path fill="none" stroke="midnightblue" d="M376.23,-112.08C369.96,-104.38 360.71,-93.03 353.07,-83.65"/>
<polygon fill="midnightblue" stroke="midnightblue" points="355.66,-81.29 346.63,-75.75 350.23,-85.71 355.66,-81.29"/>
</g>
<!-- Node12&#45;&gt;Node4 -->
<g id="edge14" class="edge">
<title>Node12&#45;&gt;Node4</title>
<path fill="none" stroke="midnightblue" d="M315.57,-56.44C290.28,-47.4 250.2,-33.06 221.82,-22.92"/>
<polygon fill="midnightblue" stroke="midnightblue" points="222.91,-19.59 212.31,-19.52 220.55,-26.18 222.91,-19.59"/>
</g>
<!-- Node12&#45;&gt;Node5 -->
<g id="edge15" class="edge">
<title>Node12&#45;&gt;Node5</title>
<path fill="none" stroke="midnightblue" d="M365.96,-56.44C395.51,-46.89 443.3,-31.44 474.81,-21.25"/>
<polygon fill="midnightblue" stroke="midnightblue" points="475.99,-24.54 484.43,-18.14 473.84,-17.88 475.99,-24.54"/>
</g>
<!-- Node12&#45;&gt;Node6 -->
<g id="edge16" class="edge">
<title>Node12&#45;&gt;Node6</title>
<path fill="none" stroke="midnightblue" d="M377.69,-56.44C424.26,-46.01 502.25,-28.53 546.72,-18.57"/>
<polygon fill="midnightblue" stroke="midnightblue" points="547.74,-21.93 556.74,-16.32 546.21,-15.1 547.74,-21.93"/>
</g>
<!-- Node13 -->
<g id="node13" class="node">
<title>Node13</title>
<g id="a_node13"><a xlink:title=" ">
<polygon fill="none" stroke="#bfbfbf" points="318,-0.5 318,-19.5 371,-19.5 371,-0.5 318,-0.5"/>
<text text-anchor="middle" x="344.5" y="-7.5" font-family="Helvetica,sans-Serif" font-size="10.00">cstdarg</text>
</a>
</g>
</g>
<!-- Node12&#45;&gt;Node13 -->
<g id="edge13" class="edge">
<title>Node12&#45;&gt;Node13</title>
<path fill="none" stroke="midnightblue" d="M340.33,-56.08C340.98,-49.01 341.92,-38.86 342.74,-29.99"/>
<polygon fill="midnightblue" stroke="midnightblue" points="346.25,-30.03 343.69,-19.75 339.28,-29.39 346.25,-30.03"/>
</g>
<!-- Node14 -->
<g id="node14" class="node">
<title>Node14</title>
<g id="a_node14"><a xlink:title=" ">
<polygon fill="none" stroke="#bfbfbf" points="389.5,-0.5 389.5,-19.5 445.5,-19.5 445.5,-0.5 389.5,-0.5"/>
<text text-anchor="middle" x="417.5" y="-7.5" font-family="Helvetica,sans-Serif" font-size="10.00">unistd.h</text>
</a>
</g>
</g>
<!-- Node12&#45;&gt;Node14 -->
<g id="edge17" class="edge">
<title>Node12&#45;&gt;Node14</title>
<path fill="none" stroke="midnightblue" d="M352.03,-56.32C364.09,-47.98 382.53,-35.21 396.77,-25.35"/>
<polygon fill="midnightblue" stroke="midnightblue" points="398.77,-28.22 405,-19.65 394.78,-22.47 398.77,-28.22"/>
</g>
<!-- Node15 -->
<g id="node15" class="node">
<title>Node15</title>
<g id="a_node15"><a xlink:title=" ">
<polygon fill="none" stroke="#bfbfbf" points="237,-0.5 237,-19.5 300,-19.5 300,-0.5 237,-0.5"/>
<text text-anchor="middle" x="268.5" y="-7.5" font-family="Helvetica,sans-Serif" font-size="10.00">termios.h</text>
</a>
</g>
</g>
<!-- Node12&#45;&gt;Node15 -->
<g id="edge18" class="edge">
<title>Node12&#45;&gt;Node15</title>
<path fill="none" stroke="midnightblue" d="M328.09,-56.32C317.39,-48.18 301.16,-35.84 288.34,-26.09"/>
<polygon fill="midnightblue" stroke="midnightblue" points="290.19,-23.1 280.11,-19.83 285.96,-28.67 290.19,-23.1"/>
</g>
</g>
</svg>
