<?xml version="1.0" encoding="UTF-8" standalone="no"?>
<!DOCTYPE svg PUBLIC "-//W3C//DTD SVG 1.1//EN"
 "http://www.w3.org/Graphics/SVG/1.1/DTD/svg11.dtd">
<!-- Generated by graphviz version 2.43.0 (0)
 -->
<!-- Title: /home/aightech/dev/kistler_DAQ/lib/com_client/include/com_client.hpp Pages: 1 -->
<svg width="659pt" height="373pt"
 viewBox="0.00 0.00 659.00 373.00" xmlns="http://www.w3.org/2000/svg" xmlns:xlink="http://www.w3.org/1999/xlink">
<g id="graph0" class="graph" transform="scale(1 1) rotate(0) translate(4 369)">
<title>/home/aightech/dev/kistler_DAQ/lib/com_client/include/com_client.hpp</title>
<!-- Node1 -->
<g id="node1" class="node">
<title>Node1</title>
<g id="a_node1"><a xlink:title=" ">
<polygon fill="#bfbfbf" stroke="black" points="289,-323.5 289,-364.5 453,-364.5 453,-323.5 289,-323.5"/>
<text text-anchor="start" x="297" y="-352.5" font-family="Helvetica,sans-Serif" font-size="10.00">/home/aightech/dev</text>
<text text-anchor="start" x="297" y="-341.5" font-family="Helvetica,sans-Serif" font-size="10.00">/kistler_DAQ/lib/com</text>
<text text-anchor="middle" x="371" y="-330.5" font-family="Helvetica,sans-Serif" font-size="10.00">_client/include/com_client.hpp</text>
</a>
</g>
</g>
<!-- Node2 -->
<g id="node2" class="node">
<title>Node2</title>
<g id="a_node2"><a xlink:href="../../d8/d95/kistler___a_p_i_8hpp.html" target="_top" xlink:title=" ">
<polygon fill="none" stroke="black" points="153,-156.5 153,-197.5 269,-197.5 269,-156.5 153,-156.5"/>
<text text-anchor="start" x="161" y="-185.5" font-family="Helvetica,sans-Serif" font-size="10.00">/home/aightech/dev</text>
<text text-anchor="start" x="161" y="-174.5" font-family="Helvetica,sans-Serif" font-size="10.00">/kistler_DAQ/include</text>
<text text-anchor="middle" x="211" y="-163.5" font-family="Helvetica,sans-Serif" font-size="10.00">/kistler_API.hpp</text>
</a>
</g>
</g>
<!-- Node1&#45;&gt;Node2 -->
<g id="edge1" class="edge">
<title>Node1&#45;&gt;Node2</title>
<path fill="none" stroke="midnightblue" d="M279.61,-322.34C260.81,-314.17 242.85,-302.81 230,-287 209.28,-261.51 207.76,-221.44 209.04,-197.64"/>
<polygon fill="midnightblue" stroke="midnightblue" points="278.31,-325.59 288.89,-326.1 280.94,-319.1 278.31,-325.59"/>
</g>
<!-- Node7 -->
<g id="node7" class="node">
<title>Node7</title>
<g id="a_node7"><a xlink:href="../../d9/dcd/http__client_8hpp.html" target="_top" xlink:title=" ">
<polygon fill="none" stroke="black" points="239,-234.5 239,-286.5 355,-286.5 355,-234.5 239,-234.5"/>
<text text-anchor="start" x="247" y="-274.5" font-family="Helvetica,sans-Serif" font-size="10.00">/home/aightech/dev</text>
<text text-anchor="start" x="247" y="-263.5" font-family="Helvetica,sans-Serif" font-size="10.00">/kistler_DAQ/lib/com</text>
<text text-anchor="start" x="247" y="-252.5" font-family="Helvetica,sans-Serif" font-size="10.00">_client/include/http</text>
<text text-anchor="middle" x="297" y="-241.5" font-family="Helvetica,sans-Serif" font-size="10.00">_client.hpp</text>
</a>
</g>
</g>
<!-- Node1&#45;&gt;Node7 -->
<g id="edge6" class="edge">
<title>Node1&#45;&gt;Node7</title>
<path fill="none" stroke="midnightblue" d="M346.2,-315.68C337.67,-306.29 328.16,-295.82 319.8,-286.61"/>
<polygon fill="midnightblue" stroke="midnightblue" points="343.77,-318.22 353.09,-323.27 348.96,-313.51 343.77,-318.22"/>
</g>
<!-- Node9 -->
<g id="node9" class="node">
<title>Node9</title>
<g id="a_node9"><a xlink:href="../../d8/da5/com__client_8cpp.html" target="_top" xlink:title=" ">
<polygon fill="none" stroke="black" points="373.5,-240 373.5,-281 516.5,-281 516.5,-240 373.5,-240"/>
<text text-anchor="start" x="381.5" y="-269" font-family="Helvetica,sans-Serif" font-size="10.00">/home/aightech/dev</text>
<text text-anchor="start" x="381.5" y="-258" font-family="Helvetica,sans-Serif" font-size="10.00">/kistler_DAQ/lib/com</text>
<text text-anchor="middle" x="445" y="-247" font-family="Helvetica,sans-Serif" font-size="10.00">_client/src/com_client.cpp</text>
</a>
</g>
</g>
<!-- Node1&#45;&gt;Node9 -->
<g id="edge9" class="edge">
<title>Node1&#45;&gt;Node9</title>
<path fill="none" stroke="midnightblue" d="M395.78,-315.71C406.09,-304.36 417.83,-291.43 427.25,-281.05"/>
<polygon fill="midnightblue" stroke="midnightblue" points="393.04,-313.51 388.91,-323.27 398.23,-318.22 393.04,-313.51"/>
</g>
<!-- Node10 -->
<g id="node10" class="node">
<title>Node10</title>
<g id="a_node10"><a xlink:href="../../d4/d7c/lib_2com__client_2src_2main_8cpp.html" target="_top" xlink:title=" ">
<polygon fill="none" stroke="black" points="535,-240 535,-281 651,-281 651,-240 535,-240"/>
<text text-anchor="start" x="543" y="-269" font-family="Helvetica,sans-Serif" font-size="10.00">/home/aightech/dev</text>
<text text-anchor="start" x="543" y="-258" font-family="Helvetica,sans-Serif" font-size="10.00">/kistler_DAQ/lib/com</text>
<text text-anchor="middle" x="593" y="-247" font-family="Helvetica,sans-Serif" font-size="10.00">_client/src/main.cpp</text>
</a>
</g>
</g>
<!-- Node1&#45;&gt;Node10 -->
<g id="edge10" class="edge">
<title>Node1&#45;&gt;Node10</title>
<path fill="none" stroke="midnightblue" d="M435.59,-319.94C463.44,-309.93 496.36,-297.99 526,-287 531.13,-285.1 536.48,-283.09 541.82,-281.08"/>
<polygon fill="midnightblue" stroke="midnightblue" points="434.19,-316.73 425.96,-323.4 436.55,-323.31 434.19,-316.73"/>
</g>
<!-- Node3 -->
<g id="node3" class="node">
<title>Node3</title>
<g id="a_node3"><a xlink:href="../../d0/ddf/kistler___d_a_q_8hpp.html" target="_top" xlink:title=" ">
<polygon fill="none" stroke="black" points="83,-78.5 83,-119.5 199,-119.5 199,-78.5 83,-78.5"/>
<text text-anchor="start" x="91" y="-107.5" font-family="Helvetica,sans-Serif" font-size="10.00">/home/aightech/dev</text>
<text text-anchor="start" x="91" y="-96.5" font-family="Helvetica,sans-Serif" font-size="10.00">/kistler_DAQ/include</text>
<text text-anchor="middle" x="141" y="-85.5" font-family="Helvetica,sans-Serif" font-size="10.00">/kistler_DAQ.hpp</text>
</a>
</g>
</g>
<!-- Node2&#45;&gt;Node3 -->
<g id="edge2" class="edge">
<title>Node2&#45;&gt;Node3</title>
<path fill="none" stroke="midnightblue" d="M186.05,-148.92C177.11,-139.2 167.2,-128.45 158.97,-119.51"/>
<polygon fill="midnightblue" stroke="midnightblue" points="183.62,-151.44 192.97,-156.43 188.77,-146.7 183.62,-151.44"/>
</g>
<!-- Node6 -->
<g id="node6" class="node">
<title>Node6</title>
<g id="a_node6"><a xlink:href="../../dc/d5f/kistler___a_p_i_8cpp.html" target="_top" xlink:title=" ">
<polygon fill="none" stroke="black" points="217,-78.5 217,-119.5 345,-119.5 345,-78.5 217,-78.5"/>
<text text-anchor="start" x="225" y="-107.5" font-family="Helvetica,sans-Serif" font-size="10.00">/home/aightech/dev</text>
<text text-anchor="start" x="225" y="-96.5" font-family="Helvetica,sans-Serif" font-size="10.00">/kistler_DAQ/src/kistler</text>
<text text-anchor="middle" x="281" y="-85.5" font-family="Helvetica,sans-Serif" font-size="10.00">_API.cpp</text>
</a>
</g>
</g>
<!-- Node2&#45;&gt;Node6 -->
<g id="edge5" class="edge">
<title>Node2&#45;&gt;Node6</title>
<path fill="none" stroke="midnightblue" d="M235.95,-148.92C244.89,-139.2 254.8,-128.45 263.03,-119.51"/>
<polygon fill="midnightblue" stroke="midnightblue" points="233.23,-146.7 229.03,-156.43 238.38,-151.44 233.23,-146.7"/>
</g>
<!-- Node4 -->
<g id="node4" class="node">
<title>Node4</title>
<g id="a_node4"><a xlink:href="../../d9/dd6/kistler___d_a_q_8cpp.html" target="_top" xlink:title=" ">
<polygon fill="none" stroke="black" points="0,-0.5 0,-41.5 128,-41.5 128,-0.5 0,-0.5"/>
<text text-anchor="start" x="8" y="-29.5" font-family="Helvetica,sans-Serif" font-size="10.00">/home/aightech/dev</text>
<text text-anchor="start" x="8" y="-18.5" font-family="Helvetica,sans-Serif" font-size="10.00">/kistler_DAQ/src/kistler</text>
<text text-anchor="middle" x="64" y="-7.5" font-family="Helvetica,sans-Serif" font-size="10.00">_DAQ.cpp</text>
</a>
</g>
</g>
<!-- Node3&#45;&gt;Node4 -->
<g id="edge3" class="edge">
<title>Node3&#45;&gt;Node4</title>
<path fill="none" stroke="midnightblue" d="M113.85,-71.2C103.93,-61.42 92.91,-50.54 83.76,-41.51"/>
<polygon fill="midnightblue" stroke="midnightblue" points="111.59,-73.89 121.17,-78.43 116.51,-68.91 111.59,-73.89"/>
</g>
<!-- Node5 -->
<g id="node5" class="node">
<title>Node5</title>
<g id="a_node5"><a xlink:href="../../de/dfb/src_2main_8cpp.html" target="_top" xlink:title=" ">
<polygon fill="none" stroke="black" points="146.5,-6 146.5,-36 289.5,-36 289.5,-6 146.5,-6"/>
<text text-anchor="start" x="154.5" y="-24" font-family="Helvetica,sans-Serif" font-size="10.00">/home/aightech/dev</text>
<text text-anchor="middle" x="218" y="-13" font-family="Helvetica,sans-Serif" font-size="10.00">/kistler_DAQ/src/main.cpp</text>
</a>
</g>
</g>
<!-- Node3&#45;&gt;Node5 -->
<g id="edge4" class="edge">
<title>Node3&#45;&gt;Node5</title>
<path fill="none" stroke="midnightblue" d="M168.03,-71.32C180,-59.51 193.6,-46.08 203.59,-36.23"/>
<polygon fill="midnightblue" stroke="midnightblue" points="165.49,-68.91 160.83,-78.43 170.41,-73.89 165.49,-68.91"/>
</g>
<!-- Node7&#45;&gt;Node2 -->
<g id="edge7" class="edge">
<title>Node7&#45;&gt;Node2</title>
<path fill="none" stroke="midnightblue" d="M262.77,-227.07C252.26,-217.11 241.02,-206.45 231.71,-197.63"/>
<polygon fill="midnightblue" stroke="midnightblue" points="260.59,-229.82 270.26,-234.16 265.41,-224.74 260.59,-229.82"/>
</g>
<!-- Node8 -->
<g id="node8" class="node">
<title>Node8</title>
<g id="a_node8"><a xlink:href="../../d5/d08/http__client_8cpp.html" target="_top" xlink:title=" ">
<polygon fill="none" stroke="black" points="287.5,-156.5 287.5,-197.5 428.5,-197.5 428.5,-156.5 287.5,-156.5"/>
<text text-anchor="start" x="295.5" y="-185.5" font-family="Helvetica,sans-Serif" font-size="10.00">/home/aightech/dev</text>
<text text-anchor="start" x="295.5" y="-174.5" font-family="Helvetica,sans-Serif" font-size="10.00">/kistler_DAQ/lib/com</text>
<text text-anchor="middle" x="358" y="-163.5" font-family="Helvetica,sans-Serif" font-size="10.00">_client/src/http_client.cpp</text>
</a>
</g>
</g>
<!-- Node7&#45;&gt;Node8 -->
<g id="edge8" class="edge">
<title>Node7&#45;&gt;Node8</title>
<path fill="none" stroke="midnightblue" d="M322.15,-225.9C329.35,-216.28 336.96,-206.11 343.31,-197.63"/>
<polygon fill="midnightblue" stroke="midnightblue" points="319.16,-224.06 315.97,-234.16 324.76,-228.25 319.16,-224.06"/>
</g>
</g>
</svg>
