<?xml version="1.0" encoding="UTF-8" standalone="no"?>
<!DOCTYPE svg PUBLIC "-//W3C//DTD SVG 1.1//EN"
 "http://www.w3.org/Graphics/SVG/1.1/DTD/svg11.dtd">
<!-- Generated by graphviz version 2.43.0 (0)
 -->
<!-- Title: ESC::CLI Pages: 1 -->
<svg width="523pt" height="151pt"
 viewBox="0.00 0.00 523.00 151.00" xmlns="http://www.w3.org/2000/svg" xmlns:xlink="http://www.w3.org/1999/xlink">
<g id="graph0" class="graph" transform="scale(1 1) rotate(0) translate(4 147)">
<title>ESC::CLI</title>
<!-- Node1 -->
<g id="node1" class="node">
<title>Node1</title>
<g id="a_node1"><a xlink:title=" ">
<polygon fill="#bfbfbf" stroke="black" points="254,-123.5 254,-142.5 310,-142.5 310,-123.5 254,-123.5"/>
<text text-anchor="middle" x="282" y="-130.5" font-family="Helvetica,sans-Serif" font-size="10.00">ESC::CLI</text>
</a>
</g>
</g>
<!-- Node2 -->
<g id="node2" class="node">
<title>Node2</title>
<g id="a_node2"><a xlink:href="../../df/dcd/class_communication_1_1_client.html" target="_top" xlink:title="Communication client class.">
<polygon fill="none" stroke="black" points="0,-62 0,-81 128,-81 128,-62 0,-62"/>
<text text-anchor="middle" x="64" y="-69" font-family="Helvetica,sans-Serif" font-size="10.00">Communication::Client</text>
</a>
</g>
</g>
<!-- Node1&#45;&gt;Node2 -->
<g id="edge1" class="edge">
<title>Node1&#45;&gt;Node2</title>
<path fill="none" stroke="midnightblue" d="M244.07,-121.65C201.97,-110.16 134.78,-91.82 95.47,-81.09"/>
<polygon fill="midnightblue" stroke="midnightblue" points="243.38,-125.09 253.95,-124.34 245.22,-118.33 243.38,-125.09"/>
</g>
<!-- Node3 -->
<g id="node3" class="node">
<title>Node3</title>
<g id="a_node3"><a xlink:href="../../d7/d60/class_communication_1_1_h_t_t_p__client.html" target="_top" xlink:title=" ">
<polygon fill="none" stroke="black" points="146.5,-56.5 146.5,-86.5 271.5,-86.5 271.5,-56.5 146.5,-56.5"/>
<text text-anchor="start" x="154.5" y="-74.5" font-family="Helvetica,sans-Serif" font-size="10.00">Communication::HTTP</text>
<text text-anchor="middle" x="209" y="-63.5" font-family="Helvetica,sans-Serif" font-size="10.00">_client</text>
</a>
</g>
</g>
<!-- Node1&#45;&gt;Node3 -->
<g id="edge2" class="edge">
<title>Node1&#45;&gt;Node3</title>
<path fill="none" stroke="midnightblue" d="M263.5,-116.92C252.04,-107.58 237.42,-95.66 226.2,-86.52"/>
<polygon fill="midnightblue" stroke="midnightblue" points="261.58,-119.87 271.54,-123.48 266,-114.44 261.58,-119.87"/>
</g>
<!-- Node5 -->
<g id="node5" class="node">
<title>Node5</title>
<g id="a_node5"><a xlink:href="../../dc/db1/class_communication_1_1_server.html" target="_top" xlink:title=" ">
<polygon fill="none" stroke="black" points="289.5,-62 289.5,-81 420.5,-81 420.5,-62 289.5,-62"/>
<text text-anchor="middle" x="355" y="-69" font-family="Helvetica,sans-Serif" font-size="10.00">Communication::Server</text>
</a>
</g>
</g>
<!-- Node1&#45;&gt;Node5 -->
<g id="edge4" class="edge">
<title>Node1&#45;&gt;Node5</title>
<path fill="none" stroke="midnightblue" d="M300.44,-116.97C314.4,-105.59 333.08,-90.37 344.56,-81.01"/>
<polygon fill="midnightblue" stroke="midnightblue" points="298,-114.44 292.46,-123.48 302.42,-119.87 298,-114.44"/>
</g>
<!-- Node6 -->
<g id="node6" class="node">
<title>Node6</title>
<g id="a_node6"><a xlink:href="../../da/d97/class_kistler_1_1_d_a_q.html" target="_top" xlink:title=" ">
<polygon fill="none" stroke="black" points="439,-62 439,-81 515,-81 515,-62 439,-62"/>
<text text-anchor="middle" x="477" y="-69" font-family="Helvetica,sans-Serif" font-size="10.00">Kistler::DAQ</text>
</a>
</g>
</g>
<!-- Node1&#45;&gt;Node6 -->
<g id="edge5" class="edge">
<title>Node1&#45;&gt;Node6</title>
<path fill="none" stroke="midnightblue" d="M319.73,-120.57C349.65,-111.5 392.51,-98.48 430,-87 436.21,-85.1 442.87,-83.05 449.17,-81.11"/>
<polygon fill="midnightblue" stroke="midnightblue" points="318.66,-117.24 310.11,-123.49 320.69,-123.94 318.66,-117.24"/>
</g>
<!-- Node4 -->
<g id="node4" class="node">
<title>Node4</title>
<g id="a_node4"><a xlink:href="../../da/d94/class_kistler_1_1_a_p_i.html" target="_top" xlink:title="Object to handle the communication with the Kistler REST API.">
<polygon fill="none" stroke="black" points="174,-0.5 174,-19.5 244,-19.5 244,-0.5 174,-0.5"/>
<text text-anchor="middle" x="209" y="-7.5" font-family="Helvetica,sans-Serif" font-size="10.00">Kistler::API</text>
</a>
</g>
</g>
<!-- Node3&#45;&gt;Node4 -->
<g id="edge3" class="edge">
<title>Node3&#45;&gt;Node4</title>
<path fill="none" stroke="midnightblue" d="M209,-46.29C209,-36.86 209,-26.65 209,-19.66"/>
<polygon fill="midnightblue" stroke="midnightblue" points="205.5,-46.4 209,-56.4 212.5,-46.4 205.5,-46.4"/>
</g>
</g>
</svg>
