<?xml version="1.0" encoding="UTF-8" standalone="no"?>
<!DOCTYPE svg PUBLIC "-//W3C//DTD SVG 1.1//EN"
 "http://www.w3.org/Graphics/SVG/1.1/DTD/svg11.dtd">
<!-- Generated by graphviz version 2.43.0 (0)
 -->
<!-- Title: Communication::Client::CRC Pages: 1 -->
<svg width="1115pt" height="487pt"
 viewBox="0.00 0.00 1115.00 487.00" xmlns="http://www.w3.org/2000/svg" xmlns:xlink="http://www.w3.org/1999/xlink">
<g id="graph0" class="graph" transform="scale(1 1) rotate(0) translate(4 483)">
<title>Communication::Client::CRC</title>
<!-- Node1 -->
<g id="node1" class="node">
<title>Node1</title>
<g id="a_node1"><a xlink:title="CRC Compute and return the CRC over the n first bytes of buf.">
<polygon fill="#bfbfbf" stroke="black" points="952,-181 952,-200 1107,-200 1107,-181 952,-181"/>
<text text-anchor="middle" x="1029.5" y="-188" font-family="Helvetica,sans-Serif" font-size="10.00">Communication::Client::CRC</text>
</a>
</g>
</g>
<!-- Node2 -->
<g id="node2" class="node">
<title>Node2</title>
<g id="a_node2"><a xlink:href="../../df/dcd/class_communication_1_1_client.html#a73fec58648938364cd65d690f50bd7ec" target="_top" xlink:title="readS read the com inmterface.">
<polygon fill="none" stroke="black" points="788,-151.5 788,-181.5 916,-181.5 916,-151.5 788,-151.5"/>
<text text-anchor="start" x="796" y="-169.5" font-family="Helvetica,sans-Serif" font-size="10.00">Communication::Client</text>
<text text-anchor="middle" x="852" y="-158.5" font-family="Helvetica,sans-Serif" font-size="10.00">::readS</text>
</a>
</g>
</g>
<!-- Node1&#45;&gt;Node2 -->
<g id="edge1" class="edge">
<title>Node1&#45;&gt;Node2</title>
<path fill="none" stroke="midnightblue" d="M948.91,-179.62C937.97,-178.12 926.86,-176.6 916.26,-175.15"/>
<polygon fill="midnightblue" stroke="midnightblue" points="948.5,-183.09 958.89,-180.98 949.45,-176.16 948.5,-183.09"/>
</g>
<!-- Node24 -->
<g id="node24" class="node">
<title>Node24</title>
<g id="a_node24"><a xlink:href="../../df/dcd/class_communication_1_1_client.html#a32bd631bcb3b0a3476b146a0cc49332d" target="_top" xlink:title="writeS write the com interface.">
<polygon fill="none" stroke="black" points="788,-200.5 788,-230.5 916,-230.5 916,-200.5 788,-200.5"/>
<text text-anchor="start" x="796" y="-218.5" font-family="Helvetica,sans-Serif" font-size="10.00">Communication::Client</text>
<text text-anchor="middle" x="852" y="-207.5" font-family="Helvetica,sans-Serif" font-size="10.00">::writeS</text>
</a>
</g>
</g>
<!-- Node1&#45;&gt;Node24 -->
<g id="edge33" class="edge">
<title>Node1&#45;&gt;Node24</title>
<path fill="none" stroke="midnightblue" d="M951.4,-201.48C939.64,-203.16 927.61,-204.87 916.19,-206.5"/>
<polygon fill="midnightblue" stroke="midnightblue" points="952.24,-204.9 961.65,-200.02 951.26,-197.97 952.24,-204.9"/>
</g>
<!-- Node3 -->
<g id="node3" class="node">
<title>Node3</title>
<g id="a_node3"><a xlink:href="../../d7/d60/class_communication_1_1_h_t_t_p__client.html#a6c2e964c4510d91b79ff9303b672582e" target="_top" xlink:title=" ">
<polygon fill="none" stroke="black" points="625.5,-293.5 625.5,-323.5 750.5,-323.5 750.5,-293.5 625.5,-293.5"/>
<text text-anchor="start" x="633.5" y="-311.5" font-family="Helvetica,sans-Serif" font-size="10.00">Communication::HTTP</text>
<text text-anchor="middle" x="688" y="-300.5" font-family="Helvetica,sans-Serif" font-size="10.00">_client::get</text>
</a>
</g>
</g>
<!-- Node2&#45;&gt;Node3 -->
<g id="edge2" class="edge">
<title>Node2&#45;&gt;Node3</title>
<path fill="none" stroke="midnightblue" d="M792.55,-187.41C790.95,-188.7 789.43,-190.06 788,-191.5 756.79,-222.97 783.42,-253.24 752,-284.5 748.51,-287.97 744.48,-290.94 740.16,-293.49"/>
<polygon fill="midnightblue" stroke="midnightblue" points="794.77,-190.13 801.07,-181.61 790.83,-184.35 794.77,-190.13"/>
</g>
<!-- Node4 -->
<g id="node4" class="node">
<title>Node4</title>
<g id="a_node4"><a xlink:href="../../df/dcd/class_communication_1_1_client.html#a2508e02531cf7e8dd258677b7b1490e9" target="_top" xlink:title=" ">
<polygon fill="none" stroke="black" points="624,-195.5 624,-225.5 752,-225.5 752,-195.5 624,-195.5"/>
<text text-anchor="start" x="632" y="-213.5" font-family="Helvetica,sans-Serif" font-size="10.00">Communication::Client</text>
<text text-anchor="middle" x="688" y="-202.5" font-family="Helvetica,sans-Serif" font-size="10.00">::get_stat</text>
</a>
</g>
</g>
<!-- Node2&#45;&gt;Node4 -->
<g id="edge3" class="edge">
<title>Node2&#45;&gt;Node4</title>
<path fill="none" stroke="midnightblue" d="M785.82,-184.2C772.06,-187.94 757.68,-191.85 744.32,-195.47"/>
<polygon fill="midnightblue" stroke="midnightblue" points="786.97,-187.52 795.7,-181.52 785.13,-180.76 786.97,-187.52"/>
</g>
<!-- Node5 -->
<g id="node5" class="node">
<title>Node5</title>
<g id="a_node5"><a xlink:href="../../d4/d7c/lib_2com__client_2src_2main_8cpp.html#a3c04138a5bfe5d72780bb7e82a18e627" target="_top" xlink:title=" ">
<polygon fill="none" stroke="black" points="667.5,-157 667.5,-176 708.5,-176 708.5,-157 667.5,-157"/>
<text text-anchor="middle" x="688" y="-164" font-family="Helvetica,sans-Serif" font-size="10.00">main</text>
</a>
</g>
</g>
<!-- Node2&#45;&gt;Node5 -->
<g id="edge4" class="edge">
<title>Node2&#45;&gt;Node5</title>
<path fill="none" stroke="midnightblue" d="M777.87,-166.5C752.47,-166.5 726.04,-166.5 708.67,-166.5"/>
<polygon fill="midnightblue" stroke="midnightblue" points="777.9,-170 787.9,-166.5 777.9,-163 777.9,-170"/>
</g>
<!-- Node6 -->
<g id="node6" class="node">
<title>Node6</title>
<g id="a_node6"><a xlink:href="../../d7/d60/class_communication_1_1_h_t_t_p__client.html#a241e78ccad7bcbc7597cb2dde7d7e402" target="_top" xlink:title=" ">
<polygon fill="none" stroke="black" points="625.5,-244.5 625.5,-274.5 750.5,-274.5 750.5,-244.5 625.5,-244.5"/>
<text text-anchor="start" x="633.5" y="-262.5" font-family="Helvetica,sans-Serif" font-size="10.00">Communication::HTTP</text>
<text text-anchor="middle" x="688" y="-251.5" font-family="Helvetica,sans-Serif" font-size="10.00">_client::post</text>
</a>
</g>
</g>
<!-- Node2&#45;&gt;Node6 -->
<g id="edge5" class="edge">
<title>Node2&#45;&gt;Node6</title>
<path fill="none" stroke="midnightblue" d="M795.85,-186.38C793.12,-187.98 790.48,-189.68 788,-191.5 767.6,-206.41 772.5,-220.73 752,-235.5 747.35,-238.85 742.17,-241.8 736.83,-244.38"/>
<polygon fill="midnightblue" stroke="midnightblue" points="797.61,-189.4 804.81,-181.63 794.33,-183.22 797.61,-189.4"/>
</g>
<!-- Node21 -->
<g id="node21" class="node">
<title>Node21</title>
<g id="a_node21"><a xlink:href="../../da/d97/class_kistler_1_1_d_a_q.html#a3d0ae8c3f89ca09717a55451b34f6e6f" target="_top" xlink:title="Read a subframe as an event (type 0 in header)">
<polygon fill="none" stroke="black" points="636,-106.5 636,-136.5 740,-136.5 740,-106.5 636,-106.5"/>
<text text-anchor="start" x="644" y="-124.5" font-family="Helvetica,sans-Serif" font-size="10.00">Kistler::DAQ::read</text>
<text text-anchor="middle" x="688" y="-113.5" font-family="Helvetica,sans-Serif" font-size="10.00">_event</text>
</a>
</g>
</g>
<!-- Node2&#45;&gt;Node21 -->
<g id="edge27" class="edge">
<title>Node2&#45;&gt;Node21</title>
<path fill="none" stroke="midnightblue" d="M786.62,-148.62C771.21,-144.34 754.96,-139.82 740.24,-135.73"/>
<polygon fill="midnightblue" stroke="midnightblue" points="786.03,-152.09 796.61,-151.39 787.91,-145.34 786.03,-152.09"/>
</g>
<!-- Node22 -->
<g id="node22" class="node">
<title>Node22</title>
<g id="a_node22"><a xlink:href="../../da/d97/class_kistler_1_1_d_a_q.html#ad39263026e83eafcc4e195181a94d706" target="_top" xlink:title="read the header of an incoming frame">
<polygon fill="none" stroke="black" points="636,-54.5 636,-84.5 740,-84.5 740,-54.5 636,-54.5"/>
<text text-anchor="start" x="644" y="-72.5" font-family="Helvetica,sans-Serif" font-size="10.00">Kistler::DAQ::read</text>
<text text-anchor="middle" x="688" y="-61.5" font-family="Helvetica,sans-Serif" font-size="10.00">_header</text>
</a>
</g>
</g>
<!-- Node2&#45;&gt;Node22 -->
<g id="edge29" class="edge">
<title>Node2&#45;&gt;Node22</title>
<path fill="none" stroke="midnightblue" d="M823.55,-145.24C804.18,-130.78 777.28,-111.75 752,-97.5 743.87,-92.91 734.84,-88.52 726.22,-84.63"/>
<polygon fill="midnightblue" stroke="midnightblue" points="821.54,-148.11 831.63,-151.34 825.75,-142.52 821.54,-148.11"/>
</g>
<!-- Node23 -->
<g id="node23" class="node">
<title>Node23</title>
<g id="a_node23"><a xlink:href="../../da/d97/class_kistler_1_1_d_a_q.html#ae236ac769128029dc1f59c8bdaceeb1a" target="_top" xlink:title="Read a subframe as a data frame (type 1 in header)">
<polygon fill="none" stroke="black" points="636,-0.5 636,-30.5 740,-30.5 740,-0.5 636,-0.5"/>
<text text-anchor="start" x="644" y="-18.5" font-family="Helvetica,sans-Serif" font-size="10.00">Kistler::DAQ::read</text>
<text text-anchor="middle" x="688" y="-7.5" font-family="Helvetica,sans-Serif" font-size="10.00">_measurement</text>
</a>
</g>
</g>
<!-- Node2&#45;&gt;Node23 -->
<g id="edge31" class="edge">
<title>Node2&#45;&gt;Node23</title>
<path fill="none" stroke="midnightblue" d="M836.17,-142.64C818.7,-116.12 787.54,-73.36 752,-45.5 744.66,-39.75 736.03,-34.74 727.56,-30.55"/>
<polygon fill="midnightblue" stroke="midnightblue" points="833.39,-144.79 841.75,-151.29 839.27,-140.99 833.39,-144.79"/>
</g>
<!-- Node7 -->
<g id="node7" class="node">
<title>Node7</title>
<g id="a_node7"><a xlink:href="../../da/d94/class_kistler_1_1_a_p_i.html#a46c24eb334e1af47b3b17408918c5491" target="_top" xlink:title="Close a streaming port.">
<polygon fill="none" stroke="black" points="473.5,-246.5 473.5,-276.5 574.5,-276.5 574.5,-246.5 473.5,-246.5"/>
<text text-anchor="start" x="481.5" y="-264.5" font-family="Helvetica,sans-Serif" font-size="10.00">Kistler::API::close</text>
<text text-anchor="middle" x="524" y="-253.5" font-family="Helvetica,sans-Serif" font-size="10.00">_stream</text>
</a>
</g>
</g>
<!-- Node6&#45;&gt;Node7 -->
<g id="edge6" class="edge">
<title>Node6&#45;&gt;Node7</title>
<path fill="none" stroke="midnightblue" d="M614.99,-260.39C601.38,-260.56 587.44,-260.73 574.72,-260.89"/>
<polygon fill="midnightblue" stroke="midnightblue" points="615.34,-263.89 625.29,-260.26 615.25,-256.89 615.34,-263.89"/>
</g>
<!-- Node11 -->
<g id="node11" class="node">
<title>Node11</title>
<g id="a_node11"><a xlink:href="../../da/d94/class_kistler_1_1_a_p_i.html#a5a1c3d8d1e5b6f496726293f09cc91c9" target="_top" xlink:title="Unregister a client.">
<polygon fill="none" stroke="black" points="470.5,-197.5 470.5,-227.5 577.5,-227.5 577.5,-197.5 470.5,-197.5"/>
<text text-anchor="start" x="478.5" y="-215.5" font-family="Helvetica,sans-Serif" font-size="10.00">Kistler::API::delete</text>
<text text-anchor="middle" x="524" y="-204.5" font-family="Helvetica,sans-Serif" font-size="10.00">_client</text>
</a>
</g>
</g>
<!-- Node6&#45;&gt;Node11 -->
<g id="edge10" class="edge">
<title>Node6&#45;&gt;Node11</title>
<path fill="none" stroke="midnightblue" d="M625.46,-241.65C609.41,-236.99 592.26,-232.01 576.77,-227.52"/>
<polygon fill="midnightblue" stroke="midnightblue" points="624.72,-245.07 635.3,-244.5 626.67,-238.35 624.72,-245.07"/>
</g>
<!-- Node12 -->
<g id="node12" class="node">
<title>Node12</title>
<g id="a_node12"><a xlink:href="../../da/d94/class_kistler_1_1_a_p_i.html#aeb67a2504717300d59713593da6966e6" target="_top" xlink:title="Enable or disable the measurement configuration of the DAQ. To set a new configuration,...">
<polygon fill="none" stroke="black" points="469.5,-448.5 469.5,-478.5 578.5,-478.5 578.5,-448.5 469.5,-448.5"/>
<text text-anchor="start" x="477.5" y="-466.5" font-family="Helvetica,sans-Serif" font-size="10.00">Kistler::API::enable</text>
<text text-anchor="middle" x="524" y="-455.5" font-family="Helvetica,sans-Serif" font-size="10.00">_config</text>
</a>
</g>
</g>
<!-- Node6&#45;&gt;Node12 -->
<g id="edge12" class="edge">
<title>Node6&#45;&gt;Node12</title>
<path fill="none" stroke="midnightblue" d="M627.64,-280.76C626.36,-281.94 625.14,-283.19 624,-284.5 579.33,-335.94 630.93,-380.6 588,-433.5 583.11,-439.52 576.73,-444.41 569.91,-448.35"/>
<polygon fill="midnightblue" stroke="midnightblue" points="629.79,-283.53 635.63,-274.69 625.55,-277.96 629.79,-283.53"/>
</g>
<!-- Node13 -->
<g id="node13" class="node">
<title>Node13</title>
<g id="a_node13"><a xlink:href="../../da/d94/class_kistler_1_1_a_p_i.html#aadc38197a3536983e07d1687fbe0e1d0" target="_top" xlink:title="Set the configuration of the DAQ.">
<polygon fill="none" stroke="black" points="293,-413 293,-432 418,-432 418,-413 293,-413"/>
<text text-anchor="middle" x="355.5" y="-420" font-family="Helvetica,sans-Serif" font-size="10.00">Kistler::API::set_config</text>
</a>
</g>
</g>
<!-- Node6&#45;&gt;Node13 -->
<g id="edge21" class="edge">
<title>Node6&#45;&gt;Node13</title>
<path fill="none" stroke="midnightblue" d="M628.32,-280.37C626.79,-281.67 625.35,-283.04 624,-284.5 587.32,-324.11 629.9,-366.46 588,-400.5 536.3,-442.51 455.07,-439.5 403.86,-432.06"/>
<polygon fill="midnightblue" stroke="midnightblue" points="630.39,-283.2 636.49,-274.54 626.32,-277.5 630.39,-283.2"/>
</g>
<!-- Node15 -->
<g id="node15" class="node">
<title>Node15</title>
<g id="a_node15"><a xlink:href="../../da/d94/class_kistler_1_1_a_p_i.html#ad3884e4543f20438744b31b5f1e2cb41" target="_top" xlink:title="Get the value of a parameter of the DAQ via the REST API.">
<polygon fill="none" stroke="black" points="460,-296 460,-315 588,-315 588,-296 460,-296"/>
<text text-anchor="middle" x="524" y="-303" font-family="Helvetica,sans-Serif" font-size="10.00">Kistler::API::get_param</text>
</a>
</g>
</g>
<!-- Node6&#45;&gt;Node15 -->
<g id="edge16" class="edge">
<title>Node6&#45;&gt;Node15</title>
<path fill="none" stroke="midnightblue" d="M624.22,-277.33C601.94,-283.65 577.73,-290.53 558.8,-295.9"/>
<polygon fill="midnightblue" stroke="midnightblue" points="625.29,-280.66 633.96,-274.56 623.38,-273.93 625.29,-280.66"/>
</g>
<!-- Node16 -->
<g id="node16" class="node">
<title>Node16</title>
<g id="a_node16"><a xlink:href="../../da/d94/class_kistler_1_1_a_p_i.html#a0e3329ec10d12ef325520b4c106f8d83" target="_top" xlink:title="Register a new client and get its ID.">
<polygon fill="none" stroke="black" points="460,-159 460,-178 588,-178 588,-159 460,-159"/>
<text text-anchor="middle" x="524" y="-166" font-family="Helvetica,sans-Serif" font-size="10.00">Kistler::API::new_client</text>
</a>
</g>
</g>
<!-- Node6&#45;&gt;Node16 -->
<g id="edge17" class="edge">
<title>Node6&#45;&gt;Node16</title>
<path fill="none" stroke="midnightblue" d="M629.73,-239.39C627.75,-238.16 625.83,-236.86 624,-235.5 602.9,-219.77 609.53,-203.62 588,-188.5 581.8,-184.15 574.61,-180.71 567.35,-178"/>
<polygon fill="midnightblue" stroke="midnightblue" points="628.29,-242.59 638.73,-244.36 631.67,-236.47 628.29,-242.59"/>
</g>
<!-- Node17 -->
<g id="node17" class="node">
<title>Node17</title>
<g id="a_node17"><a xlink:href="../../da/d94/class_kistler_1_1_a_p_i.html#a098b5c9b8d99e1759efba5ef119475d9" target="_top" xlink:title="Open a streaming port. The port will be closed if no connection is made within 30 seconds.">
<polygon fill="none" stroke="black" points="474,-109.5 474,-139.5 574,-139.5 574,-109.5 474,-109.5"/>
<text text-anchor="start" x="482" y="-127.5" font-family="Helvetica,sans-Serif" font-size="10.00">Kistler::API::open</text>
<text text-anchor="middle" x="524" y="-116.5" font-family="Helvetica,sans-Serif" font-size="10.00">_stream</text>
</a>
</g>
</g>
<!-- Node6&#45;&gt;Node17 -->
<g id="edge19" class="edge">
<title>Node6&#45;&gt;Node17</title>
<path fill="none" stroke="midnightblue" d="M627.46,-238.57C626.26,-237.59 625.1,-236.57 624,-235.5 594.23,-206.68 617.57,-178.52 588,-149.5 583.97,-145.54 579.23,-142.19 574.2,-139.36"/>
<polygon fill="midnightblue" stroke="midnightblue" points="625.71,-241.61 635.94,-244.39 629.68,-235.84 625.71,-241.61"/>
</g>
<!-- Node18 -->
<g id="node18" class="node">
<title>Node18</title>
<g id="a_node18"><a xlink:href="../../da/d94/class_kistler_1_1_a_p_i.html#a1241535349db9c80adea109500ba7c79" target="_top" xlink:title="Send a START request to the DAQ.">
<polygon fill="none" stroke="black" points="475,-334 475,-353 573,-353 573,-334 475,-334"/>
<text text-anchor="middle" x="524" y="-341" font-family="Helvetica,sans-Serif" font-size="10.00">Kistler::API::start</text>
</a>
</g>
</g>
<!-- Node6&#45;&gt;Node18 -->
<g id="edge22" class="edge">
<title>Node6&#45;&gt;Node18</title>
<path fill="none" stroke="midnightblue" d="M632.53,-279.19C629.57,-280.85 626.7,-282.62 624,-284.5 604.37,-298.16 608.19,-311.69 588,-324.5 581.92,-328.36 575.02,-331.47 568.07,-333.96"/>
<polygon fill="midnightblue" stroke="midnightblue" points="634.32,-282.21 641.63,-274.54 631.13,-275.98 634.32,-282.21"/>
</g>
<!-- Node19 -->
<g id="node19" class="node">
<title>Node19</title>
<g id="a_node19"><a xlink:href="../../da/d94/class_kistler_1_1_a_p_i.html#a5410196834e57bb4376380d609390e25" target="_top" xlink:title="Send a STOP request to the DAQ.">
<polygon fill="none" stroke="black" points="475.5,-372 475.5,-391 572.5,-391 572.5,-372 475.5,-372"/>
<text text-anchor="middle" x="524" y="-379" font-family="Helvetica,sans-Serif" font-size="10.00">Kistler::API::stop</text>
</a>
</g>
</g>
<!-- Node6&#45;&gt;Node19 -->
<g id="edge24" class="edge">
<title>Node6&#45;&gt;Node19</title>
<path fill="none" stroke="midnightblue" d="M629.31,-280.05C627.44,-281.44 625.67,-282.92 624,-284.5 596.27,-310.75 616.81,-337.45 588,-362.5 583.52,-366.4 578.26,-369.5 572.72,-371.96"/>
<polygon fill="midnightblue" stroke="midnightblue" points="631.42,-282.85 637.94,-274.5 627.63,-276.96 631.42,-282.85"/>
</g>
<!-- Node8 -->
<g id="node8" class="node">
<title>Node8</title>
<g id="a_node8"><a xlink:href="../../da/d97/class_kistler_1_1_d_a_q.html#a4f89e1c93f34ce2b85fe0e10287b8165" target="_top" xlink:title="Thread streaming LSL samples.">
<polygon fill="none" stroke="black" points="287,-175.5 287,-205.5 424,-205.5 424,-175.5 287,-175.5"/>
<text text-anchor="start" x="295" y="-193.5" font-family="Helvetica,sans-Serif" font-size="10.00">Kistler::DAQ::_streaming</text>
<text text-anchor="middle" x="355.5" y="-182.5" font-family="Helvetica,sans-Serif" font-size="10.00">_thread</text>
</a>
</g>
</g>
<!-- Node7&#45;&gt;Node8 -->
<g id="edge7" class="edge">
<title>Node7&#45;&gt;Node8</title>
<path fill="none" stroke="midnightblue" d="M472.74,-242.67C468.41,-240.96 464.12,-239.22 460,-237.5 435.78,-227.4 408.79,-215.11 388.44,-205.63"/>
<polygon fill="midnightblue" stroke="midnightblue" points="471.6,-245.99 482.19,-246.38 474.15,-239.47 471.6,-245.99"/>
</g>
<!-- Node9 -->
<g id="node9" class="node">
<title>Node9</title>
<g id="a_node9"><a xlink:href="../../da/d97/class_kistler_1_1_d_a_q.html#a5a7c06429dcad460b083b5f2a2bbda5a" target="_top" xlink:title="Start a LSL streaming thread.">
<polygon fill="none" stroke="black" points="143.5,-256.5 143.5,-286.5 247.5,-286.5 247.5,-256.5 143.5,-256.5"/>
<text text-anchor="start" x="151.5" y="-274.5" font-family="Helvetica,sans-Serif" font-size="10.00">Kistler::DAQ::start</text>
<text text-anchor="middle" x="195.5" y="-263.5" font-family="Helvetica,sans-Serif" font-size="10.00">_streaming</text>
</a>
</g>
</g>
<!-- Node8&#45;&gt;Node9 -->
<g id="edge8" class="edge">
<title>Node8&#45;&gt;Node9</title>
<path fill="none" stroke="midnightblue" d="M316.12,-210.18C288.36,-224.41 251.41,-243.35 225.96,-256.4"/>
<polygon fill="midnightblue" stroke="midnightblue" points="317.85,-213.22 325.15,-205.55 314.66,-206.99 317.85,-213.22"/>
</g>
<!-- Node10 -->
<g id="node10" class="node">
<title>Node10</title>
<g id="a_node10"><a xlink:href="../../da/d97/class_kistler_1_1_d_a_q.html#a1c97f3c5178041e0bf2a836eead0bc8c" target="_top" xlink:title=" ">
<polygon fill="none" stroke="black" points="0,-284 0,-303 104,-303 104,-284 0,-284"/>
<text text-anchor="middle" x="52" y="-291" font-family="Helvetica,sans-Serif" font-size="10.00">Kistler::DAQ::DAQ</text>
</a>
</g>
</g>
<!-- Node9&#45;&gt;Node10 -->
<g id="edge9" class="edge">
<title>Node9&#45;&gt;Node10</title>
<path fill="none" stroke="midnightblue" d="M133.34,-281.01C123.56,-282.53 113.53,-284.09 104.01,-285.57"/>
<polygon fill="midnightblue" stroke="midnightblue" points="134.07,-284.44 143.42,-279.44 133,-277.52 134.07,-284.44"/>
</g>
<!-- Node11&#45;&gt;Node8 -->
<g id="edge11" class="edge">
<title>Node11&#45;&gt;Node8</title>
<path fill="none" stroke="midnightblue" d="M460.15,-204.19C448.37,-202.64 436.01,-201.01 424.1,-199.43"/>
<polygon fill="midnightblue" stroke="midnightblue" points="459.95,-207.7 470.32,-205.54 460.86,-200.76 459.95,-207.7"/>
</g>
<!-- Node12&#45;&gt;Node13 -->
<g id="edge13" class="edge">
<title>Node12&#45;&gt;Node13</title>
<path fill="none" stroke="midnightblue" d="M459.6,-447.89C437.93,-442.55 414.35,-436.75 395.22,-432.03"/>
<polygon fill="midnightblue" stroke="midnightblue" points="458.86,-451.31 469.4,-450.3 460.53,-444.51 458.86,-451.31"/>
</g>
<!-- Node14 -->
<g id="node14" class="node">
<title>Node14</title>
<g id="a_node14"><a xlink:href="../../da/d97/class_kistler_1_1_d_a_q.html#a291e83bbb30446417bfc54f0b02bf41e" target="_top" xlink:title="Configure the DAQ.">
<polygon fill="none" stroke="black" points="140,-347 140,-366 251,-366 251,-347 140,-347"/>
<text text-anchor="middle" x="195.5" y="-354" font-family="Helvetica,sans-Serif" font-size="10.00">Kistler::DAQ::config</text>
</a>
</g>
</g>
<!-- Node13&#45;&gt;Node14 -->
<g id="edge14" class="edge">
<title>Node13&#45;&gt;Node14</title>
<path fill="none" stroke="midnightblue" d="M305.62,-410.03C299.29,-408.04 292.94,-405.85 287,-403.5 259.84,-392.75 230.09,-376.34 212.38,-366.02"/>
<polygon fill="midnightblue" stroke="midnightblue" points="304.91,-413.47 315.5,-412.99 306.92,-406.76 304.91,-413.47"/>
</g>
<!-- Node14&#45;&gt;Node10 -->
<g id="edge15" class="edge">
<title>Node14&#45;&gt;Node10</title>
<path fill="none" stroke="midnightblue" d="M163.67,-342.77C136.78,-330.8 98.46,-313.74 74.69,-303.16"/>
<polygon fill="midnightblue" stroke="midnightblue" points="162.45,-346.06 173.01,-346.93 165.3,-339.67 162.45,-346.06"/>
</g>
<!-- Node16&#45;&gt;Node8 -->
<g id="edge18" class="edge">
<title>Node16&#45;&gt;Node8</title>
<path fill="none" stroke="midnightblue" d="M449.42,-178.22C441.03,-179.33 432.49,-180.46 424.18,-181.56"/>
<polygon fill="midnightblue" stroke="midnightblue" points="450.12,-181.66 459.58,-176.88 449.21,-174.72 450.12,-181.66"/>
</g>
<!-- Node17&#45;&gt;Node8 -->
<g id="edge20" class="edge">
<title>Node17&#45;&gt;Node8</title>
<path fill="none" stroke="midnightblue" d="M475.28,-143.42C449.65,-153.58 418.49,-165.93 394.52,-175.43"/>
<polygon fill="midnightblue" stroke="midnightblue" points="476.8,-146.58 484.8,-139.64 474.22,-140.07 476.8,-146.58"/>
</g>
<!-- Node18&#45;&gt;Node8 -->
<g id="edge23" class="edge">
<title>Node18&#45;&gt;Node8</title>
<path fill="none" stroke="midnightblue" d="M469.29,-329.91C466.04,-328.3 462.91,-326.5 460,-324.5 413.76,-292.66 378.9,-233.74 364.19,-205.87"/>
<polygon fill="midnightblue" stroke="midnightblue" points="468.12,-333.22 478.69,-333.98 470.9,-326.8 468.12,-333.22"/>
</g>
<!-- Node19&#45;&gt;Node8 -->
<g id="edge25" class="edge">
<title>Node19&#45;&gt;Node8</title>
<path fill="none" stroke="midnightblue" d="M467.43,-367.43C464.82,-365.94 462.32,-364.31 460,-362.5 405.12,-319.82 372.92,-239.2 361.38,-205.7"/>
<polygon fill="midnightblue" stroke="midnightblue" points="466.12,-370.68 476.65,-371.89 469.17,-364.38 466.12,-370.68"/>
</g>
<!-- Node20 -->
<g id="node20" class="node">
<title>Node20</title>
<g id="a_node20"><a xlink:href="../../da/d97/class_kistler_1_1_d_a_q.html#a95fa86f19c6c063f55b657a7f83270da" target="_top" xlink:title="Stop the streaming thread.">
<polygon fill="none" stroke="black" points="304,-363.5 304,-393.5 407,-393.5 407,-363.5 304,-363.5"/>
<text text-anchor="start" x="312" y="-381.5" font-family="Helvetica,sans-Serif" font-size="10.00">Kistler::DAQ::stop</text>
<text text-anchor="middle" x="355.5" y="-370.5" font-family="Helvetica,sans-Serif" font-size="10.00">_streaming</text>
</a>
</g>
</g>
<!-- Node19&#45;&gt;Node20 -->
<g id="edge26" class="edge">
<title>Node19&#45;&gt;Node20</title>
<path fill="none" stroke="midnightblue" d="M465.04,-380.46C446.18,-380.12 425.4,-379.74 407.12,-379.41"/>
<polygon fill="midnightblue" stroke="midnightblue" points="465.23,-383.96 475.29,-380.64 465.35,-376.96 465.23,-383.96"/>
</g>
<!-- Node21&#45;&gt;Node8 -->
<g id="edge28" class="edge">
<title>Node21&#45;&gt;Node8</title>
<path fill="none" stroke="midnightblue" d="M633.54,-103.65C586.4,-90.88 516.59,-79.34 460,-100.5 419.85,-115.51 384.99,-153.91 367.83,-175.38"/>
<polygon fill="midnightblue" stroke="midnightblue" points="632.67,-107.04 643.25,-106.38 634.57,-100.3 632.67,-107.04"/>
</g>
<!-- Node22&#45;&gt;Node8 -->
<g id="edge30" class="edge">
<title>Node22&#45;&gt;Node8</title>
<path fill="none" stroke="midnightblue" d="M625.64,-62.02C578.24,-58.9 512.14,-60.48 460,-84.5 416.78,-104.41 381.98,-150.9 365.99,-175.16"/>
<polygon fill="midnightblue" stroke="midnightblue" points="625.53,-65.52 635.77,-62.78 626.05,-58.54 625.53,-65.52"/>
</g>
<!-- Node23&#45;&gt;Node8 -->
<g id="edge32" class="edge">
<title>Node23&#45;&gt;Node8</title>
<path fill="none" stroke="midnightblue" d="M625.99,-14.84C577.73,-16.95 510.33,-25.93 460,-56.5 411.51,-85.96 377.31,-147.16 363.41,-175.5"/>
<polygon fill="midnightblue" stroke="midnightblue" points="626.11,-18.34 635.98,-14.49 625.87,-11.35 626.11,-18.34"/>
</g>
<!-- Node24&#45;&gt;Node3 -->
<g id="edge34" class="edge">
<title>Node24&#45;&gt;Node3</title>
<path fill="none" stroke="midnightblue" d="M824.15,-236.92C804.86,-251.61 777.81,-270.85 752,-284.5 745.9,-287.73 739.26,-290.74 732.66,-293.47"/>
<polygon fill="midnightblue" stroke="midnightblue" points="826.4,-239.6 832.18,-230.72 822.12,-234.06 826.4,-239.6"/>
</g>
<!-- Node24&#45;&gt;Node4 -->
<g id="edge35" class="edge">
<title>Node24&#45;&gt;Node4</title>
<path fill="none" stroke="midnightblue" d="M777.91,-213.24C769.32,-212.98 760.62,-212.71 752.19,-212.45"/>
<polygon fill="midnightblue" stroke="midnightblue" points="777.8,-216.74 787.9,-213.55 778.02,-209.75 777.8,-216.74"/>
</g>
<!-- Node24&#45;&gt;Node5 -->
<g id="edge36" class="edge">
<title>Node24&#45;&gt;Node5</title>
<path fill="none" stroke="midnightblue" d="M791.35,-197.46C762.18,-188.63 729.02,-178.6 708.55,-172.41"/>
<polygon fill="midnightblue" stroke="midnightblue" points="790.49,-200.85 801.07,-200.4 792.51,-194.15 790.49,-200.85"/>
</g>
<!-- Node24&#45;&gt;Node6 -->
<g id="edge37" class="edge">
<title>Node24&#45;&gt;Node6</title>
<path fill="none" stroke="midnightblue" d="M785.82,-233.2C772.06,-236.94 757.68,-240.85 744.32,-244.47"/>
<polygon fill="midnightblue" stroke="midnightblue" points="786.97,-236.52 795.7,-230.52 785.13,-229.76 786.97,-236.52"/>
</g>
</g>
</svg>
