<?xml version="1.0" encoding="UTF-8" standalone="no"?>
<!DOCTYPE svg PUBLIC "-//W3C//DTD SVG 1.1//EN"
 "http://www.w3.org/Graphics/SVG/1.1/DTD/svg11.dtd">
<!-- Generated by graphviz version 2.43.0 (0)
 -->
<!-- Title: Communication::Client::close_connection Pages: 1 -->
<svg width="589pt" height="137pt"
 viewBox="0.00 0.00 589.00 137.00" xmlns="http://www.w3.org/2000/svg" xmlns:xlink="http://www.w3.org/1999/xlink">
<g id="graph0" class="graph" transform="scale(1 1) rotate(0) translate(4 133)">
<title>Communication::Client::close_connection</title>
<!-- Node1 -->
<g id="node1" class="node">
<title>Node1</title>
<g id="a_node1"><a xlink:title=" ">
<polygon fill="#bfbfbf" stroke="black" points="453,-49.5 453,-79.5 581,-79.5 581,-49.5 453,-49.5"/>
<text text-anchor="start" x="461" y="-67.5" font-family="Helvetica,sans-Serif" font-size="10.00">Communication::Client</text>
<text text-anchor="middle" x="517" y="-56.5" font-family="Helvetica,sans-Serif" font-size="10.00">::close_connection</text>
</a>
</g>
</g>
<!-- Node2 -->
<g id="node2" class="node">
<title>Node2</title>
<g id="a_node2"><a xlink:href="../../da/d97/class_kistler_1_1_d_a_q.html#a4f89e1c93f34ce2b85fe0e10287b8165" target="_top" xlink:title="Thread streaming LSL samples.">
<polygon fill="none" stroke="black" points="280,-98.5 280,-128.5 417,-128.5 417,-98.5 280,-98.5"/>
<text text-anchor="start" x="288" y="-116.5" font-family="Helvetica,sans-Serif" font-size="10.00">Kistler::DAQ::_streaming</text>
<text text-anchor="middle" x="348.5" y="-105.5" font-family="Helvetica,sans-Serif" font-size="10.00">_thread</text>
</a>
</g>
</g>
<!-- Node1&#45;&gt;Node2 -->
<g id="edge1" class="edge">
<title>Node1&#45;&gt;Node2</title>
<path fill="none" stroke="midnightblue" d="M454.95,-82.47C437.11,-87.72 417.8,-93.4 400.64,-98.45"/>
<polygon fill="midnightblue" stroke="midnightblue" points="456.08,-85.78 464.69,-79.6 454.1,-79.07 456.08,-85.78"/>
</g>
<!-- Node5 -->
<g id="node5" class="node">
<title>Node5</title>
<g id="a_node5"><a xlink:href="../../d7/d60/class_communication_1_1_h_t_t_p__client.html#a9cbcd819dda4fc2fd0c4295bce974dff" target="_top" xlink:title=" ">
<polygon fill="none" stroke="black" points="286,-49.5 286,-79.5 411,-79.5 411,-49.5 286,-49.5"/>
<text text-anchor="start" x="294" y="-67.5" font-family="Helvetica,sans-Serif" font-size="10.00">Communication::HTTP</text>
<text text-anchor="middle" x="348.5" y="-56.5" font-family="Helvetica,sans-Serif" font-size="10.00">_client::~HTTP_client</text>
</a>
</g>
</g>
<!-- Node1&#45;&gt;Node5 -->
<g id="edge4" class="edge">
<title>Node1&#45;&gt;Node5</title>
<path fill="none" stroke="midnightblue" d="M442.26,-64.5C431.85,-64.5 421.24,-64.5 411.1,-64.5"/>
<polygon fill="midnightblue" stroke="midnightblue" points="442.58,-68 452.58,-64.5 442.58,-61 442.58,-68"/>
</g>
<!-- Node6 -->
<g id="node6" class="node">
<title>Node6</title>
<g id="a_node6"><a xlink:href="../../dc/db1/class_communication_1_1_server.html#aef74c77dc02436ee1dc6d16310837b12" target="_top" xlink:title=" ">
<polygon fill="none" stroke="black" points="283,-0.5 283,-30.5 414,-30.5 414,-0.5 283,-0.5"/>
<text text-anchor="start" x="291" y="-18.5" font-family="Helvetica,sans-Serif" font-size="10.00">Communication::Server</text>
<text text-anchor="middle" x="348.5" y="-7.5" font-family="Helvetica,sans-Serif" font-size="10.00">::~Server</text>
</a>
</g>
</g>
<!-- Node1&#45;&gt;Node6 -->
<g id="edge5" class="edge">
<title>Node1&#45;&gt;Node6</title>
<path fill="none" stroke="midnightblue" d="M454.95,-46.53C437.11,-41.28 417.8,-35.6 400.64,-30.55"/>
<polygon fill="midnightblue" stroke="midnightblue" points="454.1,-49.93 464.69,-49.4 456.08,-43.22 454.1,-49.93"/>
</g>
<!-- Node3 -->
<g id="node3" class="node">
<title>Node3</title>
<g id="a_node3"><a xlink:href="../../da/d97/class_kistler_1_1_d_a_q.html#a5a7c06429dcad460b083b5f2a2bbda5a" target="_top" xlink:title="Start a LSL streaming thread.">
<polygon fill="none" stroke="black" points="140,-98.5 140,-128.5 244,-128.5 244,-98.5 140,-98.5"/>
<text text-anchor="start" x="148" y="-116.5" font-family="Helvetica,sans-Serif" font-size="10.00">Kistler::DAQ::start</text>
<text text-anchor="middle" x="192" y="-105.5" font-family="Helvetica,sans-Serif" font-size="10.00">_streaming</text>
</a>
</g>
</g>
<!-- Node2&#45;&gt;Node3 -->
<g id="edge2" class="edge">
<title>Node2&#45;&gt;Node3</title>
<path fill="none" stroke="midnightblue" d="M269.7,-113.5C261.13,-113.5 252.58,-113.5 244.45,-113.5"/>
<polygon fill="midnightblue" stroke="midnightblue" points="269.73,-117 279.73,-113.5 269.73,-110 269.73,-117"/>
</g>
<!-- Node4 -->
<g id="node4" class="node">
<title>Node4</title>
<g id="a_node4"><a xlink:href="../../da/d97/class_kistler_1_1_d_a_q.html#a1c97f3c5178041e0bf2a836eead0bc8c" target="_top" xlink:title=" ">
<polygon fill="none" stroke="black" points="0,-104 0,-123 104,-123 104,-104 0,-104"/>
<text text-anchor="middle" x="52" y="-111" font-family="Helvetica,sans-Serif" font-size="10.00">Kistler::DAQ::DAQ</text>
</a>
</g>
</g>
<!-- Node3&#45;&gt;Node4 -->
<g id="edge3" class="edge">
<title>Node3&#45;&gt;Node4</title>
<path fill="none" stroke="midnightblue" d="M129.5,-113.5C121.13,-113.5 112.6,-113.5 104.43,-113.5"/>
<polygon fill="midnightblue" stroke="midnightblue" points="129.61,-117 139.61,-113.5 129.61,-110 129.61,-117"/>
</g>
</g>
</svg>
