<?xml version="1.0" encoding="UTF-8" standalone="no"?>
<!DOCTYPE svg PUBLIC "-//W3C//DTD SVG 1.1//EN"
 "http://www.w3.org/Graphics/SVG/1.1/DTD/svg11.dtd">
<!-- Generated by graphviz version 2.43.0 (0)
 -->
<!-- Title: Communication::Client::open_connection Pages: 1 -->
<svg width="605pt" height="127pt"
 viewBox="0.00 0.00 605.00 127.00" xmlns="http://www.w3.org/2000/svg" xmlns:xlink="http://www.w3.org/1999/xlink">
<g id="graph0" class="graph" transform="scale(1 1) rotate(0) translate(4 123)">
<title>Communication::Client::open_connection</title>
<!-- Node1 -->
<g id="node1" class="node">
<title>Node1</title>
<g id="a_node1"><a xlink:title="open_connection Open the connection the serial or network or interface">
<polygon fill="#bfbfbf" stroke="black" points="469,-44.5 469,-74.5 597,-74.5 597,-44.5 469,-44.5"/>
<text text-anchor="start" x="477" y="-62.5" font-family="Helvetica,sans-Serif" font-size="10.00">Communication::Client</text>
<text text-anchor="middle" x="533" y="-51.5" font-family="Helvetica,sans-Serif" font-size="10.00">::open_connection</text>
</a>
</g>
</g>
<!-- Node2 -->
<g id="node2" class="node">
<title>Node2</title>
<g id="a_node2"><a xlink:href="../../da/d97/class_kistler_1_1_d_a_q.html#a4f89e1c93f34ce2b85fe0e10287b8165" target="_top" xlink:title="Thread streaming LSL samples.">
<polygon fill="none" stroke="black" points="296,-88.5 296,-118.5 433,-118.5 433,-88.5 296,-88.5"/>
<text text-anchor="start" x="304" y="-106.5" font-family="Helvetica,sans-Serif" font-size="10.00">Kistler::DAQ::_streaming</text>
<text text-anchor="middle" x="364.5" y="-95.5" font-family="Helvetica,sans-Serif" font-size="10.00">_thread</text>
</a>
</g>
</g>
<!-- Node1&#45;&gt;Node2 -->
<g id="edge1" class="edge">
<title>Node1&#45;&gt;Node2</title>
<path fill="none" stroke="midnightblue" d="M465.42,-77.09C451.16,-80.86 436.22,-84.81 422.36,-88.47"/>
<polygon fill="midnightblue" stroke="midnightblue" points="466.39,-80.46 475.17,-74.52 464.6,-73.69 466.39,-80.46"/>
</g>
<!-- Node5 -->
<g id="node5" class="node">
<title>Node5</title>
<g id="a_node5"><a xlink:href="../../d4/d7c/lib_2com__client_2src_2main_8cpp.html#a3c04138a5bfe5d72780bb7e82a18e627" target="_top" xlink:title=" ">
<polygon fill="none" stroke="black" points="344,-50 344,-69 385,-69 385,-50 344,-50"/>
<text text-anchor="middle" x="364.5" y="-57" font-family="Helvetica,sans-Serif" font-size="10.00">main</text>
</a>
</g>
</g>
<!-- Node1&#45;&gt;Node5 -->
<g id="edge4" class="edge">
<title>Node1&#45;&gt;Node5</title>
<path fill="none" stroke="midnightblue" d="M458.41,-59.5C431.64,-59.5 403.52,-59.5 385.32,-59.5"/>
<polygon fill="midnightblue" stroke="midnightblue" points="458.58,-63 468.58,-59.5 458.58,-56 458.58,-63"/>
</g>
<!-- Node6 -->
<g id="node6" class="node">
<title>Node6</title>
<g id="a_node6"><a xlink:href="../../d7/d60/class_communication_1_1_h_t_t_p__client.html#a67973a5bc8e92122bc5f98c95990bca7" target="_top" xlink:title=" ">
<polygon fill="none" stroke="black" points="296,-0.5 296,-30.5 433,-30.5 433,-0.5 296,-0.5"/>
<text text-anchor="start" x="304" y="-18.5" font-family="Helvetica,sans-Serif" font-size="10.00">Communication::HTTP</text>
<text text-anchor="middle" x="364.5" y="-7.5" font-family="Helvetica,sans-Serif" font-size="10.00">_client::open_connection</text>
</a>
</g>
</g>
<!-- Node1&#45;&gt;Node6 -->
<g id="edge5" class="edge">
<title>Node1&#45;&gt;Node6</title>
<path fill="none" stroke="midnightblue" d="M465.42,-41.91C451.16,-38.14 436.22,-34.19 422.36,-30.53"/>
<polygon fill="midnightblue" stroke="midnightblue" points="464.6,-45.31 475.17,-44.48 466.39,-38.54 464.6,-45.31"/>
</g>
<!-- Node3 -->
<g id="node3" class="node">
<title>Node3</title>
<g id="a_node3"><a xlink:href="../../da/d97/class_kistler_1_1_d_a_q.html#a5a7c06429dcad460b083b5f2a2bbda5a" target="_top" xlink:title="Start a LSL streaming thread.">
<polygon fill="none" stroke="black" points="148,-77.5 148,-107.5 252,-107.5 252,-77.5 148,-77.5"/>
<text text-anchor="start" x="156" y="-95.5" font-family="Helvetica,sans-Serif" font-size="10.00">Kistler::DAQ::start</text>
<text text-anchor="middle" x="200" y="-84.5" font-family="Helvetica,sans-Serif" font-size="10.00">_streaming</text>
</a>
</g>
</g>
<!-- Node2&#45;&gt;Node3 -->
<g id="edge2" class="edge">
<title>Node2&#45;&gt;Node3</title>
<path fill="none" stroke="midnightblue" d="M285.97,-98.25C274.5,-97.48 262.93,-96.69 252.19,-95.96"/>
<polygon fill="midnightblue" stroke="midnightblue" points="285.78,-101.75 296,-98.93 286.26,-94.76 285.78,-101.75"/>
</g>
<!-- Node4 -->
<g id="node4" class="node">
<title>Node4</title>
<g id="a_node4"><a xlink:href="../../da/d97/class_kistler_1_1_d_a_q.html#a1c97f3c5178041e0bf2a836eead0bc8c" target="_top" xlink:title=" ">
<polygon fill="none" stroke="black" points="0,-50 0,-69 104,-69 104,-50 0,-50"/>
<text text-anchor="middle" x="52" y="-57" font-family="Helvetica,sans-Serif" font-size="10.00">Kistler::DAQ::DAQ</text>
</a>
</g>
</g>
<!-- Node3&#45;&gt;Node4 -->
<g id="edge3" class="edge">
<title>Node3&#45;&gt;Node4</title>
<path fill="none" stroke="midnightblue" d="M138.06,-78.73C123.61,-75.46 108.5,-72.04 95.1,-69.02"/>
<polygon fill="midnightblue" stroke="midnightblue" points="137.41,-82.17 147.94,-80.96 138.95,-75.34 137.41,-82.17"/>
</g>
<!-- Node7 -->
<g id="node7" class="node">
<title>Node7</title>
<g id="a_node7"><a xlink:href="../../da/d97/class_kistler_1_1_d_a_q.html#ac5dc9fa5e3a40556eb6879b071b269be" target="_top" xlink:title="Connect to the DAQ.">
<polygon fill="none" stroke="black" points="140,-28 140,-47 260,-47 260,-28 140,-28"/>
<text text-anchor="middle" x="200" y="-35" font-family="Helvetica,sans-Serif" font-size="10.00">Kistler::DAQ::connect</text>
</a>
</g>
</g>
<!-- Node6&#45;&gt;Node7 -->
<g id="edge6" class="edge">
<title>Node6&#45;&gt;Node7</title>
<path fill="none" stroke="midnightblue" d="M285.84,-26.01C277.15,-27.19 268.41,-28.37 260.01,-29.51"/>
<polygon fill="midnightblue" stroke="midnightblue" points="286.56,-29.45 296,-24.64 285.62,-22.51 286.56,-29.45"/>
</g>
<!-- Node7&#45;&gt;Node4 -->
<g id="edge7" class="edge">
<title>Node7&#45;&gt;Node4</title>
<path fill="none" stroke="midnightblue" d="M129.67,-47.95C121.15,-49.23 112.56,-50.53 104.37,-51.76"/>
<polygon fill="midnightblue" stroke="midnightblue" points="130.25,-51.4 139.62,-46.45 129.21,-44.48 130.25,-51.4"/>
</g>
</g>
</svg>
