<?xml version="1.0" encoding="UTF-8" standalone="no"?>
<!DOCTYPE svg PUBLIC "-//W3C//DTD SVG 1.1//EN"
 "http://www.w3.org/Graphics/SVG/1.1/DTD/svg11.dtd">
<!-- Generated by graphviz version 2.43.0 (0)
 -->
<!-- Title: Communication::Client::readS Pages: 1 -->
<svg width="924pt" height="469pt"
 viewBox="0.00 0.00 924.00 469.00" xmlns="http://www.w3.org/2000/svg" xmlns:xlink="http://www.w3.org/1999/xlink">
<g id="graph0" class="graph" transform="scale(1 1) rotate(0) translate(4 465)">
<title>Communication::Client::readS</title>
<!-- Node1 -->
<g id="node1" class="node">
<title>Node1</title>
<g id="a_node1"><a xlink:title="readS read the com inmterface.">
<polygon fill="#bfbfbf" stroke="black" points="788,-200.5 788,-230.5 916,-230.5 916,-200.5 788,-200.5"/>
<text text-anchor="start" x="796" y="-218.5" font-family="Helvetica,sans-Serif" font-size="10.00">Communication::Client</text>
<text text-anchor="middle" x="852" y="-207.5" font-family="Helvetica,sans-Serif" font-size="10.00">::readS</text>
</a>
</g>
</g>
<!-- Node2 -->
<g id="node2" class="node">
<title>Node2</title>
<g id="a_node2"><a xlink:href="../../d7/d60/class_communication_1_1_h_t_t_p__client.html#a6c2e964c4510d91b79ff9303b672582e" target="_top" xlink:title=" ">
<polygon fill="none" stroke="black" points="625.5,-337.5 625.5,-367.5 750.5,-367.5 750.5,-337.5 625.5,-337.5"/>
<text text-anchor="start" x="633.5" y="-355.5" font-family="Helvetica,sans-Serif" font-size="10.00">Communication::HTTP</text>
<text text-anchor="middle" x="688" y="-344.5" font-family="Helvetica,sans-Serif" font-size="10.00">_client::get</text>
</a>
</g>
</g>
<!-- Node1&#45;&gt;Node2 -->
<g id="edge1" class="edge">
<title>Node1&#45;&gt;Node2</title>
<path fill="none" stroke="midnightblue" d="M835.63,-239.06C818.09,-264.29 787.24,-303.99 752,-328.5 747.2,-331.84 741.86,-334.79 736.4,-337.38"/>
<polygon fill="midnightblue" stroke="midnightblue" points="838.53,-241.02 841.26,-230.79 832.74,-237.08 838.53,-241.02"/>
</g>
<!-- Node3 -->
<g id="node3" class="node">
<title>Node3</title>
<g id="a_node3"><a xlink:href="../../df/dcd/class_communication_1_1_client.html#a2508e02531cf7e8dd258677b7b1490e9" target="_top" xlink:title=" ">
<polygon fill="none" stroke="black" points="624,-288.5 624,-318.5 752,-318.5 752,-288.5 624,-288.5"/>
<text text-anchor="start" x="632" y="-306.5" font-family="Helvetica,sans-Serif" font-size="10.00">Communication::Client</text>
<text text-anchor="middle" x="688" y="-295.5" font-family="Helvetica,sans-Serif" font-size="10.00">::get_stat</text>
</a>
</g>
</g>
<!-- Node1&#45;&gt;Node3 -->
<g id="edge2" class="edge">
<title>Node1&#45;&gt;Node3</title>
<path fill="none" stroke="midnightblue" d="M821.35,-236.46C802.12,-249.52 776.23,-266.12 752,-278.5 745.08,-282.03 737.55,-285.41 730.17,-288.47"/>
<polygon fill="midnightblue" stroke="midnightblue" points="823.42,-239.28 829.68,-230.74 819.46,-233.51 823.42,-239.28"/>
</g>
<!-- Node4 -->
<g id="node4" class="node">
<title>Node4</title>
<g id="a_node4"><a xlink:href="../../d4/d7c/lib_2com__client_2src_2main_8cpp.html#a3c04138a5bfe5d72780bb7e82a18e627" target="_top" xlink:title=" ">
<polygon fill="none" stroke="black" points="667.5,-250 667.5,-269 708.5,-269 708.5,-250 667.5,-250"/>
<text text-anchor="middle" x="688" y="-257" font-family="Helvetica,sans-Serif" font-size="10.00">main</text>
</a>
</g>
</g>
<!-- Node1&#45;&gt;Node4 -->
<g id="edge3" class="edge">
<title>Node1&#45;&gt;Node4</title>
<path fill="none" stroke="midnightblue" d="M786.04,-233.14C758.34,-240.67 728.03,-248.9 708.79,-254.13"/>
<polygon fill="midnightblue" stroke="midnightblue" points="786.97,-236.52 795.7,-230.52 785.13,-229.76 786.97,-236.52"/>
</g>
<!-- Node5 -->
<g id="node5" class="node">
<title>Node5</title>
<g id="a_node5"><a xlink:href="../../d7/d60/class_communication_1_1_h_t_t_p__client.html#a241e78ccad7bcbc7597cb2dde7d7e402" target="_top" xlink:title=" ">
<polygon fill="none" stroke="black" points="625.5,-200.5 625.5,-230.5 750.5,-230.5 750.5,-200.5 625.5,-200.5"/>
<text text-anchor="start" x="633.5" y="-218.5" font-family="Helvetica,sans-Serif" font-size="10.00">Communication::HTTP</text>
<text text-anchor="middle" x="688" y="-207.5" font-family="Helvetica,sans-Serif" font-size="10.00">_client::post</text>
</a>
</g>
</g>
<!-- Node1&#45;&gt;Node5 -->
<g id="edge4" class="edge">
<title>Node1&#45;&gt;Node5</title>
<path fill="none" stroke="midnightblue" d="M777.74,-215.5C768.67,-215.5 759.47,-215.5 750.6,-215.5"/>
<polygon fill="midnightblue" stroke="midnightblue" points="777.9,-219 787.9,-215.5 777.9,-212 777.9,-219"/>
</g>
<!-- Node20 -->
<g id="node20" class="node">
<title>Node20</title>
<g id="a_node20"><a xlink:href="../../da/d97/class_kistler_1_1_d_a_q.html#a3d0ae8c3f89ca09717a55451b34f6e6f" target="_top" xlink:title="Read a subframe as an event (type 0 in header)">
<polygon fill="none" stroke="black" points="636,-143.5 636,-173.5 740,-173.5 740,-143.5 636,-143.5"/>
<text text-anchor="start" x="644" y="-161.5" font-family="Helvetica,sans-Serif" font-size="10.00">Kistler::DAQ::read</text>
<text text-anchor="middle" x="688" y="-150.5" font-family="Helvetica,sans-Serif" font-size="10.00">_event</text>
</a>
</g>
</g>
<!-- Node1&#45;&gt;Node20 -->
<g id="edge26" class="edge">
<title>Node1&#45;&gt;Node20</title>
<path fill="none" stroke="midnightblue" d="M798.37,-196.98C776.86,-189.41 752.3,-180.77 731.91,-173.6"/>
<polygon fill="midnightblue" stroke="midnightblue" points="797.42,-200.36 808.01,-200.37 799.74,-193.75 797.42,-200.36"/>
</g>
<!-- Node21 -->
<g id="node21" class="node">
<title>Node21</title>
<g id="a_node21"><a xlink:href="../../da/d97/class_kistler_1_1_d_a_q.html#ad39263026e83eafcc4e195181a94d706" target="_top" xlink:title="read the header of an incoming frame">
<polygon fill="none" stroke="black" points="636,-79.5 636,-109.5 740,-109.5 740,-79.5 636,-79.5"/>
<text text-anchor="start" x="644" y="-97.5" font-family="Helvetica,sans-Serif" font-size="10.00">Kistler::DAQ::read</text>
<text text-anchor="middle" x="688" y="-86.5" font-family="Helvetica,sans-Serif" font-size="10.00">_header</text>
</a>
</g>
</g>
<!-- Node1&#45;&gt;Node21 -->
<g id="edge28" class="edge">
<title>Node1&#45;&gt;Node21</title>
<path fill="none" stroke="midnightblue" d="M826.03,-193.66C806.4,-176.85 778.1,-153.36 752,-134.5 739.92,-125.77 725.98,-116.82 714.29,-109.59"/>
<polygon fill="midnightblue" stroke="midnightblue" points="823.76,-196.33 833.62,-200.21 828.33,-191.03 823.76,-196.33"/>
</g>
<!-- Node22 -->
<g id="node22" class="node">
<title>Node22</title>
<g id="a_node22"><a xlink:href="../../da/d97/class_kistler_1_1_d_a_q.html#ae236ac769128029dc1f59c8bdaceeb1a" target="_top" xlink:title="Read a subframe as a data frame (type 1 in header)">
<polygon fill="none" stroke="black" points="636,-0.5 636,-30.5 740,-30.5 740,-0.5 636,-0.5"/>
<text text-anchor="start" x="644" y="-18.5" font-family="Helvetica,sans-Serif" font-size="10.00">Kistler::DAQ::read</text>
<text text-anchor="middle" x="688" y="-7.5" font-family="Helvetica,sans-Serif" font-size="10.00">_measurement</text>
</a>
</g>
</g>
<!-- Node1&#45;&gt;Node22 -->
<g id="edge30" class="edge">
<title>Node1&#45;&gt;Node22</title>
<path fill="none" stroke="midnightblue" d="M837.09,-191.28C819.32,-161.35 786.7,-109.58 752,-70.5 738.89,-55.73 721.93,-41.13 708.91,-30.69"/>
<polygon fill="midnightblue" stroke="midnightblue" points="834.24,-193.34 842.32,-200.19 840.27,-189.8 834.24,-193.34"/>
</g>
<!-- Node6 -->
<g id="node6" class="node">
<title>Node6</title>
<g id="a_node6"><a xlink:href="../../da/d94/class_kistler_1_1_a_p_i.html#a46c24eb334e1af47b3b17408918c5491" target="_top" xlink:title="Close a streaming port.">
<polygon fill="none" stroke="black" points="473.5,-90.5 473.5,-120.5 574.5,-120.5 574.5,-90.5 473.5,-90.5"/>
<text text-anchor="start" x="481.5" y="-108.5" font-family="Helvetica,sans-Serif" font-size="10.00">Kistler::API::close</text>
<text text-anchor="middle" x="524" y="-97.5" font-family="Helvetica,sans-Serif" font-size="10.00">_stream</text>
</a>
</g>
</g>
<!-- Node5&#45;&gt;Node6 -->
<g id="edge5" class="edge">
<title>Node5&#45;&gt;Node6</title>
<path fill="none" stroke="midnightblue" d="M640.87,-195.56C634.88,-191.99 629.07,-187.97 624,-183.5 602.63,-164.68 610.21,-148.32 588,-130.5 583.23,-126.67 577.79,-123.37 572.16,-120.53"/>
<polygon fill="midnightblue" stroke="midnightblue" points="639.27,-198.68 649.71,-200.46 642.66,-192.55 639.27,-198.68"/>
</g>
<!-- Node10 -->
<g id="node10" class="node">
<title>Node10</title>
<g id="a_node10"><a xlink:href="../../da/d94/class_kistler_1_1_a_p_i.html#a5a1c3d8d1e5b6f496726293f09cc91c9" target="_top" xlink:title="Unregister a client.">
<polygon fill="none" stroke="black" points="470.5,-304.5 470.5,-334.5 577.5,-334.5 577.5,-304.5 470.5,-304.5"/>
<text text-anchor="start" x="478.5" y="-322.5" font-family="Helvetica,sans-Serif" font-size="10.00">Kistler::API::delete</text>
<text text-anchor="middle" x="524" y="-311.5" font-family="Helvetica,sans-Serif" font-size="10.00">_client</text>
</a>
</g>
</g>
<!-- Node5&#45;&gt;Node10 -->
<g id="edge9" class="edge">
<title>Node5&#45;&gt;Node10</title>
<path fill="none" stroke="midnightblue" d="M630.45,-235.83C628.2,-237.29 626.04,-238.85 624,-240.5 601.58,-258.64 610.42,-276.36 588,-294.5 583.33,-298.27 578.03,-301.54 572.52,-304.34"/>
<polygon fill="midnightblue" stroke="midnightblue" points="632.55,-238.67 639.48,-230.66 629.06,-232.6 632.55,-238.67"/>
</g>
<!-- Node11 -->
<g id="node11" class="node">
<title>Node11</title>
<g id="a_node11"><a xlink:href="../../da/d94/class_kistler_1_1_a_p_i.html#aeb67a2504717300d59713593da6966e6" target="_top" xlink:title="Enable or disable the measurement configuration of the DAQ. To set a new configuration,...">
<polygon fill="none" stroke="black" points="469.5,-430.5 469.5,-460.5 578.5,-460.5 578.5,-430.5 469.5,-430.5"/>
<text text-anchor="start" x="477.5" y="-448.5" font-family="Helvetica,sans-Serif" font-size="10.00">Kistler::API::enable</text>
<text text-anchor="middle" x="524" y="-437.5" font-family="Helvetica,sans-Serif" font-size="10.00">_config</text>
</a>
</g>
</g>
<!-- Node5&#45;&gt;Node11 -->
<g id="edge11" class="edge">
<title>Node5&#45;&gt;Node11</title>
<path fill="none" stroke="midnightblue" d="M627.58,-236.71C626.32,-237.91 625.12,-239.17 624,-240.5 572.97,-301.34 636.98,-353 588,-415.5 583.22,-421.6 576.89,-426.53 570.09,-430.49"/>
<polygon fill="midnightblue" stroke="midnightblue" points="629.74,-239.47 635.49,-230.57 625.44,-233.94 629.74,-239.47"/>
</g>
<!-- Node12 -->
<g id="node12" class="node">
<title>Node12</title>
<g id="a_node12"><a xlink:href="../../da/d94/class_kistler_1_1_a_p_i.html#aadc38197a3536983e07d1687fbe0e1d0" target="_top" xlink:title="Set the configuration of the DAQ.">
<polygon fill="none" stroke="black" points="293,-395 293,-414 418,-414 418,-395 293,-395"/>
<text text-anchor="middle" x="355.5" y="-402" font-family="Helvetica,sans-Serif" font-size="10.00">Kistler::API::set_config</text>
</a>
</g>
</g>
<!-- Node5&#45;&gt;Node12 -->
<g id="edge20" class="edge">
<title>Node5&#45;&gt;Node12</title>
<path fill="none" stroke="midnightblue" d="M627.75,-236.7C626.43,-237.9 625.17,-239.16 624,-240.5 581.04,-289.42 637.43,-340.13 588,-382.5 536.35,-426.77 452.4,-422.29 401.05,-414.06"/>
<polygon fill="midnightblue" stroke="midnightblue" points="630.07,-239.33 635.97,-230.53 625.87,-233.73 630.07,-239.33"/>
</g>
<!-- Node14 -->
<g id="node14" class="node">
<title>Node14</title>
<g id="a_node14"><a xlink:href="../../da/d94/class_kistler_1_1_a_p_i.html#ad3884e4543f20438744b31b5f1e2cb41" target="_top" xlink:title="Get the value of a parameter of the DAQ via the REST API.">
<polygon fill="none" stroke="black" points="460,-266 460,-285 588,-285 588,-266 460,-266"/>
<text text-anchor="middle" x="524" y="-273" font-family="Helvetica,sans-Serif" font-size="10.00">Kistler::API::get_param</text>
</a>
</g>
</g>
<!-- Node5&#45;&gt;Node14 -->
<g id="edge15" class="edge">
<title>Node5&#45;&gt;Node14</title>
<path fill="none" stroke="midnightblue" d="M638.72,-234.43C633.74,-236.45 628.76,-238.5 624,-240.5 607.86,-247.29 604.41,-250.4 588,-256.5 578.9,-259.88 568.89,-263.11 559.59,-265.92"/>
<polygon fill="midnightblue" stroke="midnightblue" points="640.28,-237.57 648.25,-230.59 637.67,-231.08 640.28,-237.57"/>
</g>
<!-- Node15 -->
<g id="node15" class="node">
<title>Node15</title>
<g id="a_node15"><a xlink:href="../../da/d94/class_kistler_1_1_a_p_i.html#a0e3329ec10d12ef325520b4c106f8d83" target="_top" xlink:title="Register a new client and get its ID.">
<polygon fill="none" stroke="black" points="460,-228 460,-247 588,-247 588,-228 460,-228"/>
<text text-anchor="middle" x="524" y="-235" font-family="Helvetica,sans-Serif" font-size="10.00">Kistler::API::new_client</text>
</a>
</g>
</g>
<!-- Node5&#45;&gt;Node15 -->
<g id="edge16" class="edge">
<title>Node5&#45;&gt;Node15</title>
<path fill="none" stroke="midnightblue" d="M615.2,-225.25C606.19,-226.47 597.02,-227.72 588.15,-228.92"/>
<polygon fill="midnightblue" stroke="midnightblue" points="615.85,-228.69 625.29,-223.88 614.91,-221.76 615.85,-228.69"/>
</g>
<!-- Node16 -->
<g id="node16" class="node">
<title>Node16</title>
<g id="a_node16"><a xlink:href="../../da/d94/class_kistler_1_1_a_p_i.html#a098b5c9b8d99e1759efba5ef119475d9" target="_top" xlink:title="Open a streaming port. The port will be closed if no connection is made within 30 seconds.">
<polygon fill="none" stroke="black" points="474,-178.5 474,-208.5 574,-208.5 574,-178.5 474,-178.5"/>
<text text-anchor="start" x="482" y="-196.5" font-family="Helvetica,sans-Serif" font-size="10.00">Kistler::API::open</text>
<text text-anchor="middle" x="524" y="-185.5" font-family="Helvetica,sans-Serif" font-size="10.00">_stream</text>
</a>
</g>
</g>
<!-- Node5&#45;&gt;Node16 -->
<g id="edge18" class="edge">
<title>Node5&#45;&gt;Node16</title>
<path fill="none" stroke="midnightblue" d="M615.28,-205.76C601.4,-203.88 587.16,-201.94 574.21,-200.18"/>
<polygon fill="midnightblue" stroke="midnightblue" points="614.91,-209.24 625.29,-207.12 615.85,-202.31 614.91,-209.24"/>
</g>
<!-- Node17 -->
<g id="node17" class="node">
<title>Node17</title>
<g id="a_node17"><a xlink:href="../../da/d94/class_kistler_1_1_a_p_i.html#a1241535349db9c80adea109500ba7c79" target="_top" xlink:title="Send a START request to the DAQ.">
<polygon fill="none" stroke="black" points="475,-140 475,-159 573,-159 573,-140 475,-140"/>
<text text-anchor="middle" x="524" y="-147" font-family="Helvetica,sans-Serif" font-size="10.00">Kistler::API::start</text>
</a>
</g>
</g>
<!-- Node5&#45;&gt;Node17 -->
<g id="edge21" class="edge">
<title>Node5&#45;&gt;Node17</title>
<path fill="none" stroke="midnightblue" d="M648.05,-196C630.01,-187.33 608.15,-177.34 588,-169.5 578.38,-165.75 567.73,-162.17 557.97,-159.1"/>
<polygon fill="midnightblue" stroke="midnightblue" points="646.58,-199.18 657.1,-200.39 649.63,-192.88 646.58,-199.18"/>
</g>
<!-- Node18 -->
<g id="node18" class="node">
<title>Node18</title>
<g id="a_node18"><a xlink:href="../../da/d94/class_kistler_1_1_a_p_i.html#a5410196834e57bb4376380d609390e25" target="_top" xlink:title="Send a STOP request to the DAQ.">
<polygon fill="none" stroke="black" points="475.5,-354 475.5,-373 572.5,-373 572.5,-354 475.5,-354"/>
<text text-anchor="middle" x="524" y="-361" font-family="Helvetica,sans-Serif" font-size="10.00">Kistler::API::stop</text>
</a>
</g>
</g>
<!-- Node5&#45;&gt;Node18 -->
<g id="edge23" class="edge">
<title>Node5&#45;&gt;Node18</title>
<path fill="none" stroke="midnightblue" d="M628.38,-236.43C626.84,-237.71 625.37,-239.06 624,-240.5 590.19,-275.85 623.28,-310.62 588,-344.5 583.63,-348.69 578.37,-351.97 572.78,-354.52"/>
<polygon fill="midnightblue" stroke="midnightblue" points="630.44,-239.26 636.61,-230.66 626.42,-233.53 630.44,-239.26"/>
</g>
<!-- Node7 -->
<g id="node7" class="node">
<title>Node7</title>
<g id="a_node7"><a xlink:href="../../da/d97/class_kistler_1_1_d_a_q.html#a4f89e1c93f34ce2b85fe0e10287b8165" target="_top" xlink:title="Thread streaming LSL samples.">
<polygon fill="none" stroke="black" points="287,-156.5 287,-186.5 424,-186.5 424,-156.5 287,-156.5"/>
<text text-anchor="start" x="295" y="-174.5" font-family="Helvetica,sans-Serif" font-size="10.00">Kistler::DAQ::_streaming</text>
<text text-anchor="middle" x="355.5" y="-163.5" font-family="Helvetica,sans-Serif" font-size="10.00">_thread</text>
</a>
</g>
</g>
<!-- Node6&#45;&gt;Node7 -->
<g id="edge6" class="edge">
<title>Node6&#45;&gt;Node7</title>
<path fill="none" stroke="midnightblue" d="M475.28,-124.42C449.65,-134.58 418.49,-146.93 394.52,-156.43"/>
<polygon fill="midnightblue" stroke="midnightblue" points="476.8,-127.58 484.8,-120.64 474.22,-121.07 476.8,-127.58"/>
</g>
<!-- Node8 -->
<g id="node8" class="node">
<title>Node8</title>
<g id="a_node8"><a xlink:href="../../da/d97/class_kistler_1_1_d_a_q.html#a5a7c06429dcad460b083b5f2a2bbda5a" target="_top" xlink:title="Start a LSL streaming thread.">
<polygon fill="none" stroke="black" points="143.5,-238.5 143.5,-268.5 247.5,-268.5 247.5,-238.5 143.5,-238.5"/>
<text text-anchor="start" x="151.5" y="-256.5" font-family="Helvetica,sans-Serif" font-size="10.00">Kistler::DAQ::start</text>
<text text-anchor="middle" x="195.5" y="-245.5" font-family="Helvetica,sans-Serif" font-size="10.00">_streaming</text>
</a>
</g>
</g>
<!-- Node7&#45;&gt;Node8 -->
<g id="edge7" class="edge">
<title>Node7&#45;&gt;Node8</title>
<path fill="none" stroke="midnightblue" d="M316.44,-191.25C288.5,-205.75 251.12,-225.15 225.56,-238.42"/>
<polygon fill="midnightblue" stroke="midnightblue" points="318.26,-194.25 325.52,-186.54 315.03,-188.04 318.26,-194.25"/>
</g>
<!-- Node9 -->
<g id="node9" class="node">
<title>Node9</title>
<g id="a_node9"><a xlink:href="../../da/d97/class_kistler_1_1_d_a_q.html#a1c97f3c5178041e0bf2a836eead0bc8c" target="_top" xlink:title=" ">
<polygon fill="none" stroke="black" points="0,-266 0,-285 104,-285 104,-266 0,-266"/>
<text text-anchor="middle" x="52" y="-273" font-family="Helvetica,sans-Serif" font-size="10.00">Kistler::DAQ::DAQ</text>
</a>
</g>
</g>
<!-- Node8&#45;&gt;Node9 -->
<g id="edge8" class="edge">
<title>Node8&#45;&gt;Node9</title>
<path fill="none" stroke="midnightblue" d="M133.34,-263.01C123.56,-264.53 113.53,-266.09 104.01,-267.57"/>
<polygon fill="midnightblue" stroke="midnightblue" points="134.07,-266.44 143.42,-261.44 133,-259.52 134.07,-266.44"/>
</g>
<!-- Node10&#45;&gt;Node7 -->
<g id="edge10" class="edge">
<title>Node10&#45;&gt;Node7</title>
<path fill="none" stroke="midnightblue" d="M468.3,-299.83C465.41,-298.17 462.63,-296.39 460,-294.5 417.66,-263.98 381.95,-212.42 365.78,-186.84"/>
<polygon fill="midnightblue" stroke="midnightblue" points="466.7,-302.94 477.18,-304.46 469.94,-296.73 466.7,-302.94"/>
</g>
<!-- Node11&#45;&gt;Node12 -->
<g id="edge12" class="edge">
<title>Node11&#45;&gt;Node12</title>
<path fill="none" stroke="midnightblue" d="M459.6,-429.89C437.93,-424.55 414.35,-418.75 395.22,-414.03"/>
<polygon fill="midnightblue" stroke="midnightblue" points="458.86,-433.31 469.4,-432.3 460.53,-426.51 458.86,-433.31"/>
</g>
<!-- Node13 -->
<g id="node13" class="node">
<title>Node13</title>
<g id="a_node13"><a xlink:href="../../da/d97/class_kistler_1_1_d_a_q.html#a291e83bbb30446417bfc54f0b02bf41e" target="_top" xlink:title="Configure the DAQ.">
<polygon fill="none" stroke="black" points="140,-329 140,-348 251,-348 251,-329 140,-329"/>
<text text-anchor="middle" x="195.5" y="-336" font-family="Helvetica,sans-Serif" font-size="10.00">Kistler::DAQ::config</text>
</a>
</g>
</g>
<!-- Node12&#45;&gt;Node13 -->
<g id="edge13" class="edge">
<title>Node12&#45;&gt;Node13</title>
<path fill="none" stroke="midnightblue" d="M305.62,-392.03C299.29,-390.04 292.94,-387.85 287,-385.5 259.84,-374.75 230.09,-358.34 212.38,-348.02"/>
<polygon fill="midnightblue" stroke="midnightblue" points="304.91,-395.47 315.5,-394.99 306.92,-388.76 304.91,-395.47"/>
</g>
<!-- Node13&#45;&gt;Node9 -->
<g id="edge14" class="edge">
<title>Node13&#45;&gt;Node9</title>
<path fill="none" stroke="midnightblue" d="M163.67,-324.77C136.78,-312.8 98.46,-295.74 74.69,-285.16"/>
<polygon fill="midnightblue" stroke="midnightblue" points="162.45,-328.06 173.01,-328.93 165.3,-321.67 162.45,-328.06"/>
</g>
<!-- Node15&#45;&gt;Node7 -->
<g id="edge17" class="edge">
<title>Node15&#45;&gt;Node7</title>
<path fill="none" stroke="midnightblue" d="M478.62,-224.93C472.32,-222.91 465.96,-220.74 460,-218.5 434.88,-209.06 407.24,-196.38 386.84,-186.57"/>
<polygon fill="midnightblue" stroke="midnightblue" points="477.8,-228.34 488.39,-227.97 479.88,-221.66 477.8,-228.34"/>
</g>
<!-- Node16&#45;&gt;Node7 -->
<g id="edge19" class="edge">
<title>Node16&#45;&gt;Node7</title>
<path fill="none" stroke="midnightblue" d="M463.82,-185.68C450.93,-183.98 437.2,-182.16 424.02,-180.42"/>
<polygon fill="midnightblue" stroke="midnightblue" points="463.57,-189.18 473.95,-187.02 464.49,-182.24 463.57,-189.18"/>
</g>
<!-- Node17&#45;&gt;Node7 -->
<g id="edge22" class="edge">
<title>Node17&#45;&gt;Node7</title>
<path fill="none" stroke="midnightblue" d="M464.56,-157.22C451.47,-158.95 437.48,-160.8 424.06,-162.57"/>
<polygon fill="midnightblue" stroke="midnightblue" points="465.39,-160.64 474.84,-155.86 464.47,-153.7 465.39,-160.64"/>
</g>
<!-- Node18&#45;&gt;Node7 -->
<g id="edge24" class="edge">
<title>Node18&#45;&gt;Node7</title>
<path fill="none" stroke="midnightblue" d="M467.42,-349.43C464.82,-347.95 462.32,-346.31 460,-344.5 404.8,-301.46 372.68,-220.08 361.27,-186.53"/>
<polygon fill="midnightblue" stroke="midnightblue" points="466.11,-352.69 476.64,-353.9 469.17,-346.39 466.11,-352.69"/>
</g>
<!-- Node19 -->
<g id="node19" class="node">
<title>Node19</title>
<g id="a_node19"><a xlink:href="../../da/d97/class_kistler_1_1_d_a_q.html#a95fa86f19c6c063f55b657a7f83270da" target="_top" xlink:title="Stop the streaming thread.">
<polygon fill="none" stroke="black" points="304,-345.5 304,-375.5 407,-375.5 407,-345.5 304,-345.5"/>
<text text-anchor="start" x="312" y="-363.5" font-family="Helvetica,sans-Serif" font-size="10.00">Kistler::DAQ::stop</text>
<text text-anchor="middle" x="355.5" y="-352.5" font-family="Helvetica,sans-Serif" font-size="10.00">_streaming</text>
</a>
</g>
</g>
<!-- Node18&#45;&gt;Node19 -->
<g id="edge25" class="edge">
<title>Node18&#45;&gt;Node19</title>
<path fill="none" stroke="midnightblue" d="M465.04,-362.46C446.18,-362.12 425.4,-361.74 407.12,-361.41"/>
<polygon fill="midnightblue" stroke="midnightblue" points="465.23,-365.96 475.29,-362.64 465.35,-358.96 465.23,-365.96"/>
</g>
<!-- Node20&#45;&gt;Node7 -->
<g id="edge27" class="edge">
<title>Node20&#45;&gt;Node7</title>
<path fill="none" stroke="midnightblue" d="M650.5,-138.12C641.53,-132.52 632.15,-126.14 624,-119.5 605.96,-104.81 609.37,-90.69 588,-81.5 535.74,-59.02 513.28,-61.57 460,-81.5 419.85,-96.51 384.99,-134.91 367.83,-156.38"/>
<polygon fill="midnightblue" stroke="midnightblue" points="648.93,-141.26 659.29,-143.45 652.56,-135.27 648.93,-141.26"/>
</g>
<!-- Node21&#45;&gt;Node7 -->
<g id="edge29" class="edge">
<title>Node21&#45;&gt;Node7</title>
<path fill="none" stroke="midnightblue" d="M645.21,-75.47C598.28,-56.98 520.75,-35.25 460,-61.5 414.75,-81.06 380.14,-131.21 364.95,-156.48"/>
<polygon fill="midnightblue" stroke="midnightblue" points="644.16,-78.82 654.74,-79.34 646.8,-72.34 644.16,-78.82"/>
</g>
<!-- Node22&#45;&gt;Node7 -->
<g id="edge31" class="edge">
<title>Node22&#45;&gt;Node7</title>
<path fill="none" stroke="midnightblue" d="M625.63,-11.36C577.66,-10.84 510.8,-16.28 460,-44.5 412.51,-70.88 378.27,-128.59 363.94,-156.2"/>
<polygon fill="midnightblue" stroke="midnightblue" points="625.81,-14.87 635.88,-11.57 625.95,-7.87 625.81,-14.87"/>
</g>
</g>
</svg>
