<?xml version="1.0" encoding="UTF-8" standalone="no"?>
<!DOCTYPE svg PUBLIC "-//W3C//DTD SVG 1.1//EN"
 "http://www.w3.org/Graphics/SVG/1.1/DTD/svg11.dtd">
<!-- Generated by graphviz version 2.43.0 (0)
 -->
<!-- Title: Communication::Client::writeS Pages: 1 -->
<svg width="924pt" height="384pt"
 viewBox="0.00 0.00 924.00 384.00" xmlns="http://www.w3.org/2000/svg" xmlns:xlink="http://www.w3.org/1999/xlink">
<g id="graph0" class="graph" transform="scale(1 1) rotate(0) translate(4 380)">
<title>Communication::Client::writeS</title>
<!-- Node1 -->
<g id="node1" class="node">
<title>Node1</title>
<g id="a_node1"><a xlink:title="writeS write the com interface.">
<polygon fill="#bfbfbf" stroke="black" points="788,-230.5 788,-260.5 916,-260.5 916,-230.5 788,-230.5"/>
<text text-anchor="start" x="796" y="-248.5" font-family="Helvetica,sans-Serif" font-size="10.00">Communication::Client</text>
<text text-anchor="middle" x="852" y="-237.5" font-family="Helvetica,sans-Serif" font-size="10.00">::writeS</text>
</a>
</g>
</g>
<!-- Node2 -->
<g id="node2" class="node">
<title>Node2</title>
<g id="a_node2"><a xlink:href="../../d7/d60/class_communication_1_1_h_t_t_p__client.html#a6c2e964c4510d91b79ff9303b672582e" target="_top" xlink:title=" ">
<polygon fill="none" stroke="black" points="625.5,-301.5 625.5,-331.5 750.5,-331.5 750.5,-301.5 625.5,-301.5"/>
<text text-anchor="start" x="633.5" y="-319.5" font-family="Helvetica,sans-Serif" font-size="10.00">Communication::HTTP</text>
<text text-anchor="middle" x="688" y="-308.5" font-family="Helvetica,sans-Serif" font-size="10.00">_client::get</text>
</a>
</g>
</g>
<!-- Node1&#45;&gt;Node2 -->
<g id="edge1" class="edge">
<title>Node1&#45;&gt;Node2</title>
<path fill="none" stroke="midnightblue" d="M811.87,-264.95C793.8,-273.71 771.97,-283.97 752,-292.5 744.9,-295.53 737.27,-298.6 729.86,-301.48"/>
<polygon fill="midnightblue" stroke="midnightblue" points="813.5,-268.05 820.95,-260.53 810.43,-261.76 813.5,-268.05"/>
</g>
<!-- Node3 -->
<g id="node3" class="node">
<title>Node3</title>
<g id="a_node3"><a xlink:href="../../df/dcd/class_communication_1_1_client.html#a2508e02531cf7e8dd258677b7b1490e9" target="_top" xlink:title=" ">
<polygon fill="none" stroke="black" points="624,-252.5 624,-282.5 752,-282.5 752,-252.5 624,-252.5"/>
<text text-anchor="start" x="632" y="-270.5" font-family="Helvetica,sans-Serif" font-size="10.00">Communication::Client</text>
<text text-anchor="middle" x="688" y="-259.5" font-family="Helvetica,sans-Serif" font-size="10.00">::get_stat</text>
</a>
</g>
</g>
<!-- Node1&#45;&gt;Node3 -->
<g id="edge2" class="edge">
<title>Node1&#45;&gt;Node3</title>
<path fill="none" stroke="midnightblue" d="M777.91,-255.43C769.32,-256.59 760.62,-257.77 752.19,-258.92"/>
<polygon fill="midnightblue" stroke="midnightblue" points="778.46,-258.88 787.9,-254.07 777.52,-251.95 778.46,-258.88"/>
</g>
<!-- Node4 -->
<g id="node4" class="node">
<title>Node4</title>
<g id="a_node4"><a xlink:href="../../d4/d7c/lib_2com__client_2src_2main_8cpp.html#a3c04138a5bfe5d72780bb7e82a18e627" target="_top" xlink:title=" ">
<polygon fill="none" stroke="black" points="667.5,-214 667.5,-233 708.5,-233 708.5,-214 667.5,-214"/>
<text text-anchor="middle" x="688" y="-221" font-family="Helvetica,sans-Serif" font-size="10.00">main</text>
</a>
</g>
</g>
<!-- Node1&#45;&gt;Node4 -->
<g id="edge3" class="edge">
<title>Node1&#45;&gt;Node4</title>
<path fill="none" stroke="midnightblue" d="M777.87,-235.57C752.47,-232.12 726.04,-228.53 708.67,-226.17"/>
<polygon fill="midnightblue" stroke="midnightblue" points="777.52,-239.05 787.9,-236.93 778.46,-232.12 777.52,-239.05"/>
</g>
<!-- Node5 -->
<g id="node5" class="node">
<title>Node5</title>
<g id="a_node5"><a xlink:href="../../d7/d60/class_communication_1_1_h_t_t_p__client.html#a241e78ccad7bcbc7597cb2dde7d7e402" target="_top" xlink:title=" ">
<polygon fill="none" stroke="black" points="625.5,-164.5 625.5,-194.5 750.5,-194.5 750.5,-164.5 625.5,-164.5"/>
<text text-anchor="start" x="633.5" y="-182.5" font-family="Helvetica,sans-Serif" font-size="10.00">Communication::HTTP</text>
<text text-anchor="middle" x="688" y="-171.5" font-family="Helvetica,sans-Serif" font-size="10.00">_client::post</text>
</a>
</g>
</g>
<!-- Node1&#45;&gt;Node5 -->
<g id="edge4" class="edge">
<title>Node1&#45;&gt;Node5</title>
<path fill="none" stroke="midnightblue" d="M805.29,-226.4C788.55,-219.45 769.44,-211.57 752,-204.5 744.04,-201.27 735.5,-197.85 727.35,-194.61"/>
<polygon fill="midnightblue" stroke="midnightblue" points="804.27,-229.77 814.85,-230.38 806.96,-223.31 804.27,-229.77"/>
</g>
<!-- Node6 -->
<g id="node6" class="node">
<title>Node6</title>
<g id="a_node6"><a xlink:href="../../da/d94/class_kistler_1_1_a_p_i.html#a46c24eb334e1af47b3b17408918c5491" target="_top" xlink:title="Close a streaming port.">
<polygon fill="none" stroke="black" points="473.5,-257.5 473.5,-287.5 574.5,-287.5 574.5,-257.5 473.5,-257.5"/>
<text text-anchor="start" x="481.5" y="-275.5" font-family="Helvetica,sans-Serif" font-size="10.00">Kistler::API::close</text>
<text text-anchor="middle" x="524" y="-264.5" font-family="Helvetica,sans-Serif" font-size="10.00">_stream</text>
</a>
</g>
</g>
<!-- Node5&#45;&gt;Node6 -->
<g id="edge5" class="edge">
<title>Node5&#45;&gt;Node6</title>
<path fill="none" stroke="midnightblue" d="M631.85,-199.38C629.12,-200.98 626.48,-202.68 624,-204.5 603.6,-219.41 608.5,-233.73 588,-248.5 583.35,-251.85 578.17,-254.8 572.83,-257.38"/>
<polygon fill="midnightblue" stroke="midnightblue" points="633.61,-202.4 640.81,-194.63 630.33,-196.22 633.61,-202.4"/>
</g>
<!-- Node10 -->
<g id="node10" class="node">
<title>Node10</title>
<g id="a_node10"><a xlink:href="../../da/d94/class_kistler_1_1_a_p_i.html#a5a1c3d8d1e5b6f496726293f09cc91c9" target="_top" xlink:title="Unregister a client.">
<polygon fill="none" stroke="black" points="470.5,-208.5 470.5,-238.5 577.5,-238.5 577.5,-208.5 470.5,-208.5"/>
<text text-anchor="start" x="478.5" y="-226.5" font-family="Helvetica,sans-Serif" font-size="10.00">Kistler::API::delete</text>
<text text-anchor="middle" x="524" y="-215.5" font-family="Helvetica,sans-Serif" font-size="10.00">_client</text>
</a>
</g>
</g>
<!-- Node5&#45;&gt;Node10 -->
<g id="edge9" class="edge">
<title>Node5&#45;&gt;Node10</title>
<path fill="none" stroke="midnightblue" d="M621.69,-197.24C607.03,-201.22 591.65,-205.4 577.59,-209.22"/>
<polygon fill="midnightblue" stroke="midnightblue" points="622.97,-200.52 631.7,-194.52 621.13,-193.76 622.97,-200.52"/>
</g>
<!-- Node11 -->
<g id="node11" class="node">
<title>Node11</title>
<g id="a_node11"><a xlink:href="../../da/d94/class_kistler_1_1_a_p_i.html#aeb67a2504717300d59713593da6966e6" target="_top" xlink:title="Enable or disable the measurement configuration of the DAQ. To set a new configuration,...">
<polygon fill="none" stroke="black" points="469.5,-345.5 469.5,-375.5 578.5,-375.5 578.5,-345.5 469.5,-345.5"/>
<text text-anchor="start" x="477.5" y="-363.5" font-family="Helvetica,sans-Serif" font-size="10.00">Kistler::API::enable</text>
<text text-anchor="middle" x="524" y="-352.5" font-family="Helvetica,sans-Serif" font-size="10.00">_config</text>
</a>
</g>
</g>
<!-- Node5&#45;&gt;Node11 -->
<g id="edge11" class="edge">
<title>Node5&#45;&gt;Node11</title>
<path fill="none" stroke="midnightblue" d="M627.81,-200.74C626.47,-201.93 625.19,-203.18 624,-204.5 584.92,-247.68 625.62,-286.04 588,-330.5 582.91,-336.51 576.35,-341.4 569.38,-345.36"/>
<polygon fill="midnightblue" stroke="midnightblue" points="630.12,-203.39 636.09,-194.64 625.96,-197.75 630.12,-203.39"/>
</g>
<!-- Node12 -->
<g id="node12" class="node">
<title>Node12</title>
<g id="a_node12"><a xlink:href="../../da/d94/class_kistler_1_1_a_p_i.html#aadc38197a3536983e07d1687fbe0e1d0" target="_top" xlink:title="Set the configuration of the DAQ.">
<polygon fill="none" stroke="black" points="293,-307 293,-326 418,-326 418,-307 293,-307"/>
<text text-anchor="middle" x="355.5" y="-314" font-family="Helvetica,sans-Serif" font-size="10.00">Kistler::API::set_config</text>
</a>
</g>
</g>
<!-- Node5&#45;&gt;Node12 -->
<g id="edge20" class="edge">
<title>Node5&#45;&gt;Node12</title>
<path fill="none" stroke="midnightblue" d="M628.55,-200.41C626.95,-201.7 625.43,-203.06 624,-204.5 592.79,-235.97 623.51,-270.97 588,-297.5 534.54,-337.45 453.45,-333.68 402.79,-326.03"/>
<polygon fill="midnightblue" stroke="midnightblue" points="630.77,-203.13 637.07,-194.61 626.83,-197.35 630.77,-203.13"/>
</g>
<!-- Node14 -->
<g id="node14" class="node">
<title>Node14</title>
<g id="a_node14"><a xlink:href="../../da/d94/class_kistler_1_1_a_p_i.html#ad3884e4543f20438744b31b5f1e2cb41" target="_top" xlink:title="Get the value of a parameter of the DAQ via the REST API.">
<polygon fill="none" stroke="black" points="460,-170 460,-189 588,-189 588,-170 460,-170"/>
<text text-anchor="middle" x="524" y="-177" font-family="Helvetica,sans-Serif" font-size="10.00">Kistler::API::get_param</text>
</a>
</g>
</g>
<!-- Node5&#45;&gt;Node14 -->
<g id="edge15" class="edge">
<title>Node5&#45;&gt;Node14</title>
<path fill="none" stroke="midnightblue" d="M615.2,-179.5C606.19,-179.5 597.02,-179.5 588.15,-179.5"/>
<polygon fill="midnightblue" stroke="midnightblue" points="615.29,-183 625.29,-179.5 615.29,-176 615.29,-183"/>
</g>
<!-- Node15 -->
<g id="node15" class="node">
<title>Node15</title>
<g id="a_node15"><a xlink:href="../../da/d94/class_kistler_1_1_a_p_i.html#a0e3329ec10d12ef325520b4c106f8d83" target="_top" xlink:title="Register a new client and get its ID.">
<polygon fill="none" stroke="black" points="460,-132 460,-151 588,-151 588,-132 460,-132"/>
<text text-anchor="middle" x="524" y="-139" font-family="Helvetica,sans-Serif" font-size="10.00">Kistler::API::new_client</text>
</a>
</g>
</g>
<!-- Node5&#45;&gt;Node15 -->
<g id="edge16" class="edge">
<title>Node5&#45;&gt;Node15</title>
<path fill="none" stroke="midnightblue" d="M615.41,-162.71C598.48,-158.74 581,-154.64 565.97,-151.11"/>
<polygon fill="midnightblue" stroke="midnightblue" points="614.76,-166.15 625.29,-165.03 616.36,-159.33 614.76,-166.15"/>
</g>
<!-- Node16 -->
<g id="node16" class="node">
<title>Node16</title>
<g id="a_node16"><a xlink:href="../../da/d94/class_kistler_1_1_a_p_i.html#a098b5c9b8d99e1759efba5ef119475d9" target="_top" xlink:title="Open a streaming port. The port will be closed if no connection is made within 30 seconds.">
<polygon fill="none" stroke="black" points="474,-82.5 474,-112.5 574,-112.5 574,-82.5 474,-82.5"/>
<text text-anchor="start" x="482" y="-100.5" font-family="Helvetica,sans-Serif" font-size="10.00">Kistler::API::open</text>
<text text-anchor="middle" x="524" y="-89.5" font-family="Helvetica,sans-Serif" font-size="10.00">_stream</text>
</a>
</g>
</g>
<!-- Node5&#45;&gt;Node16 -->
<g id="edge18" class="edge">
<title>Node5&#45;&gt;Node16</title>
<path fill="none" stroke="midnightblue" d="M654.54,-159.22C635.52,-147.74 610.82,-133.52 588,-122.5 580.8,-119.02 572.97,-115.62 565.37,-112.51"/>
<polygon fill="midnightblue" stroke="midnightblue" points="652.76,-162.23 663.12,-164.44 656.4,-156.25 652.76,-162.23"/>
</g>
<!-- Node17 -->
<g id="node17" class="node">
<title>Node17</title>
<g id="a_node17"><a xlink:href="../../da/d94/class_kistler_1_1_a_p_i.html#a1241535349db9c80adea109500ba7c79" target="_top" xlink:title="Send a START request to the DAQ.">
<polygon fill="none" stroke="black" points="475,-44 475,-63 573,-63 573,-44 475,-44"/>
<text text-anchor="middle" x="524" y="-51" font-family="Helvetica,sans-Serif" font-size="10.00">Kistler::API::start</text>
</a>
</g>
</g>
<!-- Node5&#45;&gt;Node17 -->
<g id="edge21" class="edge">
<title>Node5&#45;&gt;Node17</title>
<path fill="none" stroke="midnightblue" d="M670.74,-155.98C653.01,-131.99 622.51,-95.3 588,-73.5 581.21,-69.21 573.42,-65.77 565.69,-63.04"/>
<polygon fill="midnightblue" stroke="midnightblue" points="667.98,-158.13 676.68,-164.19 673.65,-154.03 667.98,-158.13"/>
</g>
<!-- Node18 -->
<g id="node18" class="node">
<title>Node18</title>
<g id="a_node18"><a xlink:href="../../da/d94/class_kistler_1_1_a_p_i.html#a5410196834e57bb4376380d609390e25" target="_top" xlink:title="Send a STOP request to the DAQ.">
<polygon fill="none" stroke="black" points="475.5,-6 475.5,-25 572.5,-25 572.5,-6 475.5,-6"/>
<text text-anchor="middle" x="524" y="-13" font-family="Helvetica,sans-Serif" font-size="10.00">Kistler::API::stop</text>
</a>
</g>
</g>
<!-- Node5&#45;&gt;Node18 -->
<g id="edge23" class="edge">
<title>Node5&#45;&gt;Node18</title>
<path fill="none" stroke="midnightblue" d="M676.67,-155.06C661.77,-122.73 631.23,-66.17 588,-34.5 582.75,-30.65 576.71,-27.57 570.5,-25.12"/>
<polygon fill="midnightblue" stroke="midnightblue" points="673.51,-156.56 680.79,-164.25 679.9,-153.7 673.51,-156.56"/>
</g>
<!-- Node7 -->
<g id="node7" class="node">
<title>Node7</title>
<g id="a_node7"><a xlink:href="../../da/d97/class_kistler_1_1_d_a_q.html#a4f89e1c93f34ce2b85fe0e10287b8165" target="_top" xlink:title="Thread streaming LSL samples.">
<polygon fill="none" stroke="black" points="287,-126.5 287,-156.5 424,-156.5 424,-126.5 287,-126.5"/>
<text text-anchor="start" x="295" y="-144.5" font-family="Helvetica,sans-Serif" font-size="10.00">Kistler::DAQ::_streaming</text>
<text text-anchor="middle" x="355.5" y="-133.5" font-family="Helvetica,sans-Serif" font-size="10.00">_thread</text>
</a>
</g>
</g>
<!-- Node6&#45;&gt;Node7 -->
<g id="edge6" class="edge">
<title>Node6&#45;&gt;Node7</title>
<path fill="none" stroke="midnightblue" d="M467.45,-252.97C464.88,-251.56 462.38,-250.07 460,-248.5 420.73,-222.6 384.99,-179.45 367.6,-156.66"/>
<polygon fill="midnightblue" stroke="midnightblue" points="465.91,-256.11 476.42,-257.45 469.04,-249.85 465.91,-256.11"/>
</g>
<!-- Node8 -->
<g id="node8" class="node">
<title>Node8</title>
<g id="a_node8"><a xlink:href="../../da/d97/class_kistler_1_1_d_a_q.html#a5a7c06429dcad460b083b5f2a2bbda5a" target="_top" xlink:title="Start a LSL streaming thread.">
<polygon fill="none" stroke="black" points="143.5,-159.5 143.5,-189.5 247.5,-189.5 247.5,-159.5 143.5,-159.5"/>
<text text-anchor="start" x="151.5" y="-177.5" font-family="Helvetica,sans-Serif" font-size="10.00">Kistler::DAQ::start</text>
<text text-anchor="middle" x="195.5" y="-166.5" font-family="Helvetica,sans-Serif" font-size="10.00">_streaming</text>
</a>
</g>
</g>
<!-- Node7&#45;&gt;Node8 -->
<g id="edge7" class="edge">
<title>Node7&#45;&gt;Node8</title>
<path fill="none" stroke="midnightblue" d="M276.74,-157.74C266.87,-159.8 256.97,-161.87 247.66,-163.81"/>
<polygon fill="midnightblue" stroke="midnightblue" points="277.5,-161.16 286.58,-155.69 276.07,-154.3 277.5,-161.16"/>
</g>
<!-- Node9 -->
<g id="node9" class="node">
<title>Node9</title>
<g id="a_node9"><a xlink:href="../../da/d97/class_kistler_1_1_d_a_q.html#a1c97f3c5178041e0bf2a836eead0bc8c" target="_top" xlink:title=" ">
<polygon fill="none" stroke="black" points="0,-187 0,-206 104,-206 104,-187 0,-187"/>
<text text-anchor="middle" x="52" y="-194" font-family="Helvetica,sans-Serif" font-size="10.00">Kistler::DAQ::DAQ</text>
</a>
</g>
</g>
<!-- Node8&#45;&gt;Node9 -->
<g id="edge8" class="edge">
<title>Node8&#45;&gt;Node9</title>
<path fill="none" stroke="midnightblue" d="M133.34,-184.01C123.56,-185.53 113.53,-187.09 104.01,-188.57"/>
<polygon fill="midnightblue" stroke="midnightblue" points="134.07,-187.44 143.42,-182.44 133,-180.52 134.07,-187.44"/>
</g>
<!-- Node10&#45;&gt;Node7 -->
<g id="edge10" class="edge">
<title>Node10&#45;&gt;Node7</title>
<path fill="none" stroke="midnightblue" d="M473.35,-204.48C468.81,-202.54 464.3,-200.53 460,-198.5 432.72,-185.64 402.65,-168.75 381.98,-156.71"/>
<polygon fill="midnightblue" stroke="midnightblue" points="472.11,-207.75 482.68,-208.38 474.8,-201.29 472.11,-207.75"/>
</g>
<!-- Node11&#45;&gt;Node12 -->
<g id="edge12" class="edge">
<title>Node11&#45;&gt;Node12</title>
<path fill="none" stroke="midnightblue" d="M459.51,-343.72C436.88,-337.74 412.18,-331.21 392.64,-326.05"/>
<polygon fill="midnightblue" stroke="midnightblue" points="458.84,-347.16 469.4,-346.34 460.63,-340.4 458.84,-347.16"/>
</g>
<!-- Node13 -->
<g id="node13" class="node">
<title>Node13</title>
<g id="a_node13"><a xlink:href="../../da/d97/class_kistler_1_1_d_a_q.html#a291e83bbb30446417bfc54f0b02bf41e" target="_top" xlink:title="Configure the DAQ.">
<polygon fill="none" stroke="black" points="140,-274 140,-293 251,-293 251,-274 140,-274"/>
<text text-anchor="middle" x="195.5" y="-281" font-family="Helvetica,sans-Serif" font-size="10.00">Kistler::DAQ::config</text>
</a>
</g>
</g>
<!-- Node12&#45;&gt;Node13 -->
<g id="edge13" class="edge">
<title>Node12&#45;&gt;Node13</title>
<path fill="none" stroke="midnightblue" d="M298.98,-304.9C280.37,-301.02 259.86,-296.73 242.1,-293.02"/>
<polygon fill="midnightblue" stroke="midnightblue" points="298.3,-308.34 308.8,-306.96 299.73,-301.48 298.3,-308.34"/>
</g>
<!-- Node13&#45;&gt;Node9 -->
<g id="edge14" class="edge">
<title>Node13&#45;&gt;Node9</title>
<path fill="none" stroke="midnightblue" d="M170.09,-268.49C141.03,-250.62 93.34,-221.3 68.75,-206.19"/>
<polygon fill="midnightblue" stroke="midnightblue" points="168.46,-271.6 178.82,-273.86 172.13,-265.64 168.46,-271.6"/>
</g>
<!-- Node15&#45;&gt;Node7 -->
<g id="edge17" class="edge">
<title>Node15&#45;&gt;Node7</title>
<path fill="none" stroke="midnightblue" d="M449.42,-141.5C441.03,-141.5 432.49,-141.5 424.18,-141.5"/>
<polygon fill="midnightblue" stroke="midnightblue" points="449.58,-145 459.58,-141.5 449.58,-138 449.58,-145"/>
</g>
<!-- Node16&#45;&gt;Node7 -->
<g id="edge19" class="edge">
<title>Node16&#45;&gt;Node7</title>
<path fill="none" stroke="midnightblue" d="M463.92,-113.11C447.5,-117.45 429.7,-122.16 413.41,-126.46"/>
<polygon fill="midnightblue" stroke="midnightblue" points="465.17,-116.4 473.95,-110.46 463.38,-109.63 465.17,-116.4"/>
</g>
<!-- Node17&#45;&gt;Node7 -->
<g id="edge22" class="edge">
<title>Node17&#45;&gt;Node7</title>
<path fill="none" stroke="midnightblue" d="M477.18,-66.41C471.3,-68.54 465.44,-70.91 460,-73.5 428.94,-88.29 396.28,-111.15 376.14,-126.22"/>
<polygon fill="midnightblue" stroke="midnightblue" points="478.69,-69.59 487.03,-63.05 476.43,-62.97 478.69,-69.59"/>
</g>
<!-- Node18&#45;&gt;Node7 -->
<g id="edge24" class="edge">
<title>Node18&#45;&gt;Node7</title>
<path fill="none" stroke="midnightblue" d="M470.84,-28.88C467.07,-30.55 463.41,-32.42 460,-34.5 419.62,-59.12 384.08,-103.22 367.1,-126.37"/>
<polygon fill="midnightblue" stroke="midnightblue" points="472.37,-32.04 480.38,-25.11 469.79,-25.53 472.37,-32.04"/>
</g>
<!-- Node19 -->
<g id="node19" class="node">
<title>Node19</title>
<g id="a_node19"><a xlink:href="../../da/d97/class_kistler_1_1_d_a_q.html#a95fa86f19c6c063f55b657a7f83270da" target="_top" xlink:title="Stop the streaming thread.">
<polygon fill="none" stroke="black" points="304,-0.5 304,-30.5 407,-30.5 407,-0.5 304,-0.5"/>
<text text-anchor="start" x="312" y="-18.5" font-family="Helvetica,sans-Serif" font-size="10.00">Kistler::DAQ::stop</text>
<text text-anchor="middle" x="355.5" y="-7.5" font-family="Helvetica,sans-Serif" font-size="10.00">_streaming</text>
</a>
</g>
</g>
<!-- Node18&#45;&gt;Node19 -->
<g id="edge25" class="edge">
<title>Node18&#45;&gt;Node19</title>
<path fill="none" stroke="midnightblue" d="M465.04,-15.5C446.18,-15.5 425.4,-15.5 407.12,-15.5"/>
<polygon fill="midnightblue" stroke="midnightblue" points="465.29,-19 475.29,-15.5 465.29,-12 465.29,-19"/>
</g>
</g>
</svg>
