<?xml version="1.0" encoding="UTF-8" standalone="no"?>
<!DOCTYPE svg PUBLIC "-//W3C//DTD SVG 1.1//EN"
 "http://www.w3.org/Graphics/SVG/1.1/DTD/svg11.dtd">
<!-- Generated by graphviz version 2.43.0 (0)
 -->
<!-- Title: /home/aightech/dev/kistler_DAQ/lib/com_client/include/com_client.hpp Pages: 1 -->
<svg width="467pt" height="162pt"
 viewBox="0.00 0.00 466.50 162.00" xmlns="http://www.w3.org/2000/svg" xmlns:xlink="http://www.w3.org/1999/xlink">
<g id="graph0" class="graph" transform="scale(1 1) rotate(0) translate(4 158)">
<title>/home/aightech/dev/kistler_DAQ/lib/com_client/include/com_client.hpp</title>
<!-- Node1 -->
<g id="node1" class="node">
<title>Node1</title>
<g id="a_node1"><a xlink:title=" ">
<polygon fill="#bfbfbf" stroke="black" points="26,-112.5 26,-153.5 190,-153.5 190,-112.5 26,-112.5"/>
<text text-anchor="start" x="34" y="-141.5" font-family="Helvetica,sans-Serif" font-size="10.00">/home/aightech/dev</text>
<text text-anchor="start" x="34" y="-130.5" font-family="Helvetica,sans-Serif" font-size="10.00">/kistler_DAQ/lib/com</text>
<text text-anchor="middle" x="108" y="-119.5" font-family="Helvetica,sans-Serif" font-size="10.00">_client/include/com_client.hpp</text>
</a>
</g>
</g>
<!-- Node2 -->
<g id="node2" class="node">
<title>Node2</title>
<g id="a_node2"><a xlink:title=" ">
<polygon fill="none" stroke="#bfbfbf" points="0,-0.5 0,-19.5 60,-19.5 60,-0.5 0,-0.5"/>
<text text-anchor="middle" x="30" y="-7.5" font-family="Helvetica,sans-Serif" font-size="10.00">iostream</text>
</a>
</g>
</g>
<!-- Node1&#45;&gt;Node2 -->
<g id="edge1" class="edge">
<title>Node1&#45;&gt;Node2</title>
<path fill="none" stroke="midnightblue" d="M47.4,-112.45C30.74,-103.98 14.62,-92.18 5,-76 -4.12,-60.65 5.59,-41.39 15.45,-27.83"/>
<polygon fill="midnightblue" stroke="midnightblue" points="18.31,-29.86 21.76,-19.84 12.82,-25.52 18.31,-29.86"/>
</g>
<!-- Node3 -->
<g id="node3" class="node">
<title>Node3</title>
<g id="a_node3"><a xlink:title=" ">
<polygon fill="none" stroke="#bfbfbf" points="14.5,-56.5 14.5,-75.5 65.5,-75.5 65.5,-56.5 14.5,-56.5"/>
<text text-anchor="middle" x="40" y="-63.5" font-family="Helvetica,sans-Serif" font-size="10.00">math.h</text>
</a>
</g>
</g>
<!-- Node1&#45;&gt;Node3 -->
<g id="edge2" class="edge">
<title>Node1&#45;&gt;Node3</title>
<path fill="none" stroke="midnightblue" d="M87.6,-112.5C77.67,-103.01 65.9,-91.76 56.54,-82.81"/>
<polygon fill="midnightblue" stroke="midnightblue" points="58.7,-80.03 49.05,-75.65 53.86,-85.09 58.7,-80.03"/>
</g>
<!-- Node4 -->
<g id="node4" class="node">
<title>Node4</title>
<g id="a_node4"><a xlink:title=" ">
<polygon fill="none" stroke="#bfbfbf" points="84,-56.5 84,-75.5 132,-75.5 132,-56.5 84,-56.5"/>
<text text-anchor="middle" x="108" y="-63.5" font-family="Helvetica,sans-Serif" font-size="10.00">mutex</text>
</a>
</g>
</g>
<!-- Node1&#45;&gt;Node4 -->
<g id="edge3" class="edge">
<title>Node1&#45;&gt;Node4</title>
<path fill="none" stroke="midnightblue" d="M108,-112.5C108,-104.07 108,-94.24 108,-85.87"/>
<polygon fill="midnightblue" stroke="midnightblue" points="111.5,-85.65 108,-75.65 104.5,-85.65 111.5,-85.65"/>
</g>
<!-- Node5 -->
<g id="node5" class="node">
<title>Node5</title>
<g id="a_node5"><a xlink:title=" ">
<polygon fill="none" stroke="#bfbfbf" points="150.5,-56.5 150.5,-75.5 215.5,-75.5 215.5,-56.5 150.5,-56.5"/>
<text text-anchor="middle" x="183" y="-63.5" font-family="Helvetica,sans-Serif" font-size="10.00">stdexcept</text>
</a>
</g>
</g>
<!-- Node1&#45;&gt;Node5 -->
<g id="edge4" class="edge">
<title>Node1&#45;&gt;Node5</title>
<path fill="none" stroke="midnightblue" d="M130.5,-112.5C141.67,-102.82 154.96,-91.3 165.38,-82.27"/>
<polygon fill="midnightblue" stroke="midnightblue" points="167.75,-84.85 173.02,-75.65 163.17,-79.56 167.75,-84.85"/>
</g>
<!-- Node6 -->
<g id="node6" class="node">
<title>Node6</title>
<g id="a_node6"><a xlink:href="../../df/df2/str_a_n_s_iseq_8hpp.html" target="_top" xlink:title=" ">
<polygon fill="none" stroke="black" points="233.5,-56.5 233.5,-75.5 324.5,-75.5 324.5,-56.5 233.5,-56.5"/>
<text text-anchor="middle" x="279" y="-63.5" font-family="Helvetica,sans-Serif" font-size="10.00">strANSIseq.hpp</text>
</a>
</g>
</g>
<!-- Node1&#45;&gt;Node6 -->
<g id="edge5" class="edge">
<title>Node1&#45;&gt;Node6</title>
<path fill="none" stroke="midnightblue" d="M159.31,-112.5C187.67,-101.72 222.04,-88.65 246.66,-79.29"/>
<polygon fill="midnightblue" stroke="midnightblue" points="248.13,-82.48 256.24,-75.65 245.65,-75.93 248.13,-82.48"/>
</g>
<!-- Node6&#45;&gt;Node2 -->
<g id="edge7" class="edge">
<title>Node6&#45;&gt;Node2</title>
<path fill="none" stroke="midnightblue" d="M239.55,-56.44C193.27,-46.41 116.96,-29.86 70.31,-19.74"/>
<polygon fill="midnightblue" stroke="midnightblue" points="70.78,-16.26 60.26,-17.56 69.29,-23.1 70.78,-16.26"/>
</g>
<!-- Node7 -->
<g id="node7" class="node">
<title>Node7</title>
<g id="a_node7"><a xlink:title=" ">
<polygon fill="none" stroke="#bfbfbf" points="121.5,-0.5 121.5,-19.5 174.5,-19.5 174.5,-0.5 121.5,-0.5"/>
<text text-anchor="middle" x="148" y="-7.5" font-family="Helvetica,sans-Serif" font-size="10.00">cstdarg</text>
</a>
</g>
</g>
<!-- Node6&#45;&gt;Node7 -->
<g id="edge6" class="edge">
<title>Node6&#45;&gt;Node7</title>
<path fill="none" stroke="midnightblue" d="M258.24,-56.44C236.68,-47.56 202.74,-33.56 178.21,-23.45"/>
<polygon fill="midnightblue" stroke="midnightblue" points="179.24,-20.09 168.66,-19.52 176.57,-26.56 179.24,-20.09"/>
</g>
<!-- Node8 -->
<g id="node8" class="node">
<title>Node8</title>
<g id="a_node8"><a xlink:title=" ">
<polygon fill="none" stroke="#bfbfbf" points="193,-0.5 193,-19.5 237,-19.5 237,-0.5 193,-0.5"/>
<text text-anchor="middle" x="215" y="-7.5" font-family="Helvetica,sans-Serif" font-size="10.00">string</text>
</a>
</g>
</g>
<!-- Node6&#45;&gt;Node8 -->
<g id="edge8" class="edge">
<title>Node6&#45;&gt;Node8</title>
<path fill="none" stroke="midnightblue" d="M268.72,-56.32C259.16,-48.26 244.72,-36.08 233.22,-26.37"/>
<polygon fill="midnightblue" stroke="midnightblue" points="235.37,-23.61 225.47,-19.83 230.86,-28.96 235.37,-23.61"/>
</g>
<!-- Node9 -->
<g id="node9" class="node">
<title>Node9</title>
<g id="a_node9"><a xlink:title=" ">
<polygon fill="none" stroke="#bfbfbf" points="255.5,-0.5 255.5,-19.5 302.5,-19.5 302.5,-0.5 255.5,-0.5"/>
<text text-anchor="middle" x="279" y="-7.5" font-family="Helvetica,sans-Serif" font-size="10.00">vector</text>
</a>
</g>
</g>
<!-- Node6&#45;&gt;Node9 -->
<g id="edge9" class="edge">
<title>Node6&#45;&gt;Node9</title>
<path fill="none" stroke="midnightblue" d="M279,-56.08C279,-49.01 279,-38.86 279,-29.99"/>
<polygon fill="midnightblue" stroke="midnightblue" points="282.5,-29.75 279,-19.75 275.5,-29.75 282.5,-29.75"/>
</g>
<!-- Node10 -->
<g id="node10" class="node">
<title>Node10</title>
<g id="a_node10"><a xlink:title=" ">
<polygon fill="none" stroke="#bfbfbf" points="321,-0.5 321,-19.5 377,-19.5 377,-0.5 321,-0.5"/>
<text text-anchor="middle" x="349" y="-7.5" font-family="Helvetica,sans-Serif" font-size="10.00">unistd.h</text>
</a>
</g>
</g>
<!-- Node6&#45;&gt;Node10 -->
<g id="edge10" class="edge">
<title>Node6&#45;&gt;Node10</title>
<path fill="none" stroke="midnightblue" d="M290.25,-56.32C300.8,-48.18 316.8,-35.84 329.44,-26.09"/>
<polygon fill="midnightblue" stroke="midnightblue" points="331.77,-28.71 337.55,-19.83 327.49,-23.17 331.77,-28.71"/>
</g>
<!-- Node11 -->
<g id="node11" class="node">
<title>Node11</title>
<g id="a_node11"><a xlink:title=" ">
<polygon fill="none" stroke="#bfbfbf" points="395.5,-0.5 395.5,-19.5 458.5,-19.5 458.5,-0.5 395.5,-0.5"/>
<text text-anchor="middle" x="427" y="-7.5" font-family="Helvetica,sans-Serif" font-size="10.00">termios.h</text>
</a>
</g>
</g>
<!-- Node6&#45;&gt;Node11 -->
<g id="edge11" class="edge">
<title>Node6&#45;&gt;Node11</title>
<path fill="none" stroke="midnightblue" d="M302.45,-56.44C327.13,-47.44 366.19,-33.19 393.98,-23.05"/>
<polygon fill="midnightblue" stroke="midnightblue" points="395.46,-26.23 403.66,-19.52 393.06,-19.66 395.46,-26.23"/>
</g>
</g>
</svg>
