<?xml version="1.0" encoding="UTF-8" standalone="no"?>
<!DOCTYPE svg PUBLIC "-//W3C//DTD SVG 1.1//EN"
 "http://www.w3.org/Graphics/SVG/1.1/DTD/svg11.dtd">
<!-- Generated by graphviz version 2.43.0 (0)
 -->
<!-- Title: /home/aightech/dev/kistler_DAQ/src/kistler_DAQ.cpp Pages: 1 -->
<svg width="467pt" height="386pt"
 viewBox="0.00 0.00 466.50 386.00" xmlns="http://www.w3.org/2000/svg" xmlns:xlink="http://www.w3.org/1999/xlink">
<g id="graph0" class="graph" transform="scale(1 1) rotate(0) translate(4 382)">
<title>/home/aightech/dev/kistler_DAQ/src/kistler_DAQ.cpp</title>
<!-- Node1 -->
<g id="node1" class="node">
<title>Node1</title>
<g id="a_node1"><a xlink:title=" ">
<polygon fill="#bfbfbf" stroke="black" points="225,-336.5 225,-377.5 353,-377.5 353,-336.5 225,-336.5"/>
<text text-anchor="start" x="233" y="-365.5" font-family="Helvetica,sans-Serif" font-size="10.00">/home/aightech/dev</text>
<text text-anchor="start" x="233" y="-354.5" font-family="Helvetica,sans-Serif" font-size="10.00">/kistler_DAQ/src/kistler</text>
<text text-anchor="middle" x="289" y="-343.5" font-family="Helvetica,sans-Serif" font-size="10.00">_DAQ.cpp</text>
</a>
</g>
</g>
<!-- Node2 -->
<g id="node2" class="node">
<title>Node2</title>
<g id="a_node2"><a xlink:href="../../d0/ddf/kistler___d_a_q_8hpp.html" target="_top" xlink:title=" ">
<polygon fill="none" stroke="black" points="241.5,-280.5 241.5,-299.5 336.5,-299.5 336.5,-280.5 241.5,-280.5"/>
<text text-anchor="middle" x="289" y="-287.5" font-family="Helvetica,sans-Serif" font-size="10.00">kistler_DAQ.hpp</text>
</a>
</g>
</g>
<!-- Node1&#45;&gt;Node2 -->
<g id="edge1" class="edge">
<title>Node1&#45;&gt;Node2</title>
<path fill="none" stroke="midnightblue" d="M289,-336.5C289,-328.07 289,-318.24 289,-309.87"/>
<polygon fill="midnightblue" stroke="midnightblue" points="292.5,-309.65 289,-299.65 285.5,-309.65 292.5,-309.65"/>
</g>
<!-- Node3 -->
<g id="node3" class="node">
<title>Node3</title>
<g id="a_node3"><a xlink:href="../../d8/d95/kistler___a_p_i_8hpp.html" target="_top" xlink:title=" ">
<polygon fill="none" stroke="black" points="126.5,-224.5 126.5,-243.5 215.5,-243.5 215.5,-224.5 126.5,-224.5"/>
<text text-anchor="middle" x="171" y="-231.5" font-family="Helvetica,sans-Serif" font-size="10.00">kistler_API.hpp</text>
</a>
</g>
</g>
<!-- Node2&#45;&gt;Node3 -->
<g id="edge2" class="edge">
<title>Node2&#45;&gt;Node3</title>
<path fill="none" stroke="midnightblue" d="M270.3,-280.44C251.06,-271.64 220.85,-257.81 198.8,-247.72"/>
<polygon fill="midnightblue" stroke="midnightblue" points="200.16,-244.5 189.61,-243.52 197.25,-250.86 200.16,-244.5"/>
</g>
<!-- Node16 -->
<g id="node16" class="node">
<title>Node16</title>
<g id="a_node16"><a xlink:title=" ">
<polygon fill="none" stroke="#bfbfbf" points="200,-112.5 200,-131.5 250,-131.5 250,-112.5 200,-112.5"/>
<text text-anchor="middle" x="225" y="-119.5" font-family="Helvetica,sans-Serif" font-size="10.00">cstring</text>
</a>
</g>
</g>
<!-- Node2&#45;&gt;Node16 -->
<g id="edge19" class="edge">
<title>Node2&#45;&gt;Node16</title>
<path fill="none" stroke="midnightblue" d="M285.56,-280.08C275.44,-253.83 245.64,-176.55 231.98,-141.12"/>
<polygon fill="midnightblue" stroke="midnightblue" points="235.17,-139.64 228.3,-131.57 228.64,-142.16 235.17,-139.64"/>
</g>
<!-- Node17 -->
<g id="node17" class="node">
<title>Node17</title>
<g id="a_node17"><a xlink:title=" ">
<polygon fill="none" stroke="#bfbfbf" points="291.5,-224.5 291.5,-243.5 338.5,-243.5 338.5,-224.5 291.5,-224.5"/>
<text text-anchor="middle" x="315" y="-231.5" font-family="Helvetica,sans-Serif" font-size="10.00">lsl_c.h</text>
</a>
</g>
</g>
<!-- Node2&#45;&gt;Node17 -->
<g id="edge20" class="edge">
<title>Node2&#45;&gt;Node17</title>
<path fill="none" stroke="midnightblue" d="M293.29,-280.08C296.85,-272.69 302.02,-261.95 306.42,-252.81"/>
<polygon fill="midnightblue" stroke="midnightblue" points="309.6,-254.28 310.79,-243.75 303.29,-251.24 309.6,-254.28"/>
</g>
<!-- Node18 -->
<g id="node18" class="node">
<title>Node18</title>
<g id="a_node18"><a xlink:title=" ">
<polygon fill="none" stroke="#bfbfbf" points="357,-224.5 357,-243.5 405,-243.5 405,-224.5 357,-224.5"/>
<text text-anchor="middle" x="381" y="-231.5" font-family="Helvetica,sans-Serif" font-size="10.00">thread</text>
</a>
</g>
</g>
<!-- Node2&#45;&gt;Node18 -->
<g id="edge21" class="edge">
<title>Node2&#45;&gt;Node18</title>
<path fill="none" stroke="midnightblue" d="M303.78,-280.32C318.27,-271.82 340.57,-258.73 357.49,-248.8"/>
<polygon fill="midnightblue" stroke="midnightblue" points="359.4,-251.74 366.26,-243.65 355.86,-245.7 359.4,-251.74"/>
</g>
<!-- Node4 -->
<g id="node4" class="node">
<title>Node4</title>
<g id="a_node4"><a xlink:href="../../dc/d13/com__client_8hpp.html" target="_top" xlink:title=" ">
<polygon fill="none" stroke="black" points="62.5,-112.5 62.5,-131.5 153.5,-131.5 153.5,-112.5 62.5,-112.5"/>
<text text-anchor="middle" x="108" y="-119.5" font-family="Helvetica,sans-Serif" font-size="10.00">com_client.hpp</text>
</a>
</g>
</g>
<!-- Node3&#45;&gt;Node4 -->
<g id="edge3" class="edge">
<title>Node3&#45;&gt;Node4</title>
<path fill="none" stroke="midnightblue" d="M144.79,-224.41C128.15,-217.44 107.94,-205.81 98,-188 89.93,-173.54 94.21,-154.6 99.44,-140.9"/>
<polygon fill="midnightblue" stroke="midnightblue" points="102.7,-142.18 103.44,-131.61 96.27,-139.41 102.7,-142.18"/>
</g>
<!-- Node15 -->
<g id="node15" class="node">
<title>Node15</title>
<g id="a_node15"><a xlink:href="../../d9/dcd/http__client_8hpp.html" target="_top" xlink:title=" ">
<polygon fill="none" stroke="black" points="107.5,-168.5 107.5,-187.5 196.5,-187.5 196.5,-168.5 107.5,-168.5"/>
<text text-anchor="middle" x="152" y="-175.5" font-family="Helvetica,sans-Serif" font-size="10.00">http_client.hpp</text>
</a>
</g>
</g>
<!-- Node3&#45;&gt;Node15 -->
<g id="edge15" class="edge">
<title>Node3&#45;&gt;Node15</title>
<path fill="none" stroke="midnightblue" d="M167.86,-224.08C165.32,-216.85 161.64,-206.41 158.47,-197.4"/>
<polygon fill="midnightblue" stroke="midnightblue" points="161.7,-196.02 155.08,-187.75 155.1,-198.35 161.7,-196.02"/>
</g>
<!-- Node3&#45;&gt;Node16 -->
<g id="edge18" class="edge">
<title>Node3&#45;&gt;Node16</title>
<path fill="none" stroke="midnightblue" d="M179.04,-224.32C186.66,-215.69 197.96,-201.77 205,-188 212.56,-173.22 217.85,-155.06 221.08,-141.7"/>
<polygon fill="midnightblue" stroke="midnightblue" points="224.53,-142.31 223.32,-131.78 217.7,-140.77 224.53,-142.31"/>
</g>
<!-- Node5 -->
<g id="node5" class="node">
<title>Node5</title>
<g id="a_node5"><a xlink:title=" ">
<polygon fill="none" stroke="#bfbfbf" points="0,-0.5 0,-19.5 60,-19.5 60,-0.5 0,-0.5"/>
<text text-anchor="middle" x="30" y="-7.5" font-family="Helvetica,sans-Serif" font-size="10.00">iostream</text>
</a>
</g>
</g>
<!-- Node4&#45;&gt;Node5 -->
<g id="edge4" class="edge">
<title>Node4&#45;&gt;Node5</title>
<path fill="none" stroke="midnightblue" d="M62.27,-112.9C41.06,-106.61 17.77,-95.51 5,-76 -4.88,-60.9 5.26,-41.3 15.44,-27.59"/>
<polygon fill="midnightblue" stroke="midnightblue" points="18.38,-29.52 21.92,-19.54 12.92,-25.13 18.38,-29.52"/>
</g>
<!-- Node6 -->
<g id="node6" class="node">
<title>Node6</title>
<g id="a_node6"><a xlink:title=" ">
<polygon fill="none" stroke="#bfbfbf" points="14.5,-56.5 14.5,-75.5 65.5,-75.5 65.5,-56.5 14.5,-56.5"/>
<text text-anchor="middle" x="40" y="-63.5" font-family="Helvetica,sans-Serif" font-size="10.00">math.h</text>
</a>
</g>
</g>
<!-- Node4&#45;&gt;Node6 -->
<g id="edge5" class="edge">
<title>Node4&#45;&gt;Node6</title>
<path fill="none" stroke="midnightblue" d="M97.07,-112.32C86.83,-104.18 71.28,-91.84 59,-82.09"/>
<polygon fill="midnightblue" stroke="midnightblue" points="61.13,-79.31 51.12,-75.83 56.78,-84.79 61.13,-79.31"/>
</g>
<!-- Node7 -->
<g id="node7" class="node">
<title>Node7</title>
<g id="a_node7"><a xlink:title=" ">
<polygon fill="none" stroke="#bfbfbf" points="84,-56.5 84,-75.5 132,-75.5 132,-56.5 84,-56.5"/>
<text text-anchor="middle" x="108" y="-63.5" font-family="Helvetica,sans-Serif" font-size="10.00">mutex</text>
</a>
</g>
</g>
<!-- Node4&#45;&gt;Node7 -->
<g id="edge6" class="edge">
<title>Node4&#45;&gt;Node7</title>
<path fill="none" stroke="midnightblue" d="M108,-112.08C108,-105.01 108,-94.86 108,-85.99"/>
<polygon fill="midnightblue" stroke="midnightblue" points="111.5,-85.75 108,-75.75 104.5,-85.75 111.5,-85.75"/>
</g>
<!-- Node8 -->
<g id="node8" class="node">
<title>Node8</title>
<g id="a_node8"><a xlink:title=" ">
<polygon fill="none" stroke="#bfbfbf" points="150.5,-56.5 150.5,-75.5 215.5,-75.5 215.5,-56.5 150.5,-56.5"/>
<text text-anchor="middle" x="183" y="-63.5" font-family="Helvetica,sans-Serif" font-size="10.00">stdexcept</text>
</a>
</g>
</g>
<!-- Node4&#45;&gt;Node8 -->
<g id="edge7" class="edge">
<title>Node4&#45;&gt;Node8</title>
<path fill="none" stroke="midnightblue" d="M120.05,-112.32C131.46,-104.11 148.83,-91.6 162.43,-81.81"/>
<polygon fill="midnightblue" stroke="midnightblue" points="164.66,-84.52 170.73,-75.83 160.57,-78.84 164.66,-84.52"/>
</g>
<!-- Node9 -->
<g id="node9" class="node">
<title>Node9</title>
<g id="a_node9"><a xlink:href="../../df/df2/str_a_n_s_iseq_8hpp.html" target="_top" xlink:title=" ">
<polygon fill="none" stroke="black" points="233.5,-56.5 233.5,-75.5 324.5,-75.5 324.5,-56.5 233.5,-56.5"/>
<text text-anchor="middle" x="279" y="-63.5" font-family="Helvetica,sans-Serif" font-size="10.00">strANSIseq.hpp</text>
</a>
</g>
</g>
<!-- Node4&#45;&gt;Node9 -->
<g id="edge8" class="edge">
<title>Node4&#45;&gt;Node9</title>
<path fill="none" stroke="midnightblue" d="M135.1,-112.44C163.99,-103.32 209.92,-88.81 242.11,-78.65"/>
<polygon fill="midnightblue" stroke="midnightblue" points="243.55,-81.87 252.03,-75.52 241.44,-75.19 243.55,-81.87"/>
</g>
<!-- Node9&#45;&gt;Node5 -->
<g id="edge10" class="edge">
<title>Node9&#45;&gt;Node5</title>
<path fill="none" stroke="midnightblue" d="M239.55,-56.44C193.27,-46.41 116.96,-29.86 70.31,-19.74"/>
<polygon fill="midnightblue" stroke="midnightblue" points="70.78,-16.26 60.26,-17.56 69.29,-23.1 70.78,-16.26"/>
</g>
<!-- Node10 -->
<g id="node10" class="node">
<title>Node10</title>
<g id="a_node10"><a xlink:title=" ">
<polygon fill="none" stroke="#bfbfbf" points="121.5,-0.5 121.5,-19.5 174.5,-19.5 174.5,-0.5 121.5,-0.5"/>
<text text-anchor="middle" x="148" y="-7.5" font-family="Helvetica,sans-Serif" font-size="10.00">cstdarg</text>
</a>
</g>
</g>
<!-- Node9&#45;&gt;Node10 -->
<g id="edge9" class="edge">
<title>Node9&#45;&gt;Node10</title>
<path fill="none" stroke="midnightblue" d="M258.24,-56.44C236.68,-47.56 202.74,-33.56 178.21,-23.45"/>
<polygon fill="midnightblue" stroke="midnightblue" points="179.24,-20.09 168.66,-19.52 176.57,-26.56 179.24,-20.09"/>
</g>
<!-- Node11 -->
<g id="node11" class="node">
<title>Node11</title>
<g id="a_node11"><a xlink:title=" ">
<polygon fill="none" stroke="#bfbfbf" points="193,-0.5 193,-19.5 237,-19.5 237,-0.5 193,-0.5"/>
<text text-anchor="middle" x="215" y="-7.5" font-family="Helvetica,sans-Serif" font-size="10.00">string</text>
</a>
</g>
</g>
<!-- Node9&#45;&gt;Node11 -->
<g id="edge11" class="edge">
<title>Node9&#45;&gt;Node11</title>
<path fill="none" stroke="midnightblue" d="M268.72,-56.32C259.16,-48.26 244.72,-36.08 233.22,-26.37"/>
<polygon fill="midnightblue" stroke="midnightblue" points="235.37,-23.61 225.47,-19.83 230.86,-28.96 235.37,-23.61"/>
</g>
<!-- Node12 -->
<g id="node12" class="node">
<title>Node12</title>
<g id="a_node12"><a xlink:title=" ">
<polygon fill="none" stroke="#bfbfbf" points="255.5,-0.5 255.5,-19.5 302.5,-19.5 302.5,-0.5 255.5,-0.5"/>
<text text-anchor="middle" x="279" y="-7.5" font-family="Helvetica,sans-Serif" font-size="10.00">vector</text>
</a>
</g>
</g>
<!-- Node9&#45;&gt;Node12 -->
<g id="edge12" class="edge">
<title>Node9&#45;&gt;Node12</title>
<path fill="none" stroke="midnightblue" d="M279,-56.08C279,-49.01 279,-38.86 279,-29.99"/>
<polygon fill="midnightblue" stroke="midnightblue" points="282.5,-29.75 279,-19.75 275.5,-29.75 282.5,-29.75"/>
</g>
<!-- Node13 -->
<g id="node13" class="node">
<title>Node13</title>
<g id="a_node13"><a xlink:title=" ">
<polygon fill="none" stroke="#bfbfbf" points="321,-0.5 321,-19.5 377,-19.5 377,-0.5 321,-0.5"/>
<text text-anchor="middle" x="349" y="-7.5" font-family="Helvetica,sans-Serif" font-size="10.00">unistd.h</text>
</a>
</g>
</g>
<!-- Node9&#45;&gt;Node13 -->
<g id="edge13" class="edge">
<title>Node9&#45;&gt;Node13</title>
<path fill="none" stroke="midnightblue" d="M290.25,-56.32C300.8,-48.18 316.8,-35.84 329.44,-26.09"/>
<polygon fill="midnightblue" stroke="midnightblue" points="331.77,-28.71 337.55,-19.83 327.49,-23.17 331.77,-28.71"/>
</g>
<!-- Node14 -->
<g id="node14" class="node">
<title>Node14</title>
<g id="a_node14"><a xlink:title=" ">
<polygon fill="none" stroke="#bfbfbf" points="395.5,-0.5 395.5,-19.5 458.5,-19.5 458.5,-0.5 395.5,-0.5"/>
<text text-anchor="middle" x="427" y="-7.5" font-family="Helvetica,sans-Serif" font-size="10.00">termios.h</text>
</a>
</g>
</g>
<!-- Node9&#45;&gt;Node14 -->
<g id="edge14" class="edge">
<title>Node9&#45;&gt;Node14</title>
<path fill="none" stroke="midnightblue" d="M302.45,-56.44C327.13,-47.44 366.19,-33.19 393.98,-23.05"/>
<polygon fill="midnightblue" stroke="midnightblue" points="395.46,-26.23 403.66,-19.52 393.06,-19.66 395.46,-26.23"/>
</g>
<!-- Node15&#45;&gt;Node4 -->
<g id="edge16" class="edge">
<title>Node15&#45;&gt;Node4</title>
<path fill="none" stroke="midnightblue" d="M144.73,-168.08C138.46,-160.38 129.21,-149.03 121.57,-139.65"/>
<polygon fill="midnightblue" stroke="midnightblue" points="124.16,-137.29 115.13,-131.75 118.73,-141.71 124.16,-137.29"/>
</g>
<!-- Node15&#45;&gt;Node16 -->
<g id="edge17" class="edge">
<title>Node15&#45;&gt;Node16</title>
<path fill="none" stroke="midnightblue" d="M163.73,-168.32C174.84,-160.11 191.74,-147.6 204.98,-137.81"/>
<polygon fill="midnightblue" stroke="midnightblue" points="207.1,-140.59 213.06,-131.83 202.94,-134.97 207.1,-140.59"/>
</g>
</g>
</svg>
