<?xml version="1.0" encoding="UTF-8" standalone="no"?>
<!DOCTYPE svg PUBLIC "-//W3C//DTD SVG 1.1//EN"
 "http://www.w3.org/Graphics/SVG/1.1/DTD/svg11.dtd">
<!-- Generated by graphviz version 2.43.0 (0)
 -->
<!-- Title: lsl_destroy_outlet Pages: 1 -->
<svg width="565pt" height="88pt"
 viewBox="0.00 0.00 565.00 88.00" xmlns="http://www.w3.org/2000/svg" xmlns:xlink="http://www.w3.org/1999/xlink">
<g id="graph0" class="graph" transform="scale(1 1) rotate(0) translate(4 84)">
<title>lsl_destroy_outlet</title>
<!-- Node1 -->
<g id="node1" class="node">
<title>Node1</title>
<g id="a_node1"><a xlink:title=" ">
<polygon fill="#bfbfbf" stroke="black" points="453,-30 453,-49 557,-49 557,-30 453,-30"/>
<text text-anchor="middle" x="505" y="-37" font-family="Helvetica,sans-Serif" font-size="10.00">lsl_destroy_outlet</text>
</a>
</g>
</g>
<!-- Node2 -->
<g id="node2" class="node">
<title>Node2</title>
<g id="a_node2"><a xlink:href="../../da/d97/class_kistler_1_1_d_a_q.html#a4f89e1c93f34ce2b85fe0e10287b8165" target="_top" xlink:title="Thread streaming LSL samples.">
<polygon fill="none" stroke="black" points="280,-49.5 280,-79.5 417,-79.5 417,-49.5 280,-49.5"/>
<text text-anchor="start" x="288" y="-67.5" font-family="Helvetica,sans-Serif" font-size="10.00">Kistler::DAQ::_streaming</text>
<text text-anchor="middle" x="348.5" y="-56.5" font-family="Helvetica,sans-Serif" font-size="10.00">_thread</text>
</a>
</g>
</g>
<!-- Node1&#45;&gt;Node2 -->
<g id="edge1" class="edge">
<title>Node1&#45;&gt;Node2</title>
<path fill="none" stroke="midnightblue" d="M442.88,-49.39C434.47,-50.75 425.8,-52.15 417.27,-53.53"/>
<polygon fill="midnightblue" stroke="midnightblue" points="443.67,-52.81 452.98,-47.76 442.55,-45.9 443.67,-52.81"/>
</g>
<!-- Node5 -->
<g id="node5" class="node">
<title>Node5</title>
<g id="a_node5"><a xlink:href="../../d6/d55/classlsl_1_1stream__outlet.html#aa8a10c88f57686d77bee002aff4c9d4e" target="_top" xlink:title=" ">
<polygon fill="none" stroke="black" points="297.5,-0.5 297.5,-30.5 399.5,-30.5 399.5,-0.5 297.5,-0.5"/>
<text text-anchor="start" x="305.5" y="-18.5" font-family="Helvetica,sans-Serif" font-size="10.00">lsl::stream_outlet</text>
<text text-anchor="middle" x="348.5" y="-7.5" font-family="Helvetica,sans-Serif" font-size="10.00">::~stream_outlet</text>
</a>
</g>
</g>
<!-- Node1&#45;&gt;Node5 -->
<g id="edge4" class="edge">
<title>Node1&#45;&gt;Node5</title>
<path fill="none" stroke="midnightblue" d="M442.75,-29.98C428.46,-27.77 413.41,-25.43 399.67,-23.29"/>
<polygon fill="midnightblue" stroke="midnightblue" points="442.56,-33.5 452.98,-31.57 443.64,-26.58 442.56,-33.5"/>
</g>
<!-- Node3 -->
<g id="node3" class="node">
<title>Node3</title>
<g id="a_node3"><a xlink:href="../../da/d97/class_kistler_1_1_d_a_q.html#a5a7c06429dcad460b083b5f2a2bbda5a" target="_top" xlink:title="Start a LSL streaming thread.">
<polygon fill="none" stroke="black" points="140,-49.5 140,-79.5 244,-79.5 244,-49.5 140,-49.5"/>
<text text-anchor="start" x="148" y="-67.5" font-family="Helvetica,sans-Serif" font-size="10.00">Kistler::DAQ::start</text>
<text text-anchor="middle" x="192" y="-56.5" font-family="Helvetica,sans-Serif" font-size="10.00">_streaming</text>
</a>
</g>
</g>
<!-- Node2&#45;&gt;Node3 -->
<g id="edge2" class="edge">
<title>Node2&#45;&gt;Node3</title>
<path fill="none" stroke="midnightblue" d="M269.7,-64.5C261.13,-64.5 252.58,-64.5 244.45,-64.5"/>
<polygon fill="midnightblue" stroke="midnightblue" points="269.73,-68 279.73,-64.5 269.73,-61 269.73,-68"/>
</g>
<!-- Node4 -->
<g id="node4" class="node">
<title>Node4</title>
<g id="a_node4"><a xlink:href="../../da/d97/class_kistler_1_1_d_a_q.html#a1c97f3c5178041e0bf2a836eead0bc8c" target="_top" xlink:title=" ">
<polygon fill="none" stroke="black" points="0,-55 0,-74 104,-74 104,-55 0,-55"/>
<text text-anchor="middle" x="52" y="-62" font-family="Helvetica,sans-Serif" font-size="10.00">Kistler::DAQ::DAQ</text>
</a>
</g>
</g>
<!-- Node3&#45;&gt;Node4 -->
<g id="edge3" class="edge">
<title>Node3&#45;&gt;Node4</title>
<path fill="none" stroke="midnightblue" d="M129.5,-64.5C121.13,-64.5 112.6,-64.5 104.43,-64.5"/>
<polygon fill="midnightblue" stroke="midnightblue" points="129.61,-68 139.61,-64.5 129.61,-61 129.61,-68"/>
</g>
</g>
</svg>
