<?xml version="1.0" encoding="UTF-8" standalone="no"?>
<!DOCTYPE svg PUBLIC "-//W3C//DTD SVG 1.1//EN"
 "http://www.w3.org/Graphics/SVG/1.1/DTD/svg11.dtd">
<!-- Generated by graphviz version 2.43.0 (0)
 -->
<!-- Title: Kistler::DAQ::config Pages: 1 -->
<svg width="960pt" height="324pt"
 viewBox="0.00 0.00 960.00 323.50" xmlns="http://www.w3.org/2000/svg" xmlns:xlink="http://www.w3.org/1999/xlink">
<g id="graph0" class="graph" transform="scale(1 1) rotate(0) translate(4 319.5)">
<title>Kistler::DAQ::config</title>
<!-- Node1 -->
<g id="node1" class="node">
<title>Node1</title>
<g id="a_node1"><a xlink:title="Configure the DAQ.">
<polygon fill="#bfbfbf" stroke="black" points="0,-177.5 0,-196.5 111,-196.5 111,-177.5 0,-177.5"/>
<text text-anchor="middle" x="55.5" y="-184.5" font-family="Helvetica,sans-Serif" font-size="10.00">Kistler::DAQ::config</text>
</a>
</g>
</g>
<!-- Node2 -->
<g id="node2" class="node">
<title>Node2</title>
<g id="a_node2"><a xlink:href="../../d5/dbe/struct_kistler_1_1_a_p_i_1_1_trigger.html#aeaca7e40e18da74c5a712686ced6abd9" target="_top" xlink:title="Set the Trigger object as a duration type: stop if after the given amount of time.">
<polygon fill="none" stroke="black" points="155,-285 155,-315 264,-315 264,-285 155,-285"/>
<text text-anchor="start" x="163" y="-303" font-family="Helvetica,sans-Serif" font-size="10.00">Kistler::API::Trigger</text>
<text text-anchor="middle" x="209.5" y="-292" font-family="Helvetica,sans-Serif" font-size="10.00">::duration</text>
</a>
</g>
</g>
<!-- Node1&#45;&gt;Node2 -->
<g id="edge1" class="edge">
<title>Node1&#45;&gt;Node2</title>
<path fill="none" stroke="midnightblue" d="M65.25,-196.68C80.6,-213.25 113.88,-247.43 147,-270 152.28,-273.6 158.06,-277.01 163.9,-280.15"/>
<polygon fill="midnightblue" stroke="midnightblue" points="162.55,-283.4 173.05,-284.86 165.76,-277.17 162.55,-283.4"/>
</g>
<!-- Node3 -->
<g id="node3" class="node">
<title>Node3</title>
<g id="a_node3"><a xlink:href="../../dc/d44/class_e_s_c_1_1_c_l_i.html#abe1e5a3cc2cbd55c0704e9b13842e436" target="_top" xlink:title=" ">
<polygon fill="none" stroke="black" points="654,-167.5 654,-186.5 740,-186.5 740,-167.5 654,-167.5"/>
<text text-anchor="middle" x="697" y="-174.5" font-family="Helvetica,sans-Serif" font-size="10.00">ESC::CLI::logln</text>
</a>
</g>
</g>
<!-- Node1&#45;&gt;Node3 -->
<g id="edge2" class="edge">
<title>Node1&#45;&gt;Node3</title>
<path fill="none" stroke="midnightblue" d="M69.1,-196.7C85.82,-208.9 116.76,-229.2 147,-237 335.63,-285.64 570.64,-219.29 659.61,-189.83"/>
<polygon fill="midnightblue" stroke="midnightblue" points="660.87,-193.1 669.23,-186.59 658.64,-186.46 660.87,-193.1"/>
</g>
<!-- Node5 -->
<g id="node5" class="node">
<title>Node5</title>
<g id="a_node5"><a xlink:href="../../d5/dbe/struct_kistler_1_1_a_p_i_1_1_trigger.html#a8ba5c3ef957af349b4f540955e601046" target="_top" xlink:title="Set the the duration to record after the trigger.">
<polygon fill="none" stroke="black" points="155,-197 155,-227 264,-227 264,-197 155,-197"/>
<text text-anchor="start" x="163" y="-215" font-family="Helvetica,sans-Serif" font-size="10.00">Kistler::API::Trigger</text>
<text text-anchor="middle" x="209.5" y="-204" font-family="Helvetica,sans-Serif" font-size="10.00">::postTrigger</text>
</a>
</g>
</g>
<!-- Node1&#45;&gt;Node5 -->
<g id="edge4" class="edge">
<title>Node1&#45;&gt;Node5</title>
<path fill="none" stroke="midnightblue" d="M111.38,-196.03C122.25,-197.81 133.75,-199.71 144.88,-201.54"/>
<polygon fill="midnightblue" stroke="midnightblue" points="144.54,-205.03 154.98,-203.2 145.68,-198.12 144.54,-205.03"/>
</g>
<!-- Node6 -->
<g id="node6" class="node">
<title>Node6</title>
<g id="a_node6"><a xlink:href="../../d5/dbe/struct_kistler_1_1_a_p_i_1_1_trigger.html#abae711bda6d534798654fdcca6fd7db4" target="_top" xlink:title="Set the the duration to record before the trigger.">
<polygon fill="none" stroke="black" points="155,-148 155,-178 264,-178 264,-148 155,-148"/>
<text text-anchor="start" x="163" y="-166" font-family="Helvetica,sans-Serif" font-size="10.00">Kistler::API::Trigger</text>
<text text-anchor="middle" x="209.5" y="-155" font-family="Helvetica,sans-Serif" font-size="10.00">::preTrigger</text>
</a>
</g>
</g>
<!-- Node1&#45;&gt;Node6 -->
<g id="edge5" class="edge">
<title>Node1&#45;&gt;Node6</title>
<path fill="none" stroke="midnightblue" d="M111.38,-178.34C122.25,-176.62 133.75,-174.8 144.88,-173.04"/>
<polygon fill="midnightblue" stroke="midnightblue" points="145.65,-176.47 154.98,-171.45 144.55,-169.55 145.65,-176.47"/>
</g>
<!-- Node7 -->
<g id="node7" class="node">
<title>Node7</title>
<g id="a_node7"><a xlink:href="../../d5/dbe/struct_kistler_1_1_a_p_i_1_1_trigger.html#a26fbd939658b506b96669ffae3e5d17b" target="_top" xlink:title="Set the Trigger object as a request type: start/stop if the API receives a START or STOP request.">
<polygon fill="none" stroke="black" points="155,-99 155,-129 264,-129 264,-99 155,-99"/>
<text text-anchor="start" x="163" y="-117" font-family="Helvetica,sans-Serif" font-size="10.00">Kistler::API::Trigger</text>
<text text-anchor="middle" x="209.5" y="-106" font-family="Helvetica,sans-Serif" font-size="10.00">::request</text>
</a>
</g>
</g>
<!-- Node1&#45;&gt;Node7 -->
<g id="edge6" class="edge">
<title>Node1&#45;&gt;Node7</title>
<path fill="none" stroke="midnightblue" d="M73.25,-177.45C91.23,-167.37 120.73,-151.27 147,-139 151.34,-136.97 155.89,-134.95 160.47,-132.97"/>
<polygon fill="midnightblue" stroke="midnightblue" points="162.01,-136.12 169.86,-129.01 159.28,-129.67 162.01,-136.12"/>
</g>
<!-- Node8 -->
<g id="node8" class="node">
<title>Node8</title>
<g id="a_node8"><a xlink:href="../../da/d94/class_kistler_1_1_a_p_i.html#aadc38197a3536983e07d1687fbe0e1d0" target="_top" xlink:title="Set the configuration of the DAQ.">
<polygon fill="none" stroke="black" points="147,-60.5 147,-79.5 272,-79.5 272,-60.5 147,-60.5"/>
<text text-anchor="middle" x="209.5" y="-67.5" font-family="Helvetica,sans-Serif" font-size="10.00">Kistler::API::set_config</text>
</a>
</g>
</g>
<!-- Node1&#45;&gt;Node8 -->
<g id="edge7" class="edge">
<title>Node1&#45;&gt;Node8</title>
<path fill="none" stroke="midnightblue" d="M63.01,-177.21C76.44,-157.78 109.12,-114.13 147,-90 150.99,-87.46 155.34,-85.21 159.81,-83.23"/>
<polygon fill="midnightblue" stroke="midnightblue" points="161.11,-86.48 169.1,-79.53 158.52,-79.98 161.11,-86.48"/>
</g>
<!-- Node4 -->
<g id="node4" class="node">
<title>Node4</title>
<g id="a_node4"><a xlink:href="../../d2/d52/namespace_e_s_c.html#a1ab0660788056c78944278261498664a" target="_top" xlink:title=" ">
<polygon fill="none" stroke="black" points="834.5,-167.5 834.5,-186.5 914.5,-186.5 914.5,-167.5 834.5,-167.5"/>
<text text-anchor="middle" x="874.5" y="-174.5" font-family="Helvetica,sans-Serif" font-size="10.00">ESC::get_pos</text>
</a>
</g>
</g>
<!-- Node3&#45;&gt;Node4 -->
<g id="edge3" class="edge">
<title>Node3&#45;&gt;Node4</title>
<path fill="none" stroke="midnightblue" d="M740.04,-177C765.28,-177 797.53,-177 824,-177"/>
<polygon fill="midnightblue" stroke="midnightblue" points="824.21,-180.5 834.21,-177 824.21,-173.5 824.21,-180.5"/>
</g>
<!-- Node8&#45;&gt;Node3 -->
<g id="edge18" class="edge">
<title>Node8&#45;&gt;Node3</title>
<path fill="none" stroke="midnightblue" d="M252.31,-79.55C259.27,-82.25 266.13,-85.67 272,-90 294.33,-106.46 284.06,-126.98 308,-141 414.01,-203.07 564.86,-195.2 643.59,-185.38"/>
<polygon fill="midnightblue" stroke="midnightblue" points="644.29,-188.81 653.75,-184.05 643.38,-181.87 644.29,-188.81"/>
</g>
<!-- Node9 -->
<g id="node9" class="node">
<title>Node9</title>
<g id="a_node9"><a xlink:href="../../da/d94/class_kistler_1_1_a_p_i.html#a19649fd0c024f8a66eaff543114532e9" target="_top" xlink:title="Check the satue of the reply (result:0 =&gt; OK)">
<polygon fill="none" stroke="black" points="482.5,-118 482.5,-148 586.5,-148 586.5,-118 482.5,-118"/>
<text text-anchor="start" x="490.5" y="-136" font-family="Helvetica,sans-Serif" font-size="10.00">Kistler::API::check</text>
<text text-anchor="middle" x="534.5" y="-125" font-family="Helvetica,sans-Serif" font-size="10.00">_msg_error</text>
</a>
</g>
</g>
<!-- Node8&#45;&gt;Node9 -->
<g id="edge8" class="edge">
<title>Node8&#45;&gt;Node9</title>
<path fill="none" stroke="midnightblue" d="M246.76,-79.6C255.26,-82.44 264.13,-85.91 272,-90 289.75,-99.22 289.26,-110.01 308,-117 360.82,-136.71 425.35,-139.34 471.83,-137.85"/>
<polygon fill="midnightblue" stroke="midnightblue" points="472.2,-141.34 482.06,-137.45 471.93,-134.34 472.2,-141.34"/>
</g>
<!-- Node11 -->
<g id="node11" class="node">
<title>Node11</title>
<g id="a_node11"><a xlink:href="../../da/d94/class_kistler_1_1_a_p_i.html#aeb67a2504717300d59713593da6966e6" target="_top" xlink:title="Enable or disable the measurement configuration of the DAQ. To set a new configuration,...">
<polygon fill="none" stroke="black" points="317.5,-77 317.5,-107 426.5,-107 426.5,-77 317.5,-77"/>
<text text-anchor="start" x="325.5" y="-95" font-family="Helvetica,sans-Serif" font-size="10.00">Kistler::API::enable</text>
<text text-anchor="middle" x="372" y="-84" font-family="Helvetica,sans-Serif" font-size="10.00">_config</text>
</a>
</g>
</g>
<!-- Node8&#45;&gt;Node11 -->
<g id="edge11" class="edge">
<title>Node8&#45;&gt;Node11</title>
<path fill="none" stroke="midnightblue" d="M272.09,-78.44C283.65,-80.03 295.75,-81.69 307.37,-83.28"/>
<polygon fill="midnightblue" stroke="midnightblue" points="307.04,-86.77 317.42,-84.66 307.99,-79.83 307.04,-86.77"/>
</g>
<!-- Node12 -->
<g id="node12" class="node">
<title>Node12</title>
<g id="a_node12"><a xlink:href="../../d7/d60/class_communication_1_1_h_t_t_p__client.html#a241e78ccad7bcbc7597cb2dde7d7e402" target="_top" xlink:title=" ">
<polygon fill="none" stroke="black" points="472,-43 472,-73 597,-73 597,-43 472,-43"/>
<text text-anchor="start" x="480" y="-61" font-family="Helvetica,sans-Serif" font-size="10.00">Communication::HTTP</text>
<text text-anchor="middle" x="534.5" y="-50" font-family="Helvetica,sans-Serif" font-size="10.00">_client::post</text>
</a>
</g>
</g>
<!-- Node8&#45;&gt;Node12 -->
<g id="edge19" class="edge">
<title>Node8&#45;&gt;Node12</title>
<path fill="none" stroke="midnightblue" d="M272.01,-67.71C326.15,-65.7 404.99,-62.77 461.93,-60.66"/>
<polygon fill="midnightblue" stroke="midnightblue" points="462.08,-64.16 471.94,-60.29 461.82,-57.16 462.08,-64.16"/>
</g>
<!-- Node16 -->
<g id="node16" class="node">
<title>Node16</title>
<g id="a_node16"><a xlink:href="../../d5/dbe/struct_kistler_1_1_a_p_i_1_1_trigger.html#a152ea47aa0aa7fac407b363ea67f2a84" target="_top" xlink:title=" ">
<polygon fill="none" stroke="black" points="308,-0.5 308,-19.5 436,-19.5 436,-0.5 308,-0.5"/>
<text text-anchor="middle" x="372" y="-7.5" font-family="Helvetica,sans-Serif" font-size="10.00">Kistler::API::Trigger::str</text>
</a>
</g>
</g>
<!-- Node8&#45;&gt;Node16 -->
<g id="edge20" class="edge">
<title>Node8&#45;&gt;Node16</title>
<path fill="none" stroke="midnightblue" d="M235.93,-60.49C262.85,-50.43 305.54,-34.47 335.71,-23.19"/>
<polygon fill="midnightblue" stroke="midnightblue" points="337.28,-26.34 345.42,-19.56 334.83,-19.79 337.28,-26.34"/>
</g>
<!-- Node9&#45;&gt;Node3 -->
<g id="edge10" class="edge">
<title>Node9&#45;&gt;Node3</title>
<path fill="none" stroke="midnightblue" d="M586.72,-147.04C607.44,-152.72 631.15,-159.22 651.17,-164.71"/>
<polygon fill="midnightblue" stroke="midnightblue" points="650.4,-168.13 660.97,-167.4 652.25,-161.38 650.4,-168.13"/>
</g>
<!-- Node10 -->
<g id="node10" class="node">
<title>Node10</title>
<g id="a_node10"><a xlink:href="../../d2/d52/namespace_e_s_c.html#a080ff5f5b8a2ed3567a541acfa69a425" target="_top" xlink:title="fstr Prints a formated string.">
<polygon fill="none" stroke="black" points="668,-123.5 668,-142.5 726,-142.5 726,-123.5 668,-123.5"/>
<text text-anchor="middle" x="697" y="-130.5" font-family="Helvetica,sans-Serif" font-size="10.00">ESC::fstr</text>
</a>
</g>
</g>
<!-- Node9&#45;&gt;Node10 -->
<g id="edge9" class="edge">
<title>Node9&#45;&gt;Node10</title>
<path fill="none" stroke="midnightblue" d="M586.72,-133C609.64,-133 636.21,-133 657.41,-133"/>
<polygon fill="midnightblue" stroke="midnightblue" points="657.65,-136.5 667.65,-133 657.65,-129.5 657.65,-136.5"/>
</g>
<!-- Node11&#45;&gt;Node9 -->
<g id="edge12" class="edge">
<title>Node11&#45;&gt;Node9</title>
<path fill="none" stroke="midnightblue" d="M426.89,-105.77C441.61,-109.53 457.65,-113.63 472.73,-117.48"/>
<polygon fill="midnightblue" stroke="midnightblue" points="471.91,-120.88 482.47,-119.96 473.64,-114.1 471.91,-120.88"/>
</g>
<!-- Node11&#45;&gt;Node12 -->
<g id="edge13" class="edge">
<title>Node11&#45;&gt;Node12</title>
<path fill="none" stroke="midnightblue" d="M426.89,-80.58C438.2,-78.19 450.3,-75.62 462.14,-73.12"/>
<polygon fill="midnightblue" stroke="midnightblue" points="462.94,-76.52 472,-71.03 461.49,-69.68 462.94,-76.52"/>
</g>
<!-- Node13 -->
<g id="node13" class="node">
<title>Node13</title>
<g id="a_node13"><a xlink:href="../../df/dcd/class_communication_1_1_client.html#a73fec58648938364cd65d690f50bd7ec" target="_top" xlink:title="readS read the com inmterface.">
<polygon fill="none" stroke="black" points="633,-54 633,-84 761,-84 761,-54 633,-54"/>
<text text-anchor="start" x="641" y="-72" font-family="Helvetica,sans-Serif" font-size="10.00">Communication::Client</text>
<text text-anchor="middle" x="697" y="-61" font-family="Helvetica,sans-Serif" font-size="10.00">::readS</text>
</a>
</g>
</g>
<!-- Node12&#45;&gt;Node13 -->
<g id="edge14" class="edge">
<title>Node12&#45;&gt;Node13</title>
<path fill="none" stroke="midnightblue" d="M597.09,-62.22C605.55,-62.8 614.29,-63.4 622.92,-63.99"/>
<polygon fill="midnightblue" stroke="midnightblue" points="622.76,-67.49 632.98,-64.68 623.24,-60.5 622.76,-67.49"/>
</g>
<!-- Node15 -->
<g id="node15" class="node">
<title>Node15</title>
<g id="a_node15"><a xlink:href="../../df/dcd/class_communication_1_1_client.html#a32bd631bcb3b0a3476b146a0cc49332d" target="_top" xlink:title="writeS write the com interface.">
<polygon fill="none" stroke="black" points="633,-5 633,-35 761,-35 761,-5 633,-5"/>
<text text-anchor="start" x="641" y="-23" font-family="Helvetica,sans-Serif" font-size="10.00">Communication::Client</text>
<text text-anchor="middle" x="697" y="-12" font-family="Helvetica,sans-Serif" font-size="10.00">::writeS</text>
</a>
</g>
</g>
<!-- Node12&#45;&gt;Node15 -->
<g id="edge16" class="edge">
<title>Node12&#45;&gt;Node15</title>
<path fill="none" stroke="midnightblue" d="M597.09,-43.42C605.64,-41.39 614.48,-39.3 623.2,-37.24"/>
<polygon fill="midnightblue" stroke="midnightblue" points="624.05,-40.63 632.98,-34.92 622.44,-33.82 624.05,-40.63"/>
</g>
<!-- Node14 -->
<g id="node14" class="node">
<title>Node14</title>
<g id="a_node14"><a xlink:href="../../df/dcd/class_communication_1_1_client.html#a7020654cbb2e6f707fe637fc84d8328c" target="_top" xlink:title="CRC Compute and return the CRC over the n first bytes of buf.">
<polygon fill="none" stroke="black" points="797,-35.5 797,-54.5 952,-54.5 952,-35.5 797,-35.5"/>
<text text-anchor="middle" x="874.5" y="-42.5" font-family="Helvetica,sans-Serif" font-size="10.00">Communication::Client::CRC</text>
</a>
</g>
</g>
<!-- Node13&#45;&gt;Node14 -->
<g id="edge15" class="edge">
<title>Node13&#45;&gt;Node14</title>
<path fill="none" stroke="midnightblue" d="M761.36,-60.34C771.96,-58.89 783.07,-57.37 794.02,-55.87"/>
<polygon fill="midnightblue" stroke="midnightblue" points="794.56,-59.33 804,-54.5 793.61,-52.39 794.56,-59.33"/>
</g>
<!-- Node15&#45;&gt;Node14 -->
<g id="edge17" class="edge">
<title>Node15&#45;&gt;Node14</title>
<path fill="none" stroke="midnightblue" d="M761.36,-29.03C772.75,-30.65 784.74,-32.36 796.46,-34.03"/>
<polygon fill="midnightblue" stroke="midnightblue" points="796.29,-37.54 806.68,-35.48 797.28,-30.61 796.29,-37.54"/>
</g>
</g>
</svg>
