<?xml version="1.0" encoding="UTF-8" standalone="no"?>
<!DOCTYPE svg PUBLIC "-//W3C//DTD SVG 1.1//EN"
 "http://www.w3.org/Graphics/SVG/1.1/DTD/svg11.dtd">
<!-- Generated by graphviz version 2.43.0 (0)
 -->
<!-- Title: Kistler::DAQ::DAQ Pages: 1 -->
<svg width="1124pt" height="1102pt"
 viewBox="0.00 0.00 1124.00 1101.50" xmlns="http://www.w3.org/2000/svg" xmlns:xlink="http://www.w3.org/1999/xlink">
<g id="graph0" class="graph" transform="scale(1 1) rotate(0) translate(4 1097.5)">
<title>Kistler::DAQ::DAQ</title>
<!-- Node1 -->
<g id="node1" class="node">
<title>Node1</title>
<g id="a_node1"><a xlink:title=" ">
<polygon fill="#bfbfbf" stroke="black" points="0,-778.5 0,-797.5 104,-797.5 104,-778.5 0,-778.5"/>
<text text-anchor="middle" x="52" y="-785.5" font-family="Helvetica,sans-Serif" font-size="10.00">Kistler::DAQ::DAQ</text>
</a>
</g>
</g>
<!-- Node2 -->
<g id="node2" class="node">
<title>Node2</title>
<g id="a_node2"><a xlink:href="../../da/d97/class_kistler_1_1_d_a_q.html#a291e83bbb30446417bfc54f0b02bf41e" target="_top" xlink:title="Configure the DAQ.">
<polygon fill="none" stroke="black" points="144.5,-931.5 144.5,-950.5 255.5,-950.5 255.5,-931.5 144.5,-931.5"/>
<text text-anchor="middle" x="200" y="-938.5" font-family="Helvetica,sans-Serif" font-size="10.00">Kistler::DAQ::config</text>
</a>
</g>
</g>
<!-- Node1&#45;&gt;Node2 -->
<g id="edge1" class="edge">
<title>Node1&#45;&gt;Node2</title>
<path fill="none" stroke="midnightblue" d="M62.13,-797.57C86.3,-822.9 152.19,-891.94 182.87,-924.1"/>
<polygon fill="midnightblue" stroke="midnightblue" points="180.43,-926.61 189.87,-931.43 185.5,-921.78 180.43,-926.61"/>
</g>
<!-- Node18 -->
<g id="node18" class="node">
<title>Node18</title>
<g id="a_node18"><a xlink:href="../../da/d97/class_kistler_1_1_d_a_q.html#ac5dc9fa5e3a40556eb6879b071b269be" target="_top" xlink:title="Connect to the DAQ.">
<polygon fill="none" stroke="black" points="140,-778.5 140,-797.5 260,-797.5 260,-778.5 140,-778.5"/>
<text text-anchor="middle" x="200" y="-785.5" font-family="Helvetica,sans-Serif" font-size="10.00">Kistler::DAQ::connect</text>
</a>
</g>
</g>
<!-- Node1&#45;&gt;Node18 -->
<g id="edge22" class="edge">
<title>Node1&#45;&gt;Node18</title>
<path fill="none" stroke="midnightblue" d="M104.06,-788C112.4,-788 121.15,-788 129.83,-788"/>
<polygon fill="midnightblue" stroke="midnightblue" points="129.96,-791.5 139.96,-788 129.96,-784.5 129.96,-791.5"/>
</g>
<!-- Node21 -->
<g id="node21" class="node">
<title>Node21</title>
<g id="a_node21"><a xlink:href="../../da/d97/class_kistler_1_1_d_a_q.html#a5a7c06429dcad460b083b5f2a2bbda5a" target="_top" xlink:title="Start a LSL streaming thread.">
<polygon fill="none" stroke="black" points="148,-516 148,-546 252,-546 252,-516 148,-516"/>
<text text-anchor="start" x="156" y="-534" font-family="Helvetica,sans-Serif" font-size="10.00">Kistler::DAQ::start</text>
<text text-anchor="middle" x="200" y="-523" font-family="Helvetica,sans-Serif" font-size="10.00">_streaming</text>
</a>
</g>
</g>
<!-- Node1&#45;&gt;Node21 -->
<g id="edge26" class="edge">
<title>Node1&#45;&gt;Node21</title>
<path fill="none" stroke="midnightblue" d="M58.55,-778.24C79.48,-741.39 154.08,-610.07 185.21,-555.28"/>
<polygon fill="midnightblue" stroke="midnightblue" points="188.42,-556.7 190.32,-546.28 182.34,-553.24 188.42,-556.7"/>
</g>
<!-- Node3 -->
<g id="node3" class="node">
<title>Node3</title>
<g id="a_node3"><a xlink:href="../../d5/dbe/struct_kistler_1_1_a_p_i_1_1_trigger.html#aeaca7e40e18da74c5a712686ced6abd9" target="_top" xlink:title="Set the Trigger object as a duration type: stop if after the given amount of time.">
<polygon fill="none" stroke="black" points="310,-926 310,-956 419,-956 419,-926 310,-926"/>
<text text-anchor="start" x="318" y="-944" font-family="Helvetica,sans-Serif" font-size="10.00">Kistler::API::Trigger</text>
<text text-anchor="middle" x="364.5" y="-933" font-family="Helvetica,sans-Serif" font-size="10.00">::duration</text>
</a>
</g>
</g>
<!-- Node2&#45;&gt;Node3 -->
<g id="edge2" class="edge">
<title>Node2&#45;&gt;Node3</title>
<path fill="none" stroke="midnightblue" d="M255.56,-941C269.66,-941 284.96,-941 299.49,-941"/>
<polygon fill="midnightblue" stroke="midnightblue" points="299.91,-944.5 309.91,-941 299.91,-937.5 299.91,-944.5"/>
</g>
<!-- Node4 -->
<g id="node4" class="node">
<title>Node4</title>
<g id="a_node4"><a xlink:href="../../dc/d44/class_e_s_c_1_1_c_l_i.html#abe1e5a3cc2cbd55c0704e9b13842e436" target="_top" xlink:title=" ">
<polygon fill="none" stroke="black" points="818,-535.5 818,-554.5 904,-554.5 904,-535.5 818,-535.5"/>
<text text-anchor="middle" x="861" y="-542.5" font-family="Helvetica,sans-Serif" font-size="10.00">ESC::CLI::logln</text>
</a>
</g>
</g>
<!-- Node2&#45;&gt;Node4 -->
<g id="edge3" class="edge">
<title>Node2&#45;&gt;Node4</title>
<path fill="none" stroke="midnightblue" d="M229.72,-950.62C248.37,-956.36 273.34,-963.07 296,-966 356.39,-973.81 373.77,-980.13 433,-966 591.92,-928.08 651.28,-921.06 761,-800 825.52,-728.81 849.89,-610.87 857.28,-564.54"/>
<polygon fill="midnightblue" stroke="midnightblue" points="860.75,-565.02 858.77,-554.61 853.82,-563.98 860.75,-565.02"/>
</g>
<!-- Node6 -->
<g id="node6" class="node">
<title>Node6</title>
<g id="a_node6"><a xlink:href="../../d5/dbe/struct_kistler_1_1_a_p_i_1_1_trigger.html#a8ba5c3ef957af349b4f540955e601046" target="_top" xlink:title="Set the the duration to record after the trigger.">
<polygon fill="none" stroke="black" points="310,-877 310,-907 419,-907 419,-877 310,-877"/>
<text text-anchor="start" x="318" y="-895" font-family="Helvetica,sans-Serif" font-size="10.00">Kistler::API::Trigger</text>
<text text-anchor="middle" x="364.5" y="-884" font-family="Helvetica,sans-Serif" font-size="10.00">::postTrigger</text>
</a>
</g>
</g>
<!-- Node2&#45;&gt;Node6 -->
<g id="edge5" class="edge">
<title>Node2&#45;&gt;Node6</title>
<path fill="none" stroke="midnightblue" d="M232.72,-931.44C252.93,-925.34 279.76,-917.25 303.85,-909.99"/>
<polygon fill="midnightblue" stroke="midnightblue" points="305.07,-913.27 313.63,-907.04 303.05,-906.57 305.07,-913.27"/>
</g>
<!-- Node7 -->
<g id="node7" class="node">
<title>Node7</title>
<g id="a_node7"><a xlink:href="../../d5/dbe/struct_kistler_1_1_a_p_i_1_1_trigger.html#abae711bda6d534798654fdcca6fd7db4" target="_top" xlink:title="Set the the duration to record before the trigger.">
<polygon fill="none" stroke="black" points="310,-1063 310,-1093 419,-1093 419,-1063 310,-1063"/>
<text text-anchor="start" x="318" y="-1081" font-family="Helvetica,sans-Serif" font-size="10.00">Kistler::API::Trigger</text>
<text text-anchor="middle" x="364.5" y="-1070" font-family="Helvetica,sans-Serif" font-size="10.00">::preTrigger</text>
</a>
</g>
</g>
<!-- Node2&#45;&gt;Node7 -->
<g id="edge6" class="edge">
<title>Node2&#45;&gt;Node7</title>
<path fill="none" stroke="midnightblue" d="M206.6,-950.66C219.59,-972.24 253.89,-1024.78 296,-1054 298.15,-1055.49 300.39,-1056.9 302.71,-1058.22"/>
<polygon fill="midnightblue" stroke="midnightblue" points="301.45,-1061.51 311.94,-1062.96 304.64,-1055.28 301.45,-1061.51"/>
</g>
<!-- Node8 -->
<g id="node8" class="node">
<title>Node8</title>
<g id="a_node8"><a xlink:href="../../d5/dbe/struct_kistler_1_1_a_p_i_1_1_trigger.html#a26fbd939658b506b96669ffae3e5d17b" target="_top" xlink:title="Set the Trigger object as a request type: start/stop if the API receives a START or STOP request.">
<polygon fill="none" stroke="black" points="310,-1014 310,-1044 419,-1044 419,-1014 310,-1014"/>
<text text-anchor="start" x="318" y="-1032" font-family="Helvetica,sans-Serif" font-size="10.00">Kistler::API::Trigger</text>
<text text-anchor="middle" x="364.5" y="-1021" font-family="Helvetica,sans-Serif" font-size="10.00">::request</text>
</a>
</g>
</g>
<!-- Node2&#45;&gt;Node8 -->
<g id="edge7" class="edge">
<title>Node2&#45;&gt;Node8</title>
<path fill="none" stroke="midnightblue" d="M215.47,-950.65C233.8,-962.68 266.57,-983.56 296,-999 303.03,-1002.69 310.6,-1006.34 318.04,-1009.77"/>
<polygon fill="midnightblue" stroke="midnightblue" points="316.8,-1013.05 327.36,-1013.97 319.68,-1006.67 316.8,-1013.05"/>
</g>
<!-- Node9 -->
<g id="node9" class="node">
<title>Node9</title>
<g id="a_node9"><a xlink:href="../../da/d94/class_kistler_1_1_a_p_i.html#aadc38197a3536983e07d1687fbe0e1d0" target="_top" xlink:title="Set the configuration of the DAQ.">
<polygon fill="none" stroke="black" points="302,-762.5 302,-781.5 427,-781.5 427,-762.5 302,-762.5"/>
<text text-anchor="middle" x="364.5" y="-769.5" font-family="Helvetica,sans-Serif" font-size="10.00">Kistler::API::set_config</text>
</a>
</g>
</g>
<!-- Node2&#45;&gt;Node9 -->
<g id="edge8" class="edge">
<title>Node2&#45;&gt;Node9</title>
<path fill="none" stroke="midnightblue" d="M210.2,-931.43C236.56,-904.02 312.61,-824.93 346.66,-789.51"/>
<polygon fill="midnightblue" stroke="midnightblue" points="349.59,-791.52 353.99,-781.89 344.54,-786.67 349.59,-791.52"/>
</g>
<!-- Node5 -->
<g id="node5" class="node">
<title>Node5</title>
<g id="a_node5"><a xlink:href="../../d2/d52/namespace_e_s_c.html#a1ab0660788056c78944278261498664a" target="_top" xlink:title=" ">
<polygon fill="none" stroke="black" points="998.5,-535.5 998.5,-554.5 1078.5,-554.5 1078.5,-535.5 998.5,-535.5"/>
<text text-anchor="middle" x="1038.5" y="-542.5" font-family="Helvetica,sans-Serif" font-size="10.00">ESC::get_pos</text>
</a>
</g>
</g>
<!-- Node4&#45;&gt;Node5 -->
<g id="edge4" class="edge">
<title>Node4&#45;&gt;Node5</title>
<path fill="none" stroke="midnightblue" d="M904.04,-545C929.28,-545 961.53,-545 988,-545"/>
<polygon fill="midnightblue" stroke="midnightblue" points="988.21,-548.5 998.21,-545 988.21,-541.5 988.21,-548.5"/>
</g>
<!-- Node9&#45;&gt;Node4 -->
<g id="edge19" class="edge">
<title>Node9&#45;&gt;Node4</title>
<path fill="none" stroke="midnightblue" d="M384.23,-781.58C424.58,-800.83 522.12,-839.93 597,-810 722.81,-759.72 818.51,-614.87 849.39,-563.41"/>
<polygon fill="midnightblue" stroke="midnightblue" points="852.48,-565.07 854.55,-554.68 846.45,-561.51 852.48,-565.07"/>
</g>
<!-- Node10 -->
<g id="node10" class="node">
<title>Node10</title>
<g id="a_node10"><a xlink:href="../../da/d94/class_kistler_1_1_a_p_i.html#a19649fd0c024f8a66eaff543114532e9" target="_top" xlink:title="Check the satue of the reply (result:0 =&gt; OK)">
<polygon fill="none" stroke="black" points="645,-448 645,-478 749,-478 749,-448 645,-448"/>
<text text-anchor="start" x="653" y="-466" font-family="Helvetica,sans-Serif" font-size="10.00">Kistler::API::check</text>
<text text-anchor="middle" x="697" y="-455" font-family="Helvetica,sans-Serif" font-size="10.00">_msg_error</text>
</a>
</g>
</g>
<!-- Node9&#45;&gt;Node10 -->
<g id="edge9" class="edge">
<title>Node9&#45;&gt;Node10</title>
<path fill="none" stroke="midnightblue" d="M427.05,-768.82C486.69,-764.55 571.75,-754.91 597,-734 673.52,-670.64 690.89,-542.79 694.84,-488.41"/>
<polygon fill="midnightblue" stroke="midnightblue" points="698.34,-488.46 695.48,-478.26 691.36,-488.02 698.34,-488.46"/>
</g>
<!-- Node12 -->
<g id="node12" class="node">
<title>Node12</title>
<g id="a_node12"><a xlink:href="../../da/d94/class_kistler_1_1_a_p_i.html#aeb67a2504717300d59713593da6966e6" target="_top" xlink:title="Enable or disable the measurement configuration of the DAQ. To set a new configuration,...">
<polygon fill="none" stroke="black" points="478.5,-431 478.5,-461 587.5,-461 587.5,-431 478.5,-431"/>
<text text-anchor="start" x="486.5" y="-449" font-family="Helvetica,sans-Serif" font-size="10.00">Kistler::API::enable</text>
<text text-anchor="middle" x="533" y="-438" font-family="Helvetica,sans-Serif" font-size="10.00">_config</text>
</a>
</g>
</g>
<!-- Node9&#45;&gt;Node12 -->
<g id="edge12" class="edge">
<title>Node9&#45;&gt;Node12</title>
<path fill="none" stroke="midnightblue" d="M421.15,-762.49C425.6,-759.99 429.66,-756.87 433,-753 515.79,-656.97 390.6,-569.64 469,-470 469.59,-469.26 470.2,-468.53 470.83,-467.84"/>
<polygon fill="midnightblue" stroke="midnightblue" points="473.23,-470.39 478.45,-461.17 468.62,-465.12 473.23,-470.39"/>
</g>
<!-- Node13 -->
<g id="node13" class="node">
<title>Node13</title>
<g id="a_node13"><a xlink:href="../../d7/d60/class_communication_1_1_h_t_t_p__client.html#a241e78ccad7bcbc7597cb2dde7d7e402" target="_top" xlink:title=" ">
<polygon fill="none" stroke="black" points="634.5,-399 634.5,-429 759.5,-429 759.5,-399 634.5,-399"/>
<text text-anchor="start" x="642.5" y="-417" font-family="Helvetica,sans-Serif" font-size="10.00">Communication::HTTP</text>
<text text-anchor="middle" x="697" y="-406" font-family="Helvetica,sans-Serif" font-size="10.00">_client::post</text>
</a>
</g>
</g>
<!-- Node9&#45;&gt;Node13 -->
<g id="edge20" class="edge">
<title>Node9&#45;&gt;Node13</title>
<path fill="none" stroke="midnightblue" d="M421.54,-762.37C425.85,-759.89 429.78,-756.81 433,-753 480.93,-696.35 414.54,-471.41 469,-421 513.35,-379.95 585.97,-385.54 637.11,-396.65"/>
<polygon fill="midnightblue" stroke="midnightblue" points="636.51,-400.1 647.04,-398.93 638.08,-393.28 636.51,-400.1"/>
</g>
<!-- Node17 -->
<g id="node17" class="node">
<title>Node17</title>
<g id="a_node17"><a xlink:href="../../d5/dbe/struct_kistler_1_1_a_p_i_1_1_trigger.html#a152ea47aa0aa7fac407b363ea67f2a84" target="_top" xlink:title=" ">
<polygon fill="none" stroke="black" points="469,-781.5 469,-800.5 597,-800.5 597,-781.5 469,-781.5"/>
<text text-anchor="middle" x="533" y="-788.5" font-family="Helvetica,sans-Serif" font-size="10.00">Kistler::API::Trigger::str</text>
</a>
</g>
</g>
<!-- Node9&#45;&gt;Node17 -->
<g id="edge21" class="edge">
<title>Node9&#45;&gt;Node17</title>
<path fill="none" stroke="midnightblue" d="M427.03,-779.02C437.34,-780.2 448.14,-781.43 458.72,-782.64"/>
<polygon fill="midnightblue" stroke="midnightblue" points="458.45,-786.13 468.78,-783.79 459.24,-779.17 458.45,-786.13"/>
</g>
<!-- Node10&#45;&gt;Node4 -->
<g id="edge11" class="edge">
<title>Node10&#45;&gt;Node4</title>
<path fill="none" stroke="midnightblue" d="M730.17,-478.02C740.09,-482.73 751.03,-488.01 761,-493 785.62,-505.32 813.34,-519.95 833.17,-530.54"/>
<polygon fill="midnightblue" stroke="midnightblue" points="831.76,-533.76 842.22,-535.39 835.06,-527.59 831.76,-533.76"/>
</g>
<!-- Node11 -->
<g id="node11" class="node">
<title>Node11</title>
<g id="a_node11"><a xlink:href="../../d2/d52/namespace_e_s_c.html#a080ff5f5b8a2ed3567a541acfa69a425" target="_top" xlink:title="fstr Prints a formated string.">
<polygon fill="none" stroke="black" points="832,-278.5 832,-297.5 890,-297.5 890,-278.5 832,-278.5"/>
<text text-anchor="middle" x="861" y="-285.5" font-family="Helvetica,sans-Serif" font-size="10.00">ESC::fstr</text>
</a>
</g>
</g>
<!-- Node10&#45;&gt;Node11 -->
<g id="edge10" class="edge">
<title>Node10&#45;&gt;Node11</title>
<path fill="none" stroke="midnightblue" d="M747.89,-447.85C752.68,-445.08 757.17,-441.82 761,-438 791.5,-407.58 772.85,-383.67 797,-348 808.57,-330.91 825.74,-314.97 839.23,-303.82"/>
<polygon fill="midnightblue" stroke="midnightblue" points="841.46,-306.52 847.07,-297.53 837.08,-301.06 841.46,-306.52"/>
</g>
<!-- Node12&#45;&gt;Node10 -->
<g id="edge13" class="edge">
<title>Node12&#45;&gt;Node10</title>
<path fill="none" stroke="midnightblue" d="M587.94,-451.66C602.97,-453.24 619.4,-454.96 634.81,-456.58"/>
<polygon fill="midnightblue" stroke="midnightblue" points="634.45,-460.06 644.76,-457.62 635.18,-453.1 634.45,-460.06"/>
</g>
<!-- Node12&#45;&gt;Node13 -->
<g id="edge14" class="edge">
<title>Node12&#45;&gt;Node13</title>
<path fill="none" stroke="midnightblue" d="M587.94,-435.34C599.59,-433.04 612.09,-430.58 624.29,-428.16"/>
<polygon fill="midnightblue" stroke="midnightblue" points="625.32,-431.53 634.46,-426.16 623.97,-424.66 625.32,-431.53"/>
</g>
<!-- Node14 -->
<g id="node14" class="node">
<title>Node14</title>
<g id="a_node14"><a xlink:href="../../df/dcd/class_communication_1_1_client.html#a73fec58648938364cd65d690f50bd7ec" target="_top" xlink:title="readS read the com inmterface.">
<polygon fill="none" stroke="black" points="797,-224 797,-254 925,-254 925,-224 797,-224"/>
<text text-anchor="start" x="805" y="-242" font-family="Helvetica,sans-Serif" font-size="10.00">Communication::Client</text>
<text text-anchor="middle" x="861" y="-231" font-family="Helvetica,sans-Serif" font-size="10.00">::readS</text>
</a>
</g>
</g>
<!-- Node13&#45;&gt;Node14 -->
<g id="edge15" class="edge">
<title>Node13&#45;&gt;Node14</title>
<path fill="none" stroke="midnightblue" d="M706.96,-398.82C726.68,-365.79 773.9,-288.77 797,-269 801.26,-265.36 806.03,-262.05 811,-259.08"/>
<polygon fill="midnightblue" stroke="midnightblue" points="813,-261.97 820.07,-254.09 809.62,-255.84 813,-261.97"/>
</g>
<!-- Node16 -->
<g id="node16" class="node">
<title>Node16</title>
<g id="a_node16"><a xlink:href="../../df/dcd/class_communication_1_1_client.html#a32bd631bcb3b0a3476b146a0cc49332d" target="_top" xlink:title="writeS write the com interface.">
<polygon fill="none" stroke="black" points="797,-358 797,-388 925,-388 925,-358 797,-358"/>
<text text-anchor="start" x="805" y="-376" font-family="Helvetica,sans-Serif" font-size="10.00">Communication::Client</text>
<text text-anchor="middle" x="861" y="-365" font-family="Helvetica,sans-Serif" font-size="10.00">::writeS</text>
</a>
</g>
</g>
<!-- Node13&#45;&gt;Node16 -->
<g id="edge17" class="edge">
<title>Node13&#45;&gt;Node16</title>
<path fill="none" stroke="midnightblue" d="M757.4,-398.97C768.3,-396.21 779.76,-393.31 790.91,-390.49"/>
<polygon fill="midnightblue" stroke="midnightblue" points="791.77,-393.88 800.6,-388.03 790.05,-387.09 791.77,-393.88"/>
</g>
<!-- Node15 -->
<g id="node15" class="node">
<title>Node15</title>
<g id="a_node15"><a xlink:href="../../df/dcd/class_communication_1_1_client.html#a7020654cbb2e6f707fe637fc84d8328c" target="_top" xlink:title="CRC Compute and return the CRC over the n first bytes of buf.">
<polygon fill="none" stroke="black" points="961,-276.5 961,-295.5 1116,-295.5 1116,-276.5 961,-276.5"/>
<text text-anchor="middle" x="1038.5" y="-283.5" font-family="Helvetica,sans-Serif" font-size="10.00">Communication::Client::CRC</text>
</a>
</g>
</g>
<!-- Node14&#45;&gt;Node15 -->
<g id="edge16" class="edge">
<title>Node14&#45;&gt;Node15</title>
<path fill="none" stroke="midnightblue" d="M918.01,-254C941.95,-260.41 969.54,-267.8 992.17,-273.86"/>
<polygon fill="midnightblue" stroke="midnightblue" points="991.3,-277.25 1001.86,-276.46 993.11,-270.49 991.3,-277.25"/>
</g>
<!-- Node16&#45;&gt;Node15 -->
<g id="edge18" class="edge">
<title>Node16&#45;&gt;Node15</title>
<path fill="none" stroke="midnightblue" d="M892.57,-357.85C925.32,-341.61 976.9,-316.04 1008.88,-300.19"/>
<polygon fill="midnightblue" stroke="midnightblue" points="1010.73,-303.18 1018.13,-295.6 1007.62,-296.91 1010.73,-303.18"/>
</g>
<!-- Node18&#45;&gt;Node4 -->
<g id="edge23" class="edge">
<title>Node18&#45;&gt;Node4</title>
<path fill="none" stroke="midnightblue" d="M230.94,-797.57C297.52,-817.46 462.59,-858.98 597,-829 675.59,-811.47 703.86,-808.73 761,-752 816.55,-696.84 845.16,-604.38 855.45,-564.4"/>
<polygon fill="midnightblue" stroke="midnightblue" points="858.87,-565.13 857.87,-554.58 852.08,-563.45 858.87,-565.13"/>
</g>
<!-- Node19 -->
<g id="node19" class="node">
<title>Node19</title>
<g id="a_node19"><a xlink:href="../../d7/d60/class_communication_1_1_h_t_t_p__client.html#a67973a5bc8e92122bc5f98c95990bca7" target="_top" xlink:title=" ">
<polygon fill="none" stroke="black" points="296,-713 296,-743 433,-743 433,-713 296,-713"/>
<text text-anchor="start" x="304" y="-731" font-family="Helvetica,sans-Serif" font-size="10.00">Communication::HTTP</text>
<text text-anchor="middle" x="364.5" y="-720" font-family="Helvetica,sans-Serif" font-size="10.00">_client::open_connection</text>
</a>
</g>
</g>
<!-- Node18&#45;&gt;Node19 -->
<g id="edge24" class="edge">
<title>Node18&#45;&gt;Node19</title>
<path fill="none" stroke="midnightblue" d="M226.75,-778.49C249.91,-769.94 284.58,-757.14 313.22,-746.56"/>
<polygon fill="midnightblue" stroke="midnightblue" points="314.51,-749.82 322.68,-743.07 312.08,-743.25 314.51,-749.82"/>
</g>
<!-- Node20 -->
<g id="node20" class="node">
<title>Node20</title>
<g id="a_node20"><a xlink:href="../../df/dcd/class_communication_1_1_client.html#a66336ae23ea502a9395010407a952664" target="_top" xlink:title="open_connection Open the connection the serial or network or interface">
<polygon fill="none" stroke="black" points="469,-694 469,-724 597,-724 597,-694 469,-694"/>
<text text-anchor="start" x="477" y="-712" font-family="Helvetica,sans-Serif" font-size="10.00">Communication::Client</text>
<text text-anchor="middle" x="533" y="-701" font-family="Helvetica,sans-Serif" font-size="10.00">::open_connection</text>
</a>
</g>
</g>
<!-- Node19&#45;&gt;Node20 -->
<g id="edge25" class="edge">
<title>Node19&#45;&gt;Node20</title>
<path fill="none" stroke="midnightblue" d="M433.22,-720.27C441.7,-719.3 450.4,-718.31 458.95,-717.34"/>
<polygon fill="midnightblue" stroke="midnightblue" points="459.37,-720.81 468.91,-716.2 458.57,-713.86 459.37,-720.81"/>
</g>
<!-- Node22 -->
<g id="node22" class="node">
<title>Node22</title>
<g id="a_node22"><a xlink:href="../../da/d97/class_kistler_1_1_d_a_q.html#a4f89e1c93f34ce2b85fe0e10287b8165" target="_top" xlink:title="Thread streaming LSL samples.">
<polygon fill="none" stroke="black" points="296,-305 296,-335 433,-335 433,-305 296,-305"/>
<text text-anchor="start" x="304" y="-323" font-family="Helvetica,sans-Serif" font-size="10.00">Kistler::DAQ::_streaming</text>
<text text-anchor="middle" x="364.5" y="-312" font-family="Helvetica,sans-Serif" font-size="10.00">_thread</text>
</a>
</g>
</g>
<!-- Node21&#45;&gt;Node22 -->
<g id="edge27" class="edge">
<title>Node21&#45;&gt;Node22</title>
<path fill="none" stroke="midnightblue" d="M212.69,-515.83C240.8,-479.33 312.32,-386.45 345.76,-343.03"/>
<polygon fill="midnightblue" stroke="midnightblue" points="348.59,-345.1 351.92,-335.04 343.04,-340.82 348.59,-345.1"/>
</g>
<!-- Node22&#45;&gt;Node4 -->
<g id="edge39" class="edge">
<title>Node22&#45;&gt;Node4</title>
<path fill="none" stroke="midnightblue" d="M367.94,-335.24C377.74,-394.39 416.29,-607.43 469,-646 588.72,-733.6 777.65,-607.39 839.59,-560.97"/>
<polygon fill="midnightblue" stroke="midnightblue" points="841.95,-563.58 847.79,-554.74 837.71,-558.01 841.95,-563.58"/>
</g>
<!-- Node22&#45;&gt;Node20 -->
<g id="edge48" class="edge">
<title>Node22&#45;&gt;Node20</title>
<path fill="none" stroke="midnightblue" d="M365.64,-335.35C366.94,-389.19 378.15,-571.91 469,-679 471.94,-682.47 475.38,-685.57 479.11,-688.33"/>
<polygon fill="midnightblue" stroke="midnightblue" points="477.33,-691.35 487.63,-693.85 481.14,-685.48 477.33,-691.35"/>
</g>
<!-- Node23 -->
<g id="node23" class="node">
<title>Node23</title>
<g id="a_node23"><a xlink:href="../../df/dcd/class_communication_1_1_client.html#aa448a9277e9bed8326f74ad81062ab77" target="_top" xlink:title=" ">
<polygon fill="none" stroke="black" points="633,-273 633,-303 761,-303 761,-273 633,-273"/>
<text text-anchor="start" x="641" y="-291" font-family="Helvetica,sans-Serif" font-size="10.00">Communication::Client</text>
<text text-anchor="middle" x="697" y="-280" font-family="Helvetica,sans-Serif" font-size="10.00">::close_connection</text>
</a>
</g>
</g>
<!-- Node22&#45;&gt;Node23 -->
<g id="edge28" class="edge">
<title>Node22&#45;&gt;Node23</title>
<path fill="none" stroke="midnightblue" d="M383.48,-304.76C403.05,-289.27 435.99,-266.26 469,-257 523.78,-241.64 540.76,-248.4 597,-257 613.96,-259.59 632,-264.55 647.97,-269.75"/>
<polygon fill="midnightblue" stroke="midnightblue" points="647.02,-273.12 657.62,-273 649.26,-266.49 647.02,-273.12"/>
</g>
<!-- Node24 -->
<g id="node24" class="node">
<title>Node24</title>
<g id="a_node24"><a xlink:href="../../da/d94/class_kistler_1_1_a_p_i.html#a46c24eb334e1af47b3b17408918c5491" target="_top" xlink:title="Close a streaming port.">
<polygon fill="none" stroke="black" points="482.5,-480 482.5,-510 583.5,-510 583.5,-480 482.5,-480"/>
<text text-anchor="start" x="490.5" y="-498" font-family="Helvetica,sans-Serif" font-size="10.00">Kistler::API::close</text>
<text text-anchor="middle" x="533" y="-487" font-family="Helvetica,sans-Serif" font-size="10.00">_stream</text>
</a>
</g>
</g>
<!-- Node22&#45;&gt;Node24 -->
<g id="edge31" class="edge">
<title>Node22&#45;&gt;Node24</title>
<path fill="none" stroke="midnightblue" d="M372.32,-335.41C386.3,-365.34 420.98,-431.77 469,-470 471.24,-471.79 473.63,-473.46 476.12,-475.02"/>
<polygon fill="midnightblue" stroke="midnightblue" points="474.43,-478.09 484.86,-479.94 477.86,-471.99 474.43,-478.09"/>
</g>
<!-- Node25 -->
<g id="node25" class="node">
<title>Node25</title>
<g id="a_node25"><a xlink:href="../../da/d94/class_kistler_1_1_a_p_i.html#a5a1c3d8d1e5b6f496726293f09cc91c9" target="_top" xlink:title="Unregister a client.">
<polygon fill="none" stroke="black" points="479.5,-305 479.5,-335 586.5,-335 586.5,-305 479.5,-305"/>
<text text-anchor="start" x="487.5" y="-323" font-family="Helvetica,sans-Serif" font-size="10.00">Kistler::API::delete</text>
<text text-anchor="middle" x="533" y="-312" font-family="Helvetica,sans-Serif" font-size="10.00">_client</text>
</a>
</g>
</g>
<!-- Node22&#45;&gt;Node25 -->
<g id="edge35" class="edge">
<title>Node22&#45;&gt;Node25</title>
<path fill="none" stroke="midnightblue" d="M433.22,-320C445.13,-320 457.48,-320 469.24,-320"/>
<polygon fill="midnightblue" stroke="midnightblue" points="469.4,-323.5 479.4,-320 469.4,-316.5 469.4,-323.5"/>
</g>
<!-- Node26 -->
<g id="node26" class="node">
<title>Node26</title>
<g id="a_node26"><a xlink:href="../../da/d53/built__lsl_2include_2lsl__c_8h.html#a22a7097dedf222014e6b878f3870b0fa" target="_top" xlink:title=" ">
<polygon fill="none" stroke="black" points="484,-76.5 484,-95.5 582,-95.5 582,-76.5 484,-76.5"/>
<text text-anchor="middle" x="533" y="-83.5" font-family="Helvetica,sans-Serif" font-size="10.00">lsl_create_outlet</text>
</a>
</g>
</g>
<!-- Node22&#45;&gt;Node26 -->
<g id="edge40" class="edge">
<title>Node22&#45;&gt;Node26</title>
<path fill="none" stroke="midnightblue" d="M368.85,-305C378.08,-267.01 407.38,-166.09 469,-110 473.38,-106.01 478.49,-102.66 483.87,-99.86"/>
<polygon fill="midnightblue" stroke="midnightblue" points="485.47,-102.98 493.1,-95.63 482.55,-96.61 485.47,-102.98"/>
</g>
<!-- Node27 -->
<g id="node27" class="node">
<title>Node27</title>
<g id="a_node27"><a xlink:href="../../da/d53/built__lsl_2include_2lsl__c_8h.html#ad84630a74d54a33c972daa18feb78c9d" target="_top" xlink:title=" ">
<polygon fill="none" stroke="black" points="472,-38.5 472,-57.5 594,-57.5 594,-38.5 472,-38.5"/>
<text text-anchor="middle" x="533" y="-45.5" font-family="Helvetica,sans-Serif" font-size="10.00">lsl_create_streaminfo</text>
</a>
</g>
</g>
<!-- Node22&#45;&gt;Node27 -->
<g id="edge41" class="edge">
<title>Node22&#45;&gt;Node27</title>
<path fill="none" stroke="midnightblue" d="M367.18,-304.92C372.85,-261.34 395.25,-134.03 469,-67 470.72,-65.44 472.56,-64.01 474.49,-62.69"/>
<polygon fill="midnightblue" stroke="midnightblue" points="476.48,-65.59 483.48,-57.65 473.05,-59.49 476.48,-65.59"/>
</g>
<!-- Node28 -->
<g id="node28" class="node">
<title>Node28</title>
<g id="a_node28"><a xlink:href="../../da/d53/built__lsl_2include_2lsl__c_8h.html#a0588f316a9e406e61f1507d8f756529f" target="_top" xlink:title=" ">
<polygon fill="none" stroke="black" points="481,-0.5 481,-19.5 585,-19.5 585,-0.5 481,-0.5"/>
<text text-anchor="middle" x="533" y="-7.5" font-family="Helvetica,sans-Serif" font-size="10.00">lsl_destroy_outlet</text>
</a>
</g>
</g>
<!-- Node22&#45;&gt;Node28 -->
<g id="edge42" class="edge">
<title>Node22&#45;&gt;Node28</title>
<path fill="none" stroke="midnightblue" d="M366.28,-304.79C369.56,-256.91 386.29,-107.77 469,-29 470.65,-27.43 472.42,-25.99 474.29,-24.67"/>
<polygon fill="midnightblue" stroke="midnightblue" points="476.11,-27.66 482.99,-19.61 472.59,-21.61 476.11,-27.66"/>
</g>
<!-- Node29 -->
<g id="node29" class="node">
<title>Node29</title>
<g id="a_node29"><a xlink:href="../../da/d53/built__lsl_2include_2lsl__c_8h.html#a80f314d925564890ee64b1c2a699bdb0" target="_top" xlink:title=" ">
<polygon fill="none" stroke="black" points="481.5,-354.5 481.5,-373.5 584.5,-373.5 584.5,-354.5 481.5,-354.5"/>
<text text-anchor="middle" x="533" y="-361.5" font-family="Helvetica,sans-Serif" font-size="10.00">lsl_push_chunk_ft</text>
</a>
</g>
</g>
<!-- Node22&#45;&gt;Node29 -->
<g id="edge43" class="edge">
<title>Node22&#45;&gt;Node29</title>
<path fill="none" stroke="midnightblue" d="M422.33,-335.02C443.03,-340.49 466.16,-346.6 485.82,-351.8"/>
<polygon fill="midnightblue" stroke="midnightblue" points="485.19,-355.25 495.75,-354.42 486.98,-348.48 485.19,-355.25"/>
</g>
<!-- Node30 -->
<g id="node30" class="node">
<title>Node30</title>
<g id="a_node30"><a xlink:href="../../da/d94/class_kistler_1_1_a_p_i.html#a0e3329ec10d12ef325520b4c106f8d83" target="_top" xlink:title="Register a new client and get its ID.">
<polygon fill="none" stroke="black" points="469,-266.5 469,-285.5 597,-285.5 597,-266.5 469,-266.5"/>
<text text-anchor="middle" x="533" y="-273.5" font-family="Helvetica,sans-Serif" font-size="10.00">Kistler::API::new_client</text>
</a>
</g>
</g>
<!-- Node22&#45;&gt;Node30 -->
<g id="edge44" class="edge">
<title>Node22&#45;&gt;Node30</title>
<path fill="none" stroke="midnightblue" d="M422.33,-304.98C443.03,-299.51 466.16,-293.4 485.82,-288.2"/>
<polygon fill="midnightblue" stroke="midnightblue" points="486.98,-291.52 495.75,-285.58 485.19,-284.75 486.98,-291.52"/>
</g>
<!-- Node31 -->
<g id="node31" class="node">
<title>Node31</title>
<g id="a_node31"><a xlink:href="../../da/d94/class_kistler_1_1_a_p_i.html#a098b5c9b8d99e1759efba5ef119475d9" target="_top" xlink:title="Open a streaming port. The port will be closed if no connection is made within 30 seconds.">
<polygon fill="none" stroke="black" points="483,-568 483,-598 583,-598 583,-568 483,-568"/>
<text text-anchor="start" x="491" y="-586" font-family="Helvetica,sans-Serif" font-size="10.00">Kistler::API::open</text>
<text text-anchor="middle" x="533" y="-575" font-family="Helvetica,sans-Serif" font-size="10.00">_stream</text>
</a>
</g>
</g>
<!-- Node22&#45;&gt;Node31 -->
<g id="edge49" class="edge">
<title>Node22&#45;&gt;Node31</title>
<path fill="none" stroke="midnightblue" d="M367.95,-335.09C375.42,-376.44 401.66,-492.81 469,-558 470.65,-559.6 472.41,-561.09 474.26,-562.5"/>
<polygon fill="midnightblue" stroke="midnightblue" points="472.56,-565.57 482.85,-568.09 476.38,-559.7 472.56,-565.57"/>
</g>
<!-- Node32 -->
<g id="node32" class="node">
<title>Node32</title>
<g id="a_node32"><a xlink:href="../../da/d97/class_kistler_1_1_d_a_q.html#a3d0ae8c3f89ca09717a55451b34f6e6f" target="_top" xlink:title="Read a subframe as an event (type 0 in header)">
<polygon fill="none" stroke="black" points="645,-224 645,-254 749,-254 749,-224 645,-224"/>
<text text-anchor="start" x="653" y="-242" font-family="Helvetica,sans-Serif" font-size="10.00">Kistler::DAQ::read</text>
<text text-anchor="middle" x="697" y="-231" font-family="Helvetica,sans-Serif" font-size="10.00">_event</text>
</a>
</g>
</g>
<!-- Node22&#45;&gt;Node32 -->
<g id="edge53" class="edge">
<title>Node22&#45;&gt;Node32</title>
<path fill="none" stroke="midnightblue" d="M379.89,-304.81C398.45,-286.41 432.7,-256.34 469,-244 522.89,-225.68 588.22,-226.44 634.92,-230.58"/>
<polygon fill="midnightblue" stroke="midnightblue" points="634.6,-234.06 644.89,-231.54 635.27,-227.09 634.6,-234.06"/>
</g>
<!-- Node33 -->
<g id="node33" class="node">
<title>Node33</title>
<g id="a_node33"><a xlink:href="../../da/d97/class_kistler_1_1_d_a_q.html#ad39263026e83eafcc4e195181a94d706" target="_top" xlink:title="read the header of an incoming frame">
<polygon fill="none" stroke="black" points="645,-171 645,-201 749,-201 749,-171 645,-171"/>
<text text-anchor="start" x="653" y="-189" font-family="Helvetica,sans-Serif" font-size="10.00">Kistler::DAQ::read</text>
<text text-anchor="middle" x="697" y="-178" font-family="Helvetica,sans-Serif" font-size="10.00">_header</text>
</a>
</g>
</g>
<!-- Node22&#45;&gt;Node33 -->
<g id="edge57" class="edge">
<title>Node22&#45;&gt;Node33</title>
<path fill="none" stroke="midnightblue" d="M377.03,-304.97C394.43,-283.45 429.59,-244.35 469,-225 521.17,-199.39 587.27,-190.29 634.66,-187.2"/>
<polygon fill="midnightblue" stroke="midnightblue" points="635,-190.69 644.78,-186.62 634.6,-183.7 635,-190.69"/>
</g>
<!-- Node34 -->
<g id="node34" class="node">
<title>Node34</title>
<g id="a_node34"><a xlink:href="../../da/d97/class_kistler_1_1_d_a_q.html#ae236ac769128029dc1f59c8bdaceeb1a" target="_top" xlink:title="Read a subframe as a data frame (type 1 in header)">
<polygon fill="none" stroke="black" points="645,-114 645,-144 749,-144 749,-114 645,-114"/>
<text text-anchor="start" x="653" y="-132" font-family="Helvetica,sans-Serif" font-size="10.00">Kistler::DAQ::read</text>
<text text-anchor="middle" x="697" y="-121" font-family="Helvetica,sans-Serif" font-size="10.00">_measurement</text>
</a>
</g>
</g>
<!-- Node22&#45;&gt;Node34 -->
<g id="edge59" class="edge">
<title>Node22&#45;&gt;Node34</title>
<path fill="none" stroke="midnightblue" d="M373.13,-304.69C387.76,-276.96 422.48,-218.48 469,-188 519.08,-155.18 586.52,-140.6 634.86,-134.13"/>
<polygon fill="midnightblue" stroke="midnightblue" points="635.38,-137.59 644.87,-132.87 634.51,-130.65 635.38,-137.59"/>
</g>
<!-- Node35 -->
<g id="node35" class="node">
<title>Node35</title>
<g id="a_node35"><a xlink:href="../../da/d94/class_kistler_1_1_a_p_i.html#a1241535349db9c80adea109500ba7c79" target="_top" xlink:title="Send a START request to the DAQ.">
<polygon fill="none" stroke="black" points="484,-529.5 484,-548.5 582,-548.5 582,-529.5 484,-529.5"/>
<text text-anchor="middle" x="533" y="-536.5" font-family="Helvetica,sans-Serif" font-size="10.00">Kistler::API::start</text>
</a>
</g>
</g>
<!-- Node22&#45;&gt;Node35 -->
<g id="edge61" class="edge">
<title>Node22&#45;&gt;Node35</title>
<path fill="none" stroke="midnightblue" d="M369.12,-335.24C378.72,-372.33 408.35,-467.99 469,-519 471.67,-521.25 474.6,-523.24 477.68,-525.01"/>
<polygon fill="midnightblue" stroke="midnightblue" points="476.18,-528.18 486.7,-529.44 479.26,-521.89 476.18,-528.18"/>
</g>
<!-- Node36 -->
<g id="node36" class="node">
<title>Node36</title>
<g id="a_node36"><a xlink:href="../../da/d94/class_kistler_1_1_a_p_i.html#a5410196834e57bb4376380d609390e25" target="_top" xlink:title="Send a STOP request to the DAQ.">
<polygon fill="none" stroke="black" points="484.5,-617.5 484.5,-636.5 581.5,-636.5 581.5,-617.5 484.5,-617.5"/>
<text text-anchor="middle" x="533" y="-624.5" font-family="Helvetica,sans-Serif" font-size="10.00">Kistler::API::stop</text>
</a>
</g>
</g>
<!-- Node22&#45;&gt;Node36 -->
<g id="edge65" class="edge">
<title>Node22&#45;&gt;Node36</title>
<path fill="none" stroke="midnightblue" d="M366.33,-335.05C369.78,-382.45 386.92,-530.09 469,-608 470.92,-609.82 473.01,-611.47 475.22,-612.96"/>
<polygon fill="midnightblue" stroke="midnightblue" points="473.82,-616.19 484.27,-617.97 477.21,-610.06 473.82,-616.19"/>
</g>
<!-- Node23&#45;&gt;Node4 -->
<g id="edge30" class="edge">
<title>Node23&#45;&gt;Node4</title>
<path fill="none" stroke="midnightblue" d="M740.43,-303.02C747.93,-307.04 755.19,-311.99 761,-318 764.92,-322.06 829.03,-472.21 851.94,-526.04"/>
<polygon fill="midnightblue" stroke="midnightblue" points="848.81,-527.62 855.94,-535.45 855.25,-524.88 848.81,-527.62"/>
</g>
<!-- Node23&#45;&gt;Node11 -->
<g id="edge29" class="edge">
<title>Node23&#45;&gt;Node11</title>
<path fill="none" stroke="midnightblue" d="M761.1,-288C781.59,-288 803.7,-288 821.81,-288"/>
<polygon fill="midnightblue" stroke="midnightblue" points="821.96,-291.5 831.96,-288 821.96,-284.5 821.96,-291.5"/>
</g>
<!-- Node24&#45;&gt;Node4 -->
<g id="edge33" class="edge">
<title>Node24&#45;&gt;Node4</title>
<path fill="none" stroke="midnightblue" d="M583.51,-502.59C644.09,-511.88 746.17,-527.54 807.9,-537.01"/>
<polygon fill="midnightblue" stroke="midnightblue" points="807.4,-540.47 817.82,-538.53 808.46,-533.55 807.4,-540.47"/>
</g>
<!-- Node24&#45;&gt;Node10 -->
<g id="edge32" class="edge">
<title>Node24&#45;&gt;Node10</title>
<path fill="none" stroke="midnightblue" d="M583.93,-485.14C599.94,-481.97 617.86,-478.43 634.6,-475.13"/>
<polygon fill="midnightblue" stroke="midnightblue" points="635.71,-478.48 644.84,-473.11 634.35,-471.61 635.71,-478.48"/>
</g>
<!-- Node24&#45;&gt;Node13 -->
<g id="edge34" class="edge">
<title>Node24&#45;&gt;Node13</title>
<path fill="none" stroke="midnightblue" d="M577.67,-479.99C584.34,-477.04 590.99,-473.7 597,-470 615.23,-458.77 614.7,-449.1 633,-438 635.62,-436.41 638.36,-434.9 641.17,-433.46"/>
<polygon fill="midnightblue" stroke="midnightblue" points="642.78,-436.57 650.32,-429.12 639.78,-430.24 642.78,-436.57"/>
</g>
<!-- Node25&#45;&gt;Node4 -->
<g id="edge37" class="edge">
<title>Node25&#45;&gt;Node4</title>
<path fill="none" stroke="midnightblue" d="M586.73,-333.95C649.28,-350.82 746.9,-378.28 761,-389 809.15,-425.62 840.08,-492.95 853.04,-525.86"/>
<polygon fill="midnightblue" stroke="midnightblue" points="849.78,-527.16 856.61,-535.26 856.33,-524.67 849.78,-527.16"/>
</g>
<!-- Node25&#45;&gt;Node10 -->
<g id="edge36" class="edge">
<title>Node25&#45;&gt;Node10</title>
<path fill="none" stroke="midnightblue" d="M583.93,-335.11C588.71,-337.89 593.19,-341.16 597,-345 628.21,-376.47 601.79,-406.53 633,-438 634.43,-439.44 635.95,-440.8 637.55,-442.09"/>
<polygon fill="midnightblue" stroke="midnightblue" points="635.83,-445.15 646.07,-447.89 639.77,-439.37 635.83,-445.15"/>
</g>
<!-- Node25&#45;&gt;Node13 -->
<g id="edge38" class="edge">
<title>Node25&#45;&gt;Node13</title>
<path fill="none" stroke="midnightblue" d="M579.33,-335.11C585.5,-337.98 591.57,-341.27 597,-345 616.45,-358.35 614.01,-370.01 633,-384 638.06,-387.72 643.65,-391.17 649.35,-394.3"/>
<polygon fill="midnightblue" stroke="midnightblue" points="647.86,-397.47 658.35,-398.95 651.07,-391.25 647.86,-397.47"/>
</g>
<!-- Node30&#45;&gt;Node4 -->
<g id="edge46" class="edge">
<title>Node30&#45;&gt;Node4</title>
<path fill="none" stroke="midnightblue" d="M568.97,-285.54C578.18,-288.33 588.04,-291.56 597,-295 613.52,-301.35 616.38,-305.93 633,-312 688.28,-332.21 715.39,-308.79 761,-346 791.31,-370.73 835.71,-481.11 852.86,-525.96"/>
<polygon fill="midnightblue" stroke="midnightblue" points="849.63,-527.29 856.45,-535.4 856.17,-524.81 849.63,-527.29"/>
</g>
<!-- Node30&#45;&gt;Node10 -->
<g id="edge45" class="edge">
<title>Node30&#45;&gt;Node10</title>
<path fill="none" stroke="midnightblue" d="M584,-285.55C588.82,-288.02 593.29,-291.12 597,-295 642.26,-342.4 589.79,-388.72 633,-438 634.17,-439.34 635.43,-440.61 636.75,-441.81"/>
<polygon fill="midnightblue" stroke="midnightblue" points="634.87,-444.77 644.97,-447.97 639.07,-439.17 634.87,-444.77"/>
</g>
<!-- Node30&#45;&gt;Node13 -->
<g id="edge47" class="edge">
<title>Node30&#45;&gt;Node13</title>
<path fill="none" stroke="midnightblue" d="M579.12,-285.56C585.45,-288.03 591.62,-291.13 597,-295 619.51,-311.22 615.53,-324.44 633,-346 645.75,-361.74 661.2,-378.44 673.6,-391.35"/>
<polygon fill="midnightblue" stroke="midnightblue" points="671.41,-394.12 680.88,-398.86 676.43,-389.25 671.41,-394.12"/>
</g>
<!-- Node31&#45;&gt;Node4 -->
<g id="edge51" class="edge">
<title>Node31&#45;&gt;Node4</title>
<path fill="none" stroke="midnightblue" d="M583.16,-577.27C643.73,-570.21 746.2,-558.27 808.03,-551.06"/>
<polygon fill="midnightblue" stroke="midnightblue" points="808.44,-554.53 817.97,-549.9 807.63,-547.58 808.44,-554.53"/>
</g>
<!-- Node31&#45;&gt;Node10 -->
<g id="edge50" class="edge">
<title>Node31&#45;&gt;Node10</title>
<path fill="none" stroke="midnightblue" d="M578.46,-567.89C584.89,-564.99 591.26,-561.69 597,-558 628.31,-537.87 658.28,-506.92 676.88,-485.86"/>
<polygon fill="midnightblue" stroke="midnightblue" points="679.76,-487.89 683.67,-478.04 674.47,-483.3 679.76,-487.89"/>
</g>
<!-- Node31&#45;&gt;Node13 -->
<g id="edge52" class="edge">
<title>Node31&#45;&gt;Node13</title>
<path fill="none" stroke="midnightblue" d="M583,-568.91C588.2,-565.93 593.02,-562.34 597,-558 634.64,-516.97 595.08,-478.77 633,-438 633.9,-437.04 634.84,-436.11 635.81,-435.22"/>
<polygon fill="midnightblue" stroke="midnightblue" points="638.06,-437.91 643.94,-429.1 633.85,-432.32 638.06,-437.91"/>
</g>
<!-- Node32&#45;&gt;Node4 -->
<g id="edge55" class="edge">
<title>Node32&#45;&gt;Node4</title>
<path fill="none" stroke="midnightblue" d="M749.26,-253.44C753.61,-256.11 757.63,-259.27 761,-263 802.34,-308.76 776.87,-338.71 797,-397 813.41,-444.51 837.89,-498.38 850.98,-526.18"/>
<polygon fill="midnightblue" stroke="midnightblue" points="847.95,-527.95 855.4,-535.49 854.27,-524.95 847.95,-527.95"/>
</g>
<!-- Node32&#45;&gt;Node11 -->
<g id="edge54" class="edge">
<title>Node32&#45;&gt;Node11</title>
<path fill="none" stroke="midnightblue" d="M747.93,-254.1C771.79,-261.32 799.9,-269.82 821.99,-276.5"/>
<polygon fill="midnightblue" stroke="midnightblue" points="821.1,-279.89 831.68,-279.44 823.12,-273.19 821.1,-279.89"/>
</g>
<!-- Node32&#45;&gt;Node14 -->
<g id="edge56" class="edge">
<title>Node32&#45;&gt;Node14</title>
<path fill="none" stroke="midnightblue" d="M749.26,-239C761.18,-239 774.1,-239 786.77,-239"/>
<polygon fill="midnightblue" stroke="midnightblue" points="786.84,-242.5 796.84,-239 786.84,-235.5 786.84,-242.5"/>
</g>
<!-- Node33&#45;&gt;Node14 -->
<g id="edge58" class="edge">
<title>Node33&#45;&gt;Node14</title>
<path fill="none" stroke="midnightblue" d="M743.99,-201.05C762.71,-207.17 784.53,-214.31 804.16,-220.73"/>
<polygon fill="midnightblue" stroke="midnightblue" points="803.3,-224.13 813.9,-223.92 805.48,-217.48 803.3,-224.13"/>
</g>
<!-- Node34&#45;&gt;Node14 -->
<g id="edge60" class="edge">
<title>Node34&#45;&gt;Node14</title>
<path fill="none" stroke="midnightblue" d="M730.73,-144.09C740.68,-149.08 751.49,-154.92 761,-161 787.62,-178.01 815.7,-200.64 835.13,-217.15"/>
<polygon fill="midnightblue" stroke="midnightblue" points="833.03,-219.95 842.9,-223.81 837.59,-214.64 833.03,-219.95"/>
</g>
<!-- Node35&#45;&gt;Node4 -->
<g id="edge63" class="edge">
<title>Node35&#45;&gt;Node4</title>
<path fill="none" stroke="midnightblue" d="M582.1,-539.89C642.38,-540.99 745.3,-542.89 807.55,-544.03"/>
<polygon fill="midnightblue" stroke="midnightblue" points="807.86,-547.54 817.92,-544.23 807.99,-540.54 807.86,-547.54"/>
</g>
<!-- Node35&#45;&gt;Node10 -->
<g id="edge62" class="edge">
<title>Node35&#45;&gt;Node10</title>
<path fill="none" stroke="midnightblue" d="M568.48,-529.47C577.88,-526.49 587.95,-522.94 597,-519 620.28,-508.85 645.16,-494.76 664.16,-483.26"/>
<polygon fill="midnightblue" stroke="midnightblue" points="666.01,-486.22 672.71,-478.01 662.35,-480.26 666.01,-486.22"/>
</g>
<!-- Node35&#45;&gt;Node13 -->
<g id="edge64" class="edge">
<title>Node35&#45;&gt;Node13</title>
<path fill="none" stroke="midnightblue" d="M580.19,-529.44C586.3,-526.77 592.13,-523.36 597,-519 626.36,-492.73 604.4,-465.09 633,-438 634.26,-436.81 635.58,-435.68 636.95,-434.6"/>
<polygon fill="midnightblue" stroke="midnightblue" points="638.95,-437.47 645.32,-429.01 635.06,-431.65 638.95,-437.47"/>
</g>
<!-- Node36&#45;&gt;Node4 -->
<g id="edge66" class="edge">
<title>Node36&#45;&gt;Node4</title>
<path fill="none" stroke="midnightblue" d="M581.76,-618.27C627.95,-609.45 699.75,-594.76 761,-578 782.18,-572.2 805.5,-564.5 824.18,-557.99"/>
<polygon fill="midnightblue" stroke="midnightblue" points="825.5,-561.24 833.77,-554.61 823.17,-554.63 825.5,-561.24"/>
</g>
<!-- Node36&#45;&gt;Node13 -->
<g id="edge67" class="edge">
<title>Node36&#45;&gt;Node13</title>
<path fill="none" stroke="midnightblue" d="M581.66,-618.81C587.42,-616.14 592.75,-612.63 597,-608 649.26,-551.14 582.79,-496.68 633,-438 633.74,-437.13 634.52,-436.3 635.33,-435.49"/>
<polygon fill="midnightblue" stroke="midnightblue" points="637.76,-438.03 643.34,-429.02 633.36,-432.58 637.76,-438.03"/>
</g>
</g>
</svg>
