<?xml version="1.0" encoding="UTF-8" standalone="no"?>
<!DOCTYPE svg PUBLIC "-//W3C//DTD SVG 1.1//EN"
 "http://www.w3.org/Graphics/SVG/1.1/DTD/svg11.dtd">
<!-- Generated by graphviz version 2.43.0 (0)
 -->
<!-- Title: Kistler::DAQ::start_streaming Pages: 1 -->
<svg width="968pt" height="691pt"
 viewBox="0.00 0.00 968.00 691.00" xmlns="http://www.w3.org/2000/svg" xmlns:xlink="http://www.w3.org/1999/xlink">
<g id="graph0" class="graph" transform="scale(1 1) rotate(0) translate(4 687)">
<title>Kistler::DAQ::start_streaming</title>
<!-- Node1 -->
<g id="node1" class="node">
<title>Node1</title>
<g id="a_node1"><a xlink:title="Start a LSL streaming thread.">
<polygon fill="#bfbfbf" stroke="black" points="0,-291.5 0,-321.5 104,-321.5 104,-291.5 0,-291.5"/>
<text text-anchor="start" x="8" y="-309.5" font-family="Helvetica,sans-Serif" font-size="10.00">Kistler::DAQ::start</text>
<text text-anchor="middle" x="52" y="-298.5" font-family="Helvetica,sans-Serif" font-size="10.00">_streaming</text>
</a>
</g>
</g>
<!-- Node2 -->
<g id="node2" class="node">
<title>Node2</title>
<g id="a_node2"><a xlink:href="../../da/d97/class_kistler_1_1_d_a_q.html#a4f89e1c93f34ce2b85fe0e10287b8165" target="_top" xlink:title="Thread streaming LSL samples.">
<polygon fill="none" stroke="black" points="140,-291.5 140,-321.5 277,-321.5 277,-291.5 140,-291.5"/>
<text text-anchor="start" x="148" y="-309.5" font-family="Helvetica,sans-Serif" font-size="10.00">Kistler::DAQ::_streaming</text>
<text text-anchor="middle" x="208.5" y="-298.5" font-family="Helvetica,sans-Serif" font-size="10.00">_thread</text>
</a>
</g>
</g>
<!-- Node1&#45;&gt;Node2 -->
<g id="edge1" class="edge">
<title>Node1&#45;&gt;Node2</title>
<path fill="none" stroke="midnightblue" d="M104.02,-306.5C112.23,-306.5 120.89,-306.5 129.56,-306.5"/>
<polygon fill="midnightblue" stroke="midnightblue" points="129.73,-310 139.73,-306.5 129.73,-303 129.73,-310"/>
</g>
<!-- Node3 -->
<g id="node3" class="node">
<title>Node3</title>
<g id="a_node3"><a xlink:href="../../df/dcd/class_communication_1_1_client.html#aa448a9277e9bed8326f74ad81062ab77" target="_top" xlink:title=" ">
<polygon fill="none" stroke="black" points="477,-652.5 477,-682.5 605,-682.5 605,-652.5 477,-652.5"/>
<text text-anchor="start" x="485" y="-670.5" font-family="Helvetica,sans-Serif" font-size="10.00">Communication::Client</text>
<text text-anchor="middle" x="541" y="-659.5" font-family="Helvetica,sans-Serif" font-size="10.00">::close_connection</text>
</a>
</g>
</g>
<!-- Node2&#45;&gt;Node3 -->
<g id="edge2" class="edge">
<title>Node2&#45;&gt;Node3</title>
<path fill="none" stroke="midnightblue" d="M209.5,-321.82C210.37,-372.98 220.5,-539.28 313,-621.5 354.6,-658.47 417.57,-668.91 466.64,-670.7"/>
<polygon fill="midnightblue" stroke="midnightblue" points="466.8,-674.21 476.89,-670.96 466.98,-667.21 466.8,-674.21"/>
</g>
<!-- Node5 -->
<g id="node5" class="node">
<title>Node5</title>
<g id="a_node5"><a xlink:href="../../dc/d44/class_e_s_c_1_1_c_l_i.html#abe1e5a3cc2cbd55c0704e9b13842e436" target="_top" xlink:title=" ">
<polygon fill="none" stroke="black" points="662,-467 662,-486 748,-486 748,-467 662,-467"/>
<text text-anchor="middle" x="705" y="-474" font-family="Helvetica,sans-Serif" font-size="10.00">ESC::CLI::logln</text>
</a>
</g>
</g>
<!-- Node2&#45;&gt;Node5 -->
<g id="edge20" class="edge">
<title>Node2&#45;&gt;Node5</title>
<path fill="none" stroke="midnightblue" d="M211.03,-321.56C216.23,-363.73 237.34,-483.02 313,-531.5 431.55,-607.46 611.57,-526.12 678.11,-491"/>
<polygon fill="midnightblue" stroke="midnightblue" points="679.93,-494 687.08,-486.18 676.61,-487.83 679.93,-494"/>
</g>
<!-- Node7 -->
<g id="node7" class="node">
<title>Node7</title>
<g id="a_node7"><a xlink:href="../../da/d94/class_kistler_1_1_a_p_i.html#a46c24eb334e1af47b3b17408918c5491" target="_top" xlink:title="Close a streaming port.">
<polygon fill="none" stroke="black" points="326.5,-491.5 326.5,-521.5 427.5,-521.5 427.5,-491.5 326.5,-491.5"/>
<text text-anchor="start" x="334.5" y="-509.5" font-family="Helvetica,sans-Serif" font-size="10.00">Kistler::API::close</text>
<text text-anchor="middle" x="377" y="-498.5" font-family="Helvetica,sans-Serif" font-size="10.00">_stream</text>
</a>
</g>
</g>
<!-- Node2&#45;&gt;Node7 -->
<g id="edge6" class="edge">
<title>Node2&#45;&gt;Node7</title>
<path fill="none" stroke="midnightblue" d="M214.42,-321.51C226.14,-355.06 258.85,-436.74 313,-482.5 314.51,-483.77 316.09,-484.99 317.73,-486.14"/>
<polygon fill="midnightblue" stroke="midnightblue" points="315.99,-489.17 326.35,-491.39 319.64,-483.2 315.99,-489.17"/>
</g>
<!-- Node13 -->
<g id="node13" class="node">
<title>Node13</title>
<g id="a_node13"><a xlink:href="../../da/d94/class_kistler_1_1_a_p_i.html#a5a1c3d8d1e5b6f496726293f09cc91c9" target="_top" xlink:title="Unregister a client.">
<polygon fill="none" stroke="black" points="323.5,-442.5 323.5,-472.5 430.5,-472.5 430.5,-442.5 323.5,-442.5"/>
<text text-anchor="start" x="331.5" y="-460.5" font-family="Helvetica,sans-Serif" font-size="10.00">Kistler::API::delete</text>
<text text-anchor="middle" x="377" y="-449.5" font-family="Helvetica,sans-Serif" font-size="10.00">_client</text>
</a>
</g>
</g>
<!-- Node2&#45;&gt;Node13 -->
<g id="edge16" class="edge">
<title>Node2&#45;&gt;Node13</title>
<path fill="none" stroke="midnightblue" d="M218.43,-321.81C234.34,-347.88 270.01,-401.13 313,-432.5 315.49,-434.31 318.12,-436.02 320.85,-437.62"/>
<polygon fill="midnightblue" stroke="midnightblue" points="319.34,-440.78 329.81,-442.36 322.62,-434.59 319.34,-440.78"/>
</g>
<!-- Node14 -->
<g id="node14" class="node">
<title>Node14</title>
<g id="a_node14"><a xlink:href="../../da/d53/built__lsl_2include_2lsl__c_8h.html#a22a7097dedf222014e6b878f3870b0fa" target="_top" xlink:title=" ">
<polygon fill="none" stroke="black" points="328,-164 328,-183 426,-183 426,-164 328,-164"/>
<text text-anchor="middle" x="377" y="-171" font-family="Helvetica,sans-Serif" font-size="10.00">lsl_create_outlet</text>
</a>
</g>
</g>
<!-- Node2&#45;&gt;Node14 -->
<g id="edge21" class="edge">
<title>Node2&#45;&gt;Node14</title>
<path fill="none" stroke="midnightblue" d="M220.25,-291.42C237.44,-268.3 273.26,-223.97 313,-197.5 319.16,-193.4 326.12,-189.85 333.12,-186.85"/>
<polygon fill="midnightblue" stroke="midnightblue" points="334.6,-190.03 342.59,-183.08 332.01,-183.52 334.6,-190.03"/>
</g>
<!-- Node15 -->
<g id="node15" class="node">
<title>Node15</title>
<g id="a_node15"><a xlink:href="../../da/d53/built__lsl_2include_2lsl__c_8h.html#ad84630a74d54a33c972daa18feb78c9d" target="_top" xlink:title=" ">
<polygon fill="none" stroke="black" points="316,-126 316,-145 438,-145 438,-126 316,-126"/>
<text text-anchor="middle" x="377" y="-133" font-family="Helvetica,sans-Serif" font-size="10.00">lsl_create_streaminfo</text>
</a>
</g>
</g>
<!-- Node2&#45;&gt;Node15 -->
<g id="edge22" class="edge">
<title>Node2&#45;&gt;Node15</title>
<path fill="none" stroke="midnightblue" d="M215.58,-291.46C228.68,-260.95 262.55,-191.51 313,-154.5 315.63,-152.57 318.45,-150.84 321.39,-149.28"/>
<polygon fill="midnightblue" stroke="midnightblue" points="322.86,-152.46 330.5,-145.11 319.95,-146.09 322.86,-152.46"/>
</g>
<!-- Node16 -->
<g id="node16" class="node">
<title>Node16</title>
<g id="a_node16"><a xlink:href="../../da/d53/built__lsl_2include_2lsl__c_8h.html#a0588f316a9e406e61f1507d8f756529f" target="_top" xlink:title=" ">
<polygon fill="none" stroke="black" points="325,-88 325,-107 429,-107 429,-88 325,-88"/>
<text text-anchor="middle" x="377" y="-95" font-family="Helvetica,sans-Serif" font-size="10.00">lsl_destroy_outlet</text>
</a>
</g>
</g>
<!-- Node2&#45;&gt;Node16 -->
<g id="edge23" class="edge">
<title>Node2&#45;&gt;Node16</title>
<path fill="none" stroke="midnightblue" d="M213.44,-291.36C223.57,-255.44 253.97,-164.47 313,-116.5 315.24,-114.68 317.66,-113.03 320.19,-111.54"/>
<polygon fill="midnightblue" stroke="midnightblue" points="321.79,-114.65 329.17,-107.05 318.66,-108.39 321.79,-114.65"/>
</g>
<!-- Node17 -->
<g id="node17" class="node">
<title>Node17</title>
<g id="a_node17"><a xlink:href="../../da/d53/built__lsl_2include_2lsl__c_8h.html#a80f314d925564890ee64b1c2a699bdb0" target="_top" xlink:title=" ">
<polygon fill="none" stroke="black" points="325.5,-50 325.5,-69 428.5,-69 428.5,-50 325.5,-50"/>
<text text-anchor="middle" x="377" y="-57" font-family="Helvetica,sans-Serif" font-size="10.00">lsl_push_chunk_ft</text>
</a>
</g>
</g>
<!-- Node2&#45;&gt;Node17 -->
<g id="edge24" class="edge">
<title>Node2&#45;&gt;Node17</title>
<path fill="none" stroke="midnightblue" d="M211.93,-291.45C219.28,-250.8 245.11,-137.9 313,-78.5 314.96,-76.79 317.06,-75.23 319.28,-73.81"/>
<polygon fill="midnightblue" stroke="midnightblue" points="321.09,-76.81 328.26,-69.01 317.79,-70.64 321.09,-76.81"/>
</g>
<!-- Node18 -->
<g id="node18" class="node">
<title>Node18</title>
<g id="a_node18"><a xlink:href="../../da/d94/class_kistler_1_1_a_p_i.html#a0e3329ec10d12ef325520b4c106f8d83" target="_top" xlink:title="Register a new client and get its ID.">
<polygon fill="none" stroke="black" points="313,-404 313,-423 441,-423 441,-404 313,-404"/>
<text text-anchor="middle" x="377" y="-411" font-family="Helvetica,sans-Serif" font-size="10.00">Kistler::API::new_client</text>
</a>
</g>
</g>
<!-- Node2&#45;&gt;Node18 -->
<g id="edge25" class="edge">
<title>Node2&#45;&gt;Node18</title>
<path fill="none" stroke="midnightblue" d="M223.46,-321.76C242.1,-341.27 276.96,-374.87 313,-394.5 317,-396.68 321.29,-398.64 325.67,-400.4"/>
<polygon fill="midnightblue" stroke="midnightblue" points="324.75,-403.79 335.34,-403.93 327.15,-397.22 324.75,-403.79"/>
</g>
<!-- Node19 -->
<g id="node19" class="node">
<title>Node19</title>
<g id="a_node19"><a xlink:href="../../df/dcd/class_communication_1_1_client.html#a66336ae23ea502a9395010407a952664" target="_top" xlink:title="open_connection Open the connection the serial or network or interface">
<polygon fill="none" stroke="black" points="313,-0.5 313,-30.5 441,-30.5 441,-0.5 313,-0.5"/>
<text text-anchor="start" x="321" y="-18.5" font-family="Helvetica,sans-Serif" font-size="10.00">Communication::Client</text>
<text text-anchor="middle" x="377" y="-7.5" font-family="Helvetica,sans-Serif" font-size="10.00">::open_connection</text>
</a>
</g>
</g>
<!-- Node2&#45;&gt;Node19 -->
<g id="edge29" class="edge">
<title>Node2&#45;&gt;Node19</title>
<path fill="none" stroke="midnightblue" d="M211.18,-291.29C216.89,-246.65 239.49,-114.5 313,-40.5 314.43,-39.06 315.95,-37.7 317.55,-36.42"/>
<polygon fill="midnightblue" stroke="midnightblue" points="319.78,-39.14 326.07,-30.62 315.84,-33.35 319.78,-39.14"/>
</g>
<!-- Node20 -->
<g id="node20" class="node">
<title>Node20</title>
<g id="a_node20"><a xlink:href="../../da/d94/class_kistler_1_1_a_p_i.html#a098b5c9b8d99e1759efba5ef119475d9" target="_top" xlink:title="Open a streaming port. The port will be closed if no connection is made within 30 seconds.">
<polygon fill="none" stroke="black" points="327,-354.5 327,-384.5 427,-384.5 427,-354.5 327,-354.5"/>
<text text-anchor="start" x="335" y="-372.5" font-family="Helvetica,sans-Serif" font-size="10.00">Kistler::API::open</text>
<text text-anchor="middle" x="377" y="-361.5" font-family="Helvetica,sans-Serif" font-size="10.00">_stream</text>
</a>
</g>
</g>
<!-- Node2&#45;&gt;Node20 -->
<g id="edge30" class="edge">
<title>Node2&#45;&gt;Node20</title>
<path fill="none" stroke="midnightblue" d="M249.38,-321.59C272.57,-330.36 301.98,-341.49 326.62,-350.82"/>
<polygon fill="midnightblue" stroke="midnightblue" points="325.56,-354.16 336.16,-354.42 328.04,-347.61 325.56,-354.16"/>
</g>
<!-- Node21 -->
<g id="node21" class="node">
<title>Node21</title>
<g id="a_node21"><a xlink:href="../../da/d97/class_kistler_1_1_d_a_q.html#a3d0ae8c3f89ca09717a55451b34f6e6f" target="_top" xlink:title="Read a subframe as an event (type 0 in header)">
<polygon fill="none" stroke="black" points="489,-603.5 489,-633.5 593,-633.5 593,-603.5 489,-603.5"/>
<text text-anchor="start" x="497" y="-621.5" font-family="Helvetica,sans-Serif" font-size="10.00">Kistler::DAQ::read</text>
<text text-anchor="middle" x="541" y="-610.5" font-family="Helvetica,sans-Serif" font-size="10.00">_event</text>
</a>
</g>
</g>
<!-- Node2&#45;&gt;Node21 -->
<g id="edge34" class="edge">
<title>Node2&#45;&gt;Node21</title>
<path fill="none" stroke="midnightblue" d="M209.94,-321.82C212.22,-369.95 226.29,-519.07 313,-588.5 359.3,-625.58 428.75,-629.62 478.63,-626.55"/>
<polygon fill="midnightblue" stroke="midnightblue" points="478.93,-630.04 488.65,-625.82 478.42,-623.05 478.93,-630.04"/>
</g>
<!-- Node22 -->
<g id="node22" class="node">
<title>Node22</title>
<g id="a_node22"><a xlink:href="../../da/d97/class_kistler_1_1_d_a_q.html#ad39263026e83eafcc4e195181a94d706" target="_top" xlink:title="read the header of an incoming frame">
<polygon fill="none" stroke="black" points="489,-187.5 489,-217.5 593,-217.5 593,-187.5 489,-187.5"/>
<text text-anchor="start" x="497" y="-205.5" font-family="Helvetica,sans-Serif" font-size="10.00">Kistler::DAQ::read</text>
<text text-anchor="middle" x="541" y="-194.5" font-family="Helvetica,sans-Serif" font-size="10.00">_header</text>
</a>
</g>
</g>
<!-- Node2&#45;&gt;Node22 -->
<g id="edge38" class="edge">
<title>Node2&#45;&gt;Node22</title>
<path fill="none" stroke="midnightblue" d="M248.6,-291.42C267.87,-284.17 291.54,-275.55 313,-268.5 368.76,-250.18 433.06,-231.73 478.96,-219.02"/>
<polygon fill="midnightblue" stroke="midnightblue" points="480.05,-222.35 488.75,-216.31 478.18,-215.6 480.05,-222.35"/>
</g>
<!-- Node23 -->
<g id="node23" class="node">
<title>Node23</title>
<g id="a_node23"><a xlink:href="../../da/d97/class_kistler_1_1_d_a_q.html#ae236ac769128029dc1f59c8bdaceeb1a" target="_top" xlink:title="Read a subframe as a data frame (type 1 in header)">
<polygon fill="none" stroke="black" points="489,-138.5 489,-168.5 593,-168.5 593,-138.5 489,-138.5"/>
<text text-anchor="start" x="497" y="-156.5" font-family="Helvetica,sans-Serif" font-size="10.00">Kistler::DAQ::read</text>
<text text-anchor="middle" x="541" y="-145.5" font-family="Helvetica,sans-Serif" font-size="10.00">_measurement</text>
</a>
</g>
</g>
<!-- Node2&#45;&gt;Node23 -->
<g id="edge40" class="edge">
<title>Node2&#45;&gt;Node23</title>
<path fill="none" stroke="midnightblue" d="M224.97,-291.27C244.1,-273.27 278.38,-243.6 313,-226.5 365.77,-200.43 385.26,-211.42 441,-192.5 457.41,-186.93 460.9,-183.92 477,-177.5 481.39,-175.75 485.96,-173.95 490.55,-172.17"/>
<polygon fill="midnightblue" stroke="midnightblue" points="491.87,-175.42 499.93,-168.55 489.35,-168.89 491.87,-175.42"/>
</g>
<!-- Node24 -->
<g id="node24" class="node">
<title>Node24</title>
<g id="a_node24"><a xlink:href="../../da/d94/class_kistler_1_1_a_p_i.html#a1241535349db9c80adea109500ba7c79" target="_top" xlink:title="Send a START request to the DAQ.">
<polygon fill="none" stroke="black" points="328,-316 328,-335 426,-335 426,-316 328,-316"/>
<text text-anchor="middle" x="377" y="-323" font-family="Helvetica,sans-Serif" font-size="10.00">Kistler::API::start</text>
</a>
</g>
</g>
<!-- Node2&#45;&gt;Node24 -->
<g id="edge42" class="edge">
<title>Node2&#45;&gt;Node24</title>
<path fill="none" stroke="midnightblue" d="M277.22,-314.23C290.65,-315.76 304.63,-317.36 317.71,-318.85"/>
<polygon fill="midnightblue" stroke="midnightblue" points="317.65,-322.36 327.98,-320.02 318.44,-315.41 317.65,-322.36"/>
</g>
<!-- Node25 -->
<g id="node25" class="node">
<title>Node25</title>
<g id="a_node25"><a xlink:href="../../da/d94/class_kistler_1_1_a_p_i.html#a5410196834e57bb4376380d609390e25" target="_top" xlink:title="Send a STOP request to the DAQ.">
<polygon fill="none" stroke="black" points="328.5,-278 328.5,-297 425.5,-297 425.5,-278 328.5,-278"/>
<text text-anchor="middle" x="377" y="-285" font-family="Helvetica,sans-Serif" font-size="10.00">Kistler::API::stop</text>
</a>
</g>
</g>
<!-- Node2&#45;&gt;Node25 -->
<g id="edge46" class="edge">
<title>Node2&#45;&gt;Node25</title>
<path fill="none" stroke="midnightblue" d="M277.22,-298.77C290.93,-297.21 305.21,-295.58 318.52,-294.06"/>
<polygon fill="midnightblue" stroke="midnightblue" points="318.94,-297.53 328.48,-292.92 318.15,-290.58 318.94,-297.53"/>
</g>
<!-- Node4 -->
<g id="node4" class="node">
<title>Node4</title>
<g id="a_node4"><a xlink:href="../../d2/d52/namespace_e_s_c.html#a080ff5f5b8a2ed3567a541acfa69a425" target="_top" xlink:title="fstr Prints a formated string.">
<polygon fill="none" stroke="black" points="676,-609 676,-628 734,-628 734,-609 676,-609"/>
<text text-anchor="middle" x="705" y="-616" font-family="Helvetica,sans-Serif" font-size="10.00">ESC::fstr</text>
</a>
</g>
</g>
<!-- Node3&#45;&gt;Node4 -->
<g id="edge3" class="edge">
<title>Node3&#45;&gt;Node4</title>
<path fill="none" stroke="midnightblue" d="M591.93,-652.4C615.79,-645.18 643.9,-636.68 665.99,-630"/>
<polygon fill="midnightblue" stroke="midnightblue" points="667.12,-633.31 675.68,-627.06 665.1,-626.61 667.12,-633.31"/>
</g>
<!-- Node3&#45;&gt;Node5 -->
<g id="edge4" class="edge">
<title>Node3&#45;&gt;Node5</title>
<path fill="none" stroke="midnightblue" d="M591.63,-652.38C596.41,-649.83 600.97,-646.89 605,-643.5 630.44,-622.08 675.5,-534.43 694.8,-495.4"/>
<polygon fill="midnightblue" stroke="midnightblue" points="698.06,-496.7 699.33,-486.18 691.78,-493.62 698.06,-496.7"/>
</g>
<!-- Node6 -->
<g id="node6" class="node">
<title>Node6</title>
<g id="a_node6"><a xlink:href="../../d2/d52/namespace_e_s_c.html#a1ab0660788056c78944278261498664a" target="_top" xlink:title=" ">
<polygon fill="none" stroke="black" points="842.5,-467 842.5,-486 922.5,-486 922.5,-467 842.5,-467"/>
<text text-anchor="middle" x="882.5" y="-474" font-family="Helvetica,sans-Serif" font-size="10.00">ESC::get_pos</text>
</a>
</g>
</g>
<!-- Node5&#45;&gt;Node6 -->
<g id="edge5" class="edge">
<title>Node5&#45;&gt;Node6</title>
<path fill="none" stroke="midnightblue" d="M748.04,-476.5C773.28,-476.5 805.53,-476.5 832,-476.5"/>
<polygon fill="midnightblue" stroke="midnightblue" points="832.21,-480 842.21,-476.5 832.21,-473 832.21,-480"/>
</g>
<!-- Node7&#45;&gt;Node5 -->
<g id="edge10" class="edge">
<title>Node7&#45;&gt;Node5</title>
<path fill="none" stroke="midnightblue" d="M427.76,-506.11C473.87,-505.26 544.28,-502.76 605,-495.5 620.25,-493.68 636.68,-490.87 651.68,-487.97"/>
<polygon fill="midnightblue" stroke="midnightblue" points="652.68,-491.34 661.81,-485.96 651.32,-484.47 652.68,-491.34"/>
</g>
<!-- Node8 -->
<g id="node8" class="node">
<title>Node8</title>
<g id="a_node8"><a xlink:href="../../da/d94/class_kistler_1_1_a_p_i.html#a19649fd0c024f8a66eaff543114532e9" target="_top" xlink:title="Check the satue of the reply (result:0 =&gt; OK)">
<polygon fill="none" stroke="black" points="489,-439.5 489,-469.5 593,-469.5 593,-439.5 489,-439.5"/>
<text text-anchor="start" x="497" y="-457.5" font-family="Helvetica,sans-Serif" font-size="10.00">Kistler::API::check</text>
<text text-anchor="middle" x="541" y="-446.5" font-family="Helvetica,sans-Serif" font-size="10.00">_msg_error</text>
</a>
</g>
</g>
<!-- Node7&#45;&gt;Node8 -->
<g id="edge7" class="edge">
<title>Node7&#45;&gt;Node8</title>
<path fill="none" stroke="midnightblue" d="M424.86,-491.46C443.24,-485.56 464.5,-478.73 483.71,-472.57"/>
<polygon fill="midnightblue" stroke="midnightblue" points="484.8,-475.9 493.25,-469.51 482.66,-469.23 484.8,-475.9"/>
</g>
<!-- Node9 -->
<g id="node9" class="node">
<title>Node9</title>
<g id="a_node9"><a xlink:href="../../d7/d60/class_communication_1_1_h_t_t_p__client.html#a241e78ccad7bcbc7597cb2dde7d7e402" target="_top" xlink:title=" ">
<polygon fill="none" stroke="black" points="478.5,-313.5 478.5,-343.5 603.5,-343.5 603.5,-313.5 478.5,-313.5"/>
<text text-anchor="start" x="486.5" y="-331.5" font-family="Helvetica,sans-Serif" font-size="10.00">Communication::HTTP</text>
<text text-anchor="middle" x="541" y="-320.5" font-family="Helvetica,sans-Serif" font-size="10.00">_client::post</text>
</a>
</g>
</g>
<!-- Node7&#45;&gt;Node9 -->
<g id="edge11" class="edge">
<title>Node7&#45;&gt;Node9</title>
<path fill="none" stroke="midnightblue" d="M427.19,-491.39C432.11,-488.84 436.82,-485.89 441,-482.5 446.91,-477.71 499.35,-393.95 525.42,-352.02"/>
<polygon fill="midnightblue" stroke="midnightblue" points="528.4,-353.85 530.7,-343.51 522.45,-350.16 528.4,-353.85"/>
</g>
<!-- Node8&#45;&gt;Node4 -->
<g id="edge8" class="edge">
<title>Node8&#45;&gt;Node4</title>
<path fill="none" stroke="midnightblue" d="M556.95,-469.63C587.13,-500.19 655.18,-569.08 687,-601.29"/>
<polygon fill="midnightblue" stroke="midnightblue" points="684.74,-603.99 694.26,-608.64 689.72,-599.07 684.74,-603.99"/>
</g>
<!-- Node8&#45;&gt;Node5 -->
<g id="edge9" class="edge">
<title>Node8&#45;&gt;Node5</title>
<path fill="none" stroke="midnightblue" d="M593.26,-461.46C611.87,-463.99 632.92,-466.85 651.63,-469.39"/>
<polygon fill="midnightblue" stroke="midnightblue" points="651.37,-472.89 661.75,-470.76 652.32,-465.95 651.37,-472.89"/>
</g>
<!-- Node10 -->
<g id="node10" class="node">
<title>Node10</title>
<g id="a_node10"><a xlink:href="../../df/dcd/class_communication_1_1_client.html#a73fec58648938364cd65d690f50bd7ec" target="_top" xlink:title="readS read the com inmterface.">
<polygon fill="none" stroke="black" points="641,-264.5 641,-294.5 769,-294.5 769,-264.5 641,-264.5"/>
<text text-anchor="start" x="649" y="-282.5" font-family="Helvetica,sans-Serif" font-size="10.00">Communication::Client</text>
<text text-anchor="middle" x="705" y="-271.5" font-family="Helvetica,sans-Serif" font-size="10.00">::readS</text>
</a>
</g>
</g>
<!-- Node9&#45;&gt;Node10 -->
<g id="edge12" class="edge">
<title>Node9&#45;&gt;Node10</title>
<path fill="none" stroke="midnightblue" d="M591.93,-313.4C608.48,-308.39 627.07,-302.77 644.29,-297.56"/>
<polygon fill="midnightblue" stroke="midnightblue" points="645.68,-300.8 654.24,-294.55 643.65,-294.1 645.68,-300.8"/>
</g>
<!-- Node12 -->
<g id="node12" class="node">
<title>Node12</title>
<g id="a_node12"><a xlink:href="../../df/dcd/class_communication_1_1_client.html#a32bd631bcb3b0a3476b146a0cc49332d" target="_top" xlink:title="writeS write the com interface.">
<polygon fill="none" stroke="black" points="641,-313.5 641,-343.5 769,-343.5 769,-313.5 641,-313.5"/>
<text text-anchor="start" x="649" y="-331.5" font-family="Helvetica,sans-Serif" font-size="10.00">Communication::Client</text>
<text text-anchor="middle" x="705" y="-320.5" font-family="Helvetica,sans-Serif" font-size="10.00">::writeS</text>
</a>
</g>
</g>
<!-- Node9&#45;&gt;Node12 -->
<g id="edge14" class="edge">
<title>Node9&#45;&gt;Node12</title>
<path fill="none" stroke="midnightblue" d="M603.71,-328.5C612.54,-328.5 621.7,-328.5 630.73,-328.5"/>
<polygon fill="midnightblue" stroke="midnightblue" points="630.85,-332 640.85,-328.5 630.85,-325 630.85,-332"/>
</g>
<!-- Node11 -->
<g id="node11" class="node">
<title>Node11</title>
<g id="a_node11"><a xlink:href="../../df/dcd/class_communication_1_1_client.html#a7020654cbb2e6f707fe637fc84d8328c" target="_top" xlink:title="CRC Compute and return the CRC over the n first bytes of buf.">
<polygon fill="none" stroke="black" points="805,-295 805,-314 960,-314 960,-295 805,-295"/>
<text text-anchor="middle" x="882.5" y="-302" font-family="Helvetica,sans-Serif" font-size="10.00">Communication::Client::CRC</text>
</a>
</g>
</g>
<!-- Node10&#45;&gt;Node11 -->
<g id="edge13" class="edge">
<title>Node10&#45;&gt;Node11</title>
<path fill="none" stroke="midnightblue" d="M769.36,-288.53C780.75,-290.15 792.74,-291.86 804.46,-293.53"/>
<polygon fill="midnightblue" stroke="midnightblue" points="804.29,-297.04 814.68,-294.98 805.28,-290.11 804.29,-297.04"/>
</g>
<!-- Node12&#45;&gt;Node11 -->
<g id="edge15" class="edge">
<title>Node12&#45;&gt;Node11</title>
<path fill="none" stroke="midnightblue" d="M769.36,-319.84C779.96,-318.39 791.07,-316.87 802.02,-315.37"/>
<polygon fill="midnightblue" stroke="midnightblue" points="802.56,-318.83 812,-314 801.61,-311.89 802.56,-318.83"/>
</g>
<!-- Node13&#45;&gt;Node5 -->
<g id="edge18" class="edge">
<title>Node13&#45;&gt;Node5</title>
<path fill="none" stroke="midnightblue" d="M430.56,-471.42C445.46,-474.75 461.77,-477.83 477,-479.5 536.55,-486.04 605.41,-483.75 651.54,-480.82"/>
<polygon fill="midnightblue" stroke="midnightblue" points="651.85,-484.31 661.6,-480.15 651.38,-477.32 651.85,-484.31"/>
</g>
<!-- Node13&#45;&gt;Node8 -->
<g id="edge17" class="edge">
<title>Node13&#45;&gt;Node8</title>
<path fill="none" stroke="midnightblue" d="M430.6,-456.53C445.91,-456.24 462.76,-455.93 478.57,-455.64"/>
<polygon fill="midnightblue" stroke="midnightblue" points="478.84,-459.13 488.77,-455.45 478.71,-452.13 478.84,-459.13"/>
</g>
<!-- Node13&#45;&gt;Node9 -->
<g id="edge19" class="edge">
<title>Node13&#45;&gt;Node9</title>
<path fill="none" stroke="midnightblue" d="M422.94,-442.47C429.23,-439.57 435.44,-436.25 441,-432.5 474.16,-410.11 504.65,-374.92 522.79,-351.78"/>
<polygon fill="midnightblue" stroke="midnightblue" points="525.8,-353.61 529.12,-343.55 520.25,-349.34 525.8,-353.61"/>
</g>
<!-- Node18&#45;&gt;Node5 -->
<g id="edge27" class="edge">
<title>Node18&#45;&gt;Node5</title>
<path fill="none" stroke="midnightblue" d="M441.13,-412.2C487.24,-412.7 550.89,-416.4 605,-430.5 631.64,-437.44 659.91,-451.31 679.4,-462.01"/>
<polygon fill="midnightblue" stroke="midnightblue" points="677.78,-465.12 688.21,-466.97 681.21,-459.02 677.78,-465.12"/>
</g>
<!-- Node18&#45;&gt;Node8 -->
<g id="edge26" class="edge">
<title>Node18&#45;&gt;Node8</title>
<path fill="none" stroke="midnightblue" d="M415.57,-423.01C434.37,-427.77 457.61,-433.65 478.89,-439.03"/>
<polygon fill="midnightblue" stroke="midnightblue" points="478.27,-442.49 488.83,-441.55 479.99,-435.7 478.27,-442.49"/>
</g>
<!-- Node18&#45;&gt;Node9 -->
<g id="edge28" class="edge">
<title>Node18&#45;&gt;Node9</title>
<path fill="none" stroke="midnightblue" d="M416.32,-403.92C424.63,-401.3 433.25,-398.15 441,-394.5 466.88,-382.3 493.73,-363.98 512.93,-349.74"/>
<polygon fill="midnightblue" stroke="midnightblue" points="515.05,-352.53 520.93,-343.71 510.83,-346.94 515.05,-352.53"/>
</g>
<!-- Node20&#45;&gt;Node5 -->
<g id="edge32" class="edge">
<title>Node20&#45;&gt;Node5</title>
<path fill="none" stroke="midnightblue" d="M427.04,-371.85C474.18,-375.49 546.65,-384.79 605,-408.5 635.82,-421.03 666.68,-444.35 685.56,-460.15"/>
<polygon fill="midnightblue" stroke="midnightblue" points="683.47,-462.97 693.35,-466.82 688.02,-457.66 683.47,-462.97"/>
</g>
<!-- Node20&#45;&gt;Node8 -->
<g id="edge31" class="edge">
<title>Node20&#45;&gt;Node8</title>
<path fill="none" stroke="midnightblue" d="M418.77,-384.52C426.26,-387.61 433.94,-390.99 441,-394.5 464.46,-406.16 489.7,-421.5 508.82,-433.76"/>
<polygon fill="midnightblue" stroke="midnightblue" points="507.12,-436.82 517.41,-439.32 510.92,-430.95 507.12,-436.82"/>
</g>
<!-- Node20&#45;&gt;Node9 -->
<g id="edge33" class="edge">
<title>Node20&#45;&gt;Node9</title>
<path fill="none" stroke="midnightblue" d="M427.04,-357.09C440.74,-353.62 455.89,-349.79 470.52,-346.08"/>
<polygon fill="midnightblue" stroke="midnightblue" points="471.71,-349.39 480.55,-343.55 469.99,-342.61 471.71,-349.39"/>
</g>
<!-- Node21&#45;&gt;Node4 -->
<g id="edge35" class="edge">
<title>Node21&#45;&gt;Node4</title>
<path fill="none" stroke="midnightblue" d="M593.26,-618.5C616.68,-618.5 643.95,-618.5 665.57,-618.5"/>
<polygon fill="midnightblue" stroke="midnightblue" points="665.69,-622 675.69,-618.5 665.69,-615 665.69,-622"/>
</g>
<!-- Node21&#45;&gt;Node5 -->
<g id="edge36" class="edge">
<title>Node21&#45;&gt;Node5</title>
<path fill="none" stroke="midnightblue" d="M580.07,-603.4C588.66,-599.19 597.45,-594.19 605,-588.5 641.41,-561.07 674.47,-518.54 691.63,-494.56"/>
<polygon fill="midnightblue" stroke="midnightblue" points="694.71,-496.26 697.6,-486.06 688.99,-492.24 694.71,-496.26"/>
</g>
<!-- Node21&#45;&gt;Node10 -->
<g id="edge37" class="edge">
<title>Node21&#45;&gt;Node10</title>
<path fill="none" stroke="midnightblue" d="M550.35,-603.11C563.7,-577.95 589.85,-526.12 605,-479.5 629.54,-403.98 589.97,-365.34 641,-304.5 642.12,-303.17 643.32,-301.91 644.58,-300.71"/>
<polygon fill="midnightblue" stroke="midnightblue" points="646.74,-303.47 652.49,-294.57 642.44,-297.94 646.74,-303.47"/>
</g>
<!-- Node22&#45;&gt;Node10 -->
<g id="edge39" class="edge">
<title>Node22&#45;&gt;Node10</title>
<path fill="none" stroke="midnightblue" d="M573.62,-217.53C599.18,-229.68 635.36,-246.87 663.12,-260.07"/>
<polygon fill="midnightblue" stroke="midnightblue" points="661.65,-263.25 672.18,-264.38 664.65,-256.92 661.65,-263.25"/>
</g>
<!-- Node23&#45;&gt;Node10 -->
<g id="edge41" class="edge">
<title>Node23&#45;&gt;Node10</title>
<path fill="none" stroke="midnightblue" d="M588.57,-168.56C594.3,-171.18 599.92,-174.15 605,-177.5 637.9,-199.16 668.26,-233.46 686.46,-256.22"/>
<polygon fill="midnightblue" stroke="midnightblue" points="683.89,-258.62 692.81,-264.33 689.4,-254.3 683.89,-258.62"/>
</g>
<!-- Node24&#45;&gt;Node5 -->
<g id="edge44" class="edge">
<title>Node24&#45;&gt;Node5</title>
<path fill="none" stroke="midnightblue" d="M413.92,-315.99C432.58,-311.53 455.86,-306.72 477,-304.5 533.58,-298.57 555.75,-276.02 605,-304.5 620.05,-313.2 672.9,-415.08 694.6,-457.82"/>
<polygon fill="midnightblue" stroke="midnightblue" points="691.54,-459.53 699.18,-466.88 697.79,-456.37 691.54,-459.53"/>
</g>
<!-- Node24&#45;&gt;Node8 -->
<g id="edge43" class="edge">
<title>Node24&#45;&gt;Node8</title>
<path fill="none" stroke="midnightblue" d="M419.07,-335.08C426.69,-337.8 434.34,-341.22 441,-345.5 476.07,-368 506.61,-406.03 524.18,-430.7"/>
<polygon fill="midnightblue" stroke="midnightblue" points="521.46,-432.92 530.05,-439.13 527.2,-428.92 521.46,-432.92"/>
</g>
<!-- Node24&#45;&gt;Node9 -->
<g id="edge45" class="edge">
<title>Node24&#45;&gt;Node9</title>
<path fill="none" stroke="midnightblue" d="M426.17,-326.39C439.38,-326.64 453.99,-326.91 468.21,-327.17"/>
<polygon fill="midnightblue" stroke="midnightblue" points="468.42,-330.67 478.48,-327.36 468.55,-323.68 468.42,-330.67"/>
</g>
<!-- Node25&#45;&gt;Node5 -->
<g id="edge47" class="edge">
<title>Node25&#45;&gt;Node5</title>
<path fill="none" stroke="midnightblue" d="M407.81,-277.96C453.86,-265.15 543.37,-248.03 605,-285.5 607.06,-286.75 670.11,-410.05 694.5,-457.86"/>
<polygon fill="midnightblue" stroke="midnightblue" points="691.42,-459.52 699.08,-466.84 697.65,-456.34 691.42,-459.52"/>
</g>
<!-- Node25&#45;&gt;Node9 -->
<g id="edge48" class="edge">
<title>Node25&#45;&gt;Node9</title>
<path fill="none" stroke="midnightblue" d="M415.57,-297.01C431.97,-301.16 451.74,-306.16 470.64,-310.95"/>
<polygon fill="midnightblue" stroke="midnightblue" points="469.87,-314.36 480.42,-313.42 471.59,-307.58 469.87,-314.36"/>
</g>
</g>
</svg>
