<?xml version="1.0" encoding="UTF-8" standalone="no"?>
<!DOCTYPE svg PUBLIC "-//W3C//DTD SVG 1.1//EN"
 "http://www.w3.org/Graphics/SVG/1.1/DTD/svg11.dtd">
<!-- Generated by graphviz version 2.43.0 (0)
 -->
<!-- Title: Kistler::DAQ::stop_streaming Pages: 1 -->
<svg width="760pt" height="127pt"
 viewBox="0.00 0.00 760.00 126.50" xmlns="http://www.w3.org/2000/svg" xmlns:xlink="http://www.w3.org/1999/xlink">
<g id="graph0" class="graph" transform="scale(1 1) rotate(0) translate(4 122.5)">
<title>Kistler::DAQ::stop_streaming</title>
<!-- Node1 -->
<g id="node1" class="node">
<title>Node1</title>
<g id="a_node1"><a xlink:title="Stop the streaming thread.">
<polygon fill="#bfbfbf" stroke="black" points="0,-71.5 0,-101.5 103,-101.5 103,-71.5 0,-71.5"/>
<text text-anchor="start" x="8" y="-89.5" font-family="Helvetica,sans-Serif" font-size="10.00">Kistler::DAQ::stop</text>
<text text-anchor="middle" x="51.5" y="-78.5" font-family="Helvetica,sans-Serif" font-size="10.00">_streaming</text>
</a>
</g>
</g>
<!-- Node2 -->
<g id="node2" class="node">
<title>Node2</title>
<g id="a_node2"><a xlink:href="../../da/d94/class_kistler_1_1_a_p_i.html#a5410196834e57bb4376380d609390e25" target="_top" xlink:title="Send a STOP request to the DAQ.">
<polygon fill="none" stroke="black" points="139,-77 139,-96 236,-96 236,-77 139,-77"/>
<text text-anchor="middle" x="187.5" y="-84" font-family="Helvetica,sans-Serif" font-size="10.00">Kistler::API::stop</text>
</a>
</g>
</g>
<!-- Node1&#45;&gt;Node2 -->
<g id="edge1" class="edge">
<title>Node1&#45;&gt;Node2</title>
<path fill="none" stroke="midnightblue" d="M103.16,-86.5C111.48,-86.5 120.17,-86.5 128.65,-86.5"/>
<polygon fill="midnightblue" stroke="midnightblue" points="128.86,-90 138.86,-86.5 128.86,-83 128.86,-90"/>
</g>
<!-- Node3 -->
<g id="node3" class="node">
<title>Node3</title>
<g id="a_node3"><a xlink:href="../../dc/d44/class_e_s_c_1_1_c_l_i.html#abe1e5a3cc2cbd55c0704e9b13842e436" target="_top" xlink:title=" ">
<polygon fill="none" stroke="black" points="291.5,-99 291.5,-118 377.5,-118 377.5,-99 291.5,-99"/>
<text text-anchor="middle" x="334.5" y="-106" font-family="Helvetica,sans-Serif" font-size="10.00">ESC::CLI::logln</text>
</a>
</g>
</g>
<!-- Node2&#45;&gt;Node3 -->
<g id="edge2" class="edge">
<title>Node2&#45;&gt;Node3</title>
<path fill="none" stroke="midnightblue" d="M236.38,-93.76C250.72,-95.94 266.53,-98.34 281.14,-100.56"/>
<polygon fill="midnightblue" stroke="midnightblue" points="280.63,-104.02 291.04,-102.06 281.68,-97.1 280.63,-104.02"/>
</g>
<!-- Node5 -->
<g id="node5" class="node">
<title>Node5</title>
<g id="a_node5"><a xlink:href="../../d7/d60/class_communication_1_1_h_t_t_p__client.html#a241e78ccad7bcbc7597cb2dde7d7e402" target="_top" xlink:title=" ">
<polygon fill="none" stroke="black" points="272,-49.5 272,-79.5 397,-79.5 397,-49.5 272,-49.5"/>
<text text-anchor="start" x="280" y="-67.5" font-family="Helvetica,sans-Serif" font-size="10.00">Communication::HTTP</text>
<text text-anchor="middle" x="334.5" y="-56.5" font-family="Helvetica,sans-Serif" font-size="10.00">_client::post</text>
</a>
</g>
</g>
<!-- Node2&#45;&gt;Node5 -->
<g id="edge4" class="edge">
<title>Node2&#45;&gt;Node5</title>
<path fill="none" stroke="midnightblue" d="M236.38,-79.24C244.56,-77.99 253.22,-76.68 261.86,-75.37"/>
<polygon fill="midnightblue" stroke="midnightblue" points="262.6,-78.8 271.97,-73.84 261.55,-71.88 262.6,-78.8"/>
</g>
<!-- Node4 -->
<g id="node4" class="node">
<title>Node4</title>
<g id="a_node4"><a xlink:href="../../d2/d52/namespace_e_s_c.html#a1ab0660788056c78944278261498664a" target="_top" xlink:title=" ">
<polygon fill="none" stroke="black" points="457,-99 457,-118 537,-118 537,-99 457,-99"/>
<text text-anchor="middle" x="497" y="-106" font-family="Helvetica,sans-Serif" font-size="10.00">ESC::get_pos</text>
</a>
</g>
</g>
<!-- Node3&#45;&gt;Node4 -->
<g id="edge3" class="edge">
<title>Node3&#45;&gt;Node4</title>
<path fill="none" stroke="midnightblue" d="M377.67,-108.5C398.84,-108.5 424.61,-108.5 446.69,-108.5"/>
<polygon fill="midnightblue" stroke="midnightblue" points="446.87,-112 456.87,-108.5 446.87,-105 446.87,-112"/>
</g>
<!-- Node6 -->
<g id="node6" class="node">
<title>Node6</title>
<g id="a_node6"><a xlink:href="../../df/dcd/class_communication_1_1_client.html#a73fec58648938364cd65d690f50bd7ec" target="_top" xlink:title="readS read the com inmterface.">
<polygon fill="none" stroke="black" points="433,-49.5 433,-79.5 561,-79.5 561,-49.5 433,-49.5"/>
<text text-anchor="start" x="441" y="-67.5" font-family="Helvetica,sans-Serif" font-size="10.00">Communication::Client</text>
<text text-anchor="middle" x="497" y="-56.5" font-family="Helvetica,sans-Serif" font-size="10.00">::readS</text>
</a>
</g>
</g>
<!-- Node5&#45;&gt;Node6 -->
<g id="edge5" class="edge">
<title>Node5&#45;&gt;Node6</title>
<path fill="none" stroke="midnightblue" d="M397.09,-64.5C405.55,-64.5 414.29,-64.5 422.92,-64.5"/>
<polygon fill="midnightblue" stroke="midnightblue" points="422.98,-68 432.98,-64.5 422.98,-61 422.98,-68"/>
</g>
<!-- Node8 -->
<g id="node8" class="node">
<title>Node8</title>
<g id="a_node8"><a xlink:href="../../df/dcd/class_communication_1_1_client.html#a32bd631bcb3b0a3476b146a0cc49332d" target="_top" xlink:title="writeS write the com interface.">
<polygon fill="none" stroke="black" points="433,-0.5 433,-30.5 561,-30.5 561,-0.5 433,-0.5"/>
<text text-anchor="start" x="441" y="-18.5" font-family="Helvetica,sans-Serif" font-size="10.00">Communication::Client</text>
<text text-anchor="middle" x="497" y="-7.5" font-family="Helvetica,sans-Serif" font-size="10.00">::writeS</text>
</a>
</g>
</g>
<!-- Node5&#45;&gt;Node8 -->
<g id="edge7" class="edge">
<title>Node5&#45;&gt;Node8</title>
<path fill="none" stroke="midnightblue" d="M384.96,-49.4C401.36,-44.39 419.79,-38.77 436.84,-33.56"/>
<polygon fill="midnightblue" stroke="midnightblue" points="438.16,-36.82 446.7,-30.55 436.11,-30.12 438.16,-36.82"/>
</g>
<!-- Node7 -->
<g id="node7" class="node">
<title>Node7</title>
<g id="a_node7"><a xlink:href="../../df/dcd/class_communication_1_1_client.html#a7020654cbb2e6f707fe637fc84d8328c" target="_top" xlink:title="CRC Compute and return the CRC over the n first bytes of buf.">
<polygon fill="none" stroke="black" points="597,-30 597,-49 752,-49 752,-30 597,-30"/>
<text text-anchor="middle" x="674.5" y="-37" font-family="Helvetica,sans-Serif" font-size="10.00">Communication::Client::CRC</text>
</a>
</g>
</g>
<!-- Node6&#45;&gt;Node7 -->
<g id="edge6" class="edge">
<title>Node6&#45;&gt;Node7</title>
<path fill="none" stroke="midnightblue" d="M561.36,-55.47C572.75,-53.85 584.74,-52.14 596.46,-50.47"/>
<polygon fill="midnightblue" stroke="midnightblue" points="597.28,-53.89 606.68,-49.02 596.29,-46.96 597.28,-53.89"/>
</g>
<!-- Node8&#45;&gt;Node7 -->
<g id="edge8" class="edge">
<title>Node8&#45;&gt;Node7</title>
<path fill="none" stroke="midnightblue" d="M561.36,-24.16C571.96,-25.61 583.07,-27.13 594.02,-28.63"/>
<polygon fill="midnightblue" stroke="midnightblue" points="593.61,-32.11 604,-30 594.56,-25.17 593.61,-32.11"/>
</g>
</g>
</svg>
