<?xml version="1.0" encoding="UTF-8" standalone="no"?>
<!DOCTYPE svg PUBLIC "-//W3C//DTD SVG 1.1//EN"
 "http://www.w3.org/Graphics/SVG/1.1/DTD/svg11.dtd">
<!-- Generated by graphviz version 2.43.0 (0)
 -->
<!-- Title: Kistler::DAQ::_streaming_thread Pages: 1 -->
<svg width="828pt" height="691pt"
 viewBox="0.00 0.00 828.00 691.00" xmlns="http://www.w3.org/2000/svg" xmlns:xlink="http://www.w3.org/1999/xlink">
<g id="graph0" class="graph" transform="scale(1 1) rotate(0) translate(4 687)">
<title>Kistler::DAQ::_streaming_thread</title>
<!-- Node1 -->
<g id="node1" class="node">
<title>Node1</title>
<g id="a_node1"><a xlink:title="Thread streaming LSL samples.">
<polygon fill="#bfbfbf" stroke="black" points="0,-291.5 0,-321.5 137,-321.5 137,-291.5 0,-291.5"/>
<text text-anchor="start" x="8" y="-309.5" font-family="Helvetica,sans-Serif" font-size="10.00">Kistler::DAQ::_streaming</text>
<text text-anchor="middle" x="68.5" y="-298.5" font-family="Helvetica,sans-Serif" font-size="10.00">_thread</text>
</a>
</g>
</g>
<!-- Node2 -->
<g id="node2" class="node">
<title>Node2</title>
<g id="a_node2"><a xlink:href="../../df/dcd/class_communication_1_1_client.html#aa448a9277e9bed8326f74ad81062ab77" target="_top" xlink:title=" ">
<polygon fill="none" stroke="black" points="337,-652.5 337,-682.5 465,-682.5 465,-652.5 337,-652.5"/>
<text text-anchor="start" x="345" y="-670.5" font-family="Helvetica,sans-Serif" font-size="10.00">Communication::Client</text>
<text text-anchor="middle" x="401" y="-659.5" font-family="Helvetica,sans-Serif" font-size="10.00">::close_connection</text>
</a>
</g>
</g>
<!-- Node1&#45;&gt;Node2 -->
<g id="edge1" class="edge">
<title>Node1&#45;&gt;Node2</title>
<path fill="none" stroke="midnightblue" d="M69.5,-321.82C70.37,-372.98 80.5,-539.28 173,-621.5 214.6,-658.47 277.57,-668.91 326.64,-670.7"/>
<polygon fill="midnightblue" stroke="midnightblue" points="326.8,-674.21 336.89,-670.96 326.98,-667.21 326.8,-674.21"/>
</g>
<!-- Node4 -->
<g id="node4" class="node">
<title>Node4</title>
<g id="a_node4"><a xlink:href="../../dc/d44/class_e_s_c_1_1_c_l_i.html#abe1e5a3cc2cbd55c0704e9b13842e436" target="_top" xlink:title=" ">
<polygon fill="none" stroke="black" points="522,-467 522,-486 608,-486 608,-467 522,-467"/>
<text text-anchor="middle" x="565" y="-474" font-family="Helvetica,sans-Serif" font-size="10.00">ESC::CLI::logln</text>
</a>
</g>
</g>
<!-- Node1&#45;&gt;Node4 -->
<g id="edge19" class="edge">
<title>Node1&#45;&gt;Node4</title>
<path fill="none" stroke="midnightblue" d="M71.03,-321.56C76.23,-363.73 97.34,-483.02 173,-531.5 291.55,-607.46 471.57,-526.12 538.11,-491"/>
<polygon fill="midnightblue" stroke="midnightblue" points="539.93,-494 547.08,-486.18 536.61,-487.83 539.93,-494"/>
</g>
<!-- Node6 -->
<g id="node6" class="node">
<title>Node6</title>
<g id="a_node6"><a xlink:href="../../da/d94/class_kistler_1_1_a_p_i.html#a46c24eb334e1af47b3b17408918c5491" target="_top" xlink:title="Close a streaming port.">
<polygon fill="none" stroke="black" points="186.5,-491.5 186.5,-521.5 287.5,-521.5 287.5,-491.5 186.5,-491.5"/>
<text text-anchor="start" x="194.5" y="-509.5" font-family="Helvetica,sans-Serif" font-size="10.00">Kistler::API::close</text>
<text text-anchor="middle" x="237" y="-498.5" font-family="Helvetica,sans-Serif" font-size="10.00">_stream</text>
</a>
</g>
</g>
<!-- Node1&#45;&gt;Node6 -->
<g id="edge5" class="edge">
<title>Node1&#45;&gt;Node6</title>
<path fill="none" stroke="midnightblue" d="M74.42,-321.51C86.14,-355.06 118.85,-436.74 173,-482.5 174.51,-483.77 176.09,-484.99 177.73,-486.14"/>
<polygon fill="midnightblue" stroke="midnightblue" points="175.99,-489.17 186.35,-491.39 179.64,-483.2 175.99,-489.17"/>
</g>
<!-- Node12 -->
<g id="node12" class="node">
<title>Node12</title>
<g id="a_node12"><a xlink:href="../../da/d94/class_kistler_1_1_a_p_i.html#a5a1c3d8d1e5b6f496726293f09cc91c9" target="_top" xlink:title="Unregister a client.">
<polygon fill="none" stroke="black" points="183.5,-442.5 183.5,-472.5 290.5,-472.5 290.5,-442.5 183.5,-442.5"/>
<text text-anchor="start" x="191.5" y="-460.5" font-family="Helvetica,sans-Serif" font-size="10.00">Kistler::API::delete</text>
<text text-anchor="middle" x="237" y="-449.5" font-family="Helvetica,sans-Serif" font-size="10.00">_client</text>
</a>
</g>
</g>
<!-- Node1&#45;&gt;Node12 -->
<g id="edge15" class="edge">
<title>Node1&#45;&gt;Node12</title>
<path fill="none" stroke="midnightblue" d="M78.43,-321.81C94.34,-347.88 130.01,-401.13 173,-432.5 175.49,-434.31 178.12,-436.02 180.85,-437.62"/>
<polygon fill="midnightblue" stroke="midnightblue" points="179.34,-440.78 189.81,-442.36 182.62,-434.59 179.34,-440.78"/>
</g>
<!-- Node13 -->
<g id="node13" class="node">
<title>Node13</title>
<g id="a_node13"><a xlink:href="../../da/d53/built__lsl_2include_2lsl__c_8h.html#a22a7097dedf222014e6b878f3870b0fa" target="_top" xlink:title=" ">
<polygon fill="none" stroke="black" points="188,-164 188,-183 286,-183 286,-164 188,-164"/>
<text text-anchor="middle" x="237" y="-171" font-family="Helvetica,sans-Serif" font-size="10.00">lsl_create_outlet</text>
</a>
</g>
</g>
<!-- Node1&#45;&gt;Node13 -->
<g id="edge20" class="edge">
<title>Node1&#45;&gt;Node13</title>
<path fill="none" stroke="midnightblue" d="M80.25,-291.42C97.44,-268.3 133.26,-223.97 173,-197.5 179.16,-193.4 186.12,-189.85 193.12,-186.85"/>
<polygon fill="midnightblue" stroke="midnightblue" points="194.6,-190.03 202.59,-183.08 192.01,-183.52 194.6,-190.03"/>
</g>
<!-- Node14 -->
<g id="node14" class="node">
<title>Node14</title>
<g id="a_node14"><a xlink:href="../../da/d53/built__lsl_2include_2lsl__c_8h.html#ad84630a74d54a33c972daa18feb78c9d" target="_top" xlink:title=" ">
<polygon fill="none" stroke="black" points="176,-126 176,-145 298,-145 298,-126 176,-126"/>
<text text-anchor="middle" x="237" y="-133" font-family="Helvetica,sans-Serif" font-size="10.00">lsl_create_streaminfo</text>
</a>
</g>
</g>
<!-- Node1&#45;&gt;Node14 -->
<g id="edge21" class="edge">
<title>Node1&#45;&gt;Node14</title>
<path fill="none" stroke="midnightblue" d="M75.58,-291.46C88.68,-260.95 122.55,-191.51 173,-154.5 175.63,-152.57 178.45,-150.84 181.39,-149.28"/>
<polygon fill="midnightblue" stroke="midnightblue" points="182.86,-152.46 190.5,-145.11 179.95,-146.09 182.86,-152.46"/>
</g>
<!-- Node15 -->
<g id="node15" class="node">
<title>Node15</title>
<g id="a_node15"><a xlink:href="../../da/d53/built__lsl_2include_2lsl__c_8h.html#a0588f316a9e406e61f1507d8f756529f" target="_top" xlink:title=" ">
<polygon fill="none" stroke="black" points="185,-88 185,-107 289,-107 289,-88 185,-88"/>
<text text-anchor="middle" x="237" y="-95" font-family="Helvetica,sans-Serif" font-size="10.00">lsl_destroy_outlet</text>
</a>
</g>
</g>
<!-- Node1&#45;&gt;Node15 -->
<g id="edge22" class="edge">
<title>Node1&#45;&gt;Node15</title>
<path fill="none" stroke="midnightblue" d="M73.44,-291.36C83.57,-255.44 113.97,-164.47 173,-116.5 175.24,-114.68 177.66,-113.03 180.19,-111.54"/>
<polygon fill="midnightblue" stroke="midnightblue" points="181.79,-114.65 189.17,-107.05 178.66,-108.39 181.79,-114.65"/>
</g>
<!-- Node16 -->
<g id="node16" class="node">
<title>Node16</title>
<g id="a_node16"><a xlink:href="../../da/d53/built__lsl_2include_2lsl__c_8h.html#a80f314d925564890ee64b1c2a699bdb0" target="_top" xlink:title=" ">
<polygon fill="none" stroke="black" points="185.5,-50 185.5,-69 288.5,-69 288.5,-50 185.5,-50"/>
<text text-anchor="middle" x="237" y="-57" font-family="Helvetica,sans-Serif" font-size="10.00">lsl_push_chunk_ft</text>
</a>
</g>
</g>
<!-- Node1&#45;&gt;Node16 -->
<g id="edge23" class="edge">
<title>Node1&#45;&gt;Node16</title>
<path fill="none" stroke="midnightblue" d="M71.93,-291.45C79.28,-250.8 105.11,-137.9 173,-78.5 174.96,-76.79 177.06,-75.23 179.28,-73.81"/>
<polygon fill="midnightblue" stroke="midnightblue" points="181.09,-76.81 188.26,-69.01 177.79,-70.64 181.09,-76.81"/>
</g>
<!-- Node17 -->
<g id="node17" class="node">
<title>Node17</title>
<g id="a_node17"><a xlink:href="../../da/d94/class_kistler_1_1_a_p_i.html#a0e3329ec10d12ef325520b4c106f8d83" target="_top" xlink:title="Register a new client and get its ID.">
<polygon fill="none" stroke="black" points="173,-404 173,-423 301,-423 301,-404 173,-404"/>
<text text-anchor="middle" x="237" y="-411" font-family="Helvetica,sans-Serif" font-size="10.00">Kistler::API::new_client</text>
</a>
</g>
</g>
<!-- Node1&#45;&gt;Node17 -->
<g id="edge24" class="edge">
<title>Node1&#45;&gt;Node17</title>
<path fill="none" stroke="midnightblue" d="M83.46,-321.76C102.1,-341.27 136.96,-374.87 173,-394.5 177,-396.68 181.29,-398.64 185.67,-400.4"/>
<polygon fill="midnightblue" stroke="midnightblue" points="184.75,-403.79 195.34,-403.93 187.15,-397.22 184.75,-403.79"/>
</g>
<!-- Node18 -->
<g id="node18" class="node">
<title>Node18</title>
<g id="a_node18"><a xlink:href="../../df/dcd/class_communication_1_1_client.html#a66336ae23ea502a9395010407a952664" target="_top" xlink:title="open_connection Open the connection the serial or network or interface">
<polygon fill="none" stroke="black" points="173,-0.5 173,-30.5 301,-30.5 301,-0.5 173,-0.5"/>
<text text-anchor="start" x="181" y="-18.5" font-family="Helvetica,sans-Serif" font-size="10.00">Communication::Client</text>
<text text-anchor="middle" x="237" y="-7.5" font-family="Helvetica,sans-Serif" font-size="10.00">::open_connection</text>
</a>
</g>
</g>
<!-- Node1&#45;&gt;Node18 -->
<g id="edge28" class="edge">
<title>Node1&#45;&gt;Node18</title>
<path fill="none" stroke="midnightblue" d="M71.18,-291.29C76.89,-246.65 99.49,-114.5 173,-40.5 174.43,-39.06 175.95,-37.7 177.55,-36.42"/>
<polygon fill="midnightblue" stroke="midnightblue" points="179.78,-39.14 186.07,-30.62 175.84,-33.35 179.78,-39.14"/>
</g>
<!-- Node19 -->
<g id="node19" class="node">
<title>Node19</title>
<g id="a_node19"><a xlink:href="../../da/d94/class_kistler_1_1_a_p_i.html#a098b5c9b8d99e1759efba5ef119475d9" target="_top" xlink:title="Open a streaming port. The port will be closed if no connection is made within 30 seconds.">
<polygon fill="none" stroke="black" points="187,-354.5 187,-384.5 287,-384.5 287,-354.5 187,-354.5"/>
<text text-anchor="start" x="195" y="-372.5" font-family="Helvetica,sans-Serif" font-size="10.00">Kistler::API::open</text>
<text text-anchor="middle" x="237" y="-361.5" font-family="Helvetica,sans-Serif" font-size="10.00">_stream</text>
</a>
</g>
</g>
<!-- Node1&#45;&gt;Node19 -->
<g id="edge29" class="edge">
<title>Node1&#45;&gt;Node19</title>
<path fill="none" stroke="midnightblue" d="M109.38,-321.59C132.57,-330.36 161.98,-341.49 186.62,-350.82"/>
<polygon fill="midnightblue" stroke="midnightblue" points="185.56,-354.16 196.16,-354.42 188.04,-347.61 185.56,-354.16"/>
</g>
<!-- Node20 -->
<g id="node20" class="node">
<title>Node20</title>
<g id="a_node20"><a xlink:href="../../da/d97/class_kistler_1_1_d_a_q.html#a3d0ae8c3f89ca09717a55451b34f6e6f" target="_top" xlink:title="Read a subframe as an event (type 0 in header)">
<polygon fill="none" stroke="black" points="349,-603.5 349,-633.5 453,-633.5 453,-603.5 349,-603.5"/>
<text text-anchor="start" x="357" y="-621.5" font-family="Helvetica,sans-Serif" font-size="10.00">Kistler::DAQ::read</text>
<text text-anchor="middle" x="401" y="-610.5" font-family="Helvetica,sans-Serif" font-size="10.00">_event</text>
</a>
</g>
</g>
<!-- Node1&#45;&gt;Node20 -->
<g id="edge33" class="edge">
<title>Node1&#45;&gt;Node20</title>
<path fill="none" stroke="midnightblue" d="M69.94,-321.82C72.22,-369.95 86.29,-519.07 173,-588.5 219.3,-625.58 288.75,-629.62 338.63,-626.55"/>
<polygon fill="midnightblue" stroke="midnightblue" points="338.93,-630.04 348.65,-625.82 338.42,-623.05 338.93,-630.04"/>
</g>
<!-- Node21 -->
<g id="node21" class="node">
<title>Node21</title>
<g id="a_node21"><a xlink:href="../../da/d97/class_kistler_1_1_d_a_q.html#ad39263026e83eafcc4e195181a94d706" target="_top" xlink:title="read the header of an incoming frame">
<polygon fill="none" stroke="black" points="349,-187.5 349,-217.5 453,-217.5 453,-187.5 349,-187.5"/>
<text text-anchor="start" x="357" y="-205.5" font-family="Helvetica,sans-Serif" font-size="10.00">Kistler::DAQ::read</text>
<text text-anchor="middle" x="401" y="-194.5" font-family="Helvetica,sans-Serif" font-size="10.00">_header</text>
</a>
</g>
</g>
<!-- Node1&#45;&gt;Node21 -->
<g id="edge37" class="edge">
<title>Node1&#45;&gt;Node21</title>
<path fill="none" stroke="midnightblue" d="M108.6,-291.42C127.87,-284.17 151.54,-275.55 173,-268.5 228.76,-250.18 293.06,-231.73 338.96,-219.02"/>
<polygon fill="midnightblue" stroke="midnightblue" points="340.05,-222.35 348.75,-216.31 338.18,-215.6 340.05,-222.35"/>
</g>
<!-- Node22 -->
<g id="node22" class="node">
<title>Node22</title>
<g id="a_node22"><a xlink:href="../../da/d97/class_kistler_1_1_d_a_q.html#ae236ac769128029dc1f59c8bdaceeb1a" target="_top" xlink:title="Read a subframe as a data frame (type 1 in header)">
<polygon fill="none" stroke="black" points="349,-138.5 349,-168.5 453,-168.5 453,-138.5 349,-138.5"/>
<text text-anchor="start" x="357" y="-156.5" font-family="Helvetica,sans-Serif" font-size="10.00">Kistler::DAQ::read</text>
<text text-anchor="middle" x="401" y="-145.5" font-family="Helvetica,sans-Serif" font-size="10.00">_measurement</text>
</a>
</g>
</g>
<!-- Node1&#45;&gt;Node22 -->
<g id="edge39" class="edge">
<title>Node1&#45;&gt;Node22</title>
<path fill="none" stroke="midnightblue" d="M84.97,-291.27C104.1,-273.27 138.38,-243.6 173,-226.5 225.77,-200.43 245.26,-211.42 301,-192.5 317.41,-186.93 320.9,-183.92 337,-177.5 341.39,-175.75 345.96,-173.95 350.55,-172.17"/>
<polygon fill="midnightblue" stroke="midnightblue" points="351.87,-175.42 359.93,-168.55 349.35,-168.89 351.87,-175.42"/>
</g>
<!-- Node23 -->
<g id="node23" class="node">
<title>Node23</title>
<g id="a_node23"><a xlink:href="../../da/d94/class_kistler_1_1_a_p_i.html#a1241535349db9c80adea109500ba7c79" target="_top" xlink:title="Send a START request to the DAQ.">
<polygon fill="none" stroke="black" points="188,-316 188,-335 286,-335 286,-316 188,-316"/>
<text text-anchor="middle" x="237" y="-323" font-family="Helvetica,sans-Serif" font-size="10.00">Kistler::API::start</text>
</a>
</g>
</g>
<!-- Node1&#45;&gt;Node23 -->
<g id="edge41" class="edge">
<title>Node1&#45;&gt;Node23</title>
<path fill="none" stroke="midnightblue" d="M137.22,-314.23C150.65,-315.76 164.63,-317.36 177.71,-318.85"/>
<polygon fill="midnightblue" stroke="midnightblue" points="177.65,-322.36 187.98,-320.02 178.44,-315.41 177.65,-322.36"/>
</g>
<!-- Node24 -->
<g id="node24" class="node">
<title>Node24</title>
<g id="a_node24"><a xlink:href="../../da/d94/class_kistler_1_1_a_p_i.html#a5410196834e57bb4376380d609390e25" target="_top" xlink:title="Send a STOP request to the DAQ.">
<polygon fill="none" stroke="black" points="188.5,-278 188.5,-297 285.5,-297 285.5,-278 188.5,-278"/>
<text text-anchor="middle" x="237" y="-285" font-family="Helvetica,sans-Serif" font-size="10.00">Kistler::API::stop</text>
</a>
</g>
</g>
<!-- Node1&#45;&gt;Node24 -->
<g id="edge45" class="edge">
<title>Node1&#45;&gt;Node24</title>
<path fill="none" stroke="midnightblue" d="M137.22,-298.77C150.93,-297.21 165.21,-295.58 178.52,-294.06"/>
<polygon fill="midnightblue" stroke="midnightblue" points="178.94,-297.53 188.48,-292.92 178.15,-290.58 178.94,-297.53"/>
</g>
<!-- Node3 -->
<g id="node3" class="node">
<title>Node3</title>
<g id="a_node3"><a xlink:href="../../d2/d52/namespace_e_s_c.html#a080ff5f5b8a2ed3567a541acfa69a425" target="_top" xlink:title="fstr Prints a formated string.">
<polygon fill="none" stroke="black" points="536,-609 536,-628 594,-628 594,-609 536,-609"/>
<text text-anchor="middle" x="565" y="-616" font-family="Helvetica,sans-Serif" font-size="10.00">ESC::fstr</text>
</a>
</g>
</g>
<!-- Node2&#45;&gt;Node3 -->
<g id="edge2" class="edge">
<title>Node2&#45;&gt;Node3</title>
<path fill="none" stroke="midnightblue" d="M451.93,-652.4C475.79,-645.18 503.9,-636.68 525.99,-630"/>
<polygon fill="midnightblue" stroke="midnightblue" points="527.12,-633.31 535.68,-627.06 525.1,-626.61 527.12,-633.31"/>
</g>
<!-- Node2&#45;&gt;Node4 -->
<g id="edge3" class="edge">
<title>Node2&#45;&gt;Node4</title>
<path fill="none" stroke="midnightblue" d="M451.63,-652.38C456.41,-649.83 460.97,-646.89 465,-643.5 490.44,-622.08 535.5,-534.43 554.8,-495.4"/>
<polygon fill="midnightblue" stroke="midnightblue" points="558.06,-496.7 559.33,-486.18 551.78,-493.62 558.06,-496.7"/>
</g>
<!-- Node5 -->
<g id="node5" class="node">
<title>Node5</title>
<g id="a_node5"><a xlink:href="../../d2/d52/namespace_e_s_c.html#a1ab0660788056c78944278261498664a" target="_top" xlink:title=" ">
<polygon fill="none" stroke="black" points="702.5,-467 702.5,-486 782.5,-486 782.5,-467 702.5,-467"/>
<text text-anchor="middle" x="742.5" y="-474" font-family="Helvetica,sans-Serif" font-size="10.00">ESC::get_pos</text>
</a>
</g>
</g>
<!-- Node4&#45;&gt;Node5 -->
<g id="edge4" class="edge">
<title>Node4&#45;&gt;Node5</title>
<path fill="none" stroke="midnightblue" d="M608.04,-476.5C633.28,-476.5 665.53,-476.5 692,-476.5"/>
<polygon fill="midnightblue" stroke="midnightblue" points="692.21,-480 702.21,-476.5 692.21,-473 692.21,-480"/>
</g>
<!-- Node6&#45;&gt;Node4 -->
<g id="edge9" class="edge">
<title>Node6&#45;&gt;Node4</title>
<path fill="none" stroke="midnightblue" d="M287.76,-506.11C333.87,-505.26 404.28,-502.76 465,-495.5 480.25,-493.68 496.68,-490.87 511.68,-487.97"/>
<polygon fill="midnightblue" stroke="midnightblue" points="512.68,-491.34 521.81,-485.96 511.32,-484.47 512.68,-491.34"/>
</g>
<!-- Node7 -->
<g id="node7" class="node">
<title>Node7</title>
<g id="a_node7"><a xlink:href="../../da/d94/class_kistler_1_1_a_p_i.html#a19649fd0c024f8a66eaff543114532e9" target="_top" xlink:title="Check the satue of the reply (result:0 =&gt; OK)">
<polygon fill="none" stroke="black" points="349,-439.5 349,-469.5 453,-469.5 453,-439.5 349,-439.5"/>
<text text-anchor="start" x="357" y="-457.5" font-family="Helvetica,sans-Serif" font-size="10.00">Kistler::API::check</text>
<text text-anchor="middle" x="401" y="-446.5" font-family="Helvetica,sans-Serif" font-size="10.00">_msg_error</text>
</a>
</g>
</g>
<!-- Node6&#45;&gt;Node7 -->
<g id="edge6" class="edge">
<title>Node6&#45;&gt;Node7</title>
<path fill="none" stroke="midnightblue" d="M284.86,-491.46C303.24,-485.56 324.5,-478.73 343.71,-472.57"/>
<polygon fill="midnightblue" stroke="midnightblue" points="344.8,-475.9 353.25,-469.51 342.66,-469.23 344.8,-475.9"/>
</g>
<!-- Node8 -->
<g id="node8" class="node">
<title>Node8</title>
<g id="a_node8"><a xlink:href="../../d7/d60/class_communication_1_1_h_t_t_p__client.html#a241e78ccad7bcbc7597cb2dde7d7e402" target="_top" xlink:title=" ">
<polygon fill="none" stroke="black" points="338.5,-313.5 338.5,-343.5 463.5,-343.5 463.5,-313.5 338.5,-313.5"/>
<text text-anchor="start" x="346.5" y="-331.5" font-family="Helvetica,sans-Serif" font-size="10.00">Communication::HTTP</text>
<text text-anchor="middle" x="401" y="-320.5" font-family="Helvetica,sans-Serif" font-size="10.00">_client::post</text>
</a>
</g>
</g>
<!-- Node6&#45;&gt;Node8 -->
<g id="edge10" class="edge">
<title>Node6&#45;&gt;Node8</title>
<path fill="none" stroke="midnightblue" d="M287.19,-491.39C292.11,-488.84 296.82,-485.89 301,-482.5 306.91,-477.71 359.35,-393.95 385.42,-352.02"/>
<polygon fill="midnightblue" stroke="midnightblue" points="388.4,-353.85 390.7,-343.51 382.45,-350.16 388.4,-353.85"/>
</g>
<!-- Node7&#45;&gt;Node3 -->
<g id="edge7" class="edge">
<title>Node7&#45;&gt;Node3</title>
<path fill="none" stroke="midnightblue" d="M416.95,-469.63C447.13,-500.19 515.18,-569.08 547,-601.29"/>
<polygon fill="midnightblue" stroke="midnightblue" points="544.74,-603.99 554.26,-608.64 549.72,-599.07 544.74,-603.99"/>
</g>
<!-- Node7&#45;&gt;Node4 -->
<g id="edge8" class="edge">
<title>Node7&#45;&gt;Node4</title>
<path fill="none" stroke="midnightblue" d="M453.26,-461.46C471.87,-463.99 492.92,-466.85 511.63,-469.39"/>
<polygon fill="midnightblue" stroke="midnightblue" points="511.37,-472.89 521.75,-470.76 512.32,-465.95 511.37,-472.89"/>
</g>
<!-- Node9 -->
<g id="node9" class="node">
<title>Node9</title>
<g id="a_node9"><a xlink:href="../../df/dcd/class_communication_1_1_client.html#a73fec58648938364cd65d690f50bd7ec" target="_top" xlink:title="readS read the com inmterface.">
<polygon fill="none" stroke="black" points="501,-264.5 501,-294.5 629,-294.5 629,-264.5 501,-264.5"/>
<text text-anchor="start" x="509" y="-282.5" font-family="Helvetica,sans-Serif" font-size="10.00">Communication::Client</text>
<text text-anchor="middle" x="565" y="-271.5" font-family="Helvetica,sans-Serif" font-size="10.00">::readS</text>
</a>
</g>
</g>
<!-- Node8&#45;&gt;Node9 -->
<g id="edge11" class="edge">
<title>Node8&#45;&gt;Node9</title>
<path fill="none" stroke="midnightblue" d="M451.93,-313.4C468.48,-308.39 487.07,-302.77 504.29,-297.56"/>
<polygon fill="midnightblue" stroke="midnightblue" points="505.68,-300.8 514.24,-294.55 503.65,-294.1 505.68,-300.8"/>
</g>
<!-- Node11 -->
<g id="node11" class="node">
<title>Node11</title>
<g id="a_node11"><a xlink:href="../../df/dcd/class_communication_1_1_client.html#a32bd631bcb3b0a3476b146a0cc49332d" target="_top" xlink:title="writeS write the com interface.">
<polygon fill="none" stroke="black" points="501,-313.5 501,-343.5 629,-343.5 629,-313.5 501,-313.5"/>
<text text-anchor="start" x="509" y="-331.5" font-family="Helvetica,sans-Serif" font-size="10.00">Communication::Client</text>
<text text-anchor="middle" x="565" y="-320.5" font-family="Helvetica,sans-Serif" font-size="10.00">::writeS</text>
</a>
</g>
</g>
<!-- Node8&#45;&gt;Node11 -->
<g id="edge13" class="edge">
<title>Node8&#45;&gt;Node11</title>
<path fill="none" stroke="midnightblue" d="M463.71,-328.5C472.54,-328.5 481.7,-328.5 490.73,-328.5"/>
<polygon fill="midnightblue" stroke="midnightblue" points="490.85,-332 500.85,-328.5 490.85,-325 490.85,-332"/>
</g>
<!-- Node10 -->
<g id="node10" class="node">
<title>Node10</title>
<g id="a_node10"><a xlink:href="../../df/dcd/class_communication_1_1_client.html#a7020654cbb2e6f707fe637fc84d8328c" target="_top" xlink:title="CRC Compute and return the CRC over the n first bytes of buf.">
<polygon fill="none" stroke="black" points="665,-295 665,-314 820,-314 820,-295 665,-295"/>
<text text-anchor="middle" x="742.5" y="-302" font-family="Helvetica,sans-Serif" font-size="10.00">Communication::Client::CRC</text>
</a>
</g>
</g>
<!-- Node9&#45;&gt;Node10 -->
<g id="edge12" class="edge">
<title>Node9&#45;&gt;Node10</title>
<path fill="none" stroke="midnightblue" d="M629.36,-288.53C640.75,-290.15 652.74,-291.86 664.46,-293.53"/>
<polygon fill="midnightblue" stroke="midnightblue" points="664.29,-297.04 674.68,-294.98 665.28,-290.11 664.29,-297.04"/>
</g>
<!-- Node11&#45;&gt;Node10 -->
<g id="edge14" class="edge">
<title>Node11&#45;&gt;Node10</title>
<path fill="none" stroke="midnightblue" d="M629.36,-319.84C639.96,-318.39 651.07,-316.87 662.02,-315.37"/>
<polygon fill="midnightblue" stroke="midnightblue" points="662.56,-318.83 672,-314 661.61,-311.89 662.56,-318.83"/>
</g>
<!-- Node12&#45;&gt;Node4 -->
<g id="edge17" class="edge">
<title>Node12&#45;&gt;Node4</title>
<path fill="none" stroke="midnightblue" d="M290.56,-471.42C305.46,-474.75 321.77,-477.83 337,-479.5 396.55,-486.04 465.41,-483.75 511.54,-480.82"/>
<polygon fill="midnightblue" stroke="midnightblue" points="511.85,-484.31 521.6,-480.15 511.38,-477.32 511.85,-484.31"/>
</g>
<!-- Node12&#45;&gt;Node7 -->
<g id="edge16" class="edge">
<title>Node12&#45;&gt;Node7</title>
<path fill="none" stroke="midnightblue" d="M290.6,-456.53C305.91,-456.24 322.76,-455.93 338.57,-455.64"/>
<polygon fill="midnightblue" stroke="midnightblue" points="338.84,-459.13 348.77,-455.45 338.71,-452.13 338.84,-459.13"/>
</g>
<!-- Node12&#45;&gt;Node8 -->
<g id="edge18" class="edge">
<title>Node12&#45;&gt;Node8</title>
<path fill="none" stroke="midnightblue" d="M282.94,-442.47C289.23,-439.57 295.44,-436.25 301,-432.5 334.16,-410.11 364.65,-374.92 382.79,-351.78"/>
<polygon fill="midnightblue" stroke="midnightblue" points="385.8,-353.61 389.12,-343.55 380.25,-349.34 385.8,-353.61"/>
</g>
<!-- Node17&#45;&gt;Node4 -->
<g id="edge26" class="edge">
<title>Node17&#45;&gt;Node4</title>
<path fill="none" stroke="midnightblue" d="M301.13,-412.2C347.24,-412.7 410.89,-416.4 465,-430.5 491.64,-437.44 519.91,-451.31 539.4,-462.01"/>
<polygon fill="midnightblue" stroke="midnightblue" points="537.78,-465.12 548.21,-466.97 541.21,-459.02 537.78,-465.12"/>
</g>
<!-- Node17&#45;&gt;Node7 -->
<g id="edge25" class="edge">
<title>Node17&#45;&gt;Node7</title>
<path fill="none" stroke="midnightblue" d="M275.57,-423.01C294.37,-427.77 317.61,-433.65 338.89,-439.03"/>
<polygon fill="midnightblue" stroke="midnightblue" points="338.27,-442.49 348.83,-441.55 339.99,-435.7 338.27,-442.49"/>
</g>
<!-- Node17&#45;&gt;Node8 -->
<g id="edge27" class="edge">
<title>Node17&#45;&gt;Node8</title>
<path fill="none" stroke="midnightblue" d="M276.32,-403.92C284.63,-401.3 293.25,-398.15 301,-394.5 326.88,-382.3 353.73,-363.98 372.93,-349.74"/>
<polygon fill="midnightblue" stroke="midnightblue" points="375.05,-352.53 380.93,-343.71 370.83,-346.94 375.05,-352.53"/>
</g>
<!-- Node19&#45;&gt;Node4 -->
<g id="edge31" class="edge">
<title>Node19&#45;&gt;Node4</title>
<path fill="none" stroke="midnightblue" d="M287.04,-371.85C334.18,-375.49 406.65,-384.79 465,-408.5 495.82,-421.03 526.68,-444.35 545.56,-460.15"/>
<polygon fill="midnightblue" stroke="midnightblue" points="543.47,-462.97 553.35,-466.82 548.02,-457.66 543.47,-462.97"/>
</g>
<!-- Node19&#45;&gt;Node7 -->
<g id="edge30" class="edge">
<title>Node19&#45;&gt;Node7</title>
<path fill="none" stroke="midnightblue" d="M278.77,-384.52C286.26,-387.61 293.94,-390.99 301,-394.5 324.46,-406.16 349.7,-421.5 368.82,-433.76"/>
<polygon fill="midnightblue" stroke="midnightblue" points="367.12,-436.82 377.41,-439.32 370.92,-430.95 367.12,-436.82"/>
</g>
<!-- Node19&#45;&gt;Node8 -->
<g id="edge32" class="edge">
<title>Node19&#45;&gt;Node8</title>
<path fill="none" stroke="midnightblue" d="M287.04,-357.09C300.74,-353.62 315.89,-349.79 330.52,-346.08"/>
<polygon fill="midnightblue" stroke="midnightblue" points="331.71,-349.39 340.55,-343.55 329.99,-342.61 331.71,-349.39"/>
</g>
<!-- Node20&#45;&gt;Node3 -->
<g id="edge34" class="edge">
<title>Node20&#45;&gt;Node3</title>
<path fill="none" stroke="midnightblue" d="M453.26,-618.5C476.68,-618.5 503.95,-618.5 525.57,-618.5"/>
<polygon fill="midnightblue" stroke="midnightblue" points="525.69,-622 535.69,-618.5 525.69,-615 525.69,-622"/>
</g>
<!-- Node20&#45;&gt;Node4 -->
<g id="edge35" class="edge">
<title>Node20&#45;&gt;Node4</title>
<path fill="none" stroke="midnightblue" d="M440.07,-603.4C448.66,-599.19 457.45,-594.19 465,-588.5 501.41,-561.07 534.47,-518.54 551.63,-494.56"/>
<polygon fill="midnightblue" stroke="midnightblue" points="554.71,-496.26 557.6,-486.06 548.99,-492.24 554.71,-496.26"/>
</g>
<!-- Node20&#45;&gt;Node9 -->
<g id="edge36" class="edge">
<title>Node20&#45;&gt;Node9</title>
<path fill="none" stroke="midnightblue" d="M410.35,-603.11C423.7,-577.95 449.85,-526.12 465,-479.5 489.54,-403.98 449.97,-365.34 501,-304.5 502.12,-303.17 503.32,-301.91 504.58,-300.71"/>
<polygon fill="midnightblue" stroke="midnightblue" points="506.74,-303.47 512.49,-294.57 502.44,-297.94 506.74,-303.47"/>
</g>
<!-- Node21&#45;&gt;Node9 -->
<g id="edge38" class="edge">
<title>Node21&#45;&gt;Node9</title>
<path fill="none" stroke="midnightblue" d="M433.62,-217.53C459.18,-229.68 495.36,-246.87 523.12,-260.07"/>
<polygon fill="midnightblue" stroke="midnightblue" points="521.65,-263.25 532.18,-264.38 524.65,-256.92 521.65,-263.25"/>
</g>
<!-- Node22&#45;&gt;Node9 -->
<g id="edge40" class="edge">
<title>Node22&#45;&gt;Node9</title>
<path fill="none" stroke="midnightblue" d="M448.57,-168.56C454.3,-171.18 459.92,-174.15 465,-177.5 497.9,-199.16 528.26,-233.46 546.46,-256.22"/>
<polygon fill="midnightblue" stroke="midnightblue" points="543.89,-258.62 552.81,-264.33 549.4,-254.3 543.89,-258.62"/>
</g>
<!-- Node23&#45;&gt;Node4 -->
<g id="edge43" class="edge">
<title>Node23&#45;&gt;Node4</title>
<path fill="none" stroke="midnightblue" d="M273.92,-315.99C292.58,-311.53 315.86,-306.72 337,-304.5 393.58,-298.57 415.75,-276.02 465,-304.5 480.05,-313.2 532.9,-415.08 554.6,-457.82"/>
<polygon fill="midnightblue" stroke="midnightblue" points="551.54,-459.53 559.18,-466.88 557.79,-456.37 551.54,-459.53"/>
</g>
<!-- Node23&#45;&gt;Node7 -->
<g id="edge42" class="edge">
<title>Node23&#45;&gt;Node7</title>
<path fill="none" stroke="midnightblue" d="M279.07,-335.08C286.69,-337.8 294.34,-341.22 301,-345.5 336.07,-368 366.61,-406.03 384.18,-430.7"/>
<polygon fill="midnightblue" stroke="midnightblue" points="381.46,-432.92 390.05,-439.13 387.2,-428.92 381.46,-432.92"/>
</g>
<!-- Node23&#45;&gt;Node8 -->
<g id="edge44" class="edge">
<title>Node23&#45;&gt;Node8</title>
<path fill="none" stroke="midnightblue" d="M286.17,-326.39C299.38,-326.64 313.99,-326.91 328.21,-327.17"/>
<polygon fill="midnightblue" stroke="midnightblue" points="328.42,-330.67 338.48,-327.36 328.55,-323.68 328.42,-330.67"/>
</g>
<!-- Node24&#45;&gt;Node4 -->
<g id="edge46" class="edge">
<title>Node24&#45;&gt;Node4</title>
<path fill="none" stroke="midnightblue" d="M267.81,-277.96C313.86,-265.15 403.37,-248.03 465,-285.5 467.06,-286.75 530.11,-410.05 554.5,-457.86"/>
<polygon fill="midnightblue" stroke="midnightblue" points="551.42,-459.52 559.08,-466.84 557.65,-456.34 551.42,-459.52"/>
</g>
<!-- Node24&#45;&gt;Node8 -->
<g id="edge47" class="edge">
<title>Node24&#45;&gt;Node8</title>
<path fill="none" stroke="midnightblue" d="M275.57,-297.01C291.97,-301.16 311.74,-306.16 330.64,-310.95"/>
<polygon fill="midnightblue" stroke="midnightblue" points="329.87,-314.36 340.42,-313.42 331.59,-307.58 329.87,-314.36"/>
</g>
</g>
</svg>
