<?xml version="1.0" encoding="UTF-8" standalone="no"?>
<!DOCTYPE svg PUBLIC "-//W3C//DTD SVG 1.1//EN"
 "http://www.w3.org/Graphics/SVG/1.1/DTD/svg11.dtd">
<!-- Generated by graphviz version 2.43.0 (0)
 -->
<!-- Title: Kistler::DAQ::connect Pages: 1 -->
<svg width="465pt" height="78pt"
 viewBox="0.00 0.00 465.00 77.50" xmlns="http://www.w3.org/2000/svg" xmlns:xlink="http://www.w3.org/1999/xlink">
<g id="graph0" class="graph" transform="scale(1 1) rotate(0) translate(4 73.5)">
<title>Kistler::DAQ::connect</title>
<!-- Node1 -->
<g id="node1" class="node">
<title>Node1</title>
<g id="a_node1"><a xlink:title="Connect to the DAQ.">
<polygon fill="#bfbfbf" stroke="black" points="0,-28 0,-47 120,-47 120,-28 0,-28"/>
<text text-anchor="middle" x="60" y="-35" font-family="Helvetica,sans-Serif" font-size="10.00">Kistler::DAQ::connect</text>
</a>
</g>
</g>
<!-- Node2 -->
<g id="node2" class="node">
<title>Node2</title>
<g id="a_node2"><a xlink:href="../../dc/d44/class_e_s_c_1_1_c_l_i.html#abe1e5a3cc2cbd55c0704e9b13842e436" target="_top" xlink:title=" ">
<polygon fill="none" stroke="black" points="181.5,-50 181.5,-69 267.5,-69 267.5,-50 181.5,-50"/>
<text text-anchor="middle" x="224.5" y="-57" font-family="Helvetica,sans-Serif" font-size="10.00">ESC::CLI::logln</text>
</a>
</g>
</g>
<!-- Node1&#45;&gt;Node2 -->
<g id="edge1" class="edge">
<title>Node1&#45;&gt;Node2</title>
<path fill="none" stroke="midnightblue" d="M120.13,-45.5C136.96,-47.78 155.16,-50.25 171.54,-52.47"/>
<polygon fill="midnightblue" stroke="midnightblue" points="171.09,-55.94 181.47,-53.81 172.03,-49 171.09,-55.94"/>
</g>
<!-- Node4 -->
<g id="node4" class="node">
<title>Node4</title>
<g id="a_node4"><a xlink:href="../../d7/d60/class_communication_1_1_h_t_t_p__client.html#a67973a5bc8e92122bc5f98c95990bca7" target="_top" xlink:title=" ">
<polygon fill="none" stroke="black" points="156,-0.5 156,-30.5 293,-30.5 293,-0.5 156,-0.5"/>
<text text-anchor="start" x="164" y="-18.5" font-family="Helvetica,sans-Serif" font-size="10.00">Communication::HTTP</text>
<text text-anchor="middle" x="224.5" y="-7.5" font-family="Helvetica,sans-Serif" font-size="10.00">_client::open_connection</text>
</a>
</g>
</g>
<!-- Node1&#45;&gt;Node4 -->
<g id="edge3" class="edge">
<title>Node1&#45;&gt;Node4</title>
<path fill="none" stroke="midnightblue" d="M120.13,-29.5C128.47,-28.36 137.16,-27.19 145.79,-26.02"/>
<polygon fill="midnightblue" stroke="midnightblue" points="146.44,-29.46 155.88,-24.65 145.5,-22.53 146.44,-29.46"/>
</g>
<!-- Node3 -->
<g id="node3" class="node">
<title>Node3</title>
<g id="a_node3"><a xlink:href="../../d2/d52/namespace_e_s_c.html#a1ab0660788056c78944278261498664a" target="_top" xlink:title=" ">
<polygon fill="none" stroke="black" points="353,-50 353,-69 433,-69 433,-50 353,-50"/>
<text text-anchor="middle" x="393" y="-57" font-family="Helvetica,sans-Serif" font-size="10.00">ESC::get_pos</text>
</a>
</g>
</g>
<!-- Node2&#45;&gt;Node3 -->
<g id="edge2" class="edge">
<title>Node2&#45;&gt;Node3</title>
<path fill="none" stroke="midnightblue" d="M267.51,-59.5C290.34,-59.5 318.7,-59.5 342.58,-59.5"/>
<polygon fill="midnightblue" stroke="midnightblue" points="342.86,-63 352.86,-59.5 342.86,-56 342.86,-63"/>
</g>
<!-- Node5 -->
<g id="node5" class="node">
<title>Node5</title>
<g id="a_node5"><a xlink:href="../../df/dcd/class_communication_1_1_client.html#a66336ae23ea502a9395010407a952664" target="_top" xlink:title="open_connection Open the connection the serial or network or interface">
<polygon fill="none" stroke="black" points="329,-0.5 329,-30.5 457,-30.5 457,-0.5 329,-0.5"/>
<text text-anchor="start" x="337" y="-18.5" font-family="Helvetica,sans-Serif" font-size="10.00">Communication::Client</text>
<text text-anchor="middle" x="393" y="-7.5" font-family="Helvetica,sans-Serif" font-size="10.00">::open_connection</text>
</a>
</g>
</g>
<!-- Node4&#45;&gt;Node5 -->
<g id="edge4" class="edge">
<title>Node4&#45;&gt;Node5</title>
<path fill="none" stroke="midnightblue" d="M293.22,-15.5C301.61,-15.5 310.21,-15.5 318.67,-15.5"/>
<polygon fill="midnightblue" stroke="midnightblue" points="318.91,-19 328.91,-15.5 318.91,-12 318.91,-19"/>
</g>
</g>
</svg>
