<?xml version="1.0" encoding="UTF-8" standalone="no"?>
<!DOCTYPE svg PUBLIC "-//W3C//DTD SVG 1.1//EN"
 "http://www.w3.org/Graphics/SVG/1.1/DTD/svg11.dtd">
<!-- Generated by graphviz version 2.43.0 (0)
 -->
<!-- Title: Communication::Server Pages: 1 -->
<svg width="214pt" height="152pt"
 viewBox="0.00 0.00 213.50 152.00" xmlns="http://www.w3.org/2000/svg" xmlns:xlink="http://www.w3.org/1999/xlink">
<g id="graph0" class="graph" transform="scale(1 1) rotate(0) translate(4 148)">
<title>Communication::Server</title>
<!-- Node1 -->
<g id="node1" class="node">
<title>Node1</title>
<g id="a_node1"><a xlink:title=" ">
<polygon fill="#bfbfbf" stroke="black" points="0,-0.5 0,-19.5 131,-19.5 131,-0.5 0,-0.5"/>
<text text-anchor="middle" x="65.5" y="-7.5" font-family="Helvetica,sans-Serif" font-size="10.00">Communication::Server</text>
</a>
</g>
</g>
<!-- Node2 -->
<g id="node2" class="node">
<title>Node2</title>
<g id="a_node2"><a xlink:href="../../dc/d44/class_e_s_c_1_1_c_l_i.html" target="_top" xlink:title=" ">
<polygon fill="none" stroke="black" points="33.5,-124.5 33.5,-143.5 89.5,-143.5 89.5,-124.5 33.5,-124.5"/>
<text text-anchor="middle" x="61.5" y="-131.5" font-family="Helvetica,sans-Serif" font-size="10.00">ESC::CLI</text>
</a>
</g>
</g>
<!-- Node2&#45;&gt;Node1 -->
<g id="edge1" class="edge">
<title>Node2&#45;&gt;Node1</title>
<path fill="none" stroke="midnightblue" d="M62.12,-114.19C63,-87.4 64.57,-39.31 65.21,-19.69"/>
<polygon fill="midnightblue" stroke="midnightblue" points="58.62,-114.12 61.79,-124.23 65.61,-114.35 58.62,-114.12"/>
</g>
<!-- Node3 -->
<g id="node3" class="node">
<title>Node3</title>
<g id="a_node3"><a xlink:href="../../df/dcd/class_communication_1_1_client.html" target="_top" xlink:title="Communication client class.">
<polygon fill="none" stroke="black" points="77.5,-67.5 77.5,-86.5 205.5,-86.5 205.5,-67.5 77.5,-67.5"/>
<text text-anchor="middle" x="141.5" y="-74.5" font-family="Helvetica,sans-Serif" font-size="10.00">Communication::Client</text>
</a>
</g>
</g>
<!-- Node2&#45;&gt;Node3 -->
<g id="edge3" class="edge">
<title>Node2&#45;&gt;Node3</title>
<path fill="none" stroke="midnightblue" d="M82.54,-118.54C97.35,-108.35 116.67,-95.07 129.09,-86.53"/>
<polygon fill="midnightblue" stroke="midnightblue" points="80.26,-115.86 74,-124.41 84.22,-121.63 80.26,-115.86"/>
</g>
<!-- Node3&#45;&gt;Node1 -->
<g id="edge2" class="edge">
<title>Node3&#45;&gt;Node1</title>
<path fill="none" stroke="#9a32cd" stroke-dasharray="5,2" d="M123.63,-60.71C108.65,-47.91 87.82,-30.09 75.59,-19.63"/>
<polygon fill="#9a32cd" stroke="#9a32cd" points="121.38,-63.39 131.25,-67.23 125.93,-58.07 121.38,-63.39"/>
<text text-anchor="middle" x="130.5" y="-41" font-family="Helvetica,sans-Serif" font-size="10.00"> m_client</text>
</g>
</g>
</svg>
